<?xml version="1.0" encoding="UTF-8" standalone="no"?>
<!DOCTYPE svg PUBLIC "-//W3C//DTD SVG 1.1//EN"
 "http://www.w3.org/Graphics/SVG/1.1/DTD/svg11.dtd">
<!-- Generated by graphviz version 2.49.3 (20211027.1534)
 -->
<!-- Title: iop/dvrp Pages: 1 -->
<!--zoomable 247 -->
<svg id="main" version="1.1" xmlns="http://www.w3.org/2000/svg" xmlns:xlink="http://www.w3.org/1999/xlink" xml:space="preserve" onload="init(evt)">
<style type="text/css"><![CDATA[
.edge:hover path { stroke: red; }
.edge:hover polygon { stroke: red; fill: red; }
]]></style>
<script type="text/javascript"><![CDATA[
var edges = document.getElementsByTagName('g');
if (edges && edges.length) {
  for (var i=0;i<edges.length;i++) {
    if (edges[i].id.substr(0,4)=='edge') {
      edges[i].setAttribute('class','edge');
    }
  }
}
]]></script>
        <defs>
                <circle id="rim" cx="0" cy="0" r="7"/>
                <circle id="rim2" cx="0" cy="0" r="3.5"/>
                <g id="zoomPlus">
                        <use xlink:href="#rim" fill="#404040">
                                <set attributeName="fill" to="#808080" begin="zoomplus.mouseover" end="zoomplus.mouseout"/>
                        </use>
                        <path d="M-4,0h8M0,-4v8" fill="none" stroke="white" stroke-width="1.5" pointer-events="none"/>
                </g>
                <g id="zoomMin">
                        <use xlink:href="#rim" fill="#404040">
                                <set attributeName="fill" to="#808080" begin="zoomminus.mouseover" end="zoomminus.mouseout"/>
                        </use>
                        <path d="M-4,0h8" fill="none" stroke="white" stroke-width="1.5" pointer-events="none"/>
                </g>
                <g id="dirArrow">
                        <path fill="none" stroke="white" stroke-width="1.5" d="M0,-3.0v7 M-2.5,-0.5L0,-3.0L2.5,-0.5"/>
                </g>
               <g id="resetDef">
                       <use xlink:href="#rim2" fill="#404040">
                               <set attributeName="fill" to="#808080" begin="reset.mouseover" end="reset.mouseout"/>
                       </use>
               </g>
        </defs>

<script type="text/javascript">
var viewWidth = 596;
var viewHeight = 247;
var sectionId = 'dynsection-0';
</script>
<script xlink:href="svgpan.js"/>
<svg id="graph" class="graph">
<g id="viewport">
<title>iop/dvrp</title>
<polygon fill="white" stroke="transparent" points="-4,4 -4,-243 592,-243 592,4 -4,4"/>
<g id="clust1" class="cluster">
<title>clusterdir_0981ace215aa2029f526b70c145b9fbe</title>
<g id="a_clust1"><a xlink:href="dir_0981ace215aa2029f526b70c145b9fbe.html" target="_top" xlink:title="iop">
<polygon fill="#ddddee" stroke="black" points="8,-8 8,-231 526,-231 526,-8 8,-8"/>
<text text-anchor="middle" x="267" y="-219" font-family="Helvetica,sans-Serif" font-size="10.00">iop</text>
</a>
</g>
</g>
<g id="clust2" class="cluster">
<title>clusterdir_a16ad4cba4b1f15056f2b7b0b5931815</title>
<g id="a_clust2"><a xlink:href="dir_a16ad4cba4b1f15056f2b7b0b5931815.html" target="_top">
<polygon fill="#eeeeff" stroke="black" points="16,-152 16,-204 518,-204 518,-152 16,-152"/>
</a>
</g>
</g>
<!-- dir_9be0baa3d4a3e9f480a9ee70594037fa -->
<g id="node1" class="node">
<title>dir_9be0baa3d4a3e9f480a9ee70594037fa</title>
<g id="a_node1"><a xlink:href="dir_9be0baa3d4a3e9f480a9ee70594037fa.html" target="_top" xlink:title="kernel">
<polygon fill="white" stroke="red" points="298,-52 244,-52 244,-16 298,-16 298,-52"/>
<text text-anchor="middle" x="271" y="-31.5" font-family="Helvetica,sans-Serif" font-size="10.00">kernel</text>
</a>
</g>
</g>
<!-- dir_bdd9a5d540de89e9fe90efdfc6973a4f -->
<g id="node10" class="node">
<title>dir_bdd9a5d540de89e9fe90efdfc6973a4f</title>
<g id="a_node10"><a xlink:href="dir_bdd9a5d540de89e9fe90efdfc6973a4f.html" target="_top" xlink:title="common">
<polygon fill="white" stroke="red" points="588,-52 534,-52 534,-16 588,-16 588,-52"/>
<text text-anchor="middle" x="561" y="-31.5" font-family="Helvetica,sans-Serif" font-size="10.00">common</text>
</a>
</g>
</g>
<!-- dir_9be0baa3d4a3e9f480a9ee70594037fa&#45;&gt;dir_bdd9a5d540de89e9fe90efdfc6973a4f -->
<g id="edge15" class="edge">
<title>dir_9be0baa3d4a3e9f480a9ee70594037fa&#45;&gt;dir_bdd9a5d540de89e9fe90efdfc6973a4f</title>
<path fill="none" stroke="black" d="M298.19,-34C373.35,-34 448.51,-34 523.67,-34"/>
<polygon fill="black" stroke="black" points="523.79,-37.5 533.79,-34 523.79,-30.5 523.79,-37.5"/>
<g id="a_edge15&#45;headlabel"><a xlink:href="dir_000229_000000.html" target="_top" xlink:title="12">
<text text-anchor="middle" x="520.2" y="-37.84" font-family="Helvetica,sans-Serif" font-size="10.00">12</text>
</a>
</g>
</g>
<!-- dir_6f16cad81de2453a6f48c5e272ba4a18 -->
<g id="node2" class="node">
<title>dir_6f16cad81de2453a6f48c5e272ba4a18</title>
<g id="a_node2"><a xlink:href="dir_6f16cad81de2453a6f48c5e272ba4a18.html" target="_top" xlink:title="dev9">
<polygon fill="white" stroke="red" points="275,-124 221,-124 221,-88 275,-88 275,-124"/>
<text text-anchor="middle" x="248" y="-103.5" font-family="Helvetica,sans-Serif" font-size="10.00">dev9</text>
</a>
</g>
</g>
<!-- dir_6f16cad81de2453a6f48c5e272ba4a18&#45;&gt;dir_9be0baa3d4a3e9f480a9ee70594037fa -->
<g id="edge7" class="edge">
<title>dir_6f16cad81de2453a6f48c5e272ba4a18&#45;&gt;dir_9be0baa3d4a3e9f480a9ee70594037fa</title>
<path fill="none" stroke="black" d="M253.69,-87.7C256.25,-79.9 259.33,-70.51 262.18,-61.83"/>
<polygon fill="black" stroke="black" points="265.58,-62.7 265.38,-52.1 258.93,-60.51 265.58,-62.7"/>
<g id="a_edge7&#45;headlabel"><a xlink:href="dir_000024_000229.html" target="_top" xlink:title="97">
<text text-anchor="middle" x="267.16" y="-64.5" font-family="Helvetica,sans-Serif" font-size="10.00">97</text>
</a>
</g>
</g>
<!-- dir_6f16cad81de2453a6f48c5e272ba4a18&#45;&gt;dir_bdd9a5d540de89e9fe90efdfc6973a4f -->
<g id="edge8" class="edge">
<title>dir_6f16cad81de2453a6f48c5e272ba4a18&#45;&gt;dir_bdd9a5d540de89e9fe90efdfc6973a4f</title>
<path fill="none" stroke="black" d="M275.22,-100.39C335.67,-90.08 479.08,-65.24 524.08,-53.41"/>
<polygon fill="black" stroke="black" points="525.25,-56.71 533.83,-50.5 523.25,-50 525.25,-56.71"/>
<g id="a_edge8&#45;headlabel"><a xlink:href="dir_000024_000000.html" target="_top" xlink:title="13">
<text text-anchor="middle" x="522.61" y="-57.96" font-family="Helvetica,sans-Serif" font-size="10.00">13</text>
</a>
</g>
</g>
<!-- dir_a16ad4cba4b1f15056f2b7b0b5931815 -->
<g id="node3" class="node">
<title>dir_a16ad4cba4b1f15056f2b7b0b5931815</title>
<text text-anchor="middle" x="483" y="-175.5" font-family="Helvetica,sans-Serif" font-size="10.00">dvrp</text>
</g>
<!-- dir_8d816be76444126f1148a76612486d4b -->
<g id="node4" class="node">
<title>dir_8d816be76444126f1148a76612486d4b</title>
<g id="a_node4"><a xlink:href="dir_8d816be76444126f1148a76612486d4b.html" target="_top" xlink:title="dvr">
<polygon fill="white" stroke="red" points="78,-196 24,-196 24,-160 78,-160 78,-196"/>
<text text-anchor="middle" x="51" y="-175.5" font-family="Helvetica,sans-Serif" font-size="10.00">dvr</text>
</a>
</g>
</g>
<!-- dir_8d816be76444126f1148a76612486d4b&#45;&gt;dir_9be0baa3d4a3e9f480a9ee70594037fa -->
<g id="edge9" class="edge">
<title>dir_8d816be76444126f1148a76612486d4b&#45;&gt;dir_9be0baa3d4a3e9f480a9ee70594037fa</title>
<path fill="none" stroke="black" d="M69.24,-159.79C90.09,-140.69 125.75,-109.72 160,-88 183.57,-73.06 211.99,-59.56 234.18,-49.93"/>
<polygon fill="black" stroke="black" points="235.76,-53.06 243.58,-45.91 233.01,-46.62 235.76,-53.06"/>
<g id="a_edge9&#45;headlabel"><a xlink:href="dir_000038_000229.html" target="_top" xlink:title="11">
<text text-anchor="middle" x="233.57" y="-54.58" font-family="Helvetica,sans-Serif" font-size="10.00">11</text>
</a>
</g>
</g>
<!-- dir_8d816be76444126f1148a76612486d4b&#45;&gt;dir_6f16cad81de2453a6f48c5e272ba4a18 -->
<g id="edge10" class="edge">
<title>dir_8d816be76444126f1148a76612486d4b&#45;&gt;dir_6f16cad81de2453a6f48c5e272ba4a18</title>
<path fill="none" stroke="black" d="M73.15,-159.92C77.58,-157 82.32,-154.2 87,-152 127.46,-132.96 177.53,-120.54 210.99,-113.67"/>
<polygon fill="black" stroke="black" points="211.69,-117.1 220.81,-111.71 210.32,-110.23 211.69,-117.1"/>
<g id="a_edge10&#45;headlabel"><a xlink:href="dir_000038_000024.html" target="_top" xlink:title="2">
<text text-anchor="middle" x="208.72" y="-118.08" font-family="Helvetica,sans-Serif" font-size="10.00">2</text>
</a>
</g>
</g>
<!-- dir_8d816be76444126f1148a76612486d4b&#45;&gt;dir_bdd9a5d540de89e9fe90efdfc6973a4f -->
<g id="edge11" class="edge">
<title>dir_8d816be76444126f1148a76612486d4b&#45;&gt;dir_bdd9a5d540de89e9fe90efdfc6973a4f</title>
<path fill="none" stroke="black" d="M72.1,-159.77C76.77,-156.72 81.86,-153.91 87,-152 199.69,-110.18 250.9,-182.34 356,-124 373.72,-114.16 367,-99.04 384,-88 437.32,-53.39 464.96,-74.01 524.39,-53.85"/>
<polygon fill="black" stroke="black" points="525.61,-57.14 533.8,-50.42 523.21,-50.56 525.61,-57.14"/>
<g id="a_edge11&#45;headlabel"><a xlink:href="dir_000038_000000.html" target="_top" xlink:title="2">
<text text-anchor="middle" x="523.21" y="-58.54" font-family="Helvetica,sans-Serif" font-size="10.00">2</text>
</a>
</g>
</g>
<!-- dir_f7741f78ef7687a58b2e9b3b36050a7e -->
<g id="node5" class="node">
<title>dir_f7741f78ef7687a58b2e9b3b36050a7e</title>
<g id="a_node5"><a xlink:href="dir_f7741f78ef7687a58b2e9b3b36050a7e.html" target="_top" xlink:title="dvrav">
<polygon fill="white" stroke="red" points="438,-196 384,-196 384,-160 438,-160 438,-196"/>
<text text-anchor="middle" x="411" y="-175.5" font-family="Helvetica,sans-Serif" font-size="10.00">dvrav</text>
</a>
</g>
</g>
<!-- dir_f7741f78ef7687a58b2e9b3b36050a7e&#45;&gt;dir_9be0baa3d4a3e9f480a9ee70594037fa -->
<g id="edge20" class="edge">
<title>dir_f7741f78ef7687a58b2e9b3b36050a7e&#45;&gt;dir_9be0baa3d4a3e9f480a9ee70594037fa</title>
<path fill="none" stroke="black" d="M394.11,-159.87C369.41,-134.82 323.3,-88.05 295.06,-59.41"/>
<polygon fill="black" stroke="black" points="297.46,-56.85 287.95,-52.19 292.48,-61.77 297.46,-56.85"/>
<g id="a_edge20&#45;headlabel"><a xlink:href="dir_000040_000229.html" target="_top" xlink:title="10">
<text text-anchor="middle" x="302.01" y="-54.92" font-family="Helvetica,sans-Serif" font-size="10.00">10</text>
</a>
</g>
</g>
<!-- dir_f7741f78ef7687a58b2e9b3b36050a7e&#45;&gt;dir_6f16cad81de2453a6f48c5e272ba4a18 -->
<g id="edge21" class="edge">
<title>dir_f7741f78ef7687a58b2e9b3b36050a7e&#45;&gt;dir_6f16cad81de2453a6f48c5e272ba4a18</title>
<path fill="none" stroke="black" d="M388.33,-159.91C384.03,-157.06 379.47,-154.29 375,-152 345.97,-137.11 310.87,-125.09 284.93,-117.23"/>
<polygon fill="black" stroke="black" points="285.71,-113.81 275.13,-114.32 283.72,-120.52 285.71,-113.81"/>
<g id="a_edge21&#45;headlabel"><a xlink:href="dir_000040_000024.html" target="_top" xlink:title="2">
<text text-anchor="middle" x="289.96" y="-109.61" font-family="Helvetica,sans-Serif" font-size="10.00">2</text>
</a>
</g>
</g>
<!-- dir_f7741f78ef7687a58b2e9b3b36050a7e&#45;&gt;dir_bdd9a5d540de89e9fe90efdfc6973a4f -->
<g id="edge22" class="edge">
<title>dir_f7741f78ef7687a58b2e9b3b36050a7e&#45;&gt;dir_bdd9a5d540de89e9fe90efdfc6973a4f</title>
<path fill="none" stroke="black" d="M433.6,-159.78C437.91,-156.94 442.49,-154.21 447,-152 484.23,-133.74 507.14,-153.77 536,-124 551.93,-107.57 557.87,-81.83 560.01,-62.25"/>
<polygon fill="black" stroke="black" points="563.51,-62.36 560.84,-52.1 556.53,-61.78 563.51,-62.36"/>
<g id="a_edge22&#45;headlabel"><a xlink:href="dir_000040_000000.html" target="_top" xlink:title="2">
<text text-anchor="middle" x="566.04" y="-63.67" font-family="Helvetica,sans-Serif" font-size="10.00">2</text>
</a>
</g>
</g>
<!-- dir_afbf9061e6cd2939a0cc5b3ca7d5328d -->
<g id="node6" class="node">
<title>dir_afbf9061e6cd2939a0cc5b3ca7d5328d</title>
<g id="a_node6"><a xlink:href="dir_afbf9061e6cd2939a0cc5b3ca7d5328d.html" target="_top" xlink:title="dvrdv">
<polygon fill="white" stroke="red" points="366,-196 312,-196 312,-160 366,-160 366,-196"/>
<text text-anchor="middle" x="339" y="-175.5" font-family="Helvetica,sans-Serif" font-size="10.00">dvrdv</text>
</a>
</g>
</g>
<!-- dir_afbf9061e6cd2939a0cc5b3ca7d5328d&#45;&gt;dir_9be0baa3d4a3e9f480a9ee70594037fa -->
<g id="edge16" class="edge">
<title>dir_afbf9061e6cd2939a0cc5b3ca7d5328d&#45;&gt;dir_9be0baa3d4a3e9f480a9ee70594037fa</title>
<path fill="none" stroke="black" d="M330.8,-159.87C319.06,-135.35 297.35,-90.03 283.57,-61.26"/>
<polygon fill="black" stroke="black" points="286.71,-59.7 279.23,-52.19 280.39,-62.72 286.71,-59.7"/>
<g id="a_edge16&#45;headlabel"><a xlink:href="dir_000042_000229.html" target="_top" xlink:title="9">
<text text-anchor="middle" x="290.82" y="-59.21" font-family="Helvetica,sans-Serif" font-size="10.00">9</text>
</a>
</g>
</g>
<!-- dir_afbf9061e6cd2939a0cc5b3ca7d5328d&#45;&gt;dir_6f16cad81de2453a6f48c5e272ba4a18 -->
<g id="edge17" class="edge">
<title>dir_afbf9061e6cd2939a0cc5b3ca7d5328d&#45;&gt;dir_6f16cad81de2453a6f48c5e272ba4a18</title>
<path fill="none" stroke="black" d="M316.51,-159.7C305.04,-150.88 290.94,-140.03 278.52,-130.47"/>
<polygon fill="black" stroke="black" points="280.3,-127.43 270.24,-124.1 276.03,-132.98 280.3,-127.43"/>
<g id="a_edge17&#45;headlabel"><a xlink:href="dir_000042_000024.html" target="_top" xlink:title="2">
<text text-anchor="middle" x="284.88" y="-124.87" font-family="Helvetica,sans-Serif" font-size="10.00">2</text>
</a>
</g>
</g>
<!-- dir_afbf9061e6cd2939a0cc5b3ca7d5328d&#45;&gt;dir_bdd9a5d540de89e9fe90efdfc6973a4f -->
<g id="edge18" class="edge">
<title>dir_afbf9061e6cd2939a0cc5b3ca7d5328d&#45;&gt;dir_bdd9a5d540de89e9fe90efdfc6973a4f</title>
<path fill="none" stroke="black" d="M360.68,-159.99C365.23,-156.99 370.13,-154.15 375,-152 426.3,-129.37 451.39,-155.16 498,-124 521.1,-108.56 538.42,-81.57 548.99,-61.35"/>
<polygon fill="black" stroke="black" points="552.16,-62.84 553.51,-52.33 545.9,-59.71 552.16,-62.84"/>
<g id="a_edge18&#45;headlabel"><a xlink:href="dir_000042_000000.html" target="_top" xlink:title="2">
<text text-anchor="middle" x="553.09" y="-64.82" font-family="Helvetica,sans-Serif" font-size="10.00">2</text>
</a>
</g>
</g>
<!-- dir_90fe12cfe0c184e93ce162881a1343e2 -->
<g id="node7" class="node">
<title>dir_90fe12cfe0c184e93ce162881a1343e2</title>
<g id="a_node7"><a xlink:href="dir_90fe12cfe0c184e93ce162881a1343e2.html" target="_top" xlink:title="dvrfile">
<polygon fill="white" stroke="red" points="294,-196 240,-196 240,-160 294,-160 294,-196"/>
<text text-anchor="middle" x="267" y="-175.5" font-family="Helvetica,sans-Serif" font-size="10.00">dvrfile</text>
</a>
</g>
</g>
<!-- dir_90fe12cfe0c184e93ce162881a1343e2&#45;&gt;dir_9be0baa3d4a3e9f480a9ee70594037fa -->
<g id="edge12" class="edge">
<title>dir_90fe12cfe0c184e93ce162881a1343e2&#45;&gt;dir_9be0baa3d4a3e9f480a9ee70594037fa</title>
<path fill="none" stroke="black" d="M274.07,-159.67C277.84,-149.47 282.09,-136.22 284,-124 287.24,-103.3 283.51,-79.86 279.23,-62.23"/>
<polygon fill="black" stroke="black" points="282.49,-60.85 276.55,-52.08 275.72,-62.64 282.49,-60.85"/>
<g id="a_edge12&#45;headlabel"><a xlink:href="dir_000044_000229.html" target="_top" xlink:title="11">
<text text-anchor="middle" x="286.15" y="-61.1" font-family="Helvetica,sans-Serif" font-size="10.00">11</text>
</a>
</g>
</g>
<!-- dir_90fe12cfe0c184e93ce162881a1343e2&#45;&gt;dir_6f16cad81de2453a6f48c5e272ba4a18 -->
<g id="edge13" class="edge">
<title>dir_90fe12cfe0c184e93ce162881a1343e2&#45;&gt;dir_6f16cad81de2453a6f48c5e272ba4a18</title>
<path fill="none" stroke="black" d="M262.3,-159.7C260.19,-151.9 257.64,-142.51 255.28,-133.83"/>
<polygon fill="black" stroke="black" points="258.64,-132.84 252.64,-124.1 251.88,-134.67 258.64,-132.84"/>
<g id="a_edge13&#45;headlabel"><a xlink:href="dir_000044_000024.html" target="_top" xlink:title="2">
<text text-anchor="middle" x="262.32" y="-133.06" font-family="Helvetica,sans-Serif" font-size="10.00">2</text>
</a>
</g>
</g>
<!-- dir_90fe12cfe0c184e93ce162881a1343e2&#45;&gt;dir_bdd9a5d540de89e9fe90efdfc6973a4f -->
<g id="edge14" class="edge">
<title>dir_90fe12cfe0c184e93ce162881a1343e2&#45;&gt;dir_bdd9a5d540de89e9fe90efdfc6973a4f</title>
<path fill="none" stroke="black" d="M288.6,-159.81C293.15,-156.82 298.08,-154.03 303,-152 368.51,-124.94 396.72,-155.94 460,-124 480.77,-113.52 480.65,-103.5 498,-88 508.96,-78.21 521.28,-67.74 532.09,-58.71"/>
<polygon fill="black" stroke="black" points="534.57,-61.2 540.02,-52.12 530.09,-55.82 534.57,-61.2"/>
<g id="a_edge14&#45;headlabel"><a xlink:href="dir_000044_000000.html" target="_top" xlink:title="2">
<text text-anchor="middle" x="533.62" y="-63.19" font-family="Helvetica,sans-Serif" font-size="10.00">2</text>
</a>
</g>
</g>
<!-- dir_55b81c7b0811889843fb7d99073d4918 -->
<g id="node8" class="node">
<title>dir_55b81c7b0811889843fb7d99073d4918</title>
<g id="a_node8"><a xlink:href="dir_55b81c7b0811889843fb7d99073d4918.html" target="_top" xlink:title="dvripl">
<polygon fill="white" stroke="red" points="222,-196 168,-196 168,-160 222,-160 222,-196"/>
<text text-anchor="middle" x="195" y="-175.5" font-family="Helvetica,sans-Serif" font-size="10.00">dvripl</text>
</a>
</g>
</g>
<!-- dir_55b81c7b0811889843fb7d99073d4918&#45;&gt;dir_9be0baa3d4a3e9f480a9ee70594037fa -->
<g id="edge4" class="edge">
<title>dir_55b81c7b0811889843fb7d99073d4918&#45;&gt;dir_9be0baa3d4a3e9f480a9ee70594037fa</title>
<path fill="none" stroke="black" d="M195.08,-159.83C195.87,-141.04 199.24,-110.6 212,-88 218.29,-76.85 227.79,-66.81 237.35,-58.54"/>
<polygon fill="black" stroke="black" points="239.79,-61.07 245.31,-52.03 235.36,-55.65 239.79,-61.07"/>
<g id="a_edge4&#45;headlabel"><a xlink:href="dir_000046_000229.html" target="_top" xlink:title="13">
<text text-anchor="middle" x="238.8" y="-63.04" font-family="Helvetica,sans-Serif" font-size="10.00">13</text>
</a>
</g>
</g>
<!-- dir_55b81c7b0811889843fb7d99073d4918&#45;&gt;dir_6f16cad81de2453a6f48c5e272ba4a18 -->
<g id="edge5" class="edge">
<title>dir_55b81c7b0811889843fb7d99073d4918&#45;&gt;dir_6f16cad81de2453a6f48c5e272ba4a18</title>
<path fill="none" stroke="black" d="M208.1,-159.7C214.39,-151.39 222.05,-141.28 228.96,-132.14"/>
<polygon fill="black" stroke="black" points="231.8,-134.19 235.05,-124.1 226.22,-129.96 231.8,-134.19"/>
<g id="a_edge5&#45;headlabel"><a xlink:href="dir_000046_000024.html" target="_top" xlink:title="2">
<text text-anchor="middle" x="231.9" y="-136.27" font-family="Helvetica,sans-Serif" font-size="10.00">2</text>
</a>
</g>
</g>
<!-- dir_55b81c7b0811889843fb7d99073d4918&#45;&gt;dir_bdd9a5d540de89e9fe90efdfc6973a4f -->
<g id="edge6" class="edge">
<title>dir_55b81c7b0811889843fb7d99073d4918&#45;&gt;dir_bdd9a5d540de89e9fe90efdfc6973a4f</title>
<path fill="none" stroke="black" d="M216.16,-159.94C220.83,-156.87 225.9,-154.01 231,-152 310.79,-120.47 344.82,-161.47 422,-124 442.93,-113.84 441.02,-101.45 460,-88 485.86,-69.66 496.97,-68.47 524.77,-54.62"/>
<polygon fill="black" stroke="black" points="526.69,-57.57 533.97,-49.88 523.48,-51.35 526.69,-57.57"/>
<g id="a_edge6&#45;headlabel"><a xlink:href="dir_000046_000000.html" target="_top" xlink:title="2">
<text text-anchor="middle" x="524.79" y="-59.24" font-family="Helvetica,sans-Serif" font-size="10.00">2</text>
</a>
</g>
</g>
<!-- dir_14f5f0f9fe610eb1d19d953c1b59d5ca -->
<g id="node9" class="node">
<title>dir_14f5f0f9fe610eb1d19d953c1b59d5ca</title>
<g id="a_node9"><a xlink:href="dir_14f5f0f9fe610eb1d19d953c1b59d5ca.html" target="_top" xlink:title="dvrmisc">
<polygon fill="white" stroke="red" points="150,-196 96,-196 96,-160 150,-160 150,-196"/>
<text text-anchor="middle" x="123" y="-175.5" font-family="Helvetica,sans-Serif" font-size="10.00">dvrmisc</text>
</a>
</g>
</g>
<!-- dir_14f5f0f9fe610eb1d19d953c1b59d5ca&#45;&gt;dir_9be0baa3d4a3e9f480a9ee70594037fa -->
<g id="edge1" class="edge">
<title>dir_14f5f0f9fe610eb1d19d953c1b59d5ca&#45;&gt;dir_9be0baa3d4a3e9f480a9ee70594037fa</title>
<path fill="none" stroke="black" d="M134.96,-159.77C148.51,-140.94 171.86,-110.46 196,-88 208.06,-76.77 222.61,-65.97 235.67,-57.08"/>
<polygon fill="black" stroke="black" points="237.62,-59.99 244,-51.53 233.74,-54.17 237.62,-59.99"/>
<g id="a_edge1&#45;headlabel"><a xlink:href="dir_000048_000229.html" target="_top" xlink:title="11">
<text text-anchor="middle" x="236.2" y="-61.85" font-family="Helvetica,sans-Serif" font-size="10.00">11</text>
</a>
</g>
</g>
<!-- dir_14f5f0f9fe610eb1d19d953c1b59d5ca&#45;&gt;dir_6f16cad81de2453a6f48c5e272ba4a18 -->
<g id="edge2" class="edge">
<title>dir_14f5f0f9fe610eb1d19d953c1b59d5ca&#45;&gt;dir_6f16cad81de2453a6f48c5e272ba4a18</title>
<path fill="none" stroke="black" d="M146.71,-159.85C150.75,-157.13 154.95,-154.42 159,-152 175.91,-141.92 195.35,-131.92 211.74,-123.91"/>
<polygon fill="black" stroke="black" points="213.51,-126.94 221,-119.45 210.47,-120.64 213.51,-126.94"/>
<g id="a_edge2&#45;headlabel"><a xlink:href="dir_000048_000024.html" target="_top" xlink:title="2">
<text text-anchor="middle" x="211.51" y="-128.56" font-family="Helvetica,sans-Serif" font-size="10.00">2</text>
</a>
</g>
</g>
<!-- dir_14f5f0f9fe610eb1d19d953c1b59d5ca&#45;&gt;dir_bdd9a5d540de89e9fe90efdfc6973a4f -->
<g id="edge3" class="edge">
<title>dir_14f5f0f9fe610eb1d19d953c1b59d5ca&#45;&gt;dir_bdd9a5d540de89e9fe90efdfc6973a4f</title>
<path fill="none" stroke="black" d="M144.13,-159.85C148.8,-156.79 153.88,-153.96 159,-152 253.12,-115.99 292.87,-167.02 384,-124 405.04,-114.07 402.05,-99.96 422,-88 462.6,-63.66 481.18,-71.07 524.44,-54.15"/>
<polygon fill="black" stroke="black" points="525.85,-57.36 533.75,-50.29 523.17,-50.89 525.85,-57.36"/>
<g id="a_edge3&#45;headlabel"><a xlink:href="dir_000048_000000.html" target="_top" xlink:title="2">
<text text-anchor="middle" x="523.62" y="-58.86" font-family="Helvetica,sans-Serif" font-size="10.00">2</text>
</a>
</g>
</g>
<!-- dir_bdd9a5d540de89e9fe90efdfc6973a4f&#45;&gt;dir_9be0baa3d4a3e9f480a9ee70594037fa -->
<g id="edge19" class="edge">
<title>dir_bdd9a5d540de89e9fe90efdfc6973a4f&#45;&gt;dir_9be0baa3d4a3e9f480a9ee70594037fa</title>
<path fill="none" stroke="black" d="M533.79,-34C458.63,-34 383.47,-34 308.31,-34"/>
<polygon fill="black" stroke="black" points="308.19,-30.5 298.19,-34 308.19,-37.5 308.19,-30.5"/>
<g id="a_edge19&#45;headlabel"><a xlink:href="dir_000000_000229.html" target="_top" xlink:title="20">
<text text-anchor="middle" x="311.78" y="-25.16" font-family="Helvetica,sans-Serif" font-size="10.00">20</text>
</a>
</g>
</g>
</g>
</svg>
        <g id="navigator" transform="translate(0 0)" fill="#404254">
                <rect fill="#f2f5e9" fill-opacity="0.5" stroke="#606060" stroke-width=".5" x="0" y="0" width="60" height="60"/>
                <use id="zoomplus" xlink:href="#zoomPlus" x="17" y="9" onmousedown="handleZoom(evt,'in')"/>
                <use id="zoomminus" xlink:href="#zoomMin" x="42" y="9" onmousedown="handleZoom(evt,'out')"/>
                <use id="reset" xlink:href="#resetDef" x="30" y="36" onmousedown="handleReset()"/>
                <g id="arrowUp" xlink:href="#dirArrow" transform="translate(30 24)" onmousedown="handlePan(0,-1)">
                  <use xlink:href="#rim" fill="#404040">
                        <set attributeName="fill" to="#808080" begin="arrowUp.mouseover" end="arrowUp.mouseout"/>
                  </use>
                  <path fill="none" stroke="white" stroke-width="1.5" d="M0,-3.0v7 M-2.5,-0.5L0,-3.0L2.5,-0.5"/>
                </g>
                <g id="arrowRight" xlink:href="#dirArrow" transform="rotate(90) translate(36 -43)" onmousedown="handlePan(1,0)">
                  <use xlink:href="#rim" fill="#404040">
                        <set attributeName="fill" to="#808080" begin="arrowRight.mouseover" end="arrowRight.mouseout"/>
                  </use>
                  <path fill="none" stroke="white" stroke-width="1.5" d="M0,-3.0v7 M-2.5,-0.5L0,-3.0L2.5,-0.5"/>
                </g>
                <g id="arrowDown" xlink:href="#dirArrow" transform="rotate(180) translate(-30 -48)" onmousedown="handlePan(0,1)">
                  <use xlink:href="#rim" fill="#404040">
                        <set attributeName="fill" to="#808080" begin="arrowDown.mouseover" end="arrowDown.mouseout"/>
                  </use>
                  <path fill="none" stroke="white" stroke-width="1.5" d="M0,-3.0v7 M-2.5,-0.5L0,-3.0L2.5,-0.5"/>
                </g>
                <g id="arrowLeft" xlink:href="#dirArrow" transform="rotate(270) translate(-36 17)" onmousedown="handlePan(-1,0)">
                  <use xlink:href="#rim" fill="#404040">
                        <set attributeName="fill" to="#808080" begin="arrowLeft.mouseover" end="arrowLeft.mouseout"/>
                  </use>
                  <path fill="none" stroke="white" stroke-width="1.5" d="M0,-3.0v7 M-2.5,-0.5L0,-3.0L2.5,-0.5"/>
                </g>
        </g>
        <svg viewBox="0 0 15 15" width="100%" height="30px" preserveAspectRatio="xMaxYMin meet">
         <g id="arrow_out" transform="scale(0.3 0.3)">
          <a xlink:href="dir_a16ad4cba4b1f15056f2b7b0b5931815_dep_org.svg" target="_base">
           <rect id="button" ry="5" rx="5" y="6" x="6" height="38" width="38"
                fill="#f2f5e9" fill-opacity="0.5" stroke="#606060" stroke-width="1.0"/>
           <path id="arrow"
             d="M 11.500037,31.436501 C 11.940474,20.09759 22.043105,11.32322 32.158766,21.979434 L 37.068811,17.246167 C 37.068811,17.246167 37.088388,32 37.088388,32 L 22.160133,31.978069 C 22.160133,31.978069 26.997745,27.140456 26.997745,27.140456 C 18.528582,18.264221 13.291696,25.230495 11.500037,31.436501 z"
             style="fill:#404040;"/>
          </a>
         </g>
        </svg>
</svg>
