<?xml version="1.0" encoding="UTF-8" standalone="no"?>
<!DOCTYPE svg PUBLIC "-//W3C//DTD SVG 1.1//EN"
 "http://www.w3.org/Graphics/SVG/1.1/DTD/svg11.dtd">
<!-- Generated by graphviz version 2.49.3 (20211027.1534)
 -->
<!-- Title: ee/kernel/src Pages: 1 -->
<svg width="507pt" height="303pt"
 viewBox="0.00 0.00 506.52 303.00" xmlns="http://www.w3.org/2000/svg" xmlns:xlink="http://www.w3.org/1999/xlink">
<g id="graph0" class="graph" transform="scale(1 1) rotate(0) translate(4 299)">
<title>ee/kernel/src</title>
<polygon fill="white" stroke="transparent" points="-4,4 -4,-299 502.52,-299 502.52,4 -4,4"/>
<g id="clust1" class="cluster">
<title>clusterdir_694ec83a64f58cbdefbefce65cd1011c</title>
<g id="a_clust1"><a xlink:href="dir_694ec83a64f58cbdefbefce65cd1011c.html" target="_top" xlink:title="kernel">
<polygon fill="#ddddee" stroke="black" points="8,-136 8,-287 310,-287 310,-136 8,-136"/>
<text text-anchor="middle" x="159" y="-275" font-family="Helvetica,sans-Serif" font-size="10.00">kernel</text>
</a>
</g>
</g>
<g id="clust2" class="cluster">
<title>clusterdir_a493926c6e9678712bca5b1e822bb94f</title>
<g id="a_clust2"><a xlink:href="dir_a493926c6e9678712bca5b1e822bb94f.html" target="_top">
<polygon fill="#eeeeff" stroke="black" points="16,-208 16,-260 302,-260 302,-208 16,-208"/>
</a>
</g>
</g>
<!-- dir_8a6a67431f985d69787ebf051412922f -->
<g id="node1" class="node">
<title>dir_8a6a67431f985d69787ebf051412922f</title>
<g id="a_node1"><a xlink:href="dir_8a6a67431f985d69787ebf051412922f.html" target="_top" xlink:title="include">
<polygon fill="none" stroke="black" points="222,-180 168,-180 168,-144 222,-144 222,-180"/>
<text text-anchor="middle" x="195" y="-159.5" font-family="Helvetica,sans-Serif" font-size="10.00">include</text>
</a>
</g>
</g>
<!-- dir_bdd9a5d540de89e9fe90efdfc6973a4f -->
<g id="node8" class="node">
<title>dir_bdd9a5d540de89e9fe90efdfc6973a4f</title>
<g id="a_node8"><a xlink:href="dir_bdd9a5d540de89e9fe90efdfc6973a4f.html" target="_top" xlink:title="common">
<polygon fill="white" stroke="red" points="427,-108 373,-108 373,-72 427,-72 427,-108"/>
<text text-anchor="middle" x="400" y="-87.5" font-family="Helvetica,sans-Serif" font-size="10.00">common</text>
</a>
</g>
</g>
<!-- dir_8a6a67431f985d69787ebf051412922f&#45;&gt;dir_bdd9a5d540de89e9fe90efdfc6973a4f -->
<g id="edge4" class="edge">
<title>dir_8a6a67431f985d69787ebf051412922f&#45;&gt;dir_bdd9a5d540de89e9fe90efdfc6973a4f</title>
<path fill="none" stroke="black" d="M222.39,-149.91C258.68,-136.76 322.45,-114.98 362.98,-101.91"/>
<polygon fill="black" stroke="black" points="364.29,-105.17 372.75,-98.79 362.16,-98.5 364.29,-105.17"/>
<g id="a_edge4&#45;headlabel"><a xlink:href="dir_000228_000000.html" target="_top" xlink:title="7">
<text text-anchor="middle" x="361.73" y="-106.47" font-family="Helvetica,sans-Serif" font-size="10.00">7</text>
</a>
</g>
</g>
<!-- dir_a493926c6e9678712bca5b1e822bb94f -->
<g id="node2" class="node">
<title>dir_a493926c6e9678712bca5b1e822bb94f</title>
<text text-anchor="middle" x="51" y="-231.5" font-family="Helvetica,sans-Serif" font-size="10.00">src</text>
</g>
<!-- dir_a493926c6e9678712bca5b1e822bb94f&#45;&gt;dir_8a6a67431f985d69787ebf051412922f -->
<g id="edge12" class="edge">
<title>dir_a493926c6e9678712bca5b1e822bb94f&#45;&gt;dir_8a6a67431f985d69787ebf051412922f</title>
<path fill="none" stroke="black" d="M74.17,-215.85C78.34,-213.07 82.73,-210.34 87,-208 109.76,-195.54 136.71,-184.31 157.99,-176.18"/>
<polygon fill="black" stroke="black" points="159.5,-179.35 167.63,-172.56 157.04,-172.8 159.5,-179.35"/>
<g id="a_edge12&#45;headlabel"><a xlink:href="dir_000163_000228.html" target="_top" xlink:title="43">
<text text-anchor="middle" x="157.13" y="-180.77" font-family="Helvetica,sans-Serif" font-size="10.00">43</text>
</a>
</g>
</g>
<!-- dir_0981ace215aa2029f526b70c145b9fbe -->
<g id="node6" class="node">
<title>dir_0981ace215aa2029f526b70c145b9fbe</title>
<g id="a_node6"><a xlink:href="dir_0981ace215aa2029f526b70c145b9fbe.html" target="_top" xlink:title="iop">
<polygon fill="white" stroke="red" points="399,-36 345,-36 345,0 399,0 399,-36"/>
<text text-anchor="middle" x="372" y="-15.5" font-family="Helvetica,sans-Serif" font-size="10.00">iop</text>
</a>
</g>
</g>
<!-- dir_a493926c6e9678712bca5b1e822bb94f&#45;&gt;dir_0981ace215aa2029f526b70c145b9fbe -->
<g id="edge11" class="edge">
<title>dir_a493926c6e9678712bca5b1e822bb94f&#45;&gt;dir_0981ace215aa2029f526b70c145b9fbe</title>
<path fill="none" stroke="black" d="M57.67,-215.76C66.67,-194.49 84.56,-158.41 110,-136 177.6,-76.45 280.44,-42.65 334.99,-27.93"/>
<polygon fill="black" stroke="black" points="336.14,-31.25 344.92,-25.32 334.36,-24.48 336.14,-31.25"/>
<g id="a_edge11&#45;headlabel"><a xlink:href="dir_000163_000011.html" target="_top" xlink:title="5">
<text text-anchor="middle" x="333.38" y="-32.41" font-family="Helvetica,sans-Serif" font-size="10.00">5</text>
</a>
</g>
</g>
<!-- dir_a0a8ac7efb6662b749c1285408048e6d -->
<g id="node7" class="node">
<title>dir_a0a8ac7efb6662b749c1285408048e6d</title>
<g id="a_node7"><a xlink:href="dir_a0a8ac7efb6662b749c1285408048e6d.html" target="_top" xlink:title="erl">
<polygon fill="white" stroke="red" points="372,-180 318,-180 318,-144 372,-144 372,-180"/>
<text text-anchor="middle" x="345" y="-159.5" font-family="Helvetica,sans-Serif" font-size="10.00">erl</text>
</a>
</g>
</g>
<!-- dir_a493926c6e9678712bca5b1e822bb94f&#45;&gt;dir_a0a8ac7efb6662b749c1285408048e6d -->
<g id="edge13" class="edge">
<title>dir_a493926c6e9678712bca5b1e822bb94f&#45;&gt;dir_a0a8ac7efb6662b749c1285408048e6d</title>
<path fill="none" stroke="black" d="M72.13,-215.85C76.8,-212.79 81.88,-209.95 87,-208 178.81,-172.93 214.85,-208.68 308.06,-181.62"/>
<polygon fill="black" stroke="black" points="309.34,-184.89 317.87,-178.61 307.28,-178.2 309.34,-184.89"/>
<g id="a_edge13&#45;headlabel"><a xlink:href="dir_000163_000221.html" target="_top" xlink:title="1">
<text text-anchor="middle" x="306.74" y="-186.16" font-family="Helvetica,sans-Serif" font-size="10.00">1</text>
</a>
</g>
</g>
<!-- dir_a493926c6e9678712bca5b1e822bb94f&#45;&gt;dir_bdd9a5d540de89e9fe90efdfc6973a4f -->
<g id="edge14" class="edge">
<title>dir_a493926c6e9678712bca5b1e822bb94f&#45;&gt;dir_bdd9a5d540de89e9fe90efdfc6973a4f</title>
<path fill="none" stroke="black" d="M71.7,-215.99C76.47,-212.84 81.71,-209.94 87,-208 148.63,-185.44 331.99,-223.65 381,-180 398,-164.86 401.88,-138.56 402.03,-118.47"/>
<polygon fill="black" stroke="black" points="405.52,-118.25 401.8,-108.34 398.53,-118.41 405.52,-118.25"/>
<g id="a_edge14&#45;headlabel"><a xlink:href="dir_000163_000000.html" target="_top" xlink:title="17">
<text text-anchor="middle" x="408.44" y="-119.28" font-family="Helvetica,sans-Serif" font-size="10.00">17</text>
</a>
</g>
</g>
<!-- dir_51b4fd419f5cef2df1fa20f57f0c92da -->
<g id="node3" class="node">
<title>dir_51b4fd419f5cef2df1fa20f57f0c92da</title>
<g id="a_node3"><a xlink:href="dir_51b4fd419f5cef2df1fa20f57f0c92da.html" target="_top" xlink:title="osdsrc">
<polygon fill="white" stroke="red" points="294,-252 240,-252 240,-216 294,-216 294,-252"/>
<text text-anchor="middle" x="267" y="-231.5" font-family="Helvetica,sans-Serif" font-size="10.00">osdsrc</text>
</a>
</g>
</g>
<!-- dir_51b4fd419f5cef2df1fa20f57f0c92da&#45;&gt;dir_8a6a67431f985d69787ebf051412922f -->
<g id="edge2" class="edge">
<title>dir_51b4fd419f5cef2df1fa20f57f0c92da&#45;&gt;dir_8a6a67431f985d69787ebf051412922f</title>
<path fill="none" stroke="black" d="M249.2,-215.7C240.4,-207.14 229.62,-196.66 220,-187.3"/>
<polygon fill="black" stroke="black" points="222.2,-184.57 212.59,-180.1 217.32,-189.58 222.2,-184.57"/>
<g id="a_edge2&#45;headlabel"><a xlink:href="dir_000231_000228.html" target="_top" xlink:title="4">
<text text-anchor="middle" x="226.76" y="-182.54" font-family="Helvetica,sans-Serif" font-size="10.00">4</text>
</a>
</g>
</g>
<!-- dir_51b4fd419f5cef2df1fa20f57f0c92da&#45;&gt;dir_bdd9a5d540de89e9fe90efdfc6973a4f -->
<g id="edge3" class="edge">
<title>dir_51b4fd419f5cef2df1fa20f57f0c92da&#45;&gt;dir_bdd9a5d540de89e9fe90efdfc6973a4f</title>
<path fill="none" stroke="black" d="M294.02,-230.67C347.95,-225.41 465.82,-210.6 490,-180 502.12,-164.66 500.28,-152.63 490,-136 478.43,-117.27 456.43,-106.08 437.09,-99.54"/>
<polygon fill="black" stroke="black" points="437.87,-96.12 427.28,-96.53 435.81,-102.81 437.87,-96.12"/>
<g id="a_edge3&#45;headlabel"><a xlink:href="dir_000231_000000.html" target="_top" xlink:title="1">
<text text-anchor="middle" x="442.14" y="-91.96" font-family="Helvetica,sans-Serif" font-size="10.00">1</text>
</a>
</g>
</g>
<!-- dir_956615eb5c1ba3c328b30cb4364be616 -->
<g id="node4" class="node">
<title>dir_956615eb5c1ba3c328b30cb4364be616</title>
<g id="a_node4"><a xlink:href="dir_956615eb5c1ba3c328b30cb4364be616.html" target="_top" xlink:title="srcfile">
<polygon fill="white" stroke="red" points="150,-252 96,-252 96,-216 150,-216 150,-252"/>
<text text-anchor="middle" x="123" y="-231.5" font-family="Helvetica,sans-Serif" font-size="10.00">srcfile</text>
</a>
</g>
</g>
<!-- dir_956615eb5c1ba3c328b30cb4364be616&#45;&gt;dir_8a6a67431f985d69787ebf051412922f -->
<g id="edge5" class="edge">
<title>dir_956615eb5c1ba3c328b30cb4364be616&#45;&gt;dir_8a6a67431f985d69787ebf051412922f</title>
<path fill="none" stroke="black" d="M140.8,-215.7C149.6,-207.14 160.38,-196.66 170,-187.3"/>
<polygon fill="black" stroke="black" points="172.68,-189.58 177.41,-180.1 167.8,-184.57 172.68,-189.58"/>
<g id="a_edge5&#45;headlabel"><a xlink:href="dir_000233_000228.html" target="_top" xlink:title="3">
<text text-anchor="middle" x="172.08" y="-191.63" font-family="Helvetica,sans-Serif" font-size="10.00">3</text>
</a>
</g>
</g>
<!-- dir_956615eb5c1ba3c328b30cb4364be616&#45;&gt;dir_bdd9a5d540de89e9fe90efdfc6973a4f -->
<g id="edge6" class="edge">
<title>dir_956615eb5c1ba3c328b30cb4364be616&#45;&gt;dir_bdd9a5d540de89e9fe90efdfc6973a4f</title>
<path fill="none" stroke="black" d="M144.11,-215.8C148.78,-212.74 153.87,-209.92 159,-208 212.39,-188.02 375.95,-222.45 414,-180 429.09,-163.16 422.67,-136.96 414.23,-117.33"/>
<polygon fill="black" stroke="black" points="417.28,-115.6 409.86,-108.03 410.94,-118.57 417.28,-115.6"/>
<g id="a_edge6&#45;headlabel"><a xlink:href="dir_000233_000000.html" target="_top" xlink:title="2">
<text text-anchor="middle" x="421.37" y="-115.15" font-family="Helvetica,sans-Serif" font-size="10.00">2</text>
</a>
</g>
</g>
<!-- dir_9a87498b9a1b570e9d1e3baca4c4d515 -->
<g id="node5" class="node">
<title>dir_9a87498b9a1b570e9d1e3baca4c4d515</title>
<g id="a_node5"><a xlink:href="dir_9a87498b9a1b570e9d1e3baca4c4d515.html" target="_top" xlink:title="tlbsrc">
<polygon fill="white" stroke="red" points="222,-252 168,-252 168,-216 222,-216 222,-252"/>
<text text-anchor="middle" x="195" y="-231.5" font-family="Helvetica,sans-Serif" font-size="10.00">tlbsrc</text>
</a>
</g>
</g>
<!-- dir_9a87498b9a1b570e9d1e3baca4c4d515&#45;&gt;dir_8a6a67431f985d69787ebf051412922f -->
<g id="edge7" class="edge">
<title>dir_9a87498b9a1b570e9d1e3baca4c4d515&#45;&gt;dir_8a6a67431f985d69787ebf051412922f</title>
<path fill="none" stroke="black" d="M195,-215.7C195,-207.98 195,-198.71 195,-190.11"/>
<polygon fill="black" stroke="black" points="198.5,-190.1 195,-180.1 191.5,-190.1 198.5,-190.1"/>
<g id="a_edge7&#45;headlabel"><a xlink:href="dir_000235_000228.html" target="_top" xlink:title="1">
<text text-anchor="middle" x="201.34" y="-191.2" font-family="Helvetica,sans-Serif" font-size="10.00">1</text>
</a>
</g>
</g>
<!-- dir_9a87498b9a1b570e9d1e3baca4c4d515&#45;&gt;dir_bdd9a5d540de89e9fe90efdfc6973a4f -->
<g id="edge8" class="edge">
<title>dir_9a87498b9a1b570e9d1e3baca4c4d515&#45;&gt;dir_bdd9a5d540de89e9fe90efdfc6973a4f</title>
<path fill="none" stroke="black" d="M216.13,-215.86C220.8,-212.8 225.89,-209.96 231,-208 277.22,-190.26 419.27,-217.14 452,-180 464.93,-165.33 460.13,-153.79 452,-136 448.22,-127.73 442.08,-120.39 435.33,-114.17"/>
<polygon fill="black" stroke="black" points="437.13,-111.12 427.22,-107.39 432.64,-116.49 437.13,-111.12"/>
<g id="a_edge8&#45;headlabel"><a xlink:href="dir_000235_000000.html" target="_top" xlink:title="1">
<text text-anchor="middle" x="441.71" y="-108.75" font-family="Helvetica,sans-Serif" font-size="10.00">1</text>
</a>
</g>
</g>
<!-- dir_0981ace215aa2029f526b70c145b9fbe&#45;&gt;dir_bdd9a5d540de89e9fe90efdfc6973a4f -->
<g id="edge1" class="edge">
<title>dir_0981ace215aa2029f526b70c145b9fbe&#45;&gt;dir_bdd9a5d540de89e9fe90efdfc6973a4f</title>
<path fill="none" stroke="black" d="M384.74,-36.1C388.66,-43.88 392.64,-53.26 395.77,-61.95"/>
<polygon fill="black" stroke="black" points="392.53,-63.3 398.99,-71.7 399.18,-61.1 392.53,-63.3"/>
<g id="a_edge1&#45;headlabel"><a xlink:href="dir_000011_000000.html" target="_top" xlink:title="172">
<text text-anchor="middle" x="388.71" y="-58.28" font-family="Helvetica,sans-Serif" font-size="10.00">172</text>
</a>
</g>
</g>
<!-- dir_a0a8ac7efb6662b749c1285408048e6d&#45;&gt;dir_0981ace215aa2029f526b70c145b9fbe -->
<g id="edge10" class="edge">
<title>dir_a0a8ac7efb6662b749c1285408048e6d&#45;&gt;dir_0981ace215aa2029f526b70c145b9fbe</title>
<path fill="none" stroke="black" d="M348.26,-143.87C352.86,-119.67 361.31,-75.21 366.79,-46.39"/>
<polygon fill="black" stroke="black" points="370.3,-46.67 368.73,-36.19 363.43,-45.36 370.3,-46.67"/>
<g id="a_edge10&#45;headlabel"><a xlink:href="dir_000221_000011.html" target="_top" xlink:title="2">
<text text-anchor="middle" x="372.42" y="-48.23" font-family="Helvetica,sans-Serif" font-size="10.00">2</text>
</a>
</g>
</g>
<!-- dir_a0a8ac7efb6662b749c1285408048e6d&#45;&gt;dir_bdd9a5d540de89e9fe90efdfc6973a4f -->
<g id="edge9" class="edge">
<title>dir_a0a8ac7efb6662b749c1285408048e6d&#45;&gt;dir_bdd9a5d540de89e9fe90efdfc6973a4f</title>
<path fill="none" stroke="black" d="M358.6,-143.7C365.12,-135.39 373.07,-125.28 380.25,-116.14"/>
<polygon fill="black" stroke="black" points="383.13,-118.13 386.56,-108.1 377.63,-113.81 383.13,-118.13"/>
<g id="a_edge9&#45;headlabel"><a xlink:href="dir_000221_000000.html" target="_top" xlink:title="1">
<text text-anchor="middle" x="383.15" y="-120.21" font-family="Helvetica,sans-Serif" font-size="10.00">1</text>
</a>
</g>
</g>
<!-- dir_bdd9a5d540de89e9fe90efdfc6973a4f&#45;&gt;dir_8a6a67431f985d69787ebf051412922f -->
<g id="edge16" class="edge">
<title>dir_bdd9a5d540de89e9fe90efdfc6973a4f&#45;&gt;dir_8a6a67431f985d69787ebf051412922f</title>
<path fill="none" stroke="black" d="M372.84,-102.01C336.49,-115.19 272.28,-137.11 231.68,-150.19"/>
<polygon fill="black" stroke="black" points="230.61,-146.86 222.15,-153.24 232.75,-153.53 230.61,-146.86"/>
<g id="a_edge16&#45;headlabel"><a xlink:href="dir_000000_000228.html" target="_top" xlink:title="1">
<text text-anchor="middle" x="233.17" y="-140.56" font-family="Helvetica,sans-Serif" font-size="10.00">1</text>
</a>
</g>
</g>
<!-- dir_bdd9a5d540de89e9fe90efdfc6973a4f&#45;&gt;dir_0981ace215aa2029f526b70c145b9fbe -->
<g id="edge15" class="edge">
<title>dir_bdd9a5d540de89e9fe90efdfc6973a4f&#45;&gt;dir_0981ace215aa2029f526b70c145b9fbe</title>
<path fill="none" stroke="black" d="M387.16,-71.7C383.24,-63.9 379.26,-54.51 376.15,-45.83"/>
<polygon fill="black" stroke="black" points="379.4,-44.51 372.95,-36.1 372.75,-46.7 379.4,-44.51"/>
<g id="a_edge15&#45;headlabel"><a xlink:href="dir_000000_000011.html" target="_top" xlink:title="20">
<text text-anchor="middle" x="383.22" y="-44.54" font-family="Helvetica,sans-Serif" font-size="10.00">20</text>
</a>
</g>
</g>
</g>
</svg>
