<?xml version="1.0" encoding="UTF-8" standalone="no"?>
<!DOCTYPE svg PUBLIC "-//W3C//DTD SVG 1.1//EN"
 "http://www.w3.org/Graphics/SVG/1.1/DTD/svg11.dtd">
<!-- Generated by graphviz version 2.49.3 (20211027.1534)
 -->
<!-- Title: Packet2 library Pages: 1 -->
<svg width="167pt" height="138pt"
 viewBox="0.00 0.00 167.00 138.00" xmlns="http://www.w3.org/2000/svg" xmlns:xlink="http://www.w3.org/1999/xlink">
<g id="graph0" class="graph" transform="scale(1 1) rotate(0) translate(4 134)">
<title>Packet2 library</title>
<polygon fill="white" stroke="transparent" points="-4,4 -4,-134 163,-134 163,4 -4,4"/>
<!-- Node1 -->
<g id="node1" class="node">
<title>Node1</title>
<g id="a_node1"><a xlink:title=" ">
<polygon fill="#bfbfbf" stroke="black" points="80,-74 0,-74 0,-55 80,-55 80,-74"/>
<text text-anchor="middle" x="40" y="-62" font-family="Helvetica,sans-Serif" font-size="10.00">Packet2 library</text>
</a>
</g>
</g>
<!-- Node2 -->
<g id="node2" class="node">
<title>Node2</title>
<g id="a_node2"><a xlink:href="group__packet2__chain.html" target="_top" xlink:title=" ">
<polygon fill="white" stroke="black" points="158,-130 117,-130 117,-111 158,-111 158,-130"/>
<text text-anchor="middle" x="137.5" y="-118" font-family="Helvetica,sans-Serif" font-size="10.00">Chain</text>
</a>
</g>
</g>
<!-- Node1&#45;&gt;Node2 -->
<g id="edge1" class="edge">
<title>Node1&#45;&gt;Node2</title>
<path fill="none" stroke="black" d="M66.5,-79.45C83.49,-89.42 105.33,-102.22 120.06,-110.86"/>
<polygon fill="black" stroke="black" points="68.03,-76.29 57.63,-74.25 64.49,-82.33 68.03,-76.29"/>
</g>
<!-- Node3 -->
<g id="node3" class="node">
<title>Node3</title>
<g id="a_node3"><a xlink:href="group__packet2__types.html" target="_top" xlink:title=" ">
<polygon fill="white" stroke="black" points="159,-93 116,-93 116,-74 159,-74 159,-93"/>
<text text-anchor="middle" x="137.5" y="-81" font-family="Helvetica,sans-Serif" font-size="10.00">Types</text>
</a>
</g>
</g>
<!-- Node1&#45;&gt;Node3 -->
<g id="edge2" class="edge">
<title>Node1&#45;&gt;Node3</title>
<path fill="none" stroke="black" d="M89.99,-74.25C99.13,-76.06 108.2,-77.87 115.87,-79.4"/>
<polygon fill="black" stroke="black" points="90.61,-70.8 80.12,-72.28 89.24,-77.67 90.61,-70.8"/>
</g>
<!-- Node4 -->
<g id="node4" class="node">
<title>Node4</title>
<g id="a_node4"><a xlink:href="group__packet2__utils.html" target="_top" xlink:title=" ">
<polygon fill="white" stroke="black" points="156,-56 119,-56 119,-37 156,-37 156,-56"/>
<text text-anchor="middle" x="137.5" y="-44" font-family="Helvetica,sans-Serif" font-size="10.00">Utils</text>
</a>
</g>
</g>
<!-- Node1&#45;&gt;Node4 -->
<g id="edge3" class="edge">
<title>Node1&#45;&gt;Node4</title>
<path fill="none" stroke="black" d="M89.95,-55.27C100.25,-53.33 110.47,-51.41 118.7,-49.85"/>
<polygon fill="black" stroke="black" points="89.3,-51.84 80.12,-57.13 90.59,-58.71 89.3,-51.84"/>
</g>
<!-- Node5 -->
<g id="node5" class="node">
<title>Node5</title>
<g id="a_node5"><a xlink:href="group__packet2__vif.html" target="_top" xlink:title=" ">
<polygon fill="white" stroke="black" points="153.5,-19 121.5,-19 121.5,0 153.5,0 153.5,-19"/>
<text text-anchor="middle" x="137.5" y="-7" font-family="Helvetica,sans-Serif" font-size="10.00">VIF</text>
</a>
</g>
</g>
<!-- Node1&#45;&gt;Node5 -->
<g id="edge4" class="edge">
<title>Node1&#45;&gt;Node5</title>
<path fill="none" stroke="black" d="M66.73,-49.68C84.18,-39.63 106.66,-26.69 121.31,-18.25"/>
<polygon fill="black" stroke="black" points="64.55,-46.9 57.63,-54.92 68.05,-52.96 64.55,-46.9"/>
</g>
</g>
</svg>
