<?xml version="1.0" encoding="UTF-8" standalone="no"?>
<!DOCTYPE svg PUBLIC "-//W3C//DTD SVG 1.1//EN"
 "http://www.w3.org/Graphics/SVG/1.1/DTD/svg11.dtd">
<!-- Generated by graphviz version 2.49.3 (20211027.1534)
 -->
<!-- Title: ee/libgs/include/libgs.h Pages: 1 -->
<svg width="1245pt" height="84pt"
 viewBox="0.00 0.00 1245.00 84.00" xmlns="http://www.w3.org/2000/svg" xmlns:xlink="http://www.w3.org/1999/xlink">
<g id="graph0" class="graph" transform="scale(1 1) rotate(0) translate(4 80)">
<title>ee/libgs/include/libgs.h</title>
<polygon fill="white" stroke="transparent" points="-4,4 -4,-80 1241,-80 1241,4 -4,4"/>
<!-- Node1 -->
<g id="node1" class="node">
<title>Node1</title>
<g id="a_node1"><a xlink:title=" ">
<polygon fill="#bfbfbf" stroke="black" points="552,-56.5 552,-75.5 667,-75.5 667,-56.5 552,-56.5"/>
<text text-anchor="middle" x="609.5" y="-63.5" font-family="Helvetica,sans-Serif" font-size="10.00">ee/libgs/include/libgs.h</text>
</a>
</g>
</g>
<!-- Node2 -->
<g id="node2" class="node">
<title>Node2</title>
<g id="a_node2"><a xlink:href="_double_buff_8c_source.html" target="_top" xlink:title=" ">
<polygon fill="white" stroke="black" points="0,-0.5 0,-19.5 125,-19.5 125,-0.5 0,-0.5"/>
<text text-anchor="middle" x="62.5" y="-7.5" font-family="Helvetica,sans-Serif" font-size="10.00">ee/libgs/src/DoubleBuff.c</text>
</a>
</g>
</g>
<!-- Node1&#45;&gt;Node2 -->
<g id="edge1" class="edge">
<title>Node1&#45;&gt;Node2</title>
<path fill="none" stroke="midnightblue" d="M541.87,-59.29C449.52,-51.33 278.83,-36.08 133.5,-20 130.78,-19.7 128.01,-19.38 125.21,-19.06"/>
<polygon fill="midnightblue" stroke="midnightblue" points="541.66,-62.78 551.92,-60.15 542.26,-55.81 541.66,-62.78"/>
</g>
<!-- Node3 -->
<g id="node3" class="node">
<title>Node3</title>
<g id="a_node3"><a xlink:href="_zbuffer_8c_source.html" target="_top" xlink:title=" ">
<polygon fill="white" stroke="black" points="143,-0.5 143,-19.5 250,-19.5 250,-0.5 143,-0.5"/>
<text text-anchor="middle" x="196.5" y="-7.5" font-family="Helvetica,sans-Serif" font-size="10.00">ee/libgs/src/Zbuffer.c</text>
</a>
</g>
</g>
<!-- Node1&#45;&gt;Node3 -->
<g id="edge2" class="edge">
<title>Node1&#45;&gt;Node3</title>
<path fill="none" stroke="midnightblue" d="M541.78,-56.58C471.25,-47.74 357.58,-33.31 259.5,-20 256.43,-19.58 253.29,-19.15 250.11,-18.71"/>
<polygon fill="midnightblue" stroke="midnightblue" points="541.51,-60.07 551.87,-57.84 542.38,-53.13 541.51,-60.07"/>
</g>
<!-- Node4 -->
<g id="node4" class="node">
<title>Node4</title>
<g id="a_node4"><a xlink:href="libgs_2src_2dma_8c_source.html" target="_top" xlink:title=" ">
<polygon fill="white" stroke="black" points="268.5,-0.5 268.5,-19.5 364.5,-19.5 364.5,-0.5 268.5,-0.5"/>
<text text-anchor="middle" x="316.5" y="-7.5" font-family="Helvetica,sans-Serif" font-size="10.00">ee/libgs/src/dma.c</text>
</a>
</g>
</g>
<!-- Node1&#45;&gt;Node4 -->
<g id="edge3" class="edge">
<title>Node1&#45;&gt;Node4</title>
<path fill="none" stroke="midnightblue" d="M553.07,-54.6C497.7,-44.4 414.27,-29.02 362.71,-19.52"/>
<polygon fill="midnightblue" stroke="midnightblue" points="552.6,-58.07 563.07,-56.44 553.87,-51.19 552.6,-58.07"/>
</g>
<!-- Node5 -->
<g id="node5" class="node">
<title>Node5</title>
<g id="a_node5"><a xlink:href="libgs_2src_2draw_8c_source.html" target="_top" xlink:title=" ">
<polygon fill="white" stroke="black" points="382.5,-0.5 382.5,-19.5 480.5,-19.5 480.5,-0.5 382.5,-0.5"/>
<text text-anchor="middle" x="431.5" y="-7.5" font-family="Helvetica,sans-Serif" font-size="10.00">ee/libgs/src/draw.c</text>
</a>
</g>
</g>
<!-- Node1&#45;&gt;Node5 -->
<g id="edge4" class="edge">
<title>Node1&#45;&gt;Node5</title>
<path fill="none" stroke="midnightblue" d="M571.38,-53.44C537.82,-43.26 489.73,-28.66 459.57,-19.52"/>
<polygon fill="midnightblue" stroke="midnightblue" points="570.71,-56.89 581.3,-56.44 572.74,-50.19 570.71,-56.89"/>
</g>
<!-- Node6 -->
<g id="node6" class="node">
<title>Node6</title>
<g id="a_node6"><a xlink:href="libgs_8c_source.html" target="_top" xlink:title=" ">
<polygon fill="white" stroke="black" points="498.5,-0.5 498.5,-19.5 596.5,-19.5 596.5,-0.5 498.5,-0.5"/>
<text text-anchor="middle" x="547.5" y="-7.5" font-family="Helvetica,sans-Serif" font-size="10.00">ee/libgs/src/libgs.c</text>
</a>
</g>
</g>
<!-- Node1&#45;&gt;Node6 -->
<g id="edge5" class="edge">
<title>Node1&#45;&gt;Node6</title>
<path fill="none" stroke="midnightblue" d="M591.75,-49.54C580.69,-39.91 566.87,-27.87 557.64,-19.83"/>
<polygon fill="midnightblue" stroke="midnightblue" points="589.7,-52.4 599.54,-56.32 594.3,-47.12 589.7,-52.4"/>
</g>
<!-- Node7 -->
<g id="node7" class="node">
<title>Node7</title>
<g id="a_node7"><a xlink:href="lowlevel_8c_source.html" target="_top" xlink:title=" ">
<polygon fill="white" stroke="black" points="615,-0.5 615,-19.5 728,-19.5 728,-0.5 615,-0.5"/>
<text text-anchor="middle" x="671.5" y="-7.5" font-family="Helvetica,sans-Serif" font-size="10.00">ee/libgs/src/lowlevel.c</text>
</a>
</g>
</g>
<!-- Node1&#45;&gt;Node7 -->
<g id="edge6" class="edge">
<title>Node1&#45;&gt;Node7</title>
<path fill="none" stroke="midnightblue" d="M627.25,-49.54C638.31,-39.91 652.13,-27.87 661.36,-19.83"/>
<polygon fill="midnightblue" stroke="midnightblue" points="624.7,-47.12 619.46,-56.32 629.3,-52.4 624.7,-47.12"/>
</g>
<!-- Node8 -->
<g id="node8" class="node">
<title>Node8</title>
<g id="a_node8"><a xlink:href="packets_8c_source.html" target="_top" xlink:title=" ">
<polygon fill="white" stroke="black" points="746.5,-0.5 746.5,-19.5 858.5,-19.5 858.5,-0.5 746.5,-0.5"/>
<text text-anchor="middle" x="802.5" y="-7.5" font-family="Helvetica,sans-Serif" font-size="10.00">ee/libgs/src/packets.c</text>
</a>
</g>
</g>
<!-- Node1&#45;&gt;Node8 -->
<g id="edge7" class="edge">
<title>Node1&#45;&gt;Node8</title>
<path fill="none" stroke="midnightblue" d="M649.89,-53.7C686.32,-43.51 739.09,-28.74 772.06,-19.52"/>
<polygon fill="midnightblue" stroke="midnightblue" points="648.77,-50.38 640.08,-56.44 650.65,-57.12 648.77,-50.38"/>
</g>
<!-- Node9 -->
<g id="node9" class="node">
<title>Node9</title>
<g id="a_node9"><a xlink:href="primitives_8c_source.html" target="_top" xlink:title=" ">
<polygon fill="white" stroke="black" points="877,-0.5 877,-19.5 996,-19.5 996,-0.5 877,-0.5"/>
<text text-anchor="middle" x="936.5" y="-7.5" font-family="Helvetica,sans-Serif" font-size="10.00">ee/libgs/src/primitives.c</text>
</a>
</g>
</g>
<!-- Node1&#45;&gt;Node9 -->
<g id="edge8" class="edge">
<title>Node1&#45;&gt;Node9</title>
<path fill="none" stroke="midnightblue" d="M671.32,-54.79C733.11,-44.59 827.03,-29.08 884.93,-19.52"/>
<polygon fill="midnightblue" stroke="midnightblue" points="670.61,-51.36 661.31,-56.44 671.75,-58.27 670.61,-51.36"/>
</g>
<!-- Node10 -->
<g id="node10" class="node">
<title>Node10</title>
<g id="a_node10"><a xlink:href="sync_8c_source.html" target="_top" xlink:title=" ">
<polygon fill="white" stroke="black" points="1014.5,-0.5 1014.5,-19.5 1112.5,-19.5 1112.5,-0.5 1014.5,-0.5"/>
<text text-anchor="middle" x="1063.5" y="-7.5" font-family="Helvetica,sans-Serif" font-size="10.00">ee/libgs/src/sync.c</text>
</a>
</g>
</g>
<!-- Node1&#45;&gt;Node10 -->
<g id="edge9" class="edge">
<title>Node1&#45;&gt;Node10</title>
<path fill="none" stroke="midnightblue" d="M677.6,-58.11C756.58,-49.93 890.65,-35.43 1005.5,-20 1008.43,-19.61 1011.44,-19.19 1014.47,-18.75"/>
<polygon fill="midnightblue" stroke="midnightblue" points="676.89,-54.67 667.3,-59.18 677.61,-61.63 676.89,-54.67"/>
</g>
<!-- Node11 -->
<g id="node11" class="node">
<title>Node11</title>
<g id="a_node11"><a xlink:href="texture_8c_source.html" target="_top" xlink:title=" ">
<polygon fill="white" stroke="black" points="1130,-0.5 1130,-19.5 1237,-19.5 1237,-0.5 1130,-0.5"/>
<text text-anchor="middle" x="1183.5" y="-7.5" font-family="Helvetica,sans-Serif" font-size="10.00">ee/libgs/src/texture.c</text>
</a>
</g>
</g>
<!-- Node1&#45;&gt;Node11 -->
<g id="edge10" class="edge">
<title>Node1&#45;&gt;Node11</title>
<path fill="none" stroke="midnightblue" d="M677.27,-60.27C775.41,-53.14 962.71,-38.49 1121.5,-20 1124.2,-19.69 1126.97,-19.35 1129.76,-18.99"/>
<polygon fill="midnightblue" stroke="midnightblue" points="676.92,-56.78 667.2,-61 677.42,-63.77 676.92,-56.78"/>
</g>
</g>
</svg>
