<?xml version="1.0" encoding="UTF-8" standalone="no"?>
<!DOCTYPE svg PUBLIC "-//W3C//DTD SVG 1.1//EN"
 "http://www.w3.org/Graphics/SVG/1.1/DTD/svg11.dtd">
<!-- Generated by graphviz version 2.49.3 (20211027.1534)
 -->
<!-- Title: iop/dev9/pvrdrv/include/pvrdrv.h Pages: 1 -->
<svg width="1501pt" height="106pt"
 viewBox="0.00 0.00 1500.50 106.00" xmlns="http://www.w3.org/2000/svg" xmlns:xlink="http://www.w3.org/1999/xlink">
<g id="graph0" class="graph" transform="scale(1 1) rotate(0) translate(4 102)">
<title>iop/dev9/pvrdrv/include/pvrdrv.h</title>
<polygon fill="white" stroke="transparent" points="-4,4 -4,-102 1496.5,-102 1496.5,4 -4,4"/>
<!-- Node1 -->
<g id="node1" class="node">
<title>Node1</title>
<g id="a_node1"><a xlink:title=" ">
<polygon fill="#bfbfbf" stroke="black" points="687.5,-67.5 687.5,-97.5 804.5,-97.5 804.5,-67.5 687.5,-67.5"/>
<text text-anchor="start" x="695.5" y="-85.5" font-family="Helvetica,sans-Serif" font-size="10.00">iop/dev9/pvrdrv/include</text>
<text text-anchor="middle" x="746" y="-74.5" font-family="Helvetica,sans-Serif" font-size="10.00">/pvrdrv.h</text>
</a>
</g>
</g>
<!-- Node2 -->
<g id="node2" class="node">
<title>Node2</title>
<g id="a_node2"><a xlink:href="dvrdrv_8c_source.html" target="_top" xlink:title=" ">
<polygon fill="white" stroke="black" points="0,-0.5 0,-30.5 100,-30.5 100,-0.5 0,-0.5"/>
<text text-anchor="start" x="8" y="-18.5" font-family="Helvetica,sans-Serif" font-size="10.00">iop/dev9/pvrdrv/src</text>
<text text-anchor="middle" x="50" y="-7.5" font-family="Helvetica,sans-Serif" font-size="10.00">/dvrdrv.c</text>
</a>
</g>
</g>
<!-- Node1&#45;&gt;Node2 -->
<g id="edge1" class="edge">
<title>Node1&#45;&gt;Node2</title>
<path fill="none" stroke="midnightblue" d="M676.95,-79.68C559.56,-75.78 313.91,-64.08 109,-31 106.08,-30.53 103.1,-29.99 100.1,-29.4"/>
<polygon fill="midnightblue" stroke="midnightblue" points="677.11,-83.19 687.22,-80.02 677.34,-76.19 677.11,-83.19"/>
</g>
<!-- Node3 -->
<g id="node3" class="node">
<title>Node3</title>
<g id="a_node3"><a xlink:href="dvr_8c_source.html" target="_top" xlink:title=" ">
<polygon fill="white" stroke="black" points="118,-6 118,-25 226,-25 226,-6 118,-6"/>
<text text-anchor="middle" x="172" y="-13" font-family="Helvetica,sans-Serif" font-size="10.00">iop/dvrp/dvr/src/dvr.c</text>
</a>
</g>
</g>
<!-- Node1&#45;&gt;Node3 -->
<g id="edge2" class="edge">
<title>Node1&#45;&gt;Node3</title>
<path fill="none" stroke="midnightblue" d="M677.33,-77.51C578.89,-71.16 392.19,-56.75 235,-31 225.36,-29.42 215,-27.24 205.52,-25.05"/>
<polygon fill="midnightblue" stroke="midnightblue" points="677.24,-81.01 687.44,-78.15 677.68,-74.02 677.24,-81.01"/>
</g>
<!-- Node4 -->
<g id="node4" class="node">
<title>Node4</title>
<g id="a_node4"><a xlink:href="iop_2dvrp_2dvr_2src_2irx__imports_8h_source.html" target="_top" xlink:title=" ">
<polygon fill="white" stroke="black" points="244.5,-0.5 244.5,-30.5 341.5,-30.5 341.5,-0.5 244.5,-0.5"/>
<text text-anchor="start" x="252.5" y="-18.5" font-family="Helvetica,sans-Serif" font-size="10.00">iop/dvrp/dvr/src/irx</text>
<text text-anchor="middle" x="293" y="-7.5" font-family="Helvetica,sans-Serif" font-size="10.00">_imports.h</text>
</a>
</g>
</g>
<!-- Node1&#45;&gt;Node4 -->
<g id="edge3" class="edge">
<title>Node1&#45;&gt;Node4</title>
<path fill="none" stroke="midnightblue" d="M676.92,-75.28C597.58,-67.53 463.7,-52.63 350,-31 347.29,-30.48 344.52,-29.92 341.73,-29.31"/>
<polygon fill="midnightblue" stroke="midnightblue" points="676.98,-78.8 687.27,-76.28 677.66,-71.83 676.98,-78.8"/>
</g>
<!-- Node5 -->
<g id="node5" class="node">
<title>Node5</title>
<g id="a_node5"><a xlink:href="dvrav_8c_source.html" target="_top" xlink:title=" ">
<polygon fill="white" stroke="black" points="359.5,-0.5 359.5,-30.5 454.5,-30.5 454.5,-0.5 359.5,-0.5"/>
<text text-anchor="start" x="367.5" y="-18.5" font-family="Helvetica,sans-Serif" font-size="10.00">iop/dvrp/dvrav/src</text>
<text text-anchor="middle" x="407" y="-7.5" font-family="Helvetica,sans-Serif" font-size="10.00">/dvrav.c</text>
</a>
</g>
</g>
<!-- Node1&#45;&gt;Node5 -->
<g id="edge4" class="edge">
<title>Node1&#45;&gt;Node5</title>
<path fill="none" stroke="midnightblue" d="M677.42,-70.78C619.92,-61.42 535.79,-46.89 463,-31 460.25,-30.4 457.44,-29.76 454.6,-29.09"/>
<polygon fill="midnightblue" stroke="midnightblue" points="677.05,-74.26 687.48,-72.4 678.16,-67.35 677.05,-74.26"/>
</g>
<!-- Node6 -->
<g id="node6" class="node">
<title>Node6</title>
<g id="a_node6"><a xlink:href="iop_2dvrp_2dvrav_2src_2irx__imports_8h_source.html" target="_top" xlink:title=" ">
<polygon fill="white" stroke="black" points="472.5,-0.5 472.5,-30.5 567.5,-30.5 567.5,-0.5 472.5,-0.5"/>
<text text-anchor="start" x="480.5" y="-18.5" font-family="Helvetica,sans-Serif" font-size="10.00">iop/dvrp/dvrav/src</text>
<text text-anchor="middle" x="520" y="-7.5" font-family="Helvetica,sans-Serif" font-size="10.00">/irx_imports.h</text>
</a>
</g>
</g>
<!-- Node1&#45;&gt;Node6 -->
<g id="edge5" class="edge">
<title>Node1&#45;&gt;Node6</title>
<path fill="none" stroke="midnightblue" d="M687.5,-64.68C650.2,-53.95 602.47,-40.22 567.51,-30.16"/>
<polygon fill="midnightblue" stroke="midnightblue" points="686.66,-68.08 697.24,-67.48 688.6,-61.35 686.66,-68.08"/>
</g>
<!-- Node7 -->
<g id="node7" class="node">
<title>Node7</title>
<g id="a_node7"><a xlink:href="dvrdv_8c_source.html" target="_top" xlink:title=" ">
<polygon fill="white" stroke="black" points="585.5,-0.5 585.5,-30.5 680.5,-30.5 680.5,-0.5 585.5,-0.5"/>
<text text-anchor="start" x="593.5" y="-18.5" font-family="Helvetica,sans-Serif" font-size="10.00">iop/dvrp/dvrdv/src</text>
<text text-anchor="middle" x="633" y="-7.5" font-family="Helvetica,sans-Serif" font-size="10.00">/dvrdv.c</text>
</a>
</g>
</g>
<!-- Node1&#45;&gt;Node7 -->
<g id="edge6" class="edge">
<title>Node1&#45;&gt;Node7</title>
<path fill="none" stroke="midnightblue" d="M712.61,-62.3C694.93,-52.12 673.6,-39.85 657.47,-30.58"/>
<polygon fill="midnightblue" stroke="midnightblue" points="711.07,-65.44 721.48,-67.4 714.56,-59.38 711.07,-65.44"/>
</g>
<!-- Node8 -->
<g id="node8" class="node">
<title>Node8</title>
<g id="a_node8"><a xlink:href="iop_2dvrp_2dvrdv_2src_2irx__imports_8h_source.html" target="_top" xlink:title=" ">
<polygon fill="white" stroke="black" points="698.5,-0.5 698.5,-30.5 793.5,-30.5 793.5,-0.5 698.5,-0.5"/>
<text text-anchor="start" x="706.5" y="-18.5" font-family="Helvetica,sans-Serif" font-size="10.00">iop/dvrp/dvrdv/src</text>
<text text-anchor="middle" x="746" y="-7.5" font-family="Helvetica,sans-Serif" font-size="10.00">/irx_imports.h</text>
</a>
</g>
</g>
<!-- Node1&#45;&gt;Node8 -->
<g id="edge7" class="edge">
<title>Node1&#45;&gt;Node8</title>
<path fill="none" stroke="midnightblue" d="M746,-57.11C746,-48.15 746,-38.32 746,-30.58"/>
<polygon fill="midnightblue" stroke="midnightblue" points="742.5,-57.4 746,-67.4 749.5,-57.4 742.5,-57.4"/>
</g>
<!-- Node9 -->
<g id="node9" class="node">
<title>Node9</title>
<g id="a_node9"><a xlink:href="dvrfile_8c_source.html" target="_top" xlink:title=" ">
<polygon fill="white" stroke="black" points="812,-0.5 812,-30.5 908,-30.5 908,-0.5 812,-0.5"/>
<text text-anchor="start" x="820" y="-18.5" font-family="Helvetica,sans-Serif" font-size="10.00">iop/dvrp/dvrfile/src</text>
<text text-anchor="middle" x="860" y="-7.5" font-family="Helvetica,sans-Serif" font-size="10.00">/dvrfile.c</text>
</a>
</g>
</g>
<!-- Node1&#45;&gt;Node9 -->
<g id="edge8" class="edge">
<title>Node1&#45;&gt;Node9</title>
<path fill="none" stroke="midnightblue" d="M779.68,-62.3C797.52,-52.12 819.04,-39.85 835.31,-30.58"/>
<polygon fill="midnightblue" stroke="midnightblue" points="777.69,-59.4 770.74,-67.4 781.16,-65.48 777.69,-59.4"/>
</g>
<!-- Node10 -->
<g id="node10" class="node">
<title>Node10</title>
<g id="a_node10"><a xlink:href="iop_2dvrp_2dvrfile_2src_2irx__imports_8h_source.html" target="_top" xlink:title=" ">
<polygon fill="white" stroke="black" points="926,-0.5 926,-30.5 1022,-30.5 1022,-0.5 926,-0.5"/>
<text text-anchor="start" x="934" y="-18.5" font-family="Helvetica,sans-Serif" font-size="10.00">iop/dvrp/dvrfile/src</text>
<text text-anchor="middle" x="974" y="-7.5" font-family="Helvetica,sans-Serif" font-size="10.00">/irx_imports.h</text>
</a>
</g>
</g>
<!-- Node1&#45;&gt;Node10 -->
<g id="edge9" class="edge">
<title>Node1&#45;&gt;Node10</title>
<path fill="none" stroke="midnightblue" d="M804.98,-64.69C842.48,-53.99 890.44,-40.32 925.68,-30.28"/>
<polygon fill="midnightblue" stroke="midnightblue" points="803.85,-61.37 795.19,-67.48 805.77,-68.1 803.85,-61.37"/>
</g>
<!-- Node11 -->
<g id="node11" class="node">
<title>Node11</title>
<g id="a_node11"><a xlink:href="dvripl_8c_source.html" target="_top" xlink:title=" ">
<polygon fill="white" stroke="black" points="1040,-0.5 1040,-30.5 1134,-30.5 1134,-0.5 1040,-0.5"/>
<text text-anchor="start" x="1048" y="-18.5" font-family="Helvetica,sans-Serif" font-size="10.00">iop/dvrp/dvripl/src</text>
<text text-anchor="middle" x="1087" y="-7.5" font-family="Helvetica,sans-Serif" font-size="10.00">/dvripl.c</text>
</a>
</g>
</g>
<!-- Node1&#45;&gt;Node11 -->
<g id="edge10" class="edge">
<title>Node1&#45;&gt;Node11</title>
<path fill="none" stroke="midnightblue" d="M814.8,-70.85C872.7,-61.52 957.58,-46.98 1031,-31 1033.85,-30.38 1036.77,-29.72 1039.71,-29.02"/>
<polygon fill="midnightblue" stroke="midnightblue" points="813.99,-67.44 804.67,-72.48 815.09,-74.35 813.99,-67.44"/>
</g>
<!-- Node12 -->
<g id="node12" class="node">
<title>Node12</title>
<g id="a_node12"><a xlink:href="iop_2dvrp_2dvripl_2src_2irx__imports_8h_source.html" target="_top" xlink:title=" ">
<polygon fill="white" stroke="black" points="1152,-0.5 1152,-30.5 1246,-30.5 1246,-0.5 1152,-0.5"/>
<text text-anchor="start" x="1160" y="-18.5" font-family="Helvetica,sans-Serif" font-size="10.00">iop/dvrp/dvripl/src</text>
<text text-anchor="middle" x="1199" y="-7.5" font-family="Helvetica,sans-Serif" font-size="10.00">/irx_imports.h</text>
</a>
</g>
</g>
<!-- Node1&#45;&gt;Node12 -->
<g id="edge11" class="edge">
<title>Node1&#45;&gt;Node12</title>
<path fill="none" stroke="midnightblue" d="M814.93,-75.41C894.44,-67.77 1028.89,-52.94 1143,-31 1145.86,-30.45 1148.79,-29.84 1151.74,-29.19"/>
<polygon fill="midnightblue" stroke="midnightblue" points="814.18,-71.96 804.56,-76.4 814.84,-78.93 814.18,-71.96"/>
</g>
<!-- Node13 -->
<g id="node13" class="node">
<title>Node13</title>
<g id="a_node13"><a xlink:href="dvrmisc_8c_source.html" target="_top" xlink:title=" ">
<polygon fill="white" stroke="black" points="1264.5,-0.5 1264.5,-30.5 1369.5,-30.5 1369.5,-0.5 1264.5,-0.5"/>
<text text-anchor="start" x="1272.5" y="-18.5" font-family="Helvetica,sans-Serif" font-size="10.00">iop/dvrp/dvrmisc/src</text>
<text text-anchor="middle" x="1317" y="-7.5" font-family="Helvetica,sans-Serif" font-size="10.00">/dvrmisc.c</text>
</a>
</g>
</g>
<!-- Node1&#45;&gt;Node13 -->
<g id="edge12" class="edge">
<title>Node1&#45;&gt;Node13</title>
<path fill="none" stroke="midnightblue" d="M814.81,-77.54C912.99,-71.24 1098.68,-56.92 1255,-31 1258.05,-30.49 1261.18,-29.92 1264.33,-29.31"/>
<polygon fill="midnightblue" stroke="midnightblue" points="814.48,-74.05 804.73,-78.18 814.93,-81.04 814.48,-74.05"/>
</g>
<!-- Node14 -->
<g id="node14" class="node">
<title>Node14</title>
<g id="a_node14"><a xlink:href="iop_2dvrp_2dvrmisc_2src_2irx__imports_8h_source.html" target="_top" xlink:title=" ">
<polygon fill="white" stroke="black" points="1387.5,-0.5 1387.5,-30.5 1492.5,-30.5 1492.5,-0.5 1387.5,-0.5"/>
<text text-anchor="start" x="1395.5" y="-18.5" font-family="Helvetica,sans-Serif" font-size="10.00">iop/dvrp/dvrmisc/src</text>
<text text-anchor="middle" x="1440" y="-7.5" font-family="Helvetica,sans-Serif" font-size="10.00">/irx_imports.h</text>
</a>
</g>
</g>
<!-- Node1&#45;&gt;Node14 -->
<g id="edge13" class="edge">
<title>Node1&#45;&gt;Node14</title>
<path fill="none" stroke="midnightblue" d="M815.05,-79.46C931.83,-75.25 1175.51,-63.11 1379,-31 1381.69,-30.58 1384.43,-30.1 1387.2,-29.58"/>
<polygon fill="midnightblue" stroke="midnightblue" points="814.7,-75.97 804.83,-79.83 814.94,-82.97 814.7,-75.97"/>
</g>
</g>
</svg>
