<?xml version="1.0" encoding="UTF-8" standalone="no"?>
<!DOCTYPE svg PUBLIC "-//W3C//DTD SVG 1.1//EN"
 "http://www.w3.org/Graphics/SVG/1.1/DTD/svg11.dtd">
<!-- Generated by graphviz version 2.49.3 (20211027.1534)
 -->
<!-- Title: common/include/speedregs.h Pages: 1 -->
<svg width="1522pt" height="162pt"
 viewBox="0.00 0.00 1522.00 162.00" xmlns="http://www.w3.org/2000/svg" xmlns:xlink="http://www.w3.org/1999/xlink">
<g id="graph0" class="graph" transform="scale(1 1) rotate(0) translate(4 158)">
<title>common/include/speedregs.h</title>
<polygon fill="white" stroke="transparent" points="-4,4 -4,-158 1518,-158 1518,4 -4,4"/>
<!-- Node1 -->
<g id="node1" class="node">
<title>Node1</title>
<g id="a_node1"><a xlink:title=" ">
<polygon fill="#bfbfbf" stroke="black" points="629,-134.5 629,-153.5 772,-153.5 772,-134.5 629,-134.5"/>
<text text-anchor="middle" x="700.5" y="-141.5" font-family="Helvetica,sans-Serif" font-size="10.00">common/include/speedregs.h</text>
</a>
</g>
</g>
<!-- Node2 -->
<g id="node2" class="node">
<title>Node2</title>
<g id="a_node2"><a xlink:href="atahw_8h.html" target="_top" xlink:title=" ">
<polygon fill="white" stroke="black" points="145,-73 145,-92 270,-92 270,-73 145,-73"/>
<text text-anchor="middle" x="207.5" y="-80" font-family="Helvetica,sans-Serif" font-size="10.00">common/include/atahw.h</text>
</a>
</g>
</g>
<!-- Node1&#45;&gt;Node2 -->
<g id="edge1" class="edge">
<title>Node1&#45;&gt;Node2</title>
<path fill="none" stroke="midnightblue" d="M618.33,-134.19C539.16,-125.54 416.03,-111.7 309.5,-98 295.22,-96.16 279.83,-94.05 265.45,-92.01"/>
<polygon fill="midnightblue" stroke="midnightblue" points="618.4,-137.72 628.72,-135.32 619.16,-130.76 618.4,-137.72"/>
</g>
<!-- Node3 -->
<g id="node3" class="node">
<title>Node3</title>
<g id="a_node3"><a xlink:href="ps2atad_8c.html" target="_top" xlink:title=" ">
<polygon fill="white" stroke="black" points="0,-6 0,-25 137,-25 137,-6 0,-6"/>
<text text-anchor="middle" x="68.5" y="-13" font-family="Helvetica,sans-Serif" font-size="10.00">iop/dev9/atad/src/ps2atad.c</text>
</a>
</g>
</g>
<!-- Node1&#45;&gt;Node3 -->
<g id="edge8" class="edge">
<title>Node1&#45;&gt;Node3</title>
<path fill="none" stroke="midnightblue" d="M618.71,-140.01C472.41,-134.15 177.24,-119.79 135.5,-98 103.67,-81.39 81.31,-42.44 72.57,-25.09"/>
<polygon fill="midnightblue" stroke="midnightblue" points="618.85,-143.52 628.98,-140.42 619.13,-136.53 618.85,-143.52"/>
</g>
<!-- Node5 -->
<g id="node5" class="node">
<title>Node5</title>
<g id="a_node5"><a xlink:href="smapregs_8h.html" target="_top" xlink:title=" ">
<polygon fill="white" stroke="black" points="352,-73 352,-92 493,-92 493,-73 352,-73"/>
<text text-anchor="middle" x="422.5" y="-80" font-family="Helvetica,sans-Serif" font-size="10.00">common/include/smapregs.h</text>
</a>
</g>
</g>
<!-- Node1&#45;&gt;Node5 -->
<g id="edge4" class="edge">
<title>Node1&#45;&gt;Node5</title>
<path fill="none" stroke="midnightblue" d="M650.65,-132.33C596.74,-120.79 511.87,-102.63 462.26,-92.01"/>
<polygon fill="midnightblue" stroke="midnightblue" points="650.16,-135.8 660.67,-134.48 651.62,-128.96 650.16,-135.8"/>
</g>
<!-- Node6 -->
<g id="node6" class="node">
<title>Node6</title>
<g id="a_node6"><a xlink:href="ps2dev9_8c.html" target="_top" xlink:title=" ">
<polygon fill="white" stroke="black" points="278,-6 278,-25 419,-25 419,-6 278,-6"/>
<text text-anchor="middle" x="348.5" y="-13" font-family="Helvetica,sans-Serif" font-size="10.00">iop/dev9/dev9/src/ps2dev9.c</text>
</a>
</g>
</g>
<!-- Node1&#45;&gt;Node6 -->
<g id="edge9" class="edge">
<title>Node1&#45;&gt;Node6</title>
<path fill="none" stroke="midnightblue" d="M618.59,-138.34C518.6,-131.81 360.48,-118.38 342.5,-98 324.48,-77.57 336.86,-41.94 344.18,-25.4"/>
<polygon fill="midnightblue" stroke="midnightblue" points="618.48,-141.84 628.68,-138.99 618.93,-134.86 618.48,-141.84"/>
</g>
<!-- Node7 -->
<g id="node7" class="node">
<title>Node7</title>
<g id="a_node7"><a xlink:href="smap_8c_source.html" target="_top" xlink:title=" ">
<polygon fill="white" stroke="black" points="437.5,-0.5 437.5,-30.5 547.5,-30.5 547.5,-0.5 437.5,-0.5"/>
<text text-anchor="start" x="445.5" y="-18.5" font-family="Helvetica,sans-Serif" font-size="10.00">iop/network/smap/src</text>
<text text-anchor="middle" x="492.5" y="-7.5" font-family="Helvetica,sans-Serif" font-size="10.00">/smap.c</text>
</a>
</g>
</g>
<!-- Node1&#45;&gt;Node7 -->
<g id="edge18" class="edge">
<title>Node1&#45;&gt;Node7</title>
<path fill="none" stroke="midnightblue" d="M649.29,-131.85C623.68,-124.75 592.99,-113.85 568.5,-98 540.24,-79.71 515.29,-48.63 502.2,-30.6"/>
<polygon fill="midnightblue" stroke="midnightblue" points="648.64,-135.3 659.2,-134.48 650.43,-128.53 648.64,-135.3"/>
</g>
<!-- Node8 -->
<g id="node8" class="node">
<title>Node8</title>
<g id="a_node8"><a xlink:href="xfer_8c_source.html" target="_top" xlink:title=" ">
<polygon fill="white" stroke="black" points="565.5,-0.5 565.5,-30.5 675.5,-30.5 675.5,-0.5 565.5,-0.5"/>
<text text-anchor="start" x="573.5" y="-18.5" font-family="Helvetica,sans-Serif" font-size="10.00">iop/network/smap/src</text>
<text text-anchor="middle" x="620.5" y="-7.5" font-family="Helvetica,sans-Serif" font-size="10.00">/xfer.c</text>
</a>
</g>
</g>
<!-- Node1&#45;&gt;Node8 -->
<g id="edge19" class="edge">
<title>Node1&#45;&gt;Node8</title>
<path fill="none" stroke="midnightblue" d="M626.33,-131.29C607.71,-124.64 589.82,-114.24 578.5,-98 563.12,-75.93 586.35,-47.48 603.92,-30.69"/>
<polygon fill="midnightblue" stroke="midnightblue" points="625.51,-134.7 636.1,-134.43 627.66,-128.04 625.51,-134.7"/>
</g>
<!-- Node9 -->
<g id="node9" class="node">
<title>Node9</title>
<g id="a_node9"><a xlink:href="extflash_8c_source.html" target="_top" xlink:title=" ">
<polygon fill="white" stroke="black" points="587.5,-67.5 587.5,-97.5 693.5,-97.5 693.5,-67.5 587.5,-67.5"/>
<text text-anchor="start" x="595.5" y="-85.5" font-family="Helvetica,sans-Serif" font-size="10.00">iop/dev9/extflash/src</text>
<text text-anchor="middle" x="640.5" y="-74.5" font-family="Helvetica,sans-Serif" font-size="10.00">/extflash.c</text>
</a>
</g>
</g>
<!-- Node1&#45;&gt;Node9 -->
<g id="edge10" class="edge">
<title>Node1&#45;&gt;Node9</title>
<path fill="none" stroke="midnightblue" d="M684.74,-127.37C675.4,-118.11 663.68,-106.48 654.64,-97.52"/>
<polygon fill="midnightblue" stroke="midnightblue" points="682.34,-129.92 691.9,-134.48 687.27,-124.95 682.34,-129.92"/>
</g>
<!-- Node10 -->
<g id="node10" class="node">
<title>Node10</title>
<g id="a_node10"><a xlink:href="dvrdrv_8c_source.html" target="_top" xlink:title=" ">
<polygon fill="white" stroke="black" points="711.5,-67.5 711.5,-97.5 811.5,-97.5 811.5,-67.5 711.5,-67.5"/>
<text text-anchor="start" x="719.5" y="-85.5" font-family="Helvetica,sans-Serif" font-size="10.00">iop/dev9/pvrdrv/src</text>
<text text-anchor="middle" x="761.5" y="-74.5" font-family="Helvetica,sans-Serif" font-size="10.00">/dvrdrv.c</text>
</a>
</g>
</g>
<!-- Node1&#45;&gt;Node10 -->
<g id="edge11" class="edge">
<title>Node1&#45;&gt;Node10</title>
<path fill="none" stroke="midnightblue" d="M716.53,-127.37C726.01,-118.11 737.94,-106.48 747.12,-97.52"/>
<polygon fill="midnightblue" stroke="midnightblue" points="713.95,-124.99 709.24,-134.48 718.84,-130 713.95,-124.99"/>
</g>
<!-- Node11 -->
<g id="node11" class="node">
<title>Node11</title>
<g id="a_node11"><a xlink:href="dvr_8c_source.html" target="_top" xlink:title=" ">
<polygon fill="white" stroke="black" points="829.5,-73 829.5,-92 937.5,-92 937.5,-73 829.5,-73"/>
<text text-anchor="middle" x="883.5" y="-80" font-family="Helvetica,sans-Serif" font-size="10.00">iop/dvrp/dvr/src/dvr.c</text>
</a>
</g>
</g>
<!-- Node1&#45;&gt;Node11 -->
<g id="edge12" class="edge">
<title>Node1&#45;&gt;Node11</title>
<path fill="none" stroke="midnightblue" d="M736.24,-131.38C771.81,-119.82 825.55,-102.34 857.33,-92.01"/>
<polygon fill="midnightblue" stroke="midnightblue" points="735.15,-128.05 726.72,-134.48 737.31,-134.71 735.15,-128.05"/>
</g>
<!-- Node12 -->
<g id="node12" class="node">
<title>Node12</title>
<g id="a_node12"><a xlink:href="dvrav_8c_source.html" target="_top" xlink:title=" ">
<polygon fill="white" stroke="black" points="956,-67.5 956,-97.5 1051,-97.5 1051,-67.5 956,-67.5"/>
<text text-anchor="start" x="964" y="-85.5" font-family="Helvetica,sans-Serif" font-size="10.00">iop/dvrp/dvrav/src</text>
<text text-anchor="middle" x="1003.5" y="-74.5" font-family="Helvetica,sans-Serif" font-size="10.00">/dvrav.c</text>
</a>
</g>
</g>
<!-- Node1&#45;&gt;Node12 -->
<g id="edge13" class="edge">
<title>Node1&#45;&gt;Node12</title>
<path fill="none" stroke="midnightblue" d="M763,-132.78C812.86,-124.33 884.4,-111.56 946.5,-98 949.59,-97.32 952.77,-96.6 955.97,-95.85"/>
<polygon fill="midnightblue" stroke="midnightblue" points="762.29,-129.35 753.01,-134.46 763.46,-136.25 762.29,-129.35"/>
</g>
<!-- Node13 -->
<g id="node13" class="node">
<title>Node13</title>
<g id="a_node13"><a xlink:href="dvrdv_8c_source.html" target="_top" xlink:title=" ">
<polygon fill="white" stroke="black" points="1069,-67.5 1069,-97.5 1164,-97.5 1164,-67.5 1069,-67.5"/>
<text text-anchor="start" x="1077" y="-85.5" font-family="Helvetica,sans-Serif" font-size="10.00">iop/dvrp/dvrdv/src</text>
<text text-anchor="middle" x="1116.5" y="-74.5" font-family="Helvetica,sans-Serif" font-size="10.00">/dvrdv.c</text>
</a>
</g>
</g>
<!-- Node1&#45;&gt;Node13 -->
<g id="edge14" class="edge">
<title>Node1&#45;&gt;Node13</title>
<path fill="none" stroke="midnightblue" d="M782.39,-135.8C855.67,-128.64 965.81,-116.1 1060.5,-98 1063.26,-97.47 1066.09,-96.89 1068.94,-96.26"/>
<polygon fill="midnightblue" stroke="midnightblue" points="781.92,-132.33 772.3,-136.78 782.59,-139.3 781.92,-132.33"/>
</g>
<!-- Node14 -->
<g id="node14" class="node">
<title>Node14</title>
<g id="a_node14"><a xlink:href="dvrfile_8c_source.html" target="_top" xlink:title=" ">
<polygon fill="white" stroke="black" points="1182.5,-67.5 1182.5,-97.5 1278.5,-97.5 1278.5,-67.5 1182.5,-67.5"/>
<text text-anchor="start" x="1190.5" y="-85.5" font-family="Helvetica,sans-Serif" font-size="10.00">iop/dvrp/dvrfile/src</text>
<text text-anchor="middle" x="1230.5" y="-74.5" font-family="Helvetica,sans-Serif" font-size="10.00">/dvrfile.c</text>
</a>
</g>
</g>
<!-- Node1&#45;&gt;Node14 -->
<g id="edge15" class="edge">
<title>Node1&#45;&gt;Node14</title>
<path fill="none" stroke="midnightblue" d="M782.36,-139.05C877.08,-133.6 1037.45,-121.63 1173.5,-98 1176.42,-97.49 1179.41,-96.92 1182.41,-96.29"/>
<polygon fill="midnightblue" stroke="midnightblue" points="782.06,-135.56 772.28,-139.62 782.46,-142.55 782.06,-135.56"/>
</g>
<!-- Node15 -->
<g id="node15" class="node">
<title>Node15</title>
<g id="a_node15"><a xlink:href="dvripl_8c_source.html" target="_top" xlink:title=" ">
<polygon fill="white" stroke="black" points="1296.5,-67.5 1296.5,-97.5 1390.5,-97.5 1390.5,-67.5 1296.5,-67.5"/>
<text text-anchor="start" x="1304.5" y="-85.5" font-family="Helvetica,sans-Serif" font-size="10.00">iop/dvrp/dvripl/src</text>
<text text-anchor="middle" x="1343.5" y="-74.5" font-family="Helvetica,sans-Serif" font-size="10.00">/dvripl.c</text>
</a>
</g>
</g>
<!-- Node1&#45;&gt;Node15 -->
<g id="edge16" class="edge">
<title>Node1&#45;&gt;Node15</title>
<path fill="none" stroke="midnightblue" d="M782.42,-141.28C896.38,-137.86 1108.89,-127.73 1287.5,-98 1290.37,-97.52 1293.31,-96.97 1296.27,-96.36"/>
<polygon fill="midnightblue" stroke="midnightblue" points="782.27,-137.79 772.38,-141.58 782.47,-144.78 782.27,-137.79"/>
</g>
<!-- Node16 -->
<g id="node16" class="node">
<title>Node16</title>
<g id="a_node16"><a xlink:href="dvrmisc_8c_source.html" target="_top" xlink:title=" ">
<polygon fill="white" stroke="black" points="1409,-67.5 1409,-97.5 1514,-97.5 1514,-67.5 1409,-67.5"/>
<text text-anchor="start" x="1417" y="-85.5" font-family="Helvetica,sans-Serif" font-size="10.00">iop/dvrp/dvrmisc/src</text>
<text text-anchor="middle" x="1461.5" y="-74.5" font-family="Helvetica,sans-Serif" font-size="10.00">/dvrmisc.c</text>
</a>
</g>
</g>
<!-- Node1&#45;&gt;Node16 -->
<g id="edge17" class="edge">
<title>Node1&#45;&gt;Node16</title>
<path fill="none" stroke="midnightblue" d="M782.45,-142.11C913.49,-139.7 1177.99,-130.8 1399.5,-98 1402.56,-97.55 1405.7,-97.02 1408.85,-96.44"/>
<polygon fill="midnightblue" stroke="midnightblue" points="782.04,-138.61 772.1,-142.29 782.16,-145.61 782.04,-138.61"/>
</g>
<!-- Node2&#45;&gt;Node3 -->
<g id="edge2" class="edge">
<title>Node2&#45;&gt;Node3</title>
<path fill="none" stroke="midnightblue" d="M179.94,-68.61C152.41,-55.74 110.85,-36.31 87.03,-25.17"/>
<polygon fill="midnightblue" stroke="midnightblue" points="178.5,-71.8 189.04,-72.87 181.47,-65.46 178.5,-71.8"/>
</g>
<!-- Node4 -->
<g id="node4" class="node">
<title>Node4</title>
<g id="a_node4"><a xlink:href="hdproatad_8c_source.html" target="_top" xlink:title=" ">
<polygon fill="white" stroke="black" points="155.5,-0.5 155.5,-30.5 259.5,-30.5 259.5,-0.5 155.5,-0.5"/>
<text text-anchor="start" x="163.5" y="-18.5" font-family="Helvetica,sans-Serif" font-size="10.00">iop/dev9/hdpro_atad</text>
<text text-anchor="middle" x="207.5" y="-7.5" font-family="Helvetica,sans-Serif" font-size="10.00">/src/hdproatad.c</text>
</a>
</g>
</g>
<!-- Node2&#45;&gt;Node4 -->
<g id="edge3" class="edge">
<title>Node2&#45;&gt;Node4</title>
<path fill="none" stroke="midnightblue" d="M207.5,-62.41C207.5,-52.22 207.5,-39.9 207.5,-30.59"/>
<polygon fill="midnightblue" stroke="midnightblue" points="204,-62.73 207.5,-72.73 211,-62.73 204,-62.73"/>
</g>
<!-- Node5&#45;&gt;Node6 -->
<g id="edge5" class="edge">
<title>Node5&#45;&gt;Node6</title>
<path fill="none" stroke="midnightblue" d="M404.69,-65.86C390.14,-53.08 370.12,-35.49 358.32,-25.13"/>
<polygon fill="midnightblue" stroke="midnightblue" points="402.7,-68.76 412.52,-72.73 407.32,-63.5 402.7,-68.76"/>
</g>
<!-- Node5&#45;&gt;Node7 -->
<g id="edge6" class="edge">
<title>Node5&#45;&gt;Node7</title>
<path fill="none" stroke="midnightblue" d="M439.27,-65.93C450.85,-55.18 466.11,-41 477.33,-30.59"/>
<polygon fill="midnightblue" stroke="midnightblue" points="436.89,-63.36 431.94,-72.73 441.65,-68.49 436.89,-63.36"/>
</g>
<!-- Node5&#45;&gt;Node8 -->
<g id="edge7" class="edge">
<title>Node5&#45;&gt;Node8</title>
<path fill="none" stroke="midnightblue" d="M458.65,-69.63C492.22,-58.61 542.23,-42.19 577.77,-30.53"/>
<polygon fill="midnightblue" stroke="midnightblue" points="457.2,-66.42 448.79,-72.87 459.39,-73.07 457.2,-66.42"/>
</g>
</g>
</svg>
