<?xml version="1.0" encoding="UTF-8" standalone="no"?>
<!DOCTYPE svg PUBLIC "-//W3C//DTD SVG 1.1//EN"
 "http://www.w3.org/Graphics/SVG/1.1/DTD/svg11.dtd">
<!-- Generated by graphviz version 2.49.3 (20211027.1534)
 -->
<!-- Title: GS_TRIANGLE_FT3_P Pages: 1 -->
<svg width="349pt" height="184pt"
 viewBox="0.00 0.00 348.50 184.00" xmlns="http://www.w3.org/2000/svg" xmlns:xlink="http://www.w3.org/1999/xlink">
<g id="graph0" class="graph" transform="scale(1 1) rotate(0) translate(4 180)">
<title>GS_TRIANGLE_FT3_P</title>
<polygon fill="white" stroke="transparent" points="-4,4 -4,-180 344.5,-180 344.5,4 -4,4"/>
<!-- Node1 -->
<g id="node1" class="node">
<title>Node1</title>
<g id="a_node1"><a xlink:title=" ">
<polygon fill="#bfbfbf" stroke="black" points="117.5,-0.5 117.5,-19.5 237.5,-19.5 237.5,-0.5 117.5,-0.5"/>
<text text-anchor="middle" x="177.5" y="-7.5" font-family="Helvetica,sans-Serif" font-size="10.00">GS_TRIANGLE_FT3_P</text>
</a>
</g>
</g>
<!-- Node2 -->
<g id="node2" class="node">
<title>Node2</title>
<g id="a_node2"><a xlink:href="libgs_8h.html#struct_g_s___r___p_r_i_m" target="_top" xlink:title=" ">
<polygon fill="white" stroke="black" points="0,-89.5 0,-108.5 73,-108.5 73,-89.5 0,-89.5"/>
<text text-anchor="middle" x="36.5" y="-96.5" font-family="Helvetica,sans-Serif" font-size="10.00">GS_R_PRIM</text>
</a>
</g>
</g>
<!-- Node2&#45;&gt;Node1 -->
<g id="edge1" class="edge">
<title>Node2&#45;&gt;Node1</title>
<path fill="none" stroke="#9a32cd" stroke-dasharray="5,2" d="M55.24,-82.87C71.62,-70.03 96.34,-51.59 119.5,-38 131.38,-31.03 145.36,-24.48 156.61,-19.57"/>
<polygon fill="#9a32cd" stroke="#9a32cd" points="52.72,-80.4 47.06,-89.35 57.07,-85.88 52.72,-80.4"/>
<text text-anchor="middle" x="130.5" y="-52" font-family="Helvetica,sans-Serif" font-size="10.00"> prim</text>
</g>
<!-- Node3 -->
<g id="node3" class="node">
<title>Node3</title>
<g id="a_node3"><a xlink:href="libgs_8h.html#struct_g_s___p_r_i_m" target="_top" xlink:title=" ">
<polygon fill="white" stroke="black" points="6,-156.5 6,-175.5 67,-175.5 67,-156.5 6,-156.5"/>
<text text-anchor="middle" x="36.5" y="-163.5" font-family="Helvetica,sans-Serif" font-size="10.00">GS_PRIM</text>
</a>
</g>
</g>
<!-- Node3&#45;&gt;Node2 -->
<g id="edge2" class="edge">
<title>Node3&#45;&gt;Node2</title>
<path fill="none" stroke="#9a32cd" stroke-dasharray="5,2" d="M36.5,-146.04C36.5,-133.67 36.5,-118.12 36.5,-108.63"/>
<polygon fill="#9a32cd" stroke="#9a32cd" points="33,-146.23 36.5,-156.23 40,-146.23 33,-146.23"/>
<text text-anchor="middle" x="47.5" y="-130" font-family="Helvetica,sans-Serif" font-size="10.00"> data</text>
</g>
<!-- Node4 -->
<g id="node4" class="node">
<title>Node4</title>
<g id="a_node4"><a xlink:href="libgs_8h.html#struct_g_s___r___r_g_b_a_q" target="_top" xlink:title=" ">
<polygon fill="white" stroke="black" points="91,-89.5 91,-108.5 174,-108.5 174,-89.5 91,-89.5"/>
<text text-anchor="middle" x="132.5" y="-96.5" font-family="Helvetica,sans-Serif" font-size="10.00">GS_R_RGBAQ</text>
</a>
</g>
</g>
<!-- Node4&#45;&gt;Node1 -->
<g id="edge3" class="edge">
<title>Node4&#45;&gt;Node1</title>
<path fill="none" stroke="#9a32cd" stroke-dasharray="5,2" d="M140.24,-79.89C145.57,-67.83 153.01,-51.74 160.5,-38 163.89,-31.78 168.14,-25.03 171.55,-19.83"/>
<polygon fill="#9a32cd" stroke="#9a32cd" points="136.93,-78.72 136.16,-89.29 143.35,-81.51 136.93,-78.72"/>
<text text-anchor="middle" x="176.5" y="-52" font-family="Helvetica,sans-Serif" font-size="10.00"> rgbaq0</text>
</g>
<!-- Node5 -->
<g id="node5" class="node">
<title>Node5</title>
<g id="a_node5"><a xlink:href="libgs_8h.html#struct_g_s___r_g_b_a_q" target="_top" xlink:title=" ">
<polygon fill="white" stroke="black" points="97,-156.5 97,-175.5 168,-175.5 168,-156.5 97,-156.5"/>
<text text-anchor="middle" x="132.5" y="-163.5" font-family="Helvetica,sans-Serif" font-size="10.00">GS_RGBAQ</text>
</a>
</g>
</g>
<!-- Node5&#45;&gt;Node4 -->
<g id="edge4" class="edge">
<title>Node5&#45;&gt;Node4</title>
<path fill="none" stroke="#9a32cd" stroke-dasharray="5,2" d="M132.5,-146.04C132.5,-133.67 132.5,-118.12 132.5,-108.63"/>
<polygon fill="#9a32cd" stroke="#9a32cd" points="129,-146.23 132.5,-156.23 136,-146.23 129,-146.23"/>
<text text-anchor="middle" x="143.5" y="-130" font-family="Helvetica,sans-Serif" font-size="10.00"> data</text>
</g>
<!-- Node6 -->
<g id="node6" class="node">
<title>Node6</title>
<g id="a_node6"><a xlink:href="libgs_8h.html#struct_g_s___r___u_v" target="_top" xlink:title=" ">
<polygon fill="white" stroke="black" points="192.5,-89.5 192.5,-108.5 254.5,-108.5 254.5,-89.5 192.5,-89.5"/>
<text text-anchor="middle" x="223.5" y="-96.5" font-family="Helvetica,sans-Serif" font-size="10.00">GS_R_UV</text>
</a>
</g>
</g>
<!-- Node6&#45;&gt;Node1 -->
<g id="edge5" class="edge">
<title>Node6&#45;&gt;Node1</title>
<path fill="none" stroke="#9a32cd" stroke-dasharray="5,2" d="M214.62,-80.47C208.49,-68.46 200.12,-52.21 192.5,-38 189.26,-31.95 185.51,-25.2 182.57,-19.96"/>
<polygon fill="#9a32cd" stroke="#9a32cd" points="211.51,-82.08 219.17,-89.41 217.75,-78.91 211.51,-82.08"/>
<text text-anchor="middle" x="220" y="-63" font-family="Helvetica,sans-Serif" font-size="10.00"> uv0</text>
<text text-anchor="middle" x="220" y="-52" font-family="Helvetica,sans-Serif" font-size="10.00">uv1</text>
<text text-anchor="middle" x="220" y="-41" font-family="Helvetica,sans-Serif" font-size="10.00">uv2</text>
</g>
<!-- Node7 -->
<g id="node7" class="node">
<title>Node7</title>
<g id="a_node7"><a xlink:href="libgs_8h.html#struct_g_s___u_v" target="_top" xlink:title=" ">
<polygon fill="white" stroke="black" points="198.5,-156.5 198.5,-175.5 248.5,-175.5 248.5,-156.5 198.5,-156.5"/>
<text text-anchor="middle" x="223.5" y="-163.5" font-family="Helvetica,sans-Serif" font-size="10.00">GS_UV</text>
</a>
</g>
</g>
<!-- Node7&#45;&gt;Node6 -->
<g id="edge6" class="edge">
<title>Node7&#45;&gt;Node6</title>
<path fill="none" stroke="#9a32cd" stroke-dasharray="5,2" d="M223.5,-146.04C223.5,-133.67 223.5,-118.12 223.5,-108.63"/>
<polygon fill="#9a32cd" stroke="#9a32cd" points="220,-146.23 223.5,-156.23 227,-146.23 220,-146.23"/>
<text text-anchor="middle" x="234.5" y="-130" font-family="Helvetica,sans-Serif" font-size="10.00"> data</text>
</g>
<!-- Node8 -->
<g id="node8" class="node">
<title>Node8</title>
<g id="a_node8"><a xlink:href="libgs_8h.html#struct_g_s___r___x_y_z" target="_top" xlink:title=" ">
<polygon fill="white" stroke="black" points="272.5,-89.5 272.5,-108.5 340.5,-108.5 340.5,-89.5 272.5,-89.5"/>
<text text-anchor="middle" x="306.5" y="-96.5" font-family="Helvetica,sans-Serif" font-size="10.00">GS_R_XYZ</text>
</a>
</g>
</g>
<!-- Node8&#45;&gt;Node1 -->
<g id="edge7" class="edge">
<title>Node8&#45;&gt;Node1</title>
<path fill="none" stroke="#9a32cd" stroke-dasharray="5,2" d="M290.12,-82.59C275.87,-69.69 254.3,-51.29 233.5,-38 222.31,-30.85 208.95,-24.34 198.08,-19.5"/>
<polygon fill="#9a32cd" stroke="#9a32cd" points="287.87,-85.28 297.6,-89.48 292.61,-80.13 287.87,-85.28"/>
<text text-anchor="middle" x="287.5" y="-63" font-family="Helvetica,sans-Serif" font-size="10.00"> xyz0</text>
<text text-anchor="middle" x="287.5" y="-52" font-family="Helvetica,sans-Serif" font-size="10.00">xyz1</text>
<text text-anchor="middle" x="287.5" y="-41" font-family="Helvetica,sans-Serif" font-size="10.00">xyz2</text>
</g>
<!-- Node9 -->
<g id="node9" class="node">
<title>Node9</title>
<g id="a_node9"><a xlink:href="libgs_8h.html#struct_g_s___x_y_z" target="_top" xlink:title=" ">
<polygon fill="white" stroke="black" points="278.5,-156.5 278.5,-175.5 334.5,-175.5 334.5,-156.5 278.5,-156.5"/>
<text text-anchor="middle" x="306.5" y="-163.5" font-family="Helvetica,sans-Serif" font-size="10.00">GS_XYZ</text>
</a>
</g>
</g>
<!-- Node9&#45;&gt;Node8 -->
<g id="edge8" class="edge">
<title>Node9&#45;&gt;Node8</title>
<path fill="none" stroke="#9a32cd" stroke-dasharray="5,2" d="M306.5,-146.04C306.5,-133.67 306.5,-118.12 306.5,-108.63"/>
<polygon fill="#9a32cd" stroke="#9a32cd" points="303,-146.23 306.5,-156.23 310,-146.23 303,-146.23"/>
<text text-anchor="middle" x="317.5" y="-130" font-family="Helvetica,sans-Serif" font-size="10.00"> data</text>
</g>
</g>
</svg>
