<?xml version="1.0" encoding="UTF-8" standalone="no"?>
<!DOCTYPE svg PUBLIC "-//W3C//DTD SVG 1.1//EN"
 "http://www.w3.org/Graphics/SVG/1.1/DTD/svg11.dtd">
<!-- Generated by graphviz version 2.49.3 (20211027.1534)
 -->
<!-- Title: GS_SPRITE_F4_P Pages: 1 -->
<svg width="269pt" height="173pt"
 viewBox="0.00 0.00 268.50 173.00" xmlns="http://www.w3.org/2000/svg" xmlns:xlink="http://www.w3.org/1999/xlink">
<g id="graph0" class="graph" transform="scale(1 1) rotate(0) translate(4 169)">
<title>GS_SPRITE_F4_P</title>
<polygon fill="white" stroke="transparent" points="-4,4 -4,-169 264.5,-169 264.5,4 -4,4"/>
<!-- Node1 -->
<g id="node1" class="node">
<title>Node1</title>
<g id="a_node1"><a xlink:title=" ">
<polygon fill="#bfbfbf" stroke="black" points="82.5,-0.5 82.5,-19.5 182.5,-19.5 182.5,-0.5 82.5,-0.5"/>
<text text-anchor="middle" x="132.5" y="-7.5" font-family="Helvetica,sans-Serif" font-size="10.00">GS_SPRITE_F4_P</text>
</a>
</g>
</g>
<!-- Node2 -->
<g id="node2" class="node">
<title>Node2</title>
<g id="a_node2"><a xlink:href="libgs_8h.html#struct_g_s___r___p_r_i_m" target="_top" xlink:title=" ">
<polygon fill="white" stroke="black" points="0,-78.5 0,-97.5 73,-97.5 73,-78.5 0,-78.5"/>
<text text-anchor="middle" x="36.5" y="-85.5" font-family="Helvetica,sans-Serif" font-size="10.00">GS_R_PRIM</text>
</a>
</g>
</g>
<!-- Node2&#45;&gt;Node1 -->
<g id="edge1" class="edge">
<title>Node2&#45;&gt;Node1</title>
<path fill="none" stroke="#9a32cd" stroke-dasharray="5,2" d="M55.52,-71.94C75.3,-56.28 105.56,-32.33 121.62,-19.62"/>
<polygon fill="#9a32cd" stroke="#9a32cd" points="53.18,-69.33 47.51,-78.28 57.53,-74.82 53.18,-69.33"/>
<text text-anchor="middle" x="107.5" y="-46.5" font-family="Helvetica,sans-Serif" font-size="10.00"> prim</text>
</g>
<!-- Node3 -->
<g id="node3" class="node">
<title>Node3</title>
<g id="a_node3"><a xlink:href="libgs_8h.html#struct_g_s___p_r_i_m" target="_top" xlink:title=" ">
<polygon fill="white" stroke="black" points="6,-145.5 6,-164.5 67,-164.5 67,-145.5 6,-145.5"/>
<text text-anchor="middle" x="36.5" y="-152.5" font-family="Helvetica,sans-Serif" font-size="10.00">GS_PRIM</text>
</a>
</g>
</g>
<!-- Node3&#45;&gt;Node2 -->
<g id="edge2" class="edge">
<title>Node3&#45;&gt;Node2</title>
<path fill="none" stroke="#9a32cd" stroke-dasharray="5,2" d="M36.5,-135.04C36.5,-122.67 36.5,-107.12 36.5,-97.63"/>
<polygon fill="#9a32cd" stroke="#9a32cd" points="33,-135.23 36.5,-145.23 40,-135.23 33,-135.23"/>
<text text-anchor="middle" x="47.5" y="-119" font-family="Helvetica,sans-Serif" font-size="10.00"> data</text>
</g>
<!-- Node4 -->
<g id="node4" class="node">
<title>Node4</title>
<g id="a_node4"><a xlink:href="libgs_8h.html#struct_g_s___r___r_g_b_a_q" target="_top" xlink:title=" ">
<polygon fill="white" stroke="black" points="91,-78.5 91,-97.5 174,-97.5 174,-78.5 91,-78.5"/>
<text text-anchor="middle" x="132.5" y="-85.5" font-family="Helvetica,sans-Serif" font-size="10.00">GS_R_RGBAQ</text>
</a>
</g>
</g>
<!-- Node4&#45;&gt;Node1 -->
<g id="edge3" class="edge">
<title>Node4&#45;&gt;Node1</title>
<path fill="none" stroke="#9a32cd" stroke-dasharray="5,2" d="M132.5,-68.22C132.5,-52.7 132.5,-31.36 132.5,-19.62"/>
<polygon fill="#9a32cd" stroke="#9a32cd" points="129,-68.28 132.5,-78.28 136,-68.28 129,-68.28"/>
<text text-anchor="middle" x="148.5" y="-46.5" font-family="Helvetica,sans-Serif" font-size="10.00"> rgbaq0</text>
</g>
<!-- Node5 -->
<g id="node5" class="node">
<title>Node5</title>
<g id="a_node5"><a xlink:href="libgs_8h.html#struct_g_s___r_g_b_a_q" target="_top" xlink:title=" ">
<polygon fill="white" stroke="black" points="97,-145.5 97,-164.5 168,-164.5 168,-145.5 97,-145.5"/>
<text text-anchor="middle" x="132.5" y="-152.5" font-family="Helvetica,sans-Serif" font-size="10.00">GS_RGBAQ</text>
</a>
</g>
</g>
<!-- Node5&#45;&gt;Node4 -->
<g id="edge4" class="edge">
<title>Node5&#45;&gt;Node4</title>
<path fill="none" stroke="#9a32cd" stroke-dasharray="5,2" d="M132.5,-135.04C132.5,-122.67 132.5,-107.12 132.5,-97.63"/>
<polygon fill="#9a32cd" stroke="#9a32cd" points="129,-135.23 132.5,-145.23 136,-135.23 129,-135.23"/>
<text text-anchor="middle" x="143.5" y="-119" font-family="Helvetica,sans-Serif" font-size="10.00"> data</text>
</g>
<!-- Node6 -->
<g id="node6" class="node">
<title>Node6</title>
<g id="a_node6"><a xlink:href="libgs_8h.html#struct_g_s___r___x_y_z" target="_top" xlink:title=" ">
<polygon fill="white" stroke="black" points="192.5,-78.5 192.5,-97.5 260.5,-97.5 260.5,-78.5 192.5,-78.5"/>
<text text-anchor="middle" x="226.5" y="-85.5" font-family="Helvetica,sans-Serif" font-size="10.00">GS_R_XYZ</text>
</a>
</g>
</g>
<!-- Node6&#45;&gt;Node1 -->
<g id="edge5" class="edge">
<title>Node6&#45;&gt;Node1</title>
<path fill="none" stroke="#9a32cd" stroke-dasharray="5,2" d="M208.51,-71.34C197.17,-61.58 182.14,-48.86 168.5,-38 160.56,-31.67 151.4,-24.81 144.3,-19.59"/>
<polygon fill="#9a32cd" stroke="#9a32cd" points="206.53,-74.25 216.38,-78.14 211.11,-68.96 206.53,-74.25"/>
<text text-anchor="middle" x="205.5" y="-52" font-family="Helvetica,sans-Serif" font-size="10.00"> xyz0</text>
<text text-anchor="middle" x="205.5" y="-41" font-family="Helvetica,sans-Serif" font-size="10.00">xyz1</text>
</g>
<!-- Node7 -->
<g id="node7" class="node">
<title>Node7</title>
<g id="a_node7"><a xlink:href="libgs_8h.html#struct_g_s___x_y_z" target="_top" xlink:title=" ">
<polygon fill="white" stroke="black" points="198.5,-145.5 198.5,-164.5 254.5,-164.5 254.5,-145.5 198.5,-145.5"/>
<text text-anchor="middle" x="226.5" y="-152.5" font-family="Helvetica,sans-Serif" font-size="10.00">GS_XYZ</text>
</a>
</g>
</g>
<!-- Node7&#45;&gt;Node6 -->
<g id="edge6" class="edge">
<title>Node7&#45;&gt;Node6</title>
<path fill="none" stroke="#9a32cd" stroke-dasharray="5,2" d="M226.5,-135.04C226.5,-122.67 226.5,-107.12 226.5,-97.63"/>
<polygon fill="#9a32cd" stroke="#9a32cd" points="223,-135.23 226.5,-145.23 230,-135.23 223,-135.23"/>
<text text-anchor="middle" x="237.5" y="-119" font-family="Helvetica,sans-Serif" font-size="10.00"> data</text>
</g>
</g>
</svg>
