<?xml version="1.0" encoding="UTF-8" standalone="no"?>
<!DOCTYPE svg PUBLIC "-//W3C//DTD SVG 1.1//EN"
 "http://www.w3.org/Graphics/SVG/1.1/DTD/svg11.dtd">
<!-- Generated by graphviz version 2.49.3 (20211027.1534)
 -->
<!-- Title: RmData Pages: 1 -->
<svg width="192pt" height="184pt"
 viewBox="0.00 0.00 191.50 184.00" xmlns="http://www.w3.org/2000/svg" xmlns:xlink="http://www.w3.org/1999/xlink">
<g id="graph0" class="graph" transform="scale(1 1) rotate(0) translate(4 180)">
<title>RmData</title>
<polygon fill="white" stroke="transparent" points="-4,4 -4,-180 187.5,-180 187.5,4 -4,4"/>
<!-- Node1 -->
<g id="node1" class="node">
<title>Node1</title>
<g id="a_node1"><a xlink:title=" ">
<polygon fill="#bfbfbf" stroke="black" points="35,-0.5 35,-19.5 87,-19.5 87,-0.5 35,-0.5"/>
<text text-anchor="middle" x="61" y="-7.5" font-family="Helvetica,sans-Serif" font-size="10.00">RmData</text>
</a>
</g>
</g>
<!-- Node2 -->
<g id="node2" class="node">
<title>Node2</title>
<g id="a_node2"><a xlink:href="librm-common_8h.html#structrm_e_e_data" target="_top" xlink:title=" ">
<polygon fill="white" stroke="black" points="0,-78.5 0,-97.5 60,-97.5 60,-78.5 0,-78.5"/>
<text text-anchor="middle" x="30" y="-85.5" font-family="Helvetica,sans-Serif" font-size="10.00">rmEEData</text>
</a>
</g>
</g>
<!-- Node2&#45;&gt;Node1 -->
<g id="edge1" class="edge">
<title>Node2&#45;&gt;Node1</title>
<path fill="none" stroke="#9a32cd" stroke-dasharray="5,2" d="M37.47,-68.67C43.82,-53.11 52.65,-31.47 57.49,-19.62"/>
<polygon fill="#9a32cd" stroke="#9a32cd" points="34.09,-67.7 33.56,-78.28 40.57,-70.34 34.09,-67.7"/>
<text text-anchor="middle" x="69.5" y="-52" font-family="Helvetica,sans-Serif" font-size="10.00"> eeBuffer</text>
<text text-anchor="middle" x="69.5" y="-41" font-family="Helvetica,sans-Serif" font-size="10.00">eeData</text>
</g>
<!-- Node3 -->
<g id="node3" class="node">
<title>Node3</title>
<g id="a_node3"><a xlink:href="sio2man_8h.html#structsio2__transfer__data__t" target="_top" xlink:title=" ">
<polygon fill="white" stroke="black" points="78.5,-78.5 78.5,-97.5 183.5,-97.5 183.5,-78.5 78.5,-78.5"/>
<text text-anchor="middle" x="131" y="-85.5" font-family="Helvetica,sans-Serif" font-size="10.00">sio2_transfer_data_t</text>
</a>
</g>
</g>
<!-- Node3&#45;&gt;Node1 -->
<g id="edge2" class="edge">
<title>Node3&#45;&gt;Node1</title>
<path fill="none" stroke="#9a32cd" stroke-dasharray="5,2" d="M117.5,-70.47C109.44,-60.8 98.89,-48.48 89,-38 82.98,-31.61 75.85,-24.75 70.29,-19.54"/>
<polygon fill="#9a32cd" stroke="#9a32cd" points="115.04,-72.98 124.1,-78.47 120.43,-68.53 115.04,-72.98"/>
<text text-anchor="middle" x="127.5" y="-46.5" font-family="Helvetica,sans-Serif" font-size="10.00"> sio2Data</text>
</g>
<!-- Node4 -->
<g id="node4" class="node">
<title>Node4</title>
<g id="a_node4"><a xlink:href="sio2man_8h.html#struct__sio2__dma__arg" target="_top" xlink:title=" ">
<polygon fill="white" stroke="black" points="89.5,-156.5 89.5,-175.5 172.5,-175.5 172.5,-156.5 89.5,-156.5"/>
<text text-anchor="middle" x="131" y="-163.5" font-family="Helvetica,sans-Serif" font-size="10.00">_sio2_dma_arg</text>
</a>
</g>
</g>
<!-- Node4&#45;&gt;Node3 -->
<g id="edge3" class="edge">
<title>Node4&#45;&gt;Node3</title>
<path fill="none" stroke="#9a32cd" stroke-dasharray="5,2" d="M131,-146.22C131,-130.7 131,-109.36 131,-97.62"/>
<polygon fill="#9a32cd" stroke="#9a32cd" points="127.5,-146.28 131,-156.28 134.5,-146.28 127.5,-146.28"/>
<text text-anchor="middle" x="150" y="-130" font-family="Helvetica,sans-Serif" font-size="10.00"> in_dma</text>
<text text-anchor="middle" x="150" y="-119" font-family="Helvetica,sans-Serif" font-size="10.00">out_dma</text>
</g>
</g>
</svg>
