<?xml version="1.0" encoding="UTF-8" standalone="no"?>
<!DOCTYPE svg PUBLIC "-//W3C//DTD SVG 1.1//EN"
 "http://www.w3.org/Graphics/SVG/1.1/DTD/svg11.dtd">
<!-- Generated by graphviz version 2.49.3 (20211027.1534)
 -->
<!-- Title: hdd_file_slot_t Pages: 1 -->
<svg width="159pt" height="229pt"
 viewBox="0.00 0.00 158.50 229.00" xmlns="http://www.w3.org/2000/svg" xmlns:xlink="http://www.w3.org/1999/xlink">
<g id="graph0" class="graph" transform="scale(1 1) rotate(0) translate(4 225)">
<title>hdd_file_slot_t</title>
<polygon fill="white" stroke="transparent" points="-4,4 -4,-225 154.5,-225 154.5,4 -4,4"/>
<!-- Node1 -->
<g id="node1" class="node">
<title>Node1</title>
<g id="a_node1"><a xlink:title=" ">
<polygon fill="#bfbfbf" stroke="black" points="61,-0.5 61,-19.5 140,-19.5 140,-0.5 61,-0.5"/>
<text text-anchor="middle" x="100.5" y="-7.5" font-family="Helvetica,sans-Serif" font-size="10.00">hdd_file_slot_t</text>
</a>
</g>
</g>
<!-- Node2 -->
<g id="node2" class="node">
<title>Node2</title>
<g id="a_node2"><a xlink:href="ioman_x_8h.html#struct__iop__file" target="_top" xlink:title=" ">
<polygon fill="white" stroke="black" points="18.5,-67.5 18.5,-86.5 70.5,-86.5 70.5,-67.5 18.5,-67.5"/>
<text text-anchor="middle" x="44.5" y="-74.5" font-family="Helvetica,sans-Serif" font-size="10.00">_iop_file</text>
</a>
</g>
</g>
<!-- Node2&#45;&gt;Node1 -->
<g id="edge1" class="edge">
<title>Node2&#45;&gt;Node1</title>
<path fill="none" stroke="#9a32cd" stroke-dasharray="5,2" d="M58.6,-59.63C69.55,-46.92 84.3,-29.8 93.07,-19.63"/>
<polygon fill="#9a32cd" stroke="#9a32cd" points="55.93,-57.37 52.05,-67.23 61.23,-61.94 55.93,-57.37"/>
<text text-anchor="middle" x="79.5" y="-41" font-family="Helvetica,sans-Serif" font-size="10.00"> f</text>
</g>
<!-- Node3 -->
<g id="node3" class="node">
<title>Node3</title>
<g id="a_node3"><a xlink:href="ioman_x_8h.html#struct__iop__device" target="_top" xlink:title=" ">
<polygon fill="white" stroke="black" points="10.5,-134.5 10.5,-153.5 78.5,-153.5 78.5,-134.5 10.5,-134.5"/>
<text text-anchor="middle" x="44.5" y="-141.5" font-family="Helvetica,sans-Serif" font-size="10.00">_iop_device</text>
</a>
</g>
</g>
<!-- Node3&#45;&gt;Node2 -->
<g id="edge2" class="edge">
<title>Node3&#45;&gt;Node2</title>
<path fill="none" stroke="#9a32cd" stroke-dasharray="5,2" d="M44.5,-124.04C44.5,-111.67 44.5,-96.12 44.5,-86.63"/>
<polygon fill="#9a32cd" stroke="#9a32cd" points="41,-124.23 44.5,-134.23 48,-124.23 41,-124.23"/>
<text text-anchor="middle" x="60" y="-108" font-family="Helvetica,sans-Serif" font-size="10.00"> device</text>
</g>
<!-- Node4 -->
<g id="node4" class="node">
<title>Node4</title>
<g id="a_node4"><a xlink:href="struct__iop__device__ops.html" target="_top" xlink:title=" ">
<polygon fill="white" stroke="black" points="0,-201.5 0,-220.5 89,-220.5 89,-201.5 0,-201.5"/>
<text text-anchor="middle" x="44.5" y="-208.5" font-family="Helvetica,sans-Serif" font-size="10.00">_iop_device_ops</text>
</a>
</g>
</g>
<!-- Node4&#45;&gt;Node3 -->
<g id="edge3" class="edge">
<title>Node4&#45;&gt;Node3</title>
<path fill="none" stroke="#9a32cd" stroke-dasharray="5,2" d="M44.5,-191.04C44.5,-178.67 44.5,-163.12 44.5,-153.63"/>
<polygon fill="#9a32cd" stroke="#9a32cd" points="41,-191.23 44.5,-201.23 48,-191.23 41,-191.23"/>
<text text-anchor="middle" x="54" y="-175" font-family="Helvetica,sans-Serif" font-size="10.00"> ops</text>
</g>
<!-- Node5 -->
<g id="node5" class="node">
<title>Node5</title>
<g id="a_node5"><a xlink:href="structapa__sub__t.html" target="_top" xlink:title=" ">
<polygon fill="white" stroke="black" points="88.5,-67.5 88.5,-86.5 150.5,-86.5 150.5,-67.5 88.5,-67.5"/>
<text text-anchor="middle" x="119.5" y="-74.5" font-family="Helvetica,sans-Serif" font-size="10.00">apa_sub_t</text>
</a>
</g>
</g>
<!-- Node5&#45;&gt;Node1 -->
<g id="edge4" class="edge">
<title>Node5&#45;&gt;Node1</title>
<path fill="none" stroke="#9a32cd" stroke-dasharray="5,2" d="M114.07,-57.41C110.44,-44.99 105.82,-29.22 103.02,-19.63"/>
<polygon fill="#9a32cd" stroke="#9a32cd" points="110.77,-58.62 116.94,-67.23 117.49,-56.65 110.77,-58.62"/>
<text text-anchor="middle" x="123" y="-41" font-family="Helvetica,sans-Serif" font-size="10.00"> parts</text>
</g>
</g>
</svg>
