<?xml version="1.0" encoding="UTF-8" standalone="no"?>
<!DOCTYPE svg PUBLIC "-//W3C//DTD SVG 1.1//EN"
 "http://www.w3.org/Graphics/SVG/1.1/DTD/svg11.dtd">
<!-- Generated by graphviz version 2.49.3 (20211027.1534)
 -->
<!-- Title: pfs_file_slot_t Pages: 1 -->
<svg width="356pt" height="320pt"
 viewBox="0.00 0.00 355.50 320.00" xmlns="http://www.w3.org/2000/svg" xmlns:xlink="http://www.w3.org/1999/xlink">
<g id="graph0" class="graph" transform="scale(1 1) rotate(0) translate(4 316)">
<title>pfs_file_slot_t</title>
<polygon fill="white" stroke="transparent" points="-4,4 -4,-316 351.5,-316 351.5,4 -4,4"/>
<!-- Node1 -->
<g id="node1" class="node">
<title>Node1</title>
<g id="a_node1"><a xlink:title=" ">
<polygon fill="#bfbfbf" stroke="black" points="97,-0.5 97,-19.5 174,-19.5 174,-0.5 97,-0.5"/>
<text text-anchor="middle" x="135.5" y="-7.5" font-family="Helvetica,sans-Serif" font-size="10.00">pfs_file_slot_t</text>
</a>
</g>
</g>
<!-- Node2 -->
<g id="node2" class="node">
<title>Node2</title>
<g id="a_node2"><a xlink:href="ioman_x_8h.html#struct__iop__file" target="_top" xlink:title=" ">
<polygon fill="white" stroke="black" points="18.5,-67.5 18.5,-86.5 70.5,-86.5 70.5,-67.5 18.5,-67.5"/>
<text text-anchor="middle" x="44.5" y="-74.5" font-family="Helvetica,sans-Serif" font-size="10.00">_iop_file</text>
</a>
</g>
</g>
<!-- Node2&#45;&gt;Node1 -->
<g id="edge1" class="edge">
<title>Node2&#45;&gt;Node1</title>
<path fill="none" stroke="#9a32cd" stroke-dasharray="5,2" d="M58.28,-59.53C64.82,-52.34 73.06,-44.17 81.5,-38 91.57,-30.64 103.95,-24.29 114.31,-19.6"/>
<polygon fill="#9a32cd" stroke="#9a32cd" points="55.4,-57.5 51.45,-67.33 60.67,-62.11 55.4,-57.5"/>
<text text-anchor="middle" x="87" y="-41" font-family="Helvetica,sans-Serif" font-size="10.00"> fd</text>
</g>
<!-- Node3 -->
<g id="node3" class="node">
<title>Node3</title>
<g id="a_node3"><a xlink:href="ioman_x_8h.html#struct__iop__device" target="_top" xlink:title=" ">
<polygon fill="white" stroke="black" points="10.5,-135.5 10.5,-154.5 78.5,-154.5 78.5,-135.5 10.5,-135.5"/>
<text text-anchor="middle" x="44.5" y="-142.5" font-family="Helvetica,sans-Serif" font-size="10.00">_iop_device</text>
</a>
</g>
</g>
<!-- Node3&#45;&gt;Node2 -->
<g id="edge2" class="edge">
<title>Node3&#45;&gt;Node2</title>
<path fill="none" stroke="#9a32cd" stroke-dasharray="5,2" d="M44.5,-125.04C44.5,-112.47 44.5,-96.56 44.5,-86.84"/>
<polygon fill="#9a32cd" stroke="#9a32cd" points="41,-125.37 44.5,-135.37 48,-125.37 41,-125.37"/>
<text text-anchor="middle" x="60" y="-108" font-family="Helvetica,sans-Serif" font-size="10.00"> device</text>
</g>
<!-- Node4 -->
<g id="node4" class="node">
<title>Node4</title>
<g id="a_node4"><a xlink:href="struct__iop__device__ops.html" target="_top" xlink:title=" ">
<polygon fill="white" stroke="black" points="0,-203.5 0,-222.5 89,-222.5 89,-203.5 0,-203.5"/>
<text text-anchor="middle" x="44.5" y="-210.5" font-family="Helvetica,sans-Serif" font-size="10.00">_iop_device_ops</text>
</a>
</g>
</g>
<!-- Node4&#45;&gt;Node3 -->
<g id="edge3" class="edge">
<title>Node4&#45;&gt;Node3</title>
<path fill="none" stroke="#9a32cd" stroke-dasharray="5,2" d="M44.5,-193.04C44.5,-180.47 44.5,-164.56 44.5,-154.84"/>
<polygon fill="#9a32cd" stroke="#9a32cd" points="41,-193.37 44.5,-203.37 48,-193.37 41,-193.37"/>
<text text-anchor="middle" x="54" y="-177" font-family="Helvetica,sans-Serif" font-size="10.00"> ops</text>
</g>
<!-- Node5 -->
<g id="node5" class="node">
<title>Node5</title>
<g id="a_node5"><a xlink:href="structpfs__cache__s.html" target="_top" xlink:title=" ">
<polygon fill="white" stroke="black" points="129.5,-135.5 129.5,-154.5 201.5,-154.5 201.5,-135.5 129.5,-135.5"/>
<text text-anchor="middle" x="165.5" y="-142.5" font-family="Helvetica,sans-Serif" font-size="10.00">pfs_cache_s</text>
</a>
</g>
</g>
<!-- Node5&#45;&gt;Node1 -->
<g id="edge4" class="edge">
<title>Node5&#45;&gt;Node1</title>
<path fill="none" stroke="#9a32cd" stroke-dasharray="5,2" d="M146.38,-128.65C135.04,-118.26 121.69,-103.46 115.5,-87 106.56,-63.25 121.17,-33.89 129.83,-19.61"/>
<polygon fill="#9a32cd" stroke="#9a32cd" points="144.31,-131.49 154.16,-135.4 148.9,-126.2 144.31,-131.49"/>
<text text-anchor="middle" x="127" y="-74.5" font-family="Helvetica,sans-Serif" font-size="10.00"> clink</text>
</g>
<!-- Node5&#45;&gt;Node5 -->
<g id="edge5" class="edge">
<title>Node5&#45;&gt;Node5</title>
<path fill="none" stroke="#9a32cd" stroke-dasharray="5,2" d="M211.71,-150.26C216.46,-149.22 219.5,-147.47 219.5,-145 219.5,-141.05 211.72,-138.93 201.59,-138.66"/>
<polygon fill="#9a32cd" stroke="#9a32cd" points="211.16,-146.8 201.59,-151.34 211.9,-153.76 211.16,-146.8"/>
<text text-anchor="middle" x="230" y="-148" font-family="Helvetica,sans-Serif" font-size="10.00"> next</text>
<text text-anchor="middle" x="230" y="-137" font-family="Helvetica,sans-Serif" font-size="10.00">prev</text>
</g>
<!-- Node9 -->
<g id="node9" class="node">
<title>Node9</title>
<g id="a_node9"><a xlink:href="structpfs__blockpos__t.html" target="_top" xlink:title=" ">
<polygon fill="white" stroke="black" points="148,-67.5 148,-86.5 231,-86.5 231,-67.5 148,-67.5"/>
<text text-anchor="middle" x="189.5" y="-74.5" font-family="Helvetica,sans-Serif" font-size="10.00">pfs_blockpos_t</text>
</a>
</g>
</g>
<!-- Node5&#45;&gt;Node9 -->
<g id="edge10" class="edge">
<title>Node5&#45;&gt;Node9</title>
<path fill="none" stroke="#9a32cd" stroke-dasharray="5,2" d="M172.12,-125.81C176.73,-113.12 182.68,-96.76 186.29,-86.84"/>
<polygon fill="#9a32cd" stroke="#9a32cd" points="168.77,-124.78 168.64,-135.37 175.34,-127.17 168.77,-124.78"/>
<text text-anchor="middle" x="192.5" y="-108" font-family="Helvetica,sans-Serif" font-size="10.00"> inode</text>
</g>
<!-- Node6 -->
<g id="node6" class="node">
<title>Node6</title>
<g id="a_node6"><a xlink:href="structpfs__mount__t.html" target="_top" xlink:title=" ">
<polygon fill="white" stroke="black" points="130,-203.5 130,-222.5 201,-222.5 201,-203.5 130,-203.5"/>
<text text-anchor="middle" x="165.5" y="-210.5" font-family="Helvetica,sans-Serif" font-size="10.00">pfs_mount_t</text>
</a>
</g>
</g>
<!-- Node6&#45;&gt;Node5 -->
<g id="edge6" class="edge">
<title>Node6&#45;&gt;Node5</title>
<path fill="none" stroke="#9a32cd" stroke-dasharray="5,2" d="M165.5,-193.04C165.5,-180.47 165.5,-164.56 165.5,-154.84"/>
<polygon fill="#9a32cd" stroke="#9a32cd" points="162,-193.37 165.5,-203.37 169,-193.37 162,-193.37"/>
<text text-anchor="middle" x="187" y="-177" font-family="Helvetica,sans-Serif" font-size="10.00"> pfsMount</text>
</g>
<!-- Node7 -->
<g id="node7" class="node">
<title>Node7</title>
<g id="a_node7"><a xlink:href="structpfs__block__device__t.html" target="_top" xlink:title=" ">
<polygon fill="white" stroke="black" points="60,-292.5 60,-311.5 161,-311.5 161,-292.5 60,-292.5"/>
<text text-anchor="middle" x="110.5" y="-299.5" font-family="Helvetica,sans-Serif" font-size="10.00">pfs_block_device_t</text>
</a>
</g>
</g>
<!-- Node7&#45;&gt;Node6 -->
<g id="edge7" class="edge">
<title>Node7&#45;&gt;Node6</title>
<path fill="none" stroke="#9a32cd" stroke-dasharray="5,2" d="M121.41,-283.74C133.07,-265.3 151.08,-236.8 160.05,-222.62"/>
<polygon fill="#9a32cd" stroke="#9a32cd" points="118.36,-282.02 115.97,-292.34 124.28,-285.76 118.36,-282.02"/>
<text text-anchor="middle" x="170" y="-255" font-family="Helvetica,sans-Serif" font-size="10.00"> blockDev</text>
</g>
<!-- Node8 -->
<g id="node8" class="node">
<title>Node8</title>
<g id="a_node8"><a xlink:href="structpfs__blockinfo__t.html" target="_top" xlink:title=" ">
<polygon fill="white" stroke="black" points="179,-292.5 179,-311.5 262,-311.5 262,-292.5 179,-292.5"/>
<text text-anchor="middle" x="220.5" y="-299.5" font-family="Helvetica,sans-Serif" font-size="10.00">pfs_blockinfo_t</text>
</a>
</g>
</g>
<!-- Node8&#45;&gt;Node6 -->
<g id="edge8" class="edge">
<title>Node8&#45;&gt;Node6</title>
<path fill="none" stroke="#9a32cd" stroke-dasharray="5,2" d="M215.17,-282.52C211.03,-270.07 204.48,-253.68 195.5,-241 190.56,-234.02 183.51,-227.57 177.49,-222.71"/>
<polygon fill="#9a32cd" stroke="#9a32cd" points="211.88,-283.73 218.19,-292.25 218.57,-281.66 211.88,-283.73"/>
<text text-anchor="middle" x="236" y="-266" font-family="Helvetica,sans-Serif" font-size="10.00"> current_dir</text>
<text text-anchor="middle" x="236" y="-255" font-family="Helvetica,sans-Serif" font-size="10.00">log</text>
<text text-anchor="middle" x="236" y="-244" font-family="Helvetica,sans-Serif" font-size="10.00">root_dir</text>
</g>
<!-- Node9&#45;&gt;Node1 -->
<g id="edge9" class="edge">
<title>Node9&#45;&gt;Node1</title>
<path fill="none" stroke="#9a32cd" stroke-dasharray="5,2" d="M175.6,-59.27C165.07,-46.6 151.04,-29.7 142.67,-19.63"/>
<polygon fill="#9a32cd" stroke="#9a32cd" points="173.13,-61.78 182.22,-67.23 178.52,-57.31 173.13,-61.78"/>
<text text-anchor="middle" x="190" y="-41" font-family="Helvetica,sans-Serif" font-size="10.00"> block_pos</text>
</g>
<!-- Node10 -->
<g id="node10" class="node">
<title>Node10</title>
<g id="a_node10"><a xlink:href="structpfs__unaligned__io__t.html" target="_top" xlink:title=" ">
<polygon fill="white" stroke="black" points="249.5,-67.5 249.5,-86.5 347.5,-86.5 347.5,-67.5 249.5,-67.5"/>
<text text-anchor="middle" x="298.5" y="-74.5" font-family="Helvetica,sans-Serif" font-size="10.00">pfs_unaligned_io_t</text>
</a>
</g>
</g>
<!-- Node10&#45;&gt;Node1 -->
<g id="edge11" class="edge">
<title>Node10&#45;&gt;Node1</title>
<path fill="none" stroke="#9a32cd" stroke-dasharray="5,2" d="M272.59,-62.87C256.86,-55.14 236.27,-45.46 217.5,-38 200.09,-31.08 180.13,-24.48 164.26,-19.54"/>
<polygon fill="#9a32cd" stroke="#9a32cd" points="271.18,-66.08 281.7,-67.39 274.29,-59.81 271.18,-66.08"/>
<text text-anchor="middle" x="263.5" y="-41" font-family="Helvetica,sans-Serif" font-size="10.00"> unaligned</text>
</g>
</g>
</svg>
