<?xml version="1.0" encoding="UTF-8" standalone="no"?>
<!DOCTYPE svg PUBLIC "-//W3C//DTD SVG 1.1//EN"
 "http://www.w3.org/Graphics/SVG/1.1/DTD/svg11.dtd">
<!-- Generated by graphviz version 2.49.3 (20211027.1534)
 -->
<!-- Title: _cache_set Pages: 1 -->
<svg width="321pt" height="229pt"
 viewBox="0.00 0.00 320.50 229.00" xmlns="http://www.w3.org/2000/svg" xmlns:xlink="http://www.w3.org/1999/xlink">
<g id="graph0" class="graph" transform="scale(1 1) rotate(0) translate(4 225)">
<title>_cache_set</title>
<polygon fill="white" stroke="transparent" points="-4,4 -4,-225 316.5,-225 316.5,4 -4,4"/>
<!-- Node1 -->
<g id="node1" class="node">
<title>Node1</title>
<g id="a_node1"><a xlink:title=" ">
<polygon fill="#bfbfbf" stroke="black" points="106,-67.5 106,-86.5 173,-86.5 173,-67.5 106,-67.5"/>
<text text-anchor="middle" x="139.5" y="-74.5" font-family="Helvetica,sans-Serif" font-size="10.00">_cache_set</text>
</a>
</g>
</g>
<!-- Node6 -->
<g id="node6" class="node">
<title>Node6</title>
<g id="a_node6"><a xlink:href="struct__mass__dev.html" target="_top" xlink:title=" ">
<polygon fill="white" stroke="black" points="64,-0.5 64,-19.5 131,-19.5 131,-0.5 64,-0.5"/>
<text text-anchor="middle" x="97.5" y="-7.5" font-family="Helvetica,sans-Serif" font-size="10.00">_mass_dev</text>
</a>
</g>
</g>
<!-- Node1&#45;&gt;Node6 -->
<g id="edge6" class="edge">
<title>Node1&#45;&gt;Node6</title>
<path fill="none" stroke="#9a32cd" stroke-dasharray="5,2" d="M129.99,-58.63C126.25,-52.06 121.83,-44.59 117.5,-38 113.4,-31.76 108.4,-25.01 104.43,-19.82"/>
<polygon fill="#9a32cd" stroke="#9a32cd" points="126.95,-60.36 134.87,-67.38 133.06,-56.94 126.95,-60.36"/>
<text text-anchor="middle" x="139" y="-41" font-family="Helvetica,sans-Serif" font-size="10.00"> cache</text>
</g>
<!-- Node2 -->
<g id="node2" class="node">
<title>Node2</title>
<g id="a_node2"><a xlink:href="structblock__device.html" target="_top" xlink:title=" ">
<polygon fill="white" stroke="black" points="50.5,-134.5 50.5,-153.5 124.5,-153.5 124.5,-134.5 50.5,-134.5"/>
<text text-anchor="middle" x="87.5" y="-141.5" font-family="Helvetica,sans-Serif" font-size="10.00">block_device</text>
</a>
</g>
</g>
<!-- Node2&#45;&gt;Node1 -->
<g id="edge1" class="edge">
<title>Node2&#45;&gt;Node1</title>
<path fill="none" stroke="#9a32cd" stroke-dasharray="5,2" d="M100.88,-126.27C111.02,-113.6 124.54,-96.7 132.6,-86.63"/>
<polygon fill="#9a32cd" stroke="#9a32cd" points="98.03,-124.24 94.51,-134.23 103.49,-128.61 98.03,-124.24"/>
<text text-anchor="middle" x="124" y="-108" font-family="Helvetica,sans-Serif" font-size="10.00"> bd</text>
</g>
<!-- Node3 -->
<g id="node3" class="node">
<title>Node3</title>
<g id="a_node3"><a xlink:href="usbhdfsd_8h.html#struct__cache__record" target="_top" xlink:title=" ">
<polygon fill="white" stroke="black" points="142.5,-134.5 142.5,-153.5 222.5,-153.5 222.5,-134.5 142.5,-134.5"/>
<text text-anchor="middle" x="182.5" y="-141.5" font-family="Helvetica,sans-Serif" font-size="10.00">_cache_record</text>
</a>
</g>
</g>
<!-- Node3&#45;&gt;Node1 -->
<g id="edge2" class="edge">
<title>Node3&#45;&gt;Node1</title>
<path fill="none" stroke="#9a32cd" stroke-dasharray="5,2" d="M170.95,-125.53C162.62,-112.95 151.74,-96.51 145.21,-86.63"/>
<polygon fill="#9a32cd" stroke="#9a32cd" points="168.26,-127.82 176.7,-134.23 174.1,-123.96 168.26,-127.82"/>
<text text-anchor="middle" x="171.5" y="-108" font-family="Helvetica,sans-Serif" font-size="10.00"> rec</text>
</g>
<!-- Node4 -->
<g id="node4" class="node">
<title>Node4</title>
<g id="a_node4"><a xlink:href="struct_s_b_p2_device.html" target="_top" xlink:title=" ">
<polygon fill="white" stroke="black" points="240.5,-134.5 240.5,-153.5 312.5,-153.5 312.5,-134.5 240.5,-134.5"/>
<text text-anchor="middle" x="276.5" y="-141.5" font-family="Helvetica,sans-Serif" font-size="10.00">SBP2Device</text>
</a>
</g>
</g>
<!-- Node4&#45;&gt;Node1 -->
<g id="edge3" class="edge">
<title>Node4&#45;&gt;Node1</title>
<path fill="none" stroke="#9a32cd" stroke-dasharray="5,2" d="M248.98,-129.94C221.85,-117.07 181.14,-97.76 157.77,-86.67"/>
<polygon fill="#9a32cd" stroke="#9a32cd" points="247.77,-133.24 258.31,-134.37 250.77,-126.92 247.77,-133.24"/>
<text text-anchor="middle" x="225" y="-108" font-family="Helvetica,sans-Serif" font-size="10.00"> dev</text>
</g>
<!-- Node5 -->
<g id="node5" class="node">
<title>Node5</title>
<g id="a_node5"><a xlink:href="structscsi__interface.html" target="_top" xlink:title=" ">
<polygon fill="white" stroke="black" points="0,-201.5 0,-220.5 77,-220.5 77,-201.5 0,-201.5"/>
<text text-anchor="middle" x="38.5" y="-208.5" font-family="Helvetica,sans-Serif" font-size="10.00">scsi_interface</text>
</a>
</g>
</g>
<!-- Node5&#45;&gt;Node4 -->
<g id="edge4" class="edge">
<title>Node5&#45;&gt;Node4</title>
<path fill="none" stroke="#9a32cd" stroke-dasharray="5,2" d="M79.98,-198.67C127.04,-185.82 202.75,-165.14 245.14,-153.56"/>
<polygon fill="#9a32cd" stroke="#9a32cd" points="78.83,-195.36 70.1,-201.37 80.67,-202.11 78.83,-195.36"/>
<text text-anchor="middle" x="182" y="-175" font-family="Helvetica,sans-Serif" font-size="10.00"> scsi</text>
</g>
<!-- Node5&#45;&gt;Node6 -->
<g id="edge7" class="edge">
<title>Node5&#45;&gt;Node6</title>
<path fill="none" stroke="#9a32cd" stroke-dasharray="5,2" d="M37.24,-191.05C36.68,-175.51 36.97,-153.04 41.5,-134 52.35,-88.35 80.43,-38.95 92.19,-19.53"/>
<polygon fill="#9a32cd" stroke="#9a32cd" points="33.77,-191.61 37.78,-201.42 40.76,-191.25 33.77,-191.61"/>
<text text-anchor="middle" x="61" y="-108" font-family="Helvetica,sans-Serif" font-size="10.00"> scsi</text>
</g>
<!-- Node6&#45;&gt;Node1 -->
<g id="edge5" class="edge">
<title>Node6&#45;&gt;Node1</title>
<path fill="none" stroke="#9a32cd" stroke-dasharray="5,2" d="M94.59,-29.72C94.44,-36.18 95.3,-43.24 98.5,-49 102.97,-57.05 110.97,-63.11 118.72,-67.43"/>
<polygon fill="#9a32cd" stroke="#9a32cd" points="98.07,-30.04 95.55,-19.75 91.11,-29.36 98.07,-30.04"/>
<text text-anchor="middle" x="108" y="-41" font-family="Helvetica,sans-Serif" font-size="10.00"> dev</text>
</g>
</g>
</svg>
