<?xml version="1.0" encoding="UTF-8" standalone="no"?>
<!DOCTYPE svg PUBLIC "-//W3C//DTD SVG 1.1//EN"
 "http://www.w3.org/Graphics/SVG/1.1/DTD/svg11.dtd">
<!-- Generated by graphviz version 2.49.3 (20211027.1534)
 -->
<!-- Title: OhciRegs Pages: 1 -->
<svg width="206pt" height="275pt"
 viewBox="0.00 0.00 206.00 275.00" xmlns="http://www.w3.org/2000/svg" xmlns:xlink="http://www.w3.org/1999/xlink">
<g id="graph0" class="graph" transform="scale(1 1) rotate(0) translate(4 271)">
<title>OhciRegs</title>
<polygon fill="white" stroke="transparent" points="-4,4 -4,-271 202,-271 202,4 -4,4"/>
<!-- Node1 -->
<g id="node1" class="node">
<title>Node1</title>
<g id="a_node1"><a xlink:title=" ">
<polygon fill="#bfbfbf" stroke="black" points="48.5,-0.5 48.5,-19.5 107.5,-19.5 107.5,-0.5 48.5,-0.5"/>
<text text-anchor="middle" x="78" y="-7.5" font-family="Helvetica,sans-Serif" font-size="10.00">OhciRegs</text>
</a>
</g>
</g>
<!-- Node2 -->
<g id="node2" class="node">
<title>Node2</title>
<g id="a_node2"><a xlink:href="usbdpriv_8h.html#struct_hc_c_a" target="_top" xlink:title=" ">
<polygon fill="white" stroke="black" points="17.5,-85 17.5,-104 60.5,-104 60.5,-85 17.5,-85"/>
<text text-anchor="middle" x="39" y="-92" font-family="Helvetica,sans-Serif" font-size="10.00">HcCA</text>
</a>
</g>
</g>
<!-- Node2&#45;&gt;Node1 -->
<g id="edge1" class="edge">
<title>Node2&#45;&gt;Node1</title>
<path fill="none" stroke="#9a32cd" stroke-dasharray="5,2" d="M44.76,-75.18C48.52,-64.15 53.85,-49.96 60,-38 63.3,-31.59 67.8,-24.84 71.47,-19.69"/>
<polygon fill="#9a32cd" stroke="#9a32cd" points="41.34,-74.38 41.56,-84.97 47.99,-76.55 41.34,-74.38"/>
<text text-anchor="middle" x="81.5" y="-41" font-family="Helvetica,sans-Serif" font-size="10.00"> HcHCCA</text>
</g>
<!-- Node3 -->
<g id="node3" class="node">
<title>Node3</title>
<g id="a_node3"><a xlink:href="usbdpriv_8h.html#struct__hc_ed" target="_top" xlink:title=" ">
<polygon fill="white" stroke="black" points="73,-169.5 73,-188.5 117,-188.5 117,-169.5 73,-169.5"/>
<text text-anchor="middle" x="95" y="-176.5" font-family="Helvetica,sans-Serif" font-size="10.00">_hcEd</text>
</a>
</g>
</g>
<!-- Node3&#45;&gt;Node1 -->
<g id="edge7" class="edge">
<title>Node3&#45;&gt;Node1</title>
<path fill="none" stroke="#9a32cd" stroke-dasharray="5,2" d="M100.79,-159.58C108.41,-132.06 119.08,-79.04 103,-38 100.2,-30.86 94.54,-24.48 89.3,-19.72"/>
<polygon fill="#9a32cd" stroke="#9a32cd" points="97.36,-158.83 97.89,-169.41 104.08,-160.81 97.36,-158.83"/>
<text text-anchor="middle" x="154.5" y="-114" font-family="Helvetica,sans-Serif" font-size="10.00"> HcBulkCurrentEd</text>
<text text-anchor="middle" x="154.5" y="-103" font-family="Helvetica,sans-Serif" font-size="10.00">HcBulkHeadEd</text>
<text text-anchor="middle" x="154.5" y="-92" font-family="Helvetica,sans-Serif" font-size="10.00">HcControlCurrentEd</text>
<text text-anchor="middle" x="154.5" y="-81" font-family="Helvetica,sans-Serif" font-size="10.00">HcControlHeadEd</text>
<text text-anchor="middle" x="154.5" y="-70" font-family="Helvetica,sans-Serif" font-size="10.00">HcPeriodCurrentEd</text>
</g>
<!-- Node3&#45;&gt;Node2 -->
<g id="edge2" class="edge">
<title>Node3&#45;&gt;Node2</title>
<path fill="none" stroke="#9a32cd" stroke-dasharray="5,2" d="M63.53,-169.51C54.39,-165.44 45.42,-159.53 40,-151 30.9,-136.69 33.84,-115.82 36.57,-104.18"/>
<polygon fill="#9a32cd" stroke="#9a32cd" points="62.39,-172.82 72.98,-173.12 64.88,-166.28 62.39,-172.82"/>
<text text-anchor="middle" x="71.5" y="-143" font-family="Helvetica,sans-Serif" font-size="10.00"> InterruptTable</text>
</g>
<!-- Node3&#45;&gt;Node3 -->
<g id="edge5" class="edge">
<title>Node3&#45;&gt;Node3</title>
<path fill="none" stroke="#9a32cd" stroke-dasharray="5,2" d="M127.4,-184.37C131.95,-183.49 135,-181.7 135,-179 135,-174.56 126.8,-172.59 117.21,-173.07"/>
<polygon fill="#9a32cd" stroke="#9a32cd" points="127.01,-180.89 117.21,-184.93 127.39,-187.88 127.01,-180.89"/>
<text text-anchor="middle" x="145.5" y="-176.5" font-family="Helvetica,sans-Serif" font-size="10.00"> next</text>
</g>
<!-- Node4 -->
<g id="node4" class="node">
<title>Node4</title>
<g id="a_node4"><a xlink:href="usbdpriv_8h.html#struct__hc_td" target="_top" xlink:title=" ">
<polygon fill="white" stroke="black" points="0,-247.5 0,-266.5 44,-266.5 44,-247.5 0,-247.5"/>
<text text-anchor="middle" x="22" y="-254.5" font-family="Helvetica,sans-Serif" font-size="10.00">_hcTd</text>
</a>
</g>
</g>
<!-- Node4&#45;&gt;Node2 -->
<g id="edge6" class="edge">
<title>Node4&#45;&gt;Node2</title>
<path fill="none" stroke="#9a32cd" stroke-dasharray="5,2" d="M17.97,-237.44C14.72,-219.75 11.27,-192.43 15,-169 18.84,-144.87 29.35,-117.9 35.11,-104.33"/>
<polygon fill="#9a32cd" stroke="#9a32cd" points="14.55,-238.18 19.94,-247.3 21.41,-236.81 14.55,-238.18"/>
<text text-anchor="middle" x="39.5" y="-176.5" font-family="Helvetica,sans-Serif" font-size="10.00"> DoneHead</text>
</g>
<!-- Node4&#45;&gt;Node3 -->
<g id="edge3" class="edge">
<title>Node4&#45;&gt;Node3</title>
<path fill="none" stroke="#9a32cd" stroke-dasharray="5,2" d="M37.49,-239.88C52.53,-224.22 74.79,-201.04 86.72,-188.62"/>
<polygon fill="#9a32cd" stroke="#9a32cd" points="34.78,-237.65 30.37,-247.28 39.83,-242.49 34.78,-237.65"/>
<text text-anchor="middle" x="84" y="-221" font-family="Helvetica,sans-Serif" font-size="10.00"> tdHead</text>
<text text-anchor="middle" x="84" y="-210" font-family="Helvetica,sans-Serif" font-size="10.00">tdTail</text>
</g>
<!-- Node4&#45;&gt;Node4 -->
<g id="edge4" class="edge">
<title>Node4&#45;&gt;Node4</title>
<path fill="none" stroke="#9a32cd" stroke-dasharray="5,2" d="M54.4,-263.38C58.95,-262.34 62,-260.21 62,-257 62,-251.73 53.8,-249.38 44.21,-249.96"/>
<polygon fill="#9a32cd" stroke="#9a32cd" points="53.96,-259.9 44.21,-264.04 54.42,-266.88 53.96,-259.9"/>
<text text-anchor="middle" x="72.5" y="-254.5" font-family="Helvetica,sans-Serif" font-size="10.00"> next</text>
</g>
</g>
</svg>
