<?xml version="1.0" encoding="UTF-8" standalone="no"?>
<!DOCTYPE svg PUBLIC "-//W3C//DTD SVG 1.1//EN"
 "http://www.w3.org/Graphics/SVG/1.1/DTD/svg11.dtd">
<!-- Generated by graphviz version 2.49.3 (20211027.1534)
 -->
<!-- Title: usbmass_cmd Pages: 1 -->
<svg width="540pt" height="162pt"
 viewBox="0.00 0.00 540.00 162.00" xmlns="http://www.w3.org/2000/svg" xmlns:xlink="http://www.w3.org/1999/xlink">
<g id="graph0" class="graph" transform="scale(1 1) rotate(0) translate(4 158)">
<title>usbmass_cmd</title>
<polygon fill="white" stroke="transparent" points="-4,4 -4,-158 536,-158 536,4 -4,4"/>
<!-- Node1 -->
<g id="node1" class="node">
<title>Node1</title>
<g id="a_node1"><a xlink:title=" ">
<polygon fill="#bfbfbf" stroke="black" points="363,-0.5 363,-19.5 443,-19.5 443,-0.5 363,-0.5"/>
<text text-anchor="middle" x="403" y="-7.5" font-family="Helvetica,sans-Serif" font-size="10.00">usbmass_cmd</text>
</a>
</g>
</g>
<!-- Node2 -->
<g id="node2" class="node">
<title>Node2</title>
<g id="a_node2"><a xlink:href="struct__mass__dev.html" target="_top" xlink:title=" ">
<polygon fill="white" stroke="black" points="280.5,-67.5 280.5,-86.5 347.5,-86.5 347.5,-67.5 280.5,-67.5"/>
<text text-anchor="middle" x="314" y="-74.5" font-family="Helvetica,sans-Serif" font-size="10.00">_mass_dev</text>
</a>
</g>
</g>
<!-- Node2&#45;&gt;Node1 -->
<g id="edge1" class="edge">
<title>Node2&#45;&gt;Node1</title>
<path fill="none" stroke="#9a32cd" stroke-dasharray="5,2" d="M334.45,-61.07C352.01,-48.24 376.73,-30.19 391.19,-19.63"/>
<polygon fill="#9a32cd" stroke="#9a32cd" points="332.01,-58.51 326,-67.23 336.14,-64.16 332.01,-58.51"/>
<text text-anchor="middle" x="372.5" y="-41" font-family="Helvetica,sans-Serif" font-size="10.00"> dev</text>
</g>
<!-- Node3 -->
<g id="node3" class="node">
<title>Node3</title>
<g id="a_node3"><a xlink:href="usbhdfsd_8h.html#struct__cache__set" target="_top" xlink:title=" ">
<polygon fill="white" stroke="black" points="188.5,-0.5 188.5,-19.5 255.5,-19.5 255.5,-0.5 188.5,-0.5"/>
<text text-anchor="middle" x="222" y="-7.5" font-family="Helvetica,sans-Serif" font-size="10.00">_cache_set</text>
</a>
</g>
</g>
<!-- Node2&#45;&gt;Node3 -->
<g id="edge7" class="edge">
<title>Node2&#45;&gt;Node3</title>
<path fill="none" stroke="#9a32cd" stroke-dasharray="5,2" d="M306.67,-57.85C303.11,-50.88 298.23,-43.32 292,-38 281.7,-29.2 268.22,-23.09 255.84,-18.95"/>
<polygon fill="#9a32cd" stroke="#9a32cd" points="303.64,-59.65 310.95,-67.32 310.02,-56.77 303.64,-59.65"/>
<text text-anchor="middle" x="310.5" y="-41" font-family="Helvetica,sans-Serif" font-size="10.00"> dev</text>
</g>
<!-- Node3&#45;&gt;Node2 -->
<g id="edge2" class="edge">
<title>Node3&#45;&gt;Node2</title>
<path fill="none" stroke="#9a32cd" stroke-dasharray="5,2" d="M237.13,-26.81C244.53,-34.07 253.82,-42.48 263,-49 272.97,-56.07 285.02,-62.54 294.9,-67.37"/>
<polygon fill="#9a32cd" stroke="#9a32cd" points="239.45,-24.18 229.93,-19.54 234.48,-29.11 239.45,-24.18"/>
<text text-anchor="middle" x="277.5" y="-41" font-family="Helvetica,sans-Serif" font-size="10.00"> cache</text>
</g>
<!-- Node4 -->
<g id="node4" class="node">
<title>Node4</title>
<g id="a_node4"><a xlink:href="structblock__device.html" target="_top" xlink:title=" ">
<polygon fill="white" stroke="black" points="0,-67.5 0,-86.5 74,-86.5 74,-67.5 0,-67.5"/>
<text text-anchor="middle" x="37" y="-74.5" font-family="Helvetica,sans-Serif" font-size="10.00">block_device</text>
</a>
</g>
</g>
<!-- Node4&#45;&gt;Node3 -->
<g id="edge3" class="edge">
<title>Node4&#45;&gt;Node3</title>
<path fill="none" stroke="#9a32cd" stroke-dasharray="5,2" d="M71.34,-63.94C108.04,-51.04 165.29,-30.92 197.63,-19.56"/>
<polygon fill="#9a32cd" stroke="#9a32cd" points="69.84,-60.75 61.57,-67.37 72.16,-67.36 69.84,-60.75"/>
<text text-anchor="middle" x="147.5" y="-41" font-family="Helvetica,sans-Serif" font-size="10.00"> bd</text>
</g>
<!-- Node5 -->
<g id="node5" class="node">
<title>Node5</title>
<g id="a_node5"><a xlink:href="usbhdfsd_8h.html#struct__cache__record" target="_top" xlink:title=" ">
<polygon fill="white" stroke="black" points="182,-67.5 182,-86.5 262,-86.5 262,-67.5 182,-67.5"/>
<text text-anchor="middle" x="222" y="-74.5" font-family="Helvetica,sans-Serif" font-size="10.00">_cache_record</text>
</a>
</g>
</g>
<!-- Node5&#45;&gt;Node3 -->
<g id="edge4" class="edge">
<title>Node5&#45;&gt;Node3</title>
<path fill="none" stroke="#9a32cd" stroke-dasharray="5,2" d="M222,-57.04C222,-44.67 222,-29.12 222,-19.63"/>
<polygon fill="#9a32cd" stroke="#9a32cd" points="218.5,-57.23 222,-67.23 225.5,-57.23 218.5,-57.23"/>
<text text-anchor="middle" x="230" y="-41" font-family="Helvetica,sans-Serif" font-size="10.00"> rec</text>
</g>
<!-- Node6 -->
<g id="node6" class="node">
<title>Node6</title>
<g id="a_node6"><a xlink:href="struct_s_b_p2_device.html" target="_top" xlink:title=" ">
<polygon fill="white" stroke="black" points="92,-67.5 92,-86.5 164,-86.5 164,-67.5 92,-67.5"/>
<text text-anchor="middle" x="128" y="-74.5" font-family="Helvetica,sans-Serif" font-size="10.00">SBP2Device</text>
</a>
</g>
</g>
<!-- Node6&#45;&gt;Node3 -->
<g id="edge5" class="edge">
<title>Node6&#45;&gt;Node3</title>
<path fill="none" stroke="#9a32cd" stroke-dasharray="5,2" d="M149.09,-61.42C167.67,-48.57 194.12,-30.28 209.52,-19.63"/>
<polygon fill="#9a32cd" stroke="#9a32cd" points="146.91,-58.67 140.68,-67.23 150.89,-64.43 146.91,-58.67"/>
<text text-anchor="middle" x="190.5" y="-41" font-family="Helvetica,sans-Serif" font-size="10.00"> dev</text>
</g>
<!-- Node7 -->
<g id="node7" class="node">
<title>Node7</title>
<g id="a_node7"><a xlink:href="structscsi__interface.html" target="_top" xlink:title=" ">
<polygon fill="white" stroke="black" points="182.5,-134.5 182.5,-153.5 259.5,-153.5 259.5,-134.5 182.5,-134.5"/>
<text text-anchor="middle" x="221" y="-141.5" font-family="Helvetica,sans-Serif" font-size="10.00">scsi_interface</text>
</a>
</g>
</g>
<!-- Node7&#45;&gt;Node2 -->
<g id="edge8" class="edge">
<title>Node7&#45;&gt;Node2</title>
<path fill="none" stroke="#9a32cd" stroke-dasharray="5,2" d="M241.86,-128.42C260.25,-115.57 286.41,-97.28 301.66,-86.63"/>
<polygon fill="#9a32cd" stroke="#9a32cd" points="239.73,-125.64 233.54,-134.23 243.74,-131.37 239.73,-125.64"/>
<text text-anchor="middle" x="283.5" y="-108" font-family="Helvetica,sans-Serif" font-size="10.00"> scsi</text>
</g>
<!-- Node7&#45;&gt;Node6 -->
<g id="edge6" class="edge">
<title>Node7&#45;&gt;Node6</title>
<path fill="none" stroke="#9a32cd" stroke-dasharray="5,2" d="M200.14,-128.42C181.75,-115.57 155.59,-97.28 140.34,-86.63"/>
<polygon fill="#9a32cd" stroke="#9a32cd" points="198.26,-131.37 208.46,-134.23 202.27,-125.64 198.26,-131.37"/>
<text text-anchor="middle" x="191.5" y="-108" font-family="Helvetica,sans-Serif" font-size="10.00"> scsi</text>
</g>
<!-- Node8 -->
<g id="node8" class="node">
<title>Node8</title>
<g id="a_node8"><a xlink:href="struct__cbw__packet.html" target="_top" xlink:title=" ">
<polygon fill="white" stroke="black" points="458,-67.5 458,-86.5 532,-86.5 532,-67.5 458,-67.5"/>
<text text-anchor="middle" x="495" y="-74.5" font-family="Helvetica,sans-Serif" font-size="10.00">_cbw_packet</text>
</a>
</g>
</g>
<!-- Node8&#45;&gt;Node1 -->
<g id="edge9" class="edge">
<title>Node8&#45;&gt;Node1</title>
<path fill="none" stroke="#9a32cd" stroke-dasharray="5,2" d="M474.36,-61.42C456.18,-48.57 430.29,-30.28 415.21,-19.63"/>
<polygon fill="#9a32cd" stroke="#9a32cd" points="472.41,-64.32 482.59,-67.23 476.44,-58.6 472.41,-64.32"/>
<text text-anchor="middle" x="464.5" y="-41" font-family="Helvetica,sans-Serif" font-size="10.00"> cbw</text>
</g>
<!-- Node9 -->
<g id="node9" class="node">
<title>Node9</title>
<g id="a_node9"><a xlink:href="struct__csw__packet.html" target="_top" xlink:title=" ">
<polygon fill="white" stroke="black" points="366,-67.5 366,-86.5 440,-86.5 440,-67.5 366,-67.5"/>
<text text-anchor="middle" x="403" y="-74.5" font-family="Helvetica,sans-Serif" font-size="10.00">_csw_packet</text>
</a>
</g>
</g>
<!-- Node9&#45;&gt;Node1 -->
<g id="edge10" class="edge">
<title>Node9&#45;&gt;Node1</title>
<path fill="none" stroke="#9a32cd" stroke-dasharray="5,2" d="M403,-57.04C403,-44.67 403,-29.12 403,-19.63"/>
<polygon fill="#9a32cd" stroke="#9a32cd" points="399.5,-57.23 403,-67.23 406.5,-57.23 399.5,-57.23"/>
<text text-anchor="middle" x="413.5" y="-41" font-family="Helvetica,sans-Serif" font-size="10.00"> csw</text>
</g>
</g>
</svg>
