<?xml version="1.0" encoding="UTF-8" standalone="no"?>
<!DOCTYPE svg PUBLIC "-//W3C//DTD SVG 1.1//EN"
 "http://www.w3.org/Graphics/SVG/1.1/DTD/svg11.dtd">
<!-- Generated by graphviz version 2.49.3 (20211027.1534)
 -->
<!-- Title: pfs_blockpos_t Pages: 1 -->
<svg width="210pt" height="253pt"
 viewBox="0.00 0.00 210.00 253.00" xmlns="http://www.w3.org/2000/svg" xmlns:xlink="http://www.w3.org/1999/xlink">
<g id="graph0" class="graph" transform="scale(1 1) rotate(0) translate(4 249)">
<title>pfs_blockpos_t</title>
<polygon fill="white" stroke="transparent" points="-4,4 -4,-249 206,-249 206,4 -4,4"/>
<!-- Node1 -->
<g id="node1" class="node">
<title>Node1</title>
<g id="a_node1"><a xlink:title=" ">
<polygon fill="#bfbfbf" stroke="black" points="64,-0.5 64,-19.5 147,-19.5 147,-0.5 64,-0.5"/>
<text text-anchor="middle" x="105.5" y="-7.5" font-family="Helvetica,sans-Serif" font-size="10.00">pfs_blockpos_t</text>
</a>
</g>
</g>
<!-- Node2 -->
<g id="node2" class="node">
<title>Node2</title>
<g id="a_node2"><a xlink:href="structpfs__cache__s.html" target="_top" xlink:title=" ">
<polygon fill="white" stroke="black" points="69.5,-68.5 69.5,-87.5 141.5,-87.5 141.5,-68.5 69.5,-68.5"/>
<text text-anchor="middle" x="105.5" y="-75.5" font-family="Helvetica,sans-Serif" font-size="10.00">pfs_cache_s</text>
</a>
</g>
</g>
<!-- Node2&#45;&gt;Node1 -->
<g id="edge1" class="edge">
<title>Node2&#45;&gt;Node1</title>
<path fill="none" stroke="#9a32cd" stroke-dasharray="5,2" d="M105.5,-58.04C105.5,-45.47 105.5,-29.56 105.5,-19.84"/>
<polygon fill="#9a32cd" stroke="#9a32cd" points="102,-58.37 105.5,-68.37 109,-58.37 102,-58.37"/>
<text text-anchor="middle" x="118.5" y="-41" font-family="Helvetica,sans-Serif" font-size="10.00"> inode</text>
</g>
<!-- Node2&#45;&gt;Node2 -->
<g id="edge2" class="edge">
<title>Node2&#45;&gt;Node2</title>
<path fill="none" stroke="#9a32cd" stroke-dasharray="5,2" d="M151.71,-83.26C156.46,-82.22 159.5,-80.47 159.5,-78 159.5,-74.05 151.72,-71.93 141.59,-71.66"/>
<polygon fill="#9a32cd" stroke="#9a32cd" points="151.16,-79.8 141.59,-84.34 151.9,-86.76 151.16,-79.8"/>
<text text-anchor="middle" x="170" y="-81" font-family="Helvetica,sans-Serif" font-size="10.00"> next</text>
<text text-anchor="middle" x="170" y="-70" font-family="Helvetica,sans-Serif" font-size="10.00">prev</text>
</g>
<!-- Node3 -->
<g id="node3" class="node">
<title>Node3</title>
<g id="a_node3"><a xlink:href="structpfs__mount__t.html" target="_top" xlink:title=" ">
<polygon fill="white" stroke="black" points="70,-136.5 70,-155.5 141,-155.5 141,-136.5 70,-136.5"/>
<text text-anchor="middle" x="105.5" y="-143.5" font-family="Helvetica,sans-Serif" font-size="10.00">pfs_mount_t</text>
</a>
</g>
</g>
<!-- Node3&#45;&gt;Node2 -->
<g id="edge3" class="edge">
<title>Node3&#45;&gt;Node2</title>
<path fill="none" stroke="#9a32cd" stroke-dasharray="5,2" d="M105.5,-126.04C105.5,-113.47 105.5,-97.56 105.5,-87.84"/>
<polygon fill="#9a32cd" stroke="#9a32cd" points="102,-126.37 105.5,-136.37 109,-126.37 102,-126.37"/>
<text text-anchor="middle" x="127" y="-110" font-family="Helvetica,sans-Serif" font-size="10.00"> pfsMount</text>
</g>
<!-- Node4 -->
<g id="node4" class="node">
<title>Node4</title>
<g id="a_node4"><a xlink:href="structpfs__block__device__t.html" target="_top" xlink:title=" ">
<polygon fill="white" stroke="black" points="0,-225.5 0,-244.5 101,-244.5 101,-225.5 0,-225.5"/>
<text text-anchor="middle" x="50.5" y="-232.5" font-family="Helvetica,sans-Serif" font-size="10.00">pfs_block_device_t</text>
</a>
</g>
</g>
<!-- Node4&#45;&gt;Node3 -->
<g id="edge4" class="edge">
<title>Node4&#45;&gt;Node3</title>
<path fill="none" stroke="#9a32cd" stroke-dasharray="5,2" d="M61.41,-216.74C73.07,-198.3 91.08,-169.8 100.05,-155.62"/>
<polygon fill="#9a32cd" stroke="#9a32cd" points="58.36,-215.02 55.97,-225.34 64.28,-218.76 58.36,-215.02"/>
<text text-anchor="middle" x="110" y="-188" font-family="Helvetica,sans-Serif" font-size="10.00"> blockDev</text>
</g>
<!-- Node5 -->
<g id="node5" class="node">
<title>Node5</title>
<g id="a_node5"><a xlink:href="structpfs__blockinfo__t.html" target="_top" xlink:title=" ">
<polygon fill="white" stroke="black" points="119,-225.5 119,-244.5 202,-244.5 202,-225.5 119,-225.5"/>
<text text-anchor="middle" x="160.5" y="-232.5" font-family="Helvetica,sans-Serif" font-size="10.00">pfs_blockinfo_t</text>
</a>
</g>
</g>
<!-- Node5&#45;&gt;Node3 -->
<g id="edge5" class="edge">
<title>Node5&#45;&gt;Node3</title>
<path fill="none" stroke="#9a32cd" stroke-dasharray="5,2" d="M155.17,-215.52C151.03,-203.07 144.48,-186.68 135.5,-174 130.56,-167.02 123.51,-160.57 117.49,-155.71"/>
<polygon fill="#9a32cd" stroke="#9a32cd" points="151.88,-216.73 158.19,-225.25 158.57,-214.66 151.88,-216.73"/>
<text text-anchor="middle" x="176" y="-199" font-family="Helvetica,sans-Serif" font-size="10.00"> current_dir</text>
<text text-anchor="middle" x="176" y="-188" font-family="Helvetica,sans-Serif" font-size="10.00">log</text>
<text text-anchor="middle" x="176" y="-177" font-family="Helvetica,sans-Serif" font-size="10.00">root_dir</text>
</g>
</g>
</svg>
