<?xml version="1.0" encoding="UTF-8" standalone="no"?>
<!DOCTYPE svg PUBLIC "-//W3C//DTD SVG 1.1//EN"
 "http://www.w3.org/Graphics/SVG/1.1/DTD/svg11.dtd">
<!-- Generated by graphviz version 2.49.3 (20211027.1534)
 -->
<!-- Title: _memPool Pages: 1 -->
<svg width="998pt" height="558pt"
 viewBox="0.00 0.00 997.50 558.00" xmlns="http://www.w3.org/2000/svg" xmlns:xlink="http://www.w3.org/1999/xlink">
<g id="graph0" class="graph" transform="scale(1 1) rotate(0) translate(4 554)">
<title>_memPool</title>
<polygon fill="white" stroke="transparent" points="-4,4 -4,-554 993.5,-554 993.5,4 -4,4"/>
<!-- Node1 -->
<g id="node1" class="node">
<title>Node1</title>
<g id="a_node1"><a xlink:title=" ">
<polygon fill="#bfbfbf" stroke="black" points="338,-0.5 338,-19.5 401,-19.5 401,-0.5 338,-0.5"/>
<text text-anchor="middle" x="369.5" y="-7.5" font-family="Helvetica,sans-Serif" font-size="10.00">_memPool</text>
</a>
</g>
</g>
<!-- Node2 -->
<g id="node2" class="node">
<title>Node2</title>
<g id="a_node2"><a xlink:href="usbdpriv_8h.html#struct_ohci_regs" target="_top" xlink:title=" ">
<polygon fill="white" stroke="black" points="76,-253 76,-272 135,-272 135,-253 76,-253"/>
<text text-anchor="middle" x="105.5" y="-260" font-family="Helvetica,sans-Serif" font-size="10.00">OhciRegs</text>
</a>
</g>
</g>
<!-- Node2&#45;&gt;Node1 -->
<g id="edge1" class="edge">
<title>Node2&#45;&gt;Node1</title>
<path fill="none" stroke="#9a32cd" stroke-dasharray="5,2" d="M104.63,-242.53C103.71,-196.92 108.78,-81.63 179.5,-38 205.37,-22.04 290.92,-15.11 337.91,-12.45"/>
<polygon fill="#9a32cd" stroke="#9a32cd" points="101.14,-242.89 104.96,-252.77 108.13,-242.66 101.14,-242.89"/>
<text text-anchor="middle" x="150" y="-125" font-family="Helvetica,sans-Serif" font-size="10.00"> ohciRegs</text>
</g>
<!-- Node3 -->
<g id="node3" class="node">
<title>Node3</title>
<g id="a_node3"><a xlink:href="usbdpriv_8h.html#struct_hc_c_a" target="_top" xlink:title=" ">
<polygon fill="white" stroke="black" points="0,-366 0,-385 43,-385 43,-366 0,-366"/>
<text text-anchor="middle" x="21.5" y="-373" font-family="Helvetica,sans-Serif" font-size="10.00">HcCA</text>
</a>
</g>
</g>
<!-- Node3&#45;&gt;Node1 -->
<g id="edge9" class="edge">
<title>Node3&#45;&gt;Node1</title>
<path fill="none" stroke="#9a32cd" stroke-dasharray="5,2" d="M20.83,-355.62C19.87,-295.97 26.13,-111.11 135.5,-38 167.88,-16.35 281.65,-11.97 337.74,-11.15"/>
<polygon fill="#9a32cd" stroke="#9a32cd" points="17.33,-355.91 21.09,-365.82 24.33,-355.73 17.33,-355.91"/>
<text text-anchor="middle" x="66" y="-198" font-family="Helvetica,sans-Serif" font-size="10.00"> hcHCCA</text>
</g>
<!-- Node3&#45;&gt;Node2 -->
<g id="edge2" class="edge">
<title>Node3&#45;&gt;Node2</title>
<path fill="none" stroke="#9a32cd" stroke-dasharray="5,2" d="M24.29,-355.59C27.6,-338.68 34.54,-314 48.5,-297 57.6,-285.91 71.41,-277.66 83.15,-272.13"/>
<polygon fill="#9a32cd" stroke="#9a32cd" points="20.77,-355.43 22.53,-365.87 27.67,-356.61 20.77,-355.43"/>
<text text-anchor="middle" x="70" y="-311" font-family="Helvetica,sans-Serif" font-size="10.00"> HcHCCA</text>
</g>
<!-- Node4 -->
<g id="node4" class="node">
<title>Node4</title>
<g id="a_node4"><a xlink:href="usbdpriv_8h.html#struct__hc_ed" target="_top" xlink:title=" ">
<polygon fill="white" stroke="black" points="140.5,-451.5 140.5,-470.5 184.5,-470.5 184.5,-451.5 140.5,-451.5"/>
<text text-anchor="middle" x="162.5" y="-458.5" font-family="Helvetica,sans-Serif" font-size="10.00">_hcEd</text>
</a>
</g>
</g>
<!-- Node4&#45;&gt;Node1 -->
<g id="edge10" class="edge">
<title>Node4&#45;&gt;Node1</title>
<path fill="none" stroke="#9a32cd" stroke-dasharray="5,2" d="M178.99,-444.17C188.88,-433.55 200.65,-418.68 206.5,-403 230.95,-337.52 202.05,-314.59 215.5,-246 228.7,-178.69 235.58,-161.72 265.5,-100 279.81,-70.49 280.39,-59.09 305.5,-38 315.2,-29.86 327.71,-23.85 339.09,-19.6"/>
<polygon fill="#9a32cd" stroke="#9a32cd" points="176.41,-441.8 171.92,-451.4 181.41,-446.69 176.41,-441.8"/>
<text text-anchor="middle" x="235.5" y="-260" font-family="Helvetica,sans-Serif" font-size="10.00"> hcEdBuf</text>
</g>
<!-- Node4&#45;&gt;Node2 -->
<g id="edge8" class="edge">
<title>Node4&#45;&gt;Node2</title>
<path fill="none" stroke="#9a32cd" stroke-dasharray="5,2" d="M146.33,-443.7C136.81,-433.04 125.49,-418.3 119.5,-403 101.22,-356.31 103.29,-294.43 104.8,-272.04"/>
<polygon fill="#9a32cd" stroke="#9a32cd" points="144.05,-446.39 153.44,-451.3 149.16,-441.61 144.05,-446.39"/>
<text text-anchor="middle" x="163" y="-395" font-family="Helvetica,sans-Serif" font-size="10.00"> HcBulkCurrentEd</text>
<text text-anchor="middle" x="163" y="-384" font-family="Helvetica,sans-Serif" font-size="10.00">HcBulkHeadEd</text>
<text text-anchor="middle" x="163" y="-373" font-family="Helvetica,sans-Serif" font-size="10.00">HcControlCurrentEd</text>
<text text-anchor="middle" x="163" y="-362" font-family="Helvetica,sans-Serif" font-size="10.00">HcControlHeadEd</text>
<text text-anchor="middle" x="163" y="-351" font-family="Helvetica,sans-Serif" font-size="10.00">HcPeriodCurrentEd</text>
</g>
<!-- Node4&#45;&gt;Node3 -->
<g id="edge3" class="edge">
<title>Node4&#45;&gt;Node3</title>
<path fill="none" stroke="#9a32cd" stroke-dasharray="5,2" d="M130.18,-457.5C95.01,-454.08 41.97,-446.6 28.5,-432 16.78,-419.29 17.97,-397.43 19.79,-385.28"/>
<polygon fill="#9a32cd" stroke="#9a32cd" points="130.18,-461.02 140.46,-458.44 130.82,-454.05 130.18,-461.02"/>
<text text-anchor="middle" x="60" y="-424" font-family="Helvetica,sans-Serif" font-size="10.00"> InterruptTable</text>
</g>
<!-- Node4&#45;&gt;Node4 -->
<g id="edge6" class="edge">
<title>Node4&#45;&gt;Node4</title>
<path fill="none" stroke="#9a32cd" stroke-dasharray="5,2" d="M194.9,-466.71C199.45,-465.78 202.5,-463.87 202.5,-461 202.5,-456.29 194.3,-454.19 184.71,-454.7"/>
<polygon fill="#9a32cd" stroke="#9a32cd" points="194.49,-463.22 184.71,-467.3 194.9,-470.21 194.49,-463.22"/>
<text text-anchor="middle" x="213" y="-458.5" font-family="Helvetica,sans-Serif" font-size="10.00"> next</text>
</g>
<!-- Node8 -->
<g id="node8" class="node">
<title>Node8</title>
<g id="a_node8"><a xlink:href="usbdpriv_8h.html#struct__endpoint" target="_top" xlink:title=" ">
<polygon fill="white" stroke="black" points="492,-366 492,-385 551,-385 551,-366 492,-366"/>
<text text-anchor="middle" x="521.5" y="-373" font-family="Helvetica,sans-Serif" font-size="10.00">_endpoint</text>
</a>
</g>
</g>
<!-- Node4&#45;&gt;Node8 -->
<g id="edge28" class="edge">
<title>Node4&#45;&gt;Node8</title>
<path fill="none" stroke="#9a32cd" stroke-dasharray="5,2" d="M194.55,-452.55C263.52,-436.5 425.17,-398.91 491.89,-383.39"/>
<polygon fill="#9a32cd" stroke="#9a32cd" points="193.63,-449.17 184.69,-454.84 195.22,-455.98 193.63,-449.17"/>
<text text-anchor="middle" x="333" y="-424" font-family="Helvetica,sans-Serif" font-size="10.00"> hcEd</text>
</g>
<!-- Node5 -->
<g id="node5" class="node">
<title>Node5</title>
<g id="a_node5"><a xlink:href="usbdpriv_8h.html#struct__hc_td" target="_top" xlink:title=" ">
<polygon fill="white" stroke="black" points="140.5,-530.5 140.5,-549.5 184.5,-549.5 184.5,-530.5 140.5,-530.5"/>
<text text-anchor="middle" x="162.5" y="-537.5" font-family="Helvetica,sans-Serif" font-size="10.00">_hcTd</text>
</a>
</g>
</g>
<!-- Node5&#45;&gt;Node1 -->
<g id="edge11" class="edge">
<title>Node5&#45;&gt;Node1</title>
<path fill="none" stroke="#9a32cd" stroke-dasharray="5,2" d="M194.7,-539.2C340.25,-539.7 929.5,-537.07 929.5,-462 929.5,-462 929.5,-462 929.5,-126.5 929.5,-17.8 519.68,-10.55 401.21,-10.73"/>
<polygon fill="#9a32cd" stroke="#9a32cd" points="194.64,-535.7 184.63,-539.16 194.61,-542.7 194.64,-535.7"/>
<text text-anchor="middle" x="959.5" y="-322" font-family="Helvetica,sans-Serif" font-size="10.00"> freeHcTdList</text>
<text text-anchor="middle" x="959.5" y="-311" font-family="Helvetica,sans-Serif" font-size="10.00">hcTdBuf</text>
<text text-anchor="middle" x="959.5" y="-300" font-family="Helvetica,sans-Serif" font-size="10.00">hcTdBufEnd</text>
</g>
<!-- Node5&#45;&gt;Node3 -->
<g id="edge7" class="edge">
<title>Node5&#45;&gt;Node3</title>
<path fill="none" stroke="#9a32cd" stroke-dasharray="5,2" d="M131.32,-526.26C96.5,-510.12 41.97,-478.67 18.5,-432 10.96,-417 15.05,-396.75 18.45,-385.32"/>
<polygon fill="#9a32cd" stroke="#9a32cd" points="130.01,-529.51 140.57,-530.4 132.88,-523.12 130.01,-529.51"/>
<text text-anchor="middle" x="72" y="-458.5" font-family="Helvetica,sans-Serif" font-size="10.00"> DoneHead</text>
</g>
<!-- Node5&#45;&gt;Node4 -->
<g id="edge4" class="edge">
<title>Node5&#45;&gt;Node4</title>
<path fill="none" stroke="#9a32cd" stroke-dasharray="5,2" d="M162.5,-520.31C162.5,-504.59 162.5,-482.81 162.5,-470.81"/>
<polygon fill="#9a32cd" stroke="#9a32cd" points="159,-520.47 162.5,-530.47 166,-520.47 159,-520.47"/>
<text text-anchor="middle" x="179.5" y="-504" font-family="Helvetica,sans-Serif" font-size="10.00"> tdHead</text>
<text text-anchor="middle" x="179.5" y="-493" font-family="Helvetica,sans-Serif" font-size="10.00">tdTail</text>
</g>
<!-- Node5&#45;&gt;Node5 -->
<g id="edge5" class="edge">
<title>Node5&#45;&gt;Node5</title>
<path fill="none" stroke="#9a32cd" stroke-dasharray="5,2" d="M194.9,-546.38C199.45,-545.34 202.5,-543.21 202.5,-540 202.5,-534.73 194.3,-532.38 184.71,-532.96"/>
<polygon fill="#9a32cd" stroke="#9a32cd" points="194.46,-542.9 184.71,-547.04 194.92,-549.88 194.46,-542.9"/>
<text text-anchor="middle" x="213" y="-537.5" font-family="Helvetica,sans-Serif" font-size="10.00"> next</text>
</g>
<!-- Node6 -->
<g id="node6" class="node">
<title>Node6</title>
<g id="a_node6"><a xlink:href="usbdpriv_8h.html#struct__hc_iso_td" target="_top" xlink:title=" ">
<polygon fill="white" stroke="black" points="341,-118 341,-137 398,-137 398,-118 341,-118"/>
<text text-anchor="middle" x="369.5" y="-125" font-family="Helvetica,sans-Serif" font-size="10.00">_hcIsoTd</text>
</a>
</g>
</g>
<!-- Node6&#45;&gt;Node1 -->
<g id="edge12" class="edge">
<title>Node6&#45;&gt;Node1</title>
<path fill="none" stroke="#9a32cd" stroke-dasharray="5,2" d="M369.5,-107.66C369.5,-82.37 369.5,-38.44 369.5,-19.78"/>
<polygon fill="#9a32cd" stroke="#9a32cd" points="366,-107.82 369.5,-117.82 373,-107.82 366,-107.82"/>
<text text-anchor="middle" x="406" y="-68.5" font-family="Helvetica,sans-Serif" font-size="10.00"> freeHcIsoTdList</text>
<text text-anchor="middle" x="406" y="-57.5" font-family="Helvetica,sans-Serif" font-size="10.00">hcIsoTdBuf</text>
<text text-anchor="middle" x="406" y="-46.5" font-family="Helvetica,sans-Serif" font-size="10.00">hcIsoTdBufEnd</text>
</g>
<!-- Node6&#45;&gt;Node6 -->
<g id="edge13" class="edge">
<title>Node6&#45;&gt;Node6</title>
<path fill="none" stroke="#9a32cd" stroke-dasharray="5,2" d="M394.17,-139.61C405.8,-141 416,-136.97 416,-127.5 416,-115.38 399.28,-112.16 384.26,-117.84"/>
<polygon fill="#9a32cd" stroke="#9a32cd" points="394.81,-136.16 384.26,-137.16 393.13,-142.95 394.81,-136.16"/>
<text text-anchor="middle" x="426.5" y="-125" font-family="Helvetica,sans-Serif" font-size="10.00"> next</text>
</g>
<!-- Node7 -->
<g id="node7" class="node">
<title>Node7</title>
<g id="a_node7"><a xlink:href="usbdpriv_8h.html#struct__io_request" target="_top" xlink:title=" ">
<polygon fill="white" stroke="black" points="625,-253 625,-272 690,-272 690,-253 625,-253"/>
<text text-anchor="middle" x="657.5" y="-260" font-family="Helvetica,sans-Serif" font-size="10.00">_ioRequest</text>
</a>
</g>
</g>
<!-- Node7&#45;&gt;Node1 -->
<g id="edge14" class="edge">
<title>Node7&#45;&gt;Node1</title>
<path fill="none" stroke="#9a32cd" stroke-dasharray="5,2" d="M663.09,-243.26C667.74,-224.99 672.44,-196.31 664.5,-173 640.09,-101.3 625.95,-76.12 560.5,-38 534.09,-22.62 448.27,-15.45 401.16,-12.6"/>
<polygon fill="#9a32cd" stroke="#9a32cd" points="659.71,-242.35 660.38,-252.92 666.45,-244.24 659.71,-242.35"/>
<text text-anchor="middle" x="703.5" y="-147" font-family="Helvetica,sans-Serif" font-size="10.00"> freeIoReqList</text>
<text text-anchor="middle" x="703.5" y="-136" font-family="Helvetica,sans-Serif" font-size="10.00">freeIoReqListEnd</text>
<text text-anchor="middle" x="703.5" y="-125" font-family="Helvetica,sans-Serif" font-size="10.00">hcIsoTdToIoReqLUT</text>
<text text-anchor="middle" x="703.5" y="-114" font-family="Helvetica,sans-Serif" font-size="10.00">hcTdToIoReqLUT</text>
<text text-anchor="middle" x="703.5" y="-103" font-family="Helvetica,sans-Serif" font-size="10.00">ioReqBufPtr</text>
</g>
<!-- Node7&#45;&gt;Node7 -->
<g id="edge15" class="edge">
<title>Node7&#45;&gt;Node7</title>
<path fill="none" stroke="#9a32cd" stroke-dasharray="5,2" d="M700.14,-270.42C704.91,-268.92 708,-266.28 708,-262.5 708,-256.45 700.1,-253.32 690.04,-253.13"/>
<polygon fill="#9a32cd" stroke="#9a32cd" points="699.44,-266.98 690.04,-271.87 700.44,-273.91 699.44,-266.98"/>
<text text-anchor="middle" x="737.5" y="-271" font-family="Helvetica,sans-Serif" font-size="10.00"> callbackProc</text>
<text text-anchor="middle" x="737.5" y="-260" font-family="Helvetica,sans-Serif" font-size="10.00">next</text>
<text text-anchor="middle" x="737.5" y="-249" font-family="Helvetica,sans-Serif" font-size="10.00">prev</text>
</g>
<!-- Node7&#45;&gt;Node8 -->
<g id="edge26" class="edge">
<title>Node7&#45;&gt;Node8</title>
<path fill="none" stroke="#9a32cd" stroke-dasharray="5,2" d="M651.24,-281.88C645.1,-299.03 635.64,-322.98 628.5,-330 607.27,-350.87 574.82,-362.49 551.23,-368.57"/>
<polygon fill="#9a32cd" stroke="#9a32cd" points="654.59,-282.9 654.59,-272.3 647.98,-280.59 654.59,-282.9"/>
<text text-anchor="middle" x="676" y="-316.5" font-family="Helvetica,sans-Serif" font-size="10.00"> ioReqListEnd</text>
<text text-anchor="middle" x="676" y="-305.5" font-family="Helvetica,sans-Serif" font-size="10.00">ioReqListStart</text>
</g>
<!-- Node9 -->
<g id="node9" class="node">
<title>Node9</title>
<g id="a_node9"><a xlink:href="usbdpriv_8h.html#struct__device" target="_top" xlink:title=" ">
<polygon fill="white" stroke="black" points="455.5,-118 455.5,-137 505.5,-137 505.5,-118 455.5,-118"/>
<text text-anchor="middle" x="480.5" y="-125" font-family="Helvetica,sans-Serif" font-size="10.00">_device</text>
</a>
</g>
</g>
<!-- Node7&#45;&gt;Node9 -->
<g id="edge25" class="edge">
<title>Node7&#45;&gt;Node9</title>
<path fill="none" stroke="#9a32cd" stroke-dasharray="5,2" d="M639.37,-246.54C617.46,-228.62 579.33,-197.9 545.5,-173 527.88,-160.03 506.89,-145.89 493.63,-137.11"/>
<polygon fill="#9a32cd" stroke="#9a32cd" points="637.23,-249.32 647.19,-252.96 641.68,-243.91 637.23,-249.32"/>
<text text-anchor="middle" x="637.5" y="-198" font-family="Helvetica,sans-Serif" font-size="10.00"> ioRequest</text>
</g>
<!-- Node8&#45;&gt;Node1 -->
<g id="edge31" class="edge">
<title>Node8&#45;&gt;Node1</title>
<path fill="none" stroke="#9a32cd" stroke-dasharray="5,2" d="M481.66,-368.98C428.89,-359.64 336.13,-335.83 281.5,-279 248.38,-244.55 249.85,-218.79 263.5,-173 283.28,-106.65 339.86,-42.18 361.21,-19.53"/>
<polygon fill="#9a32cd" stroke="#9a32cd" points="481.22,-372.46 491.66,-370.67 482.38,-365.56 481.22,-372.46"/>
<text text-anchor="middle" x="296.5" y="-220" font-family="Helvetica,sans-Serif" font-size="10.00"> endpointBuf</text>
<text text-anchor="middle" x="296.5" y="-209" font-family="Helvetica,sans-Serif" font-size="10.00">freeEpListEnd</text>
<text text-anchor="middle" x="296.5" y="-198" font-family="Helvetica,sans-Serif" font-size="10.00">freeEpListStart</text>
<text text-anchor="middle" x="296.5" y="-187" font-family="Helvetica,sans-Serif" font-size="10.00">tdQueueEnd</text>
<text text-anchor="middle" x="296.5" y="-176" font-family="Helvetica,sans-Serif" font-size="10.00">tdQueueStart</text>
</g>
<!-- Node8&#45;&gt;Node7 -->
<g id="edge16" class="edge">
<title>Node8&#45;&gt;Node7</title>
<path fill="none" stroke="#9a32cd" stroke-dasharray="5,2" d="M525.12,-355.81C529.44,-338.3 538.36,-312.55 555.5,-297 574.55,-279.72 586.06,-287.03 610.5,-279 617.36,-276.75 624.77,-274.3 631.65,-272.04"/>
<polygon fill="#9a32cd" stroke="#9a32cd" points="521.62,-355.43 522.9,-365.94 528.46,-356.93 521.62,-355.43"/>
<text text-anchor="middle" x="592" y="-311" font-family="Helvetica,sans-Serif" font-size="10.00"> correspEndpoint</text>
</g>
<!-- Node8&#45;&gt;Node8 -->
<g id="edge17" class="edge">
<title>Node8&#45;&gt;Node8</title>
<path fill="none" stroke="#9a32cd" stroke-dasharray="5,2" d="M561.17,-383.56C565.91,-382.09 569,-379.41 569,-375.5 569,-369.25 561.08,-366.12 551.19,-366.12"/>
<polygon fill="#9a32cd" stroke="#9a32cd" points="560.64,-380.1 551.19,-384.88 561.56,-387.04 560.64,-380.1"/>
<text text-anchor="middle" x="590.5" y="-389.5" font-family="Helvetica,sans-Serif" font-size="10.00"> busyNext</text>
<text text-anchor="middle" x="590.5" y="-378.5" font-family="Helvetica,sans-Serif" font-size="10.00">busyPrev</text>
<text text-anchor="middle" x="590.5" y="-367.5" font-family="Helvetica,sans-Serif" font-size="10.00">next</text>
<text text-anchor="middle" x="590.5" y="-356.5" font-family="Helvetica,sans-Serif" font-size="10.00">prev</text>
</g>
<!-- Node8&#45;&gt;Node9 -->
<g id="edge20" class="edge">
<title>Node8&#45;&gt;Node9</title>
<path fill="none" stroke="#9a32cd" stroke-dasharray="5,2" d="M520.61,-355.39C519.22,-330.19 516.02,-284.53 509.5,-246 502.53,-204.77 488.87,-156.64 483.14,-137.25"/>
<polygon fill="#9a32cd" stroke="#9a32cd" points="517.13,-355.91 521.13,-365.72 524.12,-355.55 517.13,-355.91"/>
<text text-anchor="middle" x="551" y="-265.5" font-family="Helvetica,sans-Serif" font-size="10.00"> endpointListEnd</text>
<text text-anchor="middle" x="551" y="-254.5" font-family="Helvetica,sans-Serif" font-size="10.00">endpointListStart</text>
</g>
<!-- Node9&#45;&gt;Node1 -->
<g id="edge30" class="edge">
<title>Node9&#45;&gt;Node1</title>
<path fill="none" stroke="#9a32cd" stroke-dasharray="5,2" d="M478.03,-107.93C474.44,-88.07 465.94,-56.87 446.5,-38 434.3,-26.16 416.62,-19.49 401.28,-15.74"/>
<polygon fill="#9a32cd" stroke="#9a32cd" points="474.58,-108.56 479.59,-117.9 481.5,-107.48 474.58,-108.56"/>
<text text-anchor="middle" x="514" y="-74" font-family="Helvetica,sans-Serif" font-size="10.00"> deviceTreeBuf</text>
<text text-anchor="middle" x="514" y="-63" font-family="Helvetica,sans-Serif" font-size="10.00">deviceTreeRoot</text>
<text text-anchor="middle" x="514" y="-52" font-family="Helvetica,sans-Serif" font-size="10.00">freeDeviceListEnd</text>
<text text-anchor="middle" x="514" y="-41" font-family="Helvetica,sans-Serif" font-size="10.00">freeDeviceListStart</text>
</g>
<!-- Node9&#45;&gt;Node8 -->
<g id="edge18" class="edge">
<title>Node9&#45;&gt;Node8</title>
<path fill="none" stroke="#9a32cd" stroke-dasharray="5,2" d="M469.95,-145.92C454.17,-174.3 427.94,-232.09 444.5,-279 457.83,-316.76 493.11,-350.56 510.91,-365.86"/>
<polygon fill="#9a32cd" stroke="#9a32cd" points="473.04,-147.58 475.01,-137.17 466.98,-144.07 473.04,-147.58"/>
<text text-anchor="middle" x="477" y="-260" font-family="Helvetica,sans-Serif" font-size="10.00"> correspDevice</text>
</g>
<!-- Node9&#45;&gt;Node9 -->
<g id="edge19" class="edge">
<title>Node9&#45;&gt;Node9</title>
<path fill="none" stroke="#9a32cd" stroke-dasharray="5,2" d="M503.96,-139.68C514.44,-140.84 523.5,-136.78 523.5,-127.5 523.5,-115.38 508.04,-112.16 494.15,-117.84"/>
<polygon fill="#9a32cd" stroke="#9a32cd" points="504.71,-136.26 494.15,-137.16 502.96,-143.04 504.71,-136.26"/>
<text text-anchor="middle" x="552.5" y="-147" font-family="Helvetica,sans-Serif" font-size="10.00"> childListEnd</text>
<text text-anchor="middle" x="552.5" y="-136" font-family="Helvetica,sans-Serif" font-size="10.00">childListStart</text>
<text text-anchor="middle" x="552.5" y="-125" font-family="Helvetica,sans-Serif" font-size="10.00">next</text>
<text text-anchor="middle" x="552.5" y="-114" font-family="Helvetica,sans-Serif" font-size="10.00">parent</text>
<text text-anchor="middle" x="552.5" y="-103" font-family="Helvetica,sans-Serif" font-size="10.00">prev</text>
</g>
<!-- Node10 -->
<g id="node10" class="node">
<title>Node10</title>
<g id="a_node10"><a xlink:href="struct___usb_driver.html" target="_top" xlink:title=" ">
<polygon fill="white" stroke="black" points="290,-253 290,-272 355,-272 355,-253 290,-253"/>
<text text-anchor="middle" x="322.5" y="-260" font-family="Helvetica,sans-Serif" font-size="10.00">_UsbDriver</text>
</a>
</g>
</g>
<!-- Node10&#45;&gt;Node9 -->
<g id="edge21" class="edge">
<title>Node10&#45;&gt;Node9</title>
<path fill="none" stroke="#9a32cd" stroke-dasharray="5,2" d="M327.91,-243.29C334.88,-223.02 349,-190.78 372.5,-173 399.5,-152.58 416.03,-169.73 446.5,-155 455.93,-150.44 465.22,-142.94 471.69,-137.08"/>
<polygon fill="#9a32cd" stroke="#9a32cd" points="324.54,-242.32 324.83,-252.91 331.21,-244.45 324.54,-242.32"/>
<text text-anchor="middle" x="394.5" y="-198" font-family="Helvetica,sans-Serif" font-size="10.00"> devDriver</text>
</g>
<!-- Node10&#45;&gt;Node10 -->
<g id="edge22" class="edge">
<title>Node10&#45;&gt;Node10</title>
<path fill="none" stroke="#9a32cd" stroke-dasharray="5,2" d="M365.14,-270.42C369.91,-268.92 373,-266.28 373,-262.5 373,-256.45 365.1,-253.32 355.04,-253.13"/>
<polygon fill="#9a32cd" stroke="#9a32cd" points="364.44,-266.98 355.04,-271.87 365.44,-273.91 364.44,-266.98"/>
<text text-anchor="middle" x="383.5" y="-265.5" font-family="Helvetica,sans-Serif" font-size="10.00"> next</text>
<text text-anchor="middle" x="383.5" y="-254.5" font-family="Helvetica,sans-Serif" font-size="10.00">prev</text>
</g>
<!-- Node11 -->
<g id="node11" class="node">
<title>Node11</title>
<g id="a_node11"><a xlink:href="usbdpriv_8h.html#struct__timer_cb_struct" target="_top" xlink:title=" ">
<polygon fill="white" stroke="black" points="754.5,-451.5 754.5,-470.5 836.5,-470.5 836.5,-451.5 754.5,-451.5"/>
<text text-anchor="middle" x="795.5" y="-458.5" font-family="Helvetica,sans-Serif" font-size="10.00">_timerCbStruct</text>
</a>
</g>
</g>
<!-- Node11&#45;&gt;Node1 -->
<g id="edge32" class="edge">
<title>Node11&#45;&gt;Node1</title>
<path fill="none" stroke="#9a32cd" stroke-dasharray="5,2" d="M811.27,-443.32C824.58,-427.43 841.5,-402.2 841.5,-376.5 841.5,-376.5 841.5,-376.5 841.5,-126.5 841.5,-35.6 507.03,-15.89 401.2,-11.93"/>
<polygon fill="#9a32cd" stroke="#9a32cd" points="808.37,-441.32 804.37,-451.13 813.61,-445.95 808.37,-441.32"/>
<text text-anchor="middle" x="871.5" y="-265.5" font-family="Helvetica,sans-Serif" font-size="10.00"> timerListEnd</text>
<text text-anchor="middle" x="871.5" y="-254.5" font-family="Helvetica,sans-Serif" font-size="10.00">timerListStart</text>
</g>
<!-- Node11&#45;&gt;Node8 -->
<g id="edge27" class="edge">
<title>Node11&#45;&gt;Node8</title>
<path fill="none" stroke="#9a32cd" stroke-dasharray="5,2" d="M757.64,-448.46C701.96,-431.49 599.25,-400.19 549.7,-385.09"/>
<polygon fill="#9a32cd" stroke="#9a32cd" points="756.88,-451.89 767.46,-451.46 758.92,-445.19 756.88,-451.89"/>
<text text-anchor="middle" x="711" y="-424" font-family="Helvetica,sans-Serif" font-size="10.00"> timer</text>
</g>
<!-- Node11&#45;&gt;Node9 -->
<g id="edge23" class="edge">
<title>Node11&#45;&gt;Node9</title>
<path fill="none" stroke="#9a32cd" stroke-dasharray="5,2" d="M798.92,-441.48C805.14,-402.24 814.43,-309.15 776.5,-246 745.91,-195.06 719.05,-196.55 664.5,-173 610.49,-149.69 542.05,-137.22 505.77,-131.83"/>
<polygon fill="#9a32cd" stroke="#9a32cd" points="795.45,-441 797.21,-451.44 802.35,-442.18 795.45,-441"/>
<text text-anchor="middle" x="814" y="-311" font-family="Helvetica,sans-Serif" font-size="10.00"> timer</text>
</g>
<!-- Node11&#45;&gt;Node11 -->
<g id="edge24" class="edge">
<title>Node11&#45;&gt;Node11</title>
<path fill="none" stroke="#9a32cd" stroke-dasharray="5,2" d="M846.76,-466.09C851.51,-465.04 854.5,-463.34 854.5,-461 854.5,-457.25 846.84,-455.15 836.58,-454.71"/>
<polygon fill="#9a32cd" stroke="#9a32cd" points="846.11,-462.65 836.58,-467.29 846.92,-469.6 846.11,-462.65"/>
<text text-anchor="middle" x="865" y="-464" font-family="Helvetica,sans-Serif" font-size="10.00"> next</text>
<text text-anchor="middle" x="865" y="-453" font-family="Helvetica,sans-Serif" font-size="10.00">prev</text>
</g>
<!-- Node12 -->
<g id="node12" class="node">
<title>Node12</title>
<g id="a_node12"><a xlink:href="usbd_8h.html#struct_usb_device_request" target="_top" xlink:title=" ">
<polygon fill="white" stroke="black" points="666,-366 666,-385 767,-385 767,-366 666,-366"/>
<text text-anchor="middle" x="716.5" y="-373" font-family="Helvetica,sans-Serif" font-size="10.00">UsbDeviceRequest</text>
</a>
</g>
</g>
<!-- Node12&#45;&gt;Node7 -->
<g id="edge29" class="edge">
<title>Node12&#45;&gt;Node7</title>
<path fill="none" stroke="#9a32cd" stroke-dasharray="5,2" d="M720.88,-355.49C723.63,-338.88 724.94,-314.71 714.5,-297 707.62,-285.33 694.97,-277.3 683.34,-272.04"/>
<polygon fill="#9a32cd" stroke="#9a32cd" points="717.39,-355.12 718.87,-365.61 724.25,-356.49 717.39,-355.12"/>
<text text-anchor="middle" x="740.5" y="-311" font-family="Helvetica,sans-Serif" font-size="10.00"> devReq</text>
</g>
</g>
</svg>
