<?xml version="1.0" encoding="UTF-8" standalone="no"?>
<!DOCTYPE svg PUBLIC "-//W3C//DTD SVG 1.1//EN"
 "http://www.w3.org/Graphics/SVG/1.1/DTD/svg11.dtd">
<!-- Generated by graphviz version 2.49.3 (20211027.1534)
 -->
<!-- Title: GS_POINT Pages: 1 -->
<svg width="178pt" height="162pt"
 viewBox="0.00 0.00 177.50 162.00" xmlns="http://www.w3.org/2000/svg" xmlns:xlink="http://www.w3.org/1999/xlink">
<g id="graph0" class="graph" transform="scale(1 1) rotate(0) translate(4 158)">
<title>GS_POINT</title>
<polygon fill="white" stroke="transparent" points="-4,4 -4,-158 173.5,-158 173.5,4 -4,4"/>
<!-- Node1 -->
<g id="node1" class="node">
<title>Node1</title>
<g id="a_node1"><a xlink:title=" ">
<polygon fill="#bfbfbf" stroke="black" points="54,-0.5 54,-19.5 121,-19.5 121,-0.5 54,-0.5"/>
<text text-anchor="middle" x="87.5" y="-7.5" font-family="Helvetica,sans-Serif" font-size="10.00">GS_POINT</text>
</a>
</g>
</g>
<!-- Node2 -->
<g id="node2" class="node">
<title>Node2</title>
<g id="a_node2"><a xlink:href="libgs_8h.html#struct_g_s___r___r_g_b_a_q" target="_top" xlink:title=" ">
<polygon fill="white" stroke="black" points="0,-67.5 0,-86.5 83,-86.5 83,-67.5 0,-67.5"/>
<text text-anchor="middle" x="41.5" y="-74.5" font-family="Helvetica,sans-Serif" font-size="10.00">GS_R_RGBAQ</text>
</a>
</g>
</g>
<!-- Node2&#45;&gt;Node1 -->
<g id="edge1" class="edge">
<title>Node2&#45;&gt;Node1</title>
<path fill="none" stroke="#9a32cd" stroke-dasharray="5,2" d="M53.6,-58.9C62.54,-46.27 74.33,-29.6 81.39,-19.63"/>
<polygon fill="#9a32cd" stroke="#9a32cd" points="50.62,-57.05 47.7,-67.23 56.34,-61.09 50.62,-57.05"/>
<text text-anchor="middle" x="83.5" y="-41" font-family="Helvetica,sans-Serif" font-size="10.00"> rgbaq0</text>
</g>
<!-- Node3 -->
<g id="node3" class="node">
<title>Node3</title>
<g id="a_node3"><a xlink:href="libgs_8h.html#struct_g_s___r_g_b_a_q" target="_top" xlink:title=" ">
<polygon fill="white" stroke="black" points="6,-134.5 6,-153.5 77,-153.5 77,-134.5 6,-134.5"/>
<text text-anchor="middle" x="41.5" y="-141.5" font-family="Helvetica,sans-Serif" font-size="10.00">GS_RGBAQ</text>
</a>
</g>
</g>
<!-- Node3&#45;&gt;Node2 -->
<g id="edge2" class="edge">
<title>Node3&#45;&gt;Node2</title>
<path fill="none" stroke="#9a32cd" stroke-dasharray="5,2" d="M41.5,-124.04C41.5,-111.67 41.5,-96.12 41.5,-86.63"/>
<polygon fill="#9a32cd" stroke="#9a32cd" points="38,-124.23 41.5,-134.23 45,-124.23 38,-124.23"/>
<text text-anchor="middle" x="52.5" y="-108" font-family="Helvetica,sans-Serif" font-size="10.00"> data</text>
</g>
<!-- Node4 -->
<g id="node4" class="node">
<title>Node4</title>
<g id="a_node4"><a xlink:href="libgs_8h.html#struct_g_s___r___x_y_z" target="_top" xlink:title=" ">
<polygon fill="white" stroke="black" points="101.5,-67.5 101.5,-86.5 169.5,-86.5 169.5,-67.5 101.5,-67.5"/>
<text text-anchor="middle" x="135.5" y="-74.5" font-family="Helvetica,sans-Serif" font-size="10.00">GS_R_XYZ</text>
</a>
</g>
</g>
<!-- Node4&#45;&gt;Node1 -->
<g id="edge3" class="edge">
<title>Node4&#45;&gt;Node1</title>
<path fill="none" stroke="#9a32cd" stroke-dasharray="5,2" d="M122.88,-58.9C113.55,-46.27 101.24,-29.6 93.87,-19.63"/>
<polygon fill="#9a32cd" stroke="#9a32cd" points="120.27,-61.27 129.03,-67.23 125.9,-57.11 120.27,-61.27"/>
<text text-anchor="middle" x="125.5" y="-41" font-family="Helvetica,sans-Serif" font-size="10.00"> xyz0</text>
</g>
<!-- Node5 -->
<g id="node5" class="node">
<title>Node5</title>
<g id="a_node5"><a xlink:href="libgs_8h.html#struct_g_s___x_y_z" target="_top" xlink:title=" ">
<polygon fill="white" stroke="black" points="107.5,-134.5 107.5,-153.5 163.5,-153.5 163.5,-134.5 107.5,-134.5"/>
<text text-anchor="middle" x="135.5" y="-141.5" font-family="Helvetica,sans-Serif" font-size="10.00">GS_XYZ</text>
</a>
</g>
</g>
<!-- Node5&#45;&gt;Node4 -->
<g id="edge4" class="edge">
<title>Node5&#45;&gt;Node4</title>
<path fill="none" stroke="#9a32cd" stroke-dasharray="5,2" d="M135.5,-124.04C135.5,-111.67 135.5,-96.12 135.5,-86.63"/>
<polygon fill="#9a32cd" stroke="#9a32cd" points="132,-124.23 135.5,-134.23 139,-124.23 132,-124.23"/>
<text text-anchor="middle" x="146.5" y="-108" font-family="Helvetica,sans-Serif" font-size="10.00"> data</text>
</g>
</g>
</svg>
