<?xml version="1.0" encoding="UTF-8" standalone="no"?>
<!DOCTYPE svg PUBLIC "-//W3C//DTD SVG 1.1//EN"
 "http://www.w3.org/Graphics/SVG/1.1/DTD/svg11.dtd">
<!-- Generated by graphviz version 2.49.3 (20211027.1534)
 -->
<!-- Title: GS_SPRITE_FT4 Pages: 1 -->
<svg width="258pt" height="173pt"
 viewBox="0.00 0.00 257.50 173.00" xmlns="http://www.w3.org/2000/svg" xmlns:xlink="http://www.w3.org/1999/xlink">
<g id="graph0" class="graph" transform="scale(1 1) rotate(0) translate(4 169)">
<title>GS_SPRITE_FT4</title>
<polygon fill="white" stroke="transparent" points="-4,4 -4,-169 253.5,-169 253.5,4 -4,4"/>
<!-- Node1 -->
<g id="node1" class="node">
<title>Node1</title>
<g id="a_node1"><a xlink:title=" ">
<polygon fill="#bfbfbf" stroke="black" points="85.5,-0.5 85.5,-19.5 179.5,-19.5 179.5,-0.5 85.5,-0.5"/>
<text text-anchor="middle" x="132.5" y="-7.5" font-family="Helvetica,sans-Serif" font-size="10.00">GS_SPRITE_FT4</text>
</a>
</g>
</g>
<!-- Node2 -->
<g id="node2" class="node">
<title>Node2</title>
<g id="a_node2"><a xlink:href="libgs_8h.html#struct_g_s___r___r_g_b_a_q" target="_top" xlink:title=" ">
<polygon fill="white" stroke="black" points="0,-78.5 0,-97.5 83,-97.5 83,-78.5 0,-78.5"/>
<text text-anchor="middle" x="41.5" y="-85.5" font-family="Helvetica,sans-Serif" font-size="10.00">GS_R_RGBAQ</text>
</a>
</g>
</g>
<!-- Node2&#45;&gt;Node1 -->
<g id="edge1" class="edge">
<title>Node2&#45;&gt;Node1</title>
<path fill="none" stroke="#9a32cd" stroke-dasharray="5,2" d="M58.06,-71.59C68.82,-61.74 83.25,-48.84 96.5,-38 104.36,-31.57 113.52,-24.71 120.63,-19.51"/>
<polygon fill="#9a32cd" stroke="#9a32cd" points="55.61,-69.08 50.63,-78.43 60.36,-74.23 55.61,-69.08"/>
<text text-anchor="middle" x="112.5" y="-46.5" font-family="Helvetica,sans-Serif" font-size="10.00"> rgbaq0</text>
</g>
<!-- Node3 -->
<g id="node3" class="node">
<title>Node3</title>
<g id="a_node3"><a xlink:href="libgs_8h.html#struct_g_s___r_g_b_a_q" target="_top" xlink:title=" ">
<polygon fill="white" stroke="black" points="6,-145.5 6,-164.5 77,-164.5 77,-145.5 6,-145.5"/>
<text text-anchor="middle" x="41.5" y="-152.5" font-family="Helvetica,sans-Serif" font-size="10.00">GS_RGBAQ</text>
</a>
</g>
</g>
<!-- Node3&#45;&gt;Node2 -->
<g id="edge2" class="edge">
<title>Node3&#45;&gt;Node2</title>
<path fill="none" stroke="#9a32cd" stroke-dasharray="5,2" d="M41.5,-135.04C41.5,-122.67 41.5,-107.12 41.5,-97.63"/>
<polygon fill="#9a32cd" stroke="#9a32cd" points="38,-135.23 41.5,-145.23 45,-135.23 38,-135.23"/>
<text text-anchor="middle" x="52.5" y="-119" font-family="Helvetica,sans-Serif" font-size="10.00"> data</text>
</g>
<!-- Node4 -->
<g id="node4" class="node">
<title>Node4</title>
<g id="a_node4"><a xlink:href="libgs_8h.html#struct_g_s___r___u_v" target="_top" xlink:title=" ">
<polygon fill="white" stroke="black" points="101.5,-78.5 101.5,-97.5 163.5,-97.5 163.5,-78.5 101.5,-78.5"/>
<text text-anchor="middle" x="132.5" y="-85.5" font-family="Helvetica,sans-Serif" font-size="10.00">GS_R_UV</text>
</a>
</g>
</g>
<!-- Node4&#45;&gt;Node1 -->
<g id="edge3" class="edge">
<title>Node4&#45;&gt;Node1</title>
<path fill="none" stroke="#9a32cd" stroke-dasharray="5,2" d="M132.5,-68.22C132.5,-52.7 132.5,-31.36 132.5,-19.62"/>
<polygon fill="#9a32cd" stroke="#9a32cd" points="129,-68.28 132.5,-78.28 136,-68.28 129,-68.28"/>
<text text-anchor="middle" x="142" y="-52" font-family="Helvetica,sans-Serif" font-size="10.00"> uv0</text>
<text text-anchor="middle" x="142" y="-41" font-family="Helvetica,sans-Serif" font-size="10.00">uv1</text>
</g>
<!-- Node5 -->
<g id="node5" class="node">
<title>Node5</title>
<g id="a_node5"><a xlink:href="libgs_8h.html#struct_g_s___u_v" target="_top" xlink:title=" ">
<polygon fill="white" stroke="black" points="107.5,-145.5 107.5,-164.5 157.5,-164.5 157.5,-145.5 107.5,-145.5"/>
<text text-anchor="middle" x="132.5" y="-152.5" font-family="Helvetica,sans-Serif" font-size="10.00">GS_UV</text>
</a>
</g>
</g>
<!-- Node5&#45;&gt;Node4 -->
<g id="edge4" class="edge">
<title>Node5&#45;&gt;Node4</title>
<path fill="none" stroke="#9a32cd" stroke-dasharray="5,2" d="M132.5,-135.04C132.5,-122.67 132.5,-107.12 132.5,-97.63"/>
<polygon fill="#9a32cd" stroke="#9a32cd" points="129,-135.23 132.5,-145.23 136,-135.23 129,-135.23"/>
<text text-anchor="middle" x="143.5" y="-119" font-family="Helvetica,sans-Serif" font-size="10.00"> data</text>
</g>
<!-- Node6 -->
<g id="node6" class="node">
<title>Node6</title>
<g id="a_node6"><a xlink:href="libgs_8h.html#struct_g_s___r___x_y_z" target="_top" xlink:title=" ">
<polygon fill="white" stroke="black" points="181.5,-78.5 181.5,-97.5 249.5,-97.5 249.5,-78.5 181.5,-78.5"/>
<text text-anchor="middle" x="215.5" y="-85.5" font-family="Helvetica,sans-Serif" font-size="10.00">GS_R_XYZ</text>
</a>
</g>
</g>
<!-- Node6&#45;&gt;Node1 -->
<g id="edge5" class="edge">
<title>Node6&#45;&gt;Node1</title>
<path fill="none" stroke="#9a32cd" stroke-dasharray="5,2" d="M198.36,-71.3C181.25,-55.64 155.6,-32.16 141.91,-19.62"/>
<polygon fill="#9a32cd" stroke="#9a32cd" points="196.24,-74.11 205.98,-78.28 200.97,-68.95 196.24,-74.11"/>
<text text-anchor="middle" x="195.5" y="-52" font-family="Helvetica,sans-Serif" font-size="10.00"> xyz0</text>
<text text-anchor="middle" x="195.5" y="-41" font-family="Helvetica,sans-Serif" font-size="10.00">xyz1</text>
</g>
<!-- Node7 -->
<g id="node7" class="node">
<title>Node7</title>
<g id="a_node7"><a xlink:href="libgs_8h.html#struct_g_s___x_y_z" target="_top" xlink:title=" ">
<polygon fill="white" stroke="black" points="187.5,-145.5 187.5,-164.5 243.5,-164.5 243.5,-145.5 187.5,-145.5"/>
<text text-anchor="middle" x="215.5" y="-152.5" font-family="Helvetica,sans-Serif" font-size="10.00">GS_XYZ</text>
</a>
</g>
</g>
<!-- Node7&#45;&gt;Node6 -->
<g id="edge6" class="edge">
<title>Node7&#45;&gt;Node6</title>
<path fill="none" stroke="#9a32cd" stroke-dasharray="5,2" d="M215.5,-135.04C215.5,-122.67 215.5,-107.12 215.5,-97.63"/>
<polygon fill="#9a32cd" stroke="#9a32cd" points="212,-135.23 215.5,-145.23 219,-135.23 212,-135.23"/>
<text text-anchor="middle" x="226.5" y="-119" font-family="Helvetica,sans-Serif" font-size="10.00"> data</text>
</g>
</g>
</svg>
