<?xml version="1.0" encoding="UTF-8" standalone="no"?>
<!DOCTYPE svg PUBLIC "-//W3C//DTD SVG 1.1//EN"
 "http://www.w3.org/Graphics/SVG/1.1/DTD/svg11.dtd">
<!-- Generated by graphviz version 2.49.3 (20211027.1534)
 -->
<!-- Title: GS_TRIANGLE_GT3ST_P Pages: 1 -->
<svg width="348pt" height="184pt"
 viewBox="0.00 0.00 347.50 184.00" xmlns="http://www.w3.org/2000/svg" xmlns:xlink="http://www.w3.org/1999/xlink">
<g id="graph0" class="graph" transform="scale(1 1) rotate(0) translate(4 180)">
<title>GS_TRIANGLE_GT3ST_P</title>
<polygon fill="white" stroke="transparent" points="-4,4 -4,-180 343.5,-180 343.5,4 -4,4"/>
<!-- Node1 -->
<g id="node1" class="node">
<title>Node1</title>
<g id="a_node1"><a xlink:title=" ">
<polygon fill="#bfbfbf" stroke="black" points="110.5,-0.5 110.5,-19.5 244.5,-19.5 244.5,-0.5 110.5,-0.5"/>
<text text-anchor="middle" x="177.5" y="-7.5" font-family="Helvetica,sans-Serif" font-size="10.00">GS_TRIANGLE_GT3ST_P</text>
</a>
</g>
</g>
<!-- Node2 -->
<g id="node2" class="node">
<title>Node2</title>
<g id="a_node2"><a xlink:href="libgs_8h.html#struct_g_s___r___p_r_i_m" target="_top" xlink:title=" ">
<polygon fill="white" stroke="black" points="0,-89.5 0,-108.5 73,-108.5 73,-89.5 0,-89.5"/>
<text text-anchor="middle" x="36.5" y="-96.5" font-family="Helvetica,sans-Serif" font-size="10.00">GS_R_PRIM</text>
</a>
</g>
</g>
<!-- Node2&#45;&gt;Node1 -->
<g id="edge1" class="edge">
<title>Node2&#45;&gt;Node1</title>
<path fill="none" stroke="#9a32cd" stroke-dasharray="5,2" d="M54.96,-82.81C71.11,-69.94 95.52,-51.48 118.5,-38 130.45,-30.99 144.54,-24.48 155.95,-19.61"/>
<polygon fill="#9a32cd" stroke="#9a32cd" points="52.48,-80.31 46.9,-89.32 56.88,-85.76 52.48,-80.31"/>
<text text-anchor="middle" x="129.5" y="-52" font-family="Helvetica,sans-Serif" font-size="10.00"> prim</text>
</g>
<!-- Node3 -->
<g id="node3" class="node">
<title>Node3</title>
<g id="a_node3"><a xlink:href="libgs_8h.html#struct_g_s___p_r_i_m" target="_top" xlink:title=" ">
<polygon fill="white" stroke="black" points="6,-156.5 6,-175.5 67,-175.5 67,-156.5 6,-156.5"/>
<text text-anchor="middle" x="36.5" y="-163.5" font-family="Helvetica,sans-Serif" font-size="10.00">GS_PRIM</text>
</a>
</g>
</g>
<!-- Node3&#45;&gt;Node2 -->
<g id="edge2" class="edge">
<title>Node3&#45;&gt;Node2</title>
<path fill="none" stroke="#9a32cd" stroke-dasharray="5,2" d="M36.5,-146.04C36.5,-133.67 36.5,-118.12 36.5,-108.63"/>
<polygon fill="#9a32cd" stroke="#9a32cd" points="33,-146.23 36.5,-156.23 40,-146.23 33,-146.23"/>
<text text-anchor="middle" x="47.5" y="-130" font-family="Helvetica,sans-Serif" font-size="10.00"> data</text>
</g>
<!-- Node4 -->
<g id="node4" class="node">
<title>Node4</title>
<g id="a_node4"><a xlink:href="libgs_8h.html#struct_g_s___r___r_g_b_a_q" target="_top" xlink:title=" ">
<polygon fill="white" stroke="black" points="91,-89.5 91,-108.5 174,-108.5 174,-89.5 91,-89.5"/>
<text text-anchor="middle" x="132.5" y="-96.5" font-family="Helvetica,sans-Serif" font-size="10.00">GS_R_RGBAQ</text>
</a>
</g>
</g>
<!-- Node4&#45;&gt;Node1 -->
<g id="edge3" class="edge">
<title>Node4&#45;&gt;Node1</title>
<path fill="none" stroke="#9a32cd" stroke-dasharray="5,2" d="M139.76,-79.8C144.82,-67.71 151.97,-51.61 159.5,-38 162.99,-31.69 167.49,-24.94 171.12,-19.77"/>
<polygon fill="#9a32cd" stroke="#9a32cd" points="136.45,-78.66 135.91,-89.24 142.93,-81.3 136.45,-78.66"/>
<text text-anchor="middle" x="175.5" y="-63" font-family="Helvetica,sans-Serif" font-size="10.00"> rgbaq0</text>
<text text-anchor="middle" x="175.5" y="-52" font-family="Helvetica,sans-Serif" font-size="10.00">rgbaq1</text>
<text text-anchor="middle" x="175.5" y="-41" font-family="Helvetica,sans-Serif" font-size="10.00">rgbaq2</text>
</g>
<!-- Node5 -->
<g id="node5" class="node">
<title>Node5</title>
<g id="a_node5"><a xlink:href="libgs_8h.html#struct_g_s___r_g_b_a_q" target="_top" xlink:title=" ">
<polygon fill="white" stroke="black" points="97,-156.5 97,-175.5 168,-175.5 168,-156.5 97,-156.5"/>
<text text-anchor="middle" x="132.5" y="-163.5" font-family="Helvetica,sans-Serif" font-size="10.00">GS_RGBAQ</text>
</a>
</g>
</g>
<!-- Node5&#45;&gt;Node4 -->
<g id="edge4" class="edge">
<title>Node5&#45;&gt;Node4</title>
<path fill="none" stroke="#9a32cd" stroke-dasharray="5,2" d="M132.5,-146.04C132.5,-133.67 132.5,-118.12 132.5,-108.63"/>
<polygon fill="#9a32cd" stroke="#9a32cd" points="129,-146.23 132.5,-156.23 136,-146.23 129,-146.23"/>
<text text-anchor="middle" x="143.5" y="-130" font-family="Helvetica,sans-Serif" font-size="10.00"> data</text>
</g>
<!-- Node6 -->
<g id="node6" class="node">
<title>Node6</title>
<g id="a_node6"><a xlink:href="libgs_8h.html#struct_g_s___r___s_t" target="_top" xlink:title=" ">
<polygon fill="white" stroke="black" points="192,-89.5 192,-108.5 253,-108.5 253,-89.5 192,-89.5"/>
<text text-anchor="middle" x="222.5" y="-96.5" font-family="Helvetica,sans-Serif" font-size="10.00">GS_R_ST</text>
</a>
</g>
</g>
<!-- Node6&#45;&gt;Node1 -->
<g id="edge5" class="edge">
<title>Node6&#45;&gt;Node1</title>
<path fill="none" stroke="#9a32cd" stroke-dasharray="5,2" d="M213.49,-80.54C207.3,-68.56 198.91,-52.32 191.5,-38 188.3,-31.81 184.67,-24.83 181.92,-19.51"/>
<polygon fill="#9a32cd" stroke="#9a32cd" points="210.39,-82.17 218.09,-89.45 216.61,-78.96 210.39,-82.17"/>
<text text-anchor="middle" x="216.5" y="-63" font-family="Helvetica,sans-Serif" font-size="10.00"> st0</text>
<text text-anchor="middle" x="216.5" y="-52" font-family="Helvetica,sans-Serif" font-size="10.00">st1</text>
<text text-anchor="middle" x="216.5" y="-41" font-family="Helvetica,sans-Serif" font-size="10.00">st2</text>
</g>
<!-- Node7 -->
<g id="node7" class="node">
<title>Node7</title>
<g id="a_node7"><a xlink:href="libgs_8h.html#struct_g_s___s_t" target="_top" xlink:title=" ">
<polygon fill="white" stroke="black" points="198,-156.5 198,-175.5 247,-175.5 247,-156.5 198,-156.5"/>
<text text-anchor="middle" x="222.5" y="-163.5" font-family="Helvetica,sans-Serif" font-size="10.00">GS_ST</text>
</a>
</g>
</g>
<!-- Node7&#45;&gt;Node6 -->
<g id="edge6" class="edge">
<title>Node7&#45;&gt;Node6</title>
<path fill="none" stroke="#9a32cd" stroke-dasharray="5,2" d="M222.5,-146.04C222.5,-133.67 222.5,-118.12 222.5,-108.63"/>
<polygon fill="#9a32cd" stroke="#9a32cd" points="219,-146.23 222.5,-156.23 226,-146.23 219,-146.23"/>
<text text-anchor="middle" x="233.5" y="-130" font-family="Helvetica,sans-Serif" font-size="10.00"> data</text>
</g>
<!-- Node8 -->
<g id="node8" class="node">
<title>Node8</title>
<g id="a_node8"><a xlink:href="libgs_8h.html#struct_g_s___r___x_y_z" target="_top" xlink:title=" ">
<polygon fill="white" stroke="black" points="271.5,-89.5 271.5,-108.5 339.5,-108.5 339.5,-89.5 271.5,-89.5"/>
<text text-anchor="middle" x="305.5" y="-96.5" font-family="Helvetica,sans-Serif" font-size="10.00">GS_R_XYZ</text>
</a>
</g>
</g>
<!-- Node8&#45;&gt;Node1 -->
<g id="edge7" class="edge">
<title>Node8&#45;&gt;Node1</title>
<path fill="none" stroke="#9a32cd" stroke-dasharray="5,2" d="M287.44,-82.46C272.24,-69.75 249.67,-51.7 228.5,-38 217.9,-31.14 205.38,-24.49 195.4,-19.51"/>
<polygon fill="#9a32cd" stroke="#9a32cd" points="285.57,-85.46 295.46,-89.25 290.09,-80.12 285.57,-85.46"/>
<text text-anchor="middle" x="284.5" y="-63" font-family="Helvetica,sans-Serif" font-size="10.00"> xyz0</text>
<text text-anchor="middle" x="284.5" y="-52" font-family="Helvetica,sans-Serif" font-size="10.00">xyz1</text>
<text text-anchor="middle" x="284.5" y="-41" font-family="Helvetica,sans-Serif" font-size="10.00">xyz2</text>
</g>
<!-- Node9 -->
<g id="node9" class="node">
<title>Node9</title>
<g id="a_node9"><a xlink:href="libgs_8h.html#struct_g_s___x_y_z" target="_top" xlink:title=" ">
<polygon fill="white" stroke="black" points="277.5,-156.5 277.5,-175.5 333.5,-175.5 333.5,-156.5 277.5,-156.5"/>
<text text-anchor="middle" x="305.5" y="-163.5" font-family="Helvetica,sans-Serif" font-size="10.00">GS_XYZ</text>
</a>
</g>
</g>
<!-- Node9&#45;&gt;Node8 -->
<g id="edge8" class="edge">
<title>Node9&#45;&gt;Node8</title>
<path fill="none" stroke="#9a32cd" stroke-dasharray="5,2" d="M305.5,-146.04C305.5,-133.67 305.5,-118.12 305.5,-108.63"/>
<polygon fill="#9a32cd" stroke="#9a32cd" points="302,-146.23 305.5,-156.23 309,-146.23 302,-146.23"/>
<text text-anchor="middle" x="316.5" y="-130" font-family="Helvetica,sans-Serif" font-size="10.00"> data</text>
</g>
</g>
</svg>
