<?xml version="1.0" encoding="UTF-8" standalone="no"?>
<!DOCTYPE svg PUBLIC "-//W3C//DTD SVG 1.1//EN"
 "http://www.w3.org/Graphics/SVG/1.1/DTD/svg11.dtd">
<!-- Generated by graphviz version 2.49.3 (20211027.1534)
 -->
<!-- Title: _fs_dir Pages: 1 -->
<svg width="265pt" height="229pt"
 viewBox="0.00 0.00 264.50 229.00" xmlns="http://www.w3.org/2000/svg" xmlns:xlink="http://www.w3.org/1999/xlink">
<g id="graph0" class="graph" transform="scale(1 1) rotate(0) translate(4 225)">
<title>_fs_dir</title>
<polygon fill="white" stroke="transparent" points="-4,4 -4,-225 260.5,-225 260.5,4 -4,4"/>
<!-- Node1 -->
<g id="node1" class="node">
<title>Node1</title>
<g id="a_node1"><a xlink:title=" ">
<polygon fill="#bfbfbf" stroke="black" points="121,-0.5 121,-19.5 167,-19.5 167,-0.5 121,-0.5"/>
<text text-anchor="middle" x="144" y="-7.5" font-family="Helvetica,sans-Serif" font-size="10.00">_fs_dir</text>
</a>
</g>
</g>
<!-- Node2 -->
<g id="node2" class="node">
<title>Node2</title>
<g id="a_node2"><a xlink:href="structfs__dirent.html" target="_top" xlink:title=" ">
<polygon fill="white" stroke="black" points="117,-67.5 117,-86.5 171,-86.5 171,-67.5 117,-67.5"/>
<text text-anchor="middle" x="144" y="-74.5" font-family="Helvetica,sans-Serif" font-size="10.00">fs_dirent</text>
</a>
</g>
</g>
<!-- Node2&#45;&gt;Node1 -->
<g id="edge1" class="edge">
<title>Node2&#45;&gt;Node1</title>
<path fill="none" stroke="#9a32cd" stroke-dasharray="5,2" d="M144,-57.04C144,-44.67 144,-29.12 144,-19.63"/>
<polygon fill="#9a32cd" stroke="#9a32cd" points="140.5,-57.23 144,-67.23 147.5,-57.23 140.5,-57.23"/>
<text text-anchor="middle" x="157.5" y="-41" font-family="Helvetica,sans-Serif" font-size="10.00"> dirent</text>
</g>
<!-- Node3 -->
<g id="node3" class="node">
<title>Node3</title>
<g id="a_node3"><a xlink:href="struct__fat__dir.html" target="_top" xlink:title=" ">
<polygon fill="white" stroke="black" points="30.5,-134.5 30.5,-153.5 79.5,-153.5 79.5,-134.5 30.5,-134.5"/>
<text text-anchor="middle" x="55" y="-141.5" font-family="Helvetica,sans-Serif" font-size="10.00">_fat_dir</text>
</a>
</g>
</g>
<!-- Node3&#45;&gt;Node1 -->
<g id="edge5" class="edge">
<title>Node3&#45;&gt;Node1</title>
<path fill="none" stroke="#9a32cd" stroke-dasharray="5,2" d="M47.73,-124.92C42.45,-108.67 37.82,-84.72 48,-67 63.57,-39.89 97.88,-24.67 120.97,-17.14"/>
<polygon fill="#9a32cd" stroke="#9a32cd" points="44.45,-126.13 51.15,-134.33 51.03,-123.74 44.45,-126.13"/>
<text text-anchor="middle" x="78" y="-74.5" font-family="Helvetica,sans-Serif" font-size="10.00"> current_fatdir</text>
</g>
<!-- Node3&#45;&gt;Node2 -->
<g id="edge2" class="edge">
<title>Node3&#45;&gt;Node2</title>
<path fill="none" stroke="#9a32cd" stroke-dasharray="5,2" d="M75.45,-128.07C93.01,-115.24 117.73,-97.19 132.19,-86.63"/>
<polygon fill="#9a32cd" stroke="#9a32cd" points="73.01,-125.51 67,-134.23 77.14,-131.16 73.01,-125.51"/>
<text text-anchor="middle" x="117.5" y="-108" font-family="Helvetica,sans-Serif" font-size="10.00"> fatdir</text>
</g>
<!-- Node4 -->
<g id="node4" class="node">
<title>Node4</title>
<g id="a_node4"><a xlink:href="struct__fat__dir__chain__record.html" target="_top" xlink:title=" ">
<polygon fill="white" stroke="black" points="0,-201.5 0,-220.5 110,-220.5 110,-201.5 0,-201.5"/>
<text text-anchor="middle" x="55" y="-208.5" font-family="Helvetica,sans-Serif" font-size="10.00">_fat_dir_chain_record</text>
</a>
</g>
</g>
<!-- Node4&#45;&gt;Node3 -->
<g id="edge3" class="edge">
<title>Node4&#45;&gt;Node3</title>
<path fill="none" stroke="#9a32cd" stroke-dasharray="5,2" d="M55,-191.04C55,-178.67 55,-163.12 55,-153.63"/>
<polygon fill="#9a32cd" stroke="#9a32cd" points="51.5,-191.23 55,-201.23 58.5,-191.23 51.5,-191.23"/>
<text text-anchor="middle" x="68" y="-175" font-family="Helvetica,sans-Serif" font-size="10.00"> chain</text>
</g>
<!-- Node5 -->
<g id="node5" class="node">
<title>Node5</title>
<g id="a_node5"><a xlink:href="struct__fat__dir__list.html" target="_top" xlink:title=" ">
<polygon fill="white" stroke="black" points="189.5,-67.5 189.5,-86.5 256.5,-86.5 256.5,-67.5 189.5,-67.5"/>
<text text-anchor="middle" x="223" y="-74.5" font-family="Helvetica,sans-Serif" font-size="10.00">_fat_dir_list</text>
</a>
</g>
</g>
<!-- Node5&#45;&gt;Node1 -->
<g id="edge4" class="edge">
<title>Node5&#45;&gt;Node1</title>
<path fill="none" stroke="#9a32cd" stroke-dasharray="5,2" d="M204.42,-60.71C188.86,-47.91 167.2,-30.09 154.49,-19.63"/>
<polygon fill="#9a32cd" stroke="#9a32cd" points="202.4,-63.58 212.35,-67.23 206.85,-58.18 202.4,-63.58"/>
<text text-anchor="middle" x="204" y="-41" font-family="Helvetica,sans-Serif" font-size="10.00"> fatdlist</text>
</g>
</g>
</svg>
