<?xml version="1.0" encoding="UTF-8" standalone="no"?>
<!DOCTYPE svg PUBLIC "-//W3C//DTD SVG 1.1//EN"
 "http://www.w3.org/Graphics/SVG/1.1/DTD/svg11.dtd">
<!-- Generated by graphviz version 2.49.3 (20211027.1534)
 -->
<!-- Title: _device Pages: 1 -->
<svg width="485pt" height="336pt"
 viewBox="0.00 0.00 484.50 336.00" xmlns="http://www.w3.org/2000/svg" xmlns:xlink="http://www.w3.org/1999/xlink">
<g id="graph0" class="graph" transform="scale(1 1) rotate(0) translate(4 332)">
<title>_device</title>
<polygon fill="white" stroke="transparent" points="-4,4 -4,-332 480.5,-332 480.5,4 -4,4"/>
<!-- Node1 -->
<g id="node1" class="node">
<title>Node1</title>
<g id="a_node1"><a xlink:title=" ">
<polygon fill="#bfbfbf" stroke="black" points="145.5,-211 145.5,-230 195.5,-230 195.5,-211 145.5,-211"/>
<text text-anchor="middle" x="170.5" y="-218" font-family="Helvetica,sans-Serif" font-size="10.00">_device</text>
</a>
</g>
</g>
<!-- Node1&#45;&gt;Node1 -->
<g id="edge1" class="edge">
<title>Node1&#45;&gt;Node1</title>
<path fill="none" stroke="#9a32cd" stroke-dasharray="5,2" d="M199.17,-230.95C207.27,-230.51 213.5,-227.02 213.5,-220.5 213.5,-211.42 201.45,-208.23 189.06,-210.93"/>
<polygon fill="#9a32cd" stroke="#9a32cd" points="199.33,-227.45 189.06,-230.07 198.72,-234.43 199.33,-227.45"/>
<text text-anchor="middle" x="242.5" y="-240" font-family="Helvetica,sans-Serif" font-size="10.00"> childListEnd</text>
<text text-anchor="middle" x="242.5" y="-229" font-family="Helvetica,sans-Serif" font-size="10.00">childListStart</text>
<text text-anchor="middle" x="242.5" y="-218" font-family="Helvetica,sans-Serif" font-size="10.00">next</text>
<text text-anchor="middle" x="242.5" y="-207" font-family="Helvetica,sans-Serif" font-size="10.00">parent</text>
<text text-anchor="middle" x="242.5" y="-196" font-family="Helvetica,sans-Serif" font-size="10.00">prev</text>
</g>
<!-- Node2 -->
<g id="node2" class="node">
<title>Node2</title>
<g id="a_node2"><a xlink:href="usbdpriv_8h.html#struct__endpoint" target="_top" xlink:title=" ">
<polygon fill="white" stroke="black" points="233,-103.5 233,-122.5 292,-122.5 292,-103.5 233,-103.5"/>
<text text-anchor="middle" x="262.5" y="-110.5" font-family="Helvetica,sans-Serif" font-size="10.00">_endpoint</text>
</a>
</g>
</g>
<!-- Node1&#45;&gt;Node2 -->
<g id="edge4" class="edge">
<title>Node1&#45;&gt;Node2</title>
<path fill="none" stroke="#9a32cd" stroke-dasharray="5,2" d="M164.16,-201.16C160.42,-186.84 158.06,-167.07 167.5,-153 175.14,-141.6 207.97,-129.8 232.91,-122.21"/>
<polygon fill="#9a32cd" stroke="#9a32cd" points="160.85,-202.32 167.11,-210.87 167.55,-200.28 160.85,-202.32"/>
<text text-anchor="middle" x="200" y="-161.5" font-family="Helvetica,sans-Serif" font-size="10.00"> correspDevice</text>
</g>
<!-- Node2&#45;&gt;Node1 -->
<g id="edge2" class="edge">
<title>Node2&#45;&gt;Node1</title>
<path fill="none" stroke="#9a32cd" stroke-dasharray="5,2" d="M257.7,-132.4C253.64,-145.34 246.81,-162.52 236.5,-175 223.39,-190.88 203.18,-203.35 188.58,-211"/>
<polygon fill="#9a32cd" stroke="#9a32cd" points="261.08,-133.29 260.47,-122.71 254.35,-131.36 261.08,-133.29"/>
<text text-anchor="middle" x="288" y="-167" font-family="Helvetica,sans-Serif" font-size="10.00"> endpointListEnd</text>
<text text-anchor="middle" x="288" y="-156" font-family="Helvetica,sans-Serif" font-size="10.00">endpointListStart</text>
</g>
<!-- Node2&#45;&gt;Node2 -->
<g id="edge3" class="edge">
<title>Node2&#45;&gt;Node2</title>
<path fill="none" stroke="#9a32cd" stroke-dasharray="5,2" d="M302.17,-121.06C306.91,-119.59 310,-116.91 310,-113 310,-106.75 302.08,-103.62 292.19,-103.62"/>
<polygon fill="#9a32cd" stroke="#9a32cd" points="301.64,-117.6 292.19,-122.38 302.56,-124.54 301.64,-117.6"/>
<text text-anchor="middle" x="331.5" y="-127" font-family="Helvetica,sans-Serif" font-size="10.00"> busyNext</text>
<text text-anchor="middle" x="331.5" y="-116" font-family="Helvetica,sans-Serif" font-size="10.00">busyPrev</text>
<text text-anchor="middle" x="331.5" y="-105" font-family="Helvetica,sans-Serif" font-size="10.00">next</text>
<text text-anchor="middle" x="331.5" y="-94" font-family="Helvetica,sans-Serif" font-size="10.00">prev</text>
</g>
<!-- Node3 -->
<g id="node3" class="node">
<title>Node3</title>
<g id="a_node3"><a xlink:href="usbdpriv_8h.html#struct__io_request" target="_top" xlink:title=" ">
<polygon fill="white" stroke="black" points="121,-7 121,-26 186,-26 186,-7 121,-7"/>
<text text-anchor="middle" x="153.5" y="-14" font-family="Helvetica,sans-Serif" font-size="10.00">_ioRequest</text>
</a>
</g>
</g>
<!-- Node2&#45;&gt;Node3 -->
<g id="edge7" class="edge">
<title>Node2&#45;&gt;Node3</title>
<path fill="none" stroke="#9a32cd" stroke-dasharray="5,2" d="M222.86,-104.49C203.6,-98.89 181.62,-89.29 167.5,-73 155.91,-59.63 153.67,-38.02 153.38,-26.09"/>
<polygon fill="#9a32cd" stroke="#9a32cd" points="222.06,-107.9 232.63,-107.07 223.85,-101.13 222.06,-107.9"/>
<text text-anchor="middle" x="204" y="-59.5" font-family="Helvetica,sans-Serif" font-size="10.00"> correspEndpoint</text>
</g>
<!-- Node3&#45;&gt;Node1 -->
<g id="edge18" class="edge">
<title>Node3&#45;&gt;Node1</title>
<path fill="none" stroke="#9a32cd" stroke-dasharray="5,2" d="M152.34,-36.26C150.87,-65.94 149.41,-125.43 157.5,-175 159.57,-187.71 164.13,-201.92 167.26,-210.78"/>
<polygon fill="#9a32cd" stroke="#9a32cd" points="155.84,-36.29 152.9,-26.11 148.85,-35.9 155.84,-36.29"/>
<text text-anchor="middle" x="176.5" y="-110.5" font-family="Helvetica,sans-Serif" font-size="10.00"> ioRequest</text>
</g>
<!-- Node3&#45;&gt;Node2 -->
<g id="edge5" class="edge">
<title>Node3&#45;&gt;Node2</title>
<path fill="none" stroke="#9a32cd" stroke-dasharray="5,2" d="M196.02,-24.52C213.15,-29.35 231.8,-37.44 244.5,-51 258.23,-65.67 261.54,-90.31 262.3,-103.33"/>
<polygon fill="#9a32cd" stroke="#9a32cd" points="196.73,-21.09 186.18,-22.05 195.02,-27.88 196.73,-21.09"/>
<text text-anchor="middle" x="288" y="-65" font-family="Helvetica,sans-Serif" font-size="10.00"> ioReqListEnd</text>
<text text-anchor="middle" x="288" y="-54" font-family="Helvetica,sans-Serif" font-size="10.00">ioReqListStart</text>
</g>
<!-- Node3&#45;&gt;Node3 -->
<g id="edge6" class="edge">
<title>Node3&#45;&gt;Node3</title>
<path fill="none" stroke="#9a32cd" stroke-dasharray="5,2" d="M196.14,-23.47C200.91,-22.15 204,-19.83 204,-16.5 204,-11.17 196.1,-8.42 186.04,-8.26"/>
<polygon fill="#9a32cd" stroke="#9a32cd" points="195.52,-20.02 186.04,-24.74 196.4,-26.96 195.52,-20.02"/>
<text text-anchor="middle" x="233.5" y="-25" font-family="Helvetica,sans-Serif" font-size="10.00"> callbackProc</text>
<text text-anchor="middle" x="233.5" y="-14" font-family="Helvetica,sans-Serif" font-size="10.00">next</text>
<text text-anchor="middle" x="233.5" y="-3" font-family="Helvetica,sans-Serif" font-size="10.00">prev</text>
</g>
<!-- Node4 -->
<g id="node4" class="node">
<title>Node4</title>
<g id="a_node4"><a xlink:href="usbd_8h.html#struct_usb_device_request" target="_top" xlink:title=" ">
<polygon fill="white" stroke="black" points="0,-103.5 0,-122.5 101,-122.5 101,-103.5 0,-103.5"/>
<text text-anchor="middle" x="50.5" y="-110.5" font-family="Helvetica,sans-Serif" font-size="10.00">UsbDeviceRequest</text>
</a>
</g>
</g>
<!-- Node4&#45;&gt;Node3 -->
<g id="edge8" class="edge">
<title>Node4&#45;&gt;Node3</title>
<path fill="none" stroke="#9a32cd" stroke-dasharray="5,2" d="M58.09,-94.04C64.4,-80.82 74.46,-63.09 87.5,-51 99.37,-39.99 115.55,-31.7 128.91,-26.13"/>
<polygon fill="#9a32cd" stroke="#9a32cd" points="54.75,-92.94 53.84,-103.5 61.13,-95.81 54.75,-92.94"/>
<text text-anchor="middle" x="105.5" y="-59.5" font-family="Helvetica,sans-Serif" font-size="10.00"> devReq</text>
</g>
<!-- Node5 -->
<g id="node5" class="node">
<title>Node5</title>
<g id="a_node5"><a xlink:href="usbdpriv_8h.html#struct__timer_cb_struct" target="_top" xlink:title=" ">
<polygon fill="white" stroke="black" points="254.5,-307.5 254.5,-326.5 336.5,-326.5 336.5,-307.5 254.5,-307.5"/>
<text text-anchor="middle" x="295.5" y="-314.5" font-family="Helvetica,sans-Serif" font-size="10.00">_timerCbStruct</text>
</a>
</g>
</g>
<!-- Node5&#45;&gt;Node1 -->
<g id="edge17" class="edge">
<title>Node5&#45;&gt;Node1</title>
<path fill="none" stroke="#9a32cd" stroke-dasharray="5,2" d="M275.83,-301.13C249.43,-281.17 203.38,-246.36 182.01,-230.2"/>
<polygon fill="#9a32cd" stroke="#9a32cd" points="273.88,-304.04 283.96,-307.28 278.1,-298.46 273.88,-304.04"/>
<text text-anchor="middle" x="268" y="-274.5" font-family="Helvetica,sans-Serif" font-size="10.00"> timer</text>
</g>
<!-- Node5&#45;&gt;Node2 -->
<g id="edge9" class="edge">
<title>Node5&#45;&gt;Node2</title>
<path fill="none" stroke="#9a32cd" stroke-dasharray="5,2" d="M306.72,-298.33C325.06,-266.98 356.8,-200.49 329.5,-153 321.05,-138.3 304.68,-128.62 290.25,-122.58"/>
<polygon fill="#9a32cd" stroke="#9a32cd" points="303.53,-296.84 301.33,-307.2 309.51,-300.47 303.53,-296.84"/>
<text text-anchor="middle" x="352" y="-218" font-family="Helvetica,sans-Serif" font-size="10.00"> timer</text>
</g>
<!-- Node5&#45;&gt;Node5 -->
<g id="edge10" class="edge">
<title>Node5&#45;&gt;Node5</title>
<path fill="none" stroke="#9a32cd" stroke-dasharray="5,2" d="M346.76,-322.99C351.51,-321.76 354.5,-319.76 354.5,-317 354.5,-312.59 346.84,-310.12 336.58,-309.6"/>
<polygon fill="#9a32cd" stroke="#9a32cd" points="346.01,-319.56 336.58,-324.4 346.97,-326.5 346.01,-319.56"/>
<text text-anchor="middle" x="365" y="-320" font-family="Helvetica,sans-Serif" font-size="10.00"> next</text>
<text text-anchor="middle" x="365" y="-309" font-family="Helvetica,sans-Serif" font-size="10.00">prev</text>
</g>
<!-- Node6 -->
<g id="node6" class="node">
<title>Node6</title>
<g id="a_node6"><a xlink:href="usbdpriv_8h.html#struct__hc_ed" target="_top" xlink:title=" ">
<polygon fill="white" stroke="black" points="392.5,-211 392.5,-230 436.5,-230 436.5,-211 392.5,-211"/>
<text text-anchor="middle" x="414.5" y="-218" font-family="Helvetica,sans-Serif" font-size="10.00">_hcEd</text>
</a>
</g>
</g>
<!-- Node6&#45;&gt;Node2 -->
<g id="edge11" class="edge">
<title>Node6&#45;&gt;Node2</title>
<path fill="none" stroke="#9a32cd" stroke-dasharray="5,2" d="M404.68,-202.24C395.47,-187.41 380.44,-166.35 362.5,-153 341.42,-137.32 313.22,-127.08 292.15,-121.05"/>
<polygon fill="#9a32cd" stroke="#9a32cd" points="401.74,-204.15 409.87,-210.95 407.76,-200.57 401.74,-204.15"/>
<text text-anchor="middle" x="396" y="-161.5" font-family="Helvetica,sans-Serif" font-size="10.00"> hcEd</text>
</g>
<!-- Node6&#45;&gt;Node6 -->
<g id="edge14" class="edge">
<title>Node6&#45;&gt;Node6</title>
<path fill="none" stroke="#9a32cd" stroke-dasharray="5,2" d="M442.14,-230.88C449.2,-230.2 454.5,-226.74 454.5,-220.5 454.5,-211.42 443.29,-208.23 431.77,-210.93"/>
<polygon fill="#9a32cd" stroke="#9a32cd" points="442.01,-227.36 431.77,-230.07 441.47,-234.33 442.01,-227.36"/>
<text text-anchor="middle" x="465" y="-218" font-family="Helvetica,sans-Serif" font-size="10.00"> next</text>
</g>
<!-- Node7 -->
<g id="node7" class="node">
<title>Node7</title>
<g id="a_node7"><a xlink:href="usbdpriv_8h.html#struct__hc_td" target="_top" xlink:title=" ">
<polygon fill="white" stroke="black" points="393.5,-307.5 393.5,-326.5 437.5,-326.5 437.5,-307.5 393.5,-307.5"/>
<text text-anchor="middle" x="415.5" y="-314.5" font-family="Helvetica,sans-Serif" font-size="10.00">_hcTd</text>
</a>
</g>
</g>
<!-- Node7&#45;&gt;Node6 -->
<g id="edge12" class="edge">
<title>Node7&#45;&gt;Node6</title>
<path fill="none" stroke="#9a32cd" stroke-dasharray="5,2" d="M415.3,-297.04C415.08,-276.71 414.75,-245.3 414.59,-230.2"/>
<polygon fill="#9a32cd" stroke="#9a32cd" points="411.8,-297.32 415.41,-307.28 418.8,-297.24 411.8,-297.32"/>
<text text-anchor="middle" x="431.5" y="-280" font-family="Helvetica,sans-Serif" font-size="10.00"> tdHead</text>
<text text-anchor="middle" x="431.5" y="-269" font-family="Helvetica,sans-Serif" font-size="10.00">tdTail</text>
</g>
<!-- Node7&#45;&gt;Node7 -->
<g id="edge13" class="edge">
<title>Node7&#45;&gt;Node7</title>
<path fill="none" stroke="#9a32cd" stroke-dasharray="5,2" d="M447.9,-323.71C452.45,-322.62 455.5,-320.38 455.5,-317 455.5,-311.45 447.3,-308.98 437.71,-309.59"/>
<polygon fill="#9a32cd" stroke="#9a32cd" points="447.45,-320.24 437.71,-324.41 447.93,-327.22 447.45,-320.24"/>
<text text-anchor="middle" x="466" y="-314.5" font-family="Helvetica,sans-Serif" font-size="10.00"> next</text>
</g>
<!-- Node8 -->
<g id="node8" class="node">
<title>Node8</title>
<g id="a_node8"><a xlink:href="struct___usb_driver.html" target="_top" xlink:title=" ">
<polygon fill="white" stroke="black" points="132,-307.5 132,-326.5 197,-326.5 197,-307.5 132,-307.5"/>
<text text-anchor="middle" x="164.5" y="-314.5" font-family="Helvetica,sans-Serif" font-size="10.00">_UsbDriver</text>
</a>
</g>
</g>
<!-- Node8&#45;&gt;Node1 -->
<g id="edge15" class="edge">
<title>Node8&#45;&gt;Node1</title>
<path fill="none" stroke="#9a32cd" stroke-dasharray="5,2" d="M165.7,-297.04C166.99,-276.71 168.99,-245.3 169.95,-230.2"/>
<polygon fill="#9a32cd" stroke="#9a32cd" points="162.19,-297.08 165.05,-307.28 169.18,-297.52 162.19,-297.08"/>
<text text-anchor="middle" x="189.5" y="-274.5" font-family="Helvetica,sans-Serif" font-size="10.00"> devDriver</text>
</g>
<!-- Node8&#45;&gt;Node8 -->
<g id="edge16" class="edge">
<title>Node8&#45;&gt;Node8</title>
<path fill="none" stroke="#9a32cd" stroke-dasharray="5,2" d="M207.14,-323.33C211.91,-322.14 215,-320.03 215,-317 215,-312.16 207.1,-309.66 197.04,-309.51"/>
<polygon fill="#9a32cd" stroke="#9a32cd" points="206.58,-319.87 197.04,-324.49 207.38,-326.83 206.58,-319.87"/>
<text text-anchor="middle" x="225.5" y="-320" font-family="Helvetica,sans-Serif" font-size="10.00"> next</text>
<text text-anchor="middle" x="225.5" y="-309" font-family="Helvetica,sans-Serif" font-size="10.00">prev</text>
</g>
</g>
</svg>
