<?xml version="1.0" encoding="UTF-8" standalone="no"?>
<!DOCTYPE svg PUBLIC "-//W3C//DTD SVG 1.1//EN"
 "http://www.w3.org/Graphics/SVG/1.1/DTD/svg11.dtd">
<!-- Generated by graphviz version 2.49.3 (20211027.1534)
 -->
<!-- Title: pfs_cache_s Pages: 1 -->
<svg width="210pt" height="186pt"
 viewBox="0.00 0.00 210.00 186.00" xmlns="http://www.w3.org/2000/svg" xmlns:xlink="http://www.w3.org/1999/xlink">
<g id="graph0" class="graph" transform="scale(1 1) rotate(0) translate(4 182)">
<title>pfs_cache_s</title>
<polygon fill="white" stroke="transparent" points="-4,4 -4,-182 206,-182 206,4 -4,4"/>
<!-- Node1 -->
<g id="node1" class="node">
<title>Node1</title>
<g id="a_node1"><a xlink:title=" ">
<polygon fill="#bfbfbf" stroke="black" points="69.5,-1.5 69.5,-20.5 141.5,-20.5 141.5,-1.5 69.5,-1.5"/>
<text text-anchor="middle" x="105.5" y="-8.5" font-family="Helvetica,sans-Serif" font-size="10.00">pfs_cache_s</text>
</a>
</g>
</g>
<!-- Node1&#45;&gt;Node1 -->
<g id="edge1" class="edge">
<title>Node1&#45;&gt;Node1</title>
<path fill="none" stroke="#9a32cd" stroke-dasharray="5,2" d="M151.71,-16.26C156.46,-15.22 159.5,-13.47 159.5,-11 159.5,-7.05 151.72,-4.93 141.59,-4.66"/>
<polygon fill="#9a32cd" stroke="#9a32cd" points="151.16,-12.8 141.59,-17.34 151.9,-19.76 151.16,-12.8"/>
<text text-anchor="middle" x="170" y="-14" font-family="Helvetica,sans-Serif" font-size="10.00"> next</text>
<text text-anchor="middle" x="170" y="-3" font-family="Helvetica,sans-Serif" font-size="10.00">prev</text>
</g>
<!-- Node2 -->
<g id="node2" class="node">
<title>Node2</title>
<g id="a_node2"><a xlink:href="structpfs__mount__t.html" target="_top" xlink:title=" ">
<polygon fill="white" stroke="black" points="70,-69.5 70,-88.5 141,-88.5 141,-69.5 70,-69.5"/>
<text text-anchor="middle" x="105.5" y="-76.5" font-family="Helvetica,sans-Serif" font-size="10.00">pfs_mount_t</text>
</a>
</g>
</g>
<!-- Node2&#45;&gt;Node1 -->
<g id="edge2" class="edge">
<title>Node2&#45;&gt;Node1</title>
<path fill="none" stroke="#9a32cd" stroke-dasharray="5,2" d="M105.5,-59.04C105.5,-46.47 105.5,-30.56 105.5,-20.84"/>
<polygon fill="#9a32cd" stroke="#9a32cd" points="102,-59.37 105.5,-69.37 109,-59.37 102,-59.37"/>
<text text-anchor="middle" x="127" y="-43" font-family="Helvetica,sans-Serif" font-size="10.00"> pfsMount</text>
</g>
<!-- Node3 -->
<g id="node3" class="node">
<title>Node3</title>
<g id="a_node3"><a xlink:href="structpfs__block__device__t.html" target="_top" xlink:title=" ">
<polygon fill="white" stroke="black" points="0,-158.5 0,-177.5 101,-177.5 101,-158.5 0,-158.5"/>
<text text-anchor="middle" x="50.5" y="-165.5" font-family="Helvetica,sans-Serif" font-size="10.00">pfs_block_device_t</text>
</a>
</g>
</g>
<!-- Node3&#45;&gt;Node2 -->
<g id="edge3" class="edge">
<title>Node3&#45;&gt;Node2</title>
<path fill="none" stroke="#9a32cd" stroke-dasharray="5,2" d="M61.41,-149.74C73.07,-131.3 91.08,-102.8 100.05,-88.62"/>
<polygon fill="#9a32cd" stroke="#9a32cd" points="58.36,-148.02 55.97,-158.34 64.28,-151.76 58.36,-148.02"/>
<text text-anchor="middle" x="110" y="-121" font-family="Helvetica,sans-Serif" font-size="10.00"> blockDev</text>
</g>
<!-- Node4 -->
<g id="node4" class="node">
<title>Node4</title>
<g id="a_node4"><a xlink:href="structpfs__blockinfo__t.html" target="_top" xlink:title=" ">
<polygon fill="white" stroke="black" points="119,-158.5 119,-177.5 202,-177.5 202,-158.5 119,-158.5"/>
<text text-anchor="middle" x="160.5" y="-165.5" font-family="Helvetica,sans-Serif" font-size="10.00">pfs_blockinfo_t</text>
</a>
</g>
</g>
<!-- Node4&#45;&gt;Node2 -->
<g id="edge4" class="edge">
<title>Node4&#45;&gt;Node2</title>
<path fill="none" stroke="#9a32cd" stroke-dasharray="5,2" d="M155.17,-148.52C151.03,-136.07 144.48,-119.68 135.5,-107 130.56,-100.02 123.51,-93.57 117.49,-88.71"/>
<polygon fill="#9a32cd" stroke="#9a32cd" points="151.88,-149.73 158.19,-158.25 158.57,-147.66 151.88,-149.73"/>
<text text-anchor="middle" x="176" y="-132" font-family="Helvetica,sans-Serif" font-size="10.00"> current_dir</text>
<text text-anchor="middle" x="176" y="-121" font-family="Helvetica,sans-Serif" font-size="10.00">log</text>
<text text-anchor="middle" x="176" y="-110" font-family="Helvetica,sans-Serif" font-size="10.00">root_dir</text>
</g>
</g>
</svg>
