<?xml version="1.0" encoding="UTF-8" standalone="no"?>
<!DOCTYPE svg PUBLIC "-//W3C//DTD SVG 1.1//EN"
 "http://www.w3.org/Graphics/SVG/1.1/DTD/svg11.dtd">
<!-- Generated by graphviz version 2.49.3 (20211027.1534)
 -->
<!-- Title: pfs_mount_t Pages: 1 -->
<svg width="210pt" height="117pt"
 viewBox="0.00 0.00 210.00 117.00" xmlns="http://www.w3.org/2000/svg" xmlns:xlink="http://www.w3.org/1999/xlink">
<g id="graph0" class="graph" transform="scale(1 1) rotate(0) translate(4 113)">
<title>pfs_mount_t</title>
<polygon fill="white" stroke="transparent" points="-4,4 -4,-113 206,-113 206,4 -4,4"/>
<!-- Node1 -->
<g id="node1" class="node">
<title>Node1</title>
<g id="a_node1"><a xlink:title=" ">
<polygon fill="#bfbfbf" stroke="black" points="70,-0.5 70,-19.5 141,-19.5 141,-0.5 70,-0.5"/>
<text text-anchor="middle" x="105.5" y="-7.5" font-family="Helvetica,sans-Serif" font-size="10.00">pfs_mount_t</text>
</a>
</g>
</g>
<!-- Node2 -->
<g id="node2" class="node">
<title>Node2</title>
<g id="a_node2"><a xlink:href="structpfs__block__device__t.html" target="_top" xlink:title=" ">
<polygon fill="white" stroke="black" points="0,-89.5 0,-108.5 101,-108.5 101,-89.5 0,-89.5"/>
<text text-anchor="middle" x="50.5" y="-96.5" font-family="Helvetica,sans-Serif" font-size="10.00">pfs_block_device_t</text>
</a>
</g>
</g>
<!-- Node2&#45;&gt;Node1 -->
<g id="edge1" class="edge">
<title>Node2&#45;&gt;Node1</title>
<path fill="none" stroke="#9a32cd" stroke-dasharray="5,2" d="M61.41,-80.74C73.07,-62.3 91.08,-33.8 100.05,-19.62"/>
<polygon fill="#9a32cd" stroke="#9a32cd" points="58.36,-79.02 55.97,-89.34 64.28,-82.76 58.36,-79.02"/>
<text text-anchor="middle" x="110" y="-52" font-family="Helvetica,sans-Serif" font-size="10.00"> blockDev</text>
</g>
<!-- Node3 -->
<g id="node3" class="node">
<title>Node3</title>
<g id="a_node3"><a xlink:href="structpfs__blockinfo__t.html" target="_top" xlink:title=" ">
<polygon fill="white" stroke="black" points="119,-89.5 119,-108.5 202,-108.5 202,-89.5 119,-89.5"/>
<text text-anchor="middle" x="160.5" y="-96.5" font-family="Helvetica,sans-Serif" font-size="10.00">pfs_blockinfo_t</text>
</a>
</g>
</g>
<!-- Node3&#45;&gt;Node1 -->
<g id="edge2" class="edge">
<title>Node3&#45;&gt;Node1</title>
<path fill="none" stroke="#9a32cd" stroke-dasharray="5,2" d="M155.17,-79.52C151.03,-67.07 144.48,-50.68 135.5,-38 130.56,-31.02 123.51,-24.57 117.49,-19.71"/>
<polygon fill="#9a32cd" stroke="#9a32cd" points="151.88,-80.73 158.19,-89.25 158.57,-78.66 151.88,-80.73"/>
<text text-anchor="middle" x="176" y="-63" font-family="Helvetica,sans-Serif" font-size="10.00"> current_dir</text>
<text text-anchor="middle" x="176" y="-52" font-family="Helvetica,sans-Serif" font-size="10.00">log</text>
<text text-anchor="middle" x="176" y="-41" font-family="Helvetica,sans-Serif" font-size="10.00">root_dir</text>
</g>
</g>
</svg>
