<?xml version="1.0" encoding="UTF-8" standalone="no"?>
<!DOCTYPE svg PUBLIC "-//W3C//DTD SVG 1.1//EN"
 "http://www.w3.org/Graphics/SVG/1.1/DTD/svg11.dtd">
<!-- Generated by graphviz version 2.49.3 (20211027.1534)
 -->
<!-- Title: bdm_mounts Pages: 1 -->
<svg width="166pt" height="95pt"
 viewBox="0.00 0.00 165.50 95.00" xmlns="http://www.w3.org/2000/svg" xmlns:xlink="http://www.w3.org/1999/xlink">
<g id="graph0" class="graph" transform="scale(1 1) rotate(0) translate(4 91)">
<title>bdm_mounts</title>
<polygon fill="white" stroke="transparent" points="-4,4 -4,-91 161.5,-91 161.5,4 -4,4"/>
<!-- Node1 -->
<g id="node1" class="node">
<title>Node1</title>
<g id="a_node1"><a xlink:title=" ">
<polygon fill="#bfbfbf" stroke="black" points="44.5,-0.5 44.5,-19.5 117.5,-19.5 117.5,-0.5 44.5,-0.5"/>
<text text-anchor="middle" x="81" y="-7.5" font-family="Helvetica,sans-Serif" font-size="10.00">bdm_mounts</text>
</a>
</g>
</g>
<!-- Node2 -->
<g id="node2" class="node">
<title>Node2</title>
<g id="a_node2"><a xlink:href="structblock__device.html" target="_top" xlink:title=" ">
<polygon fill="white" stroke="black" points="0,-67.5 0,-86.5 74,-86.5 74,-67.5 0,-67.5"/>
<text text-anchor="middle" x="37" y="-74.5" font-family="Helvetica,sans-Serif" font-size="10.00">block_device</text>
</a>
</g>
</g>
<!-- Node2&#45;&gt;Node1 -->
<g id="edge1" class="edge">
<title>Node2&#45;&gt;Node1</title>
<path fill="none" stroke="#9a32cd" stroke-dasharray="5,2" d="M48.57,-58.9C57.12,-46.27 68.41,-29.6 75.16,-19.63"/>
<polygon fill="#9a32cd" stroke="#9a32cd" points="45.64,-56.99 42.93,-67.23 51.44,-60.91 45.64,-56.99"/>
<text text-anchor="middle" x="68.5" y="-41" font-family="Helvetica,sans-Serif" font-size="10.00"> bd</text>
</g>
<!-- Node3 -->
<g id="node3" class="node">
<title>Node3</title>
<g id="a_node3"><a xlink:href="structfile__system.html" target="_top" xlink:title=" ">
<polygon fill="white" stroke="black" points="92.5,-67.5 92.5,-86.5 157.5,-86.5 157.5,-67.5 92.5,-67.5"/>
<text text-anchor="middle" x="125" y="-74.5" font-family="Helvetica,sans-Serif" font-size="10.00">file_system</text>
</a>
</g>
</g>
<!-- Node3&#45;&gt;Node1 -->
<g id="edge2" class="edge">
<title>Node3&#45;&gt;Node1</title>
<path fill="none" stroke="#9a32cd" stroke-dasharray="5,2" d="M113.43,-58.9C104.88,-46.27 93.59,-29.6 86.84,-19.63"/>
<polygon fill="#9a32cd" stroke="#9a32cd" points="110.56,-60.91 119.07,-67.23 116.36,-56.99 110.56,-60.91"/>
<text text-anchor="middle" x="110.5" y="-41" font-family="Helvetica,sans-Serif" font-size="10.00"> fs</text>
</g>
</g>
</svg>
