<?xml version="1.0" encoding="UTF-8" standalone="no"?>
<!DOCTYPE svg PUBLIC "-//W3C//DTD SVG 1.1//EN"
 "http://www.w3.org/Graphics/SVG/1.1/DTD/svg11.dtd">
<!-- Generated by graphviz version 2.49.3 (20211027.1534)
 -->
<!-- Title: CommandDescriptorBlock Pages: 1 -->
<svg width="204pt" height="95pt"
 viewBox="0.00 0.00 204.00 95.00" xmlns="http://www.w3.org/2000/svg" xmlns:xlink="http://www.w3.org/1999/xlink">
<g id="graph0" class="graph" transform="scale(1 1) rotate(0) translate(4 91)">
<title>CommandDescriptorBlock</title>
<polygon fill="white" stroke="transparent" points="-4,4 -4,-91 200,-91 200,4 -4,4"/>
<!-- Node1 -->
<g id="node1" class="node">
<title>Node1</title>
<g id="a_node1"><a xlink:title=" ">
<polygon fill="#bfbfbf" stroke="black" points="35,-0.5 35,-19.5 165,-19.5 165,-0.5 35,-0.5"/>
<text text-anchor="middle" x="100" y="-7.5" font-family="Helvetica,sans-Serif" font-size="10.00">CommandDescriptorBlock</text>
</a>
</g>
</g>
<!-- Node2 -->
<g id="node2" class="node">
<title>Node2</title>
<g id="a_node2"><a xlink:href="structsbp2___o_r_b__pointer.html" target="_top" xlink:title=" ">
<polygon fill="white" stroke="black" points="0,-67.5 0,-86.5 98,-86.5 98,-67.5 0,-67.5"/>
<text text-anchor="middle" x="49" y="-74.5" font-family="Helvetica,sans-Serif" font-size="10.00">sbp2_ORB_pointer</text>
</a>
</g>
</g>
<!-- Node2&#45;&gt;Node1 -->
<g id="edge1" class="edge">
<title>Node2&#45;&gt;Node1</title>
<path fill="none" stroke="#9a32cd" stroke-dasharray="5,2" d="M62.13,-59.27C72.07,-46.6 85.33,-29.7 93.23,-19.63"/>
<polygon fill="#9a32cd" stroke="#9a32cd" points="59.3,-57.21 55.88,-67.23 64.8,-61.53 59.3,-57.21"/>
<text text-anchor="middle" x="97.5" y="-41" font-family="Helvetica,sans-Serif" font-size="10.00"> NextOrb</text>
</g>
<!-- Node3 -->
<g id="node3" class="node">
<title>Node3</title>
<g id="a_node3"><a xlink:href="structsbp2__pointer.html" target="_top" xlink:title=" ">
<polygon fill="white" stroke="black" points="116,-67.5 116,-86.5 188,-86.5 188,-67.5 116,-67.5"/>
<text text-anchor="middle" x="152" y="-74.5" font-family="Helvetica,sans-Serif" font-size="10.00">sbp2_pointer</text>
</a>
</g>
</g>
<!-- Node3&#45;&gt;Node1 -->
<g id="edge2" class="edge">
<title>Node3&#45;&gt;Node1</title>
<path fill="none" stroke="#9a32cd" stroke-dasharray="5,2" d="M138.62,-59.27C128.48,-46.6 114.96,-29.7 106.9,-19.63"/>
<polygon fill="#9a32cd" stroke="#9a32cd" points="136.01,-61.61 144.99,-67.23 141.47,-57.24 136.01,-61.61"/>
<text text-anchor="middle" x="162.5" y="-41" font-family="Helvetica,sans-Serif" font-size="10.00"> DataDescriptor</text>
</g>
</g>
</svg>
