<?xml version="1.0" encoding="UTF-8" standalone="no"?>
<!DOCTYPE svg PUBLIC "-//W3C//DTD SVG 1.1//EN"
 "http://www.w3.org/Graphics/SVG/1.1/DTD/svg11.dtd">
<!-- Generated by graphviz version 2.49.3 (20211027.1534)
 -->
<!-- Title: netif Pages: 1 -->
<svg width="153pt" height="130pt"
 viewBox="0.00 0.00 153.00 130.00" xmlns="http://www.w3.org/2000/svg" xmlns:xlink="http://www.w3.org/1999/xlink">
<g id="graph0" class="graph" transform="scale(1 1) rotate(0) translate(4 126)">
<title>netif</title>
<polygon fill="white" stroke="transparent" points="-4,4 -4,-126 149,-126 149,4 -4,4"/>
<!-- Node1 -->
<g id="node1" class="node">
<title>Node1</title>
<g id="a_node1"><a xlink:title=" ">
<polygon fill="#bfbfbf" stroke="black" points="39,-7 39,-26 74,-26 74,-7 39,-7"/>
<text text-anchor="middle" x="56.5" y="-14" font-family="Helvetica,sans-Serif" font-size="10.00">netif</text>
</a>
</g>
</g>
<!-- Node1&#45;&gt;Node1 -->
<g id="edge1" class="edge">
<title>Node1&#45;&gt;Node1</title>
<path fill="none" stroke="#9a32cd" stroke-dasharray="5,2" d="M84.21,-25.21C88.82,-23.98 92,-21.08 92,-16.5 92,-8.98 83.44,-5.98 74.03,-7.51"/>
<polygon fill="#9a32cd" stroke="#9a32cd" points="83.93,-21.71 74.03,-25.49 84.13,-28.71 83.93,-21.71"/>
<text text-anchor="middle" x="114.5" y="-25" font-family="Helvetica,sans-Serif" font-size="10.00"> linkoutput</text>
<text text-anchor="middle" x="114.5" y="-14" font-family="Helvetica,sans-Serif" font-size="10.00">next</text>
<text text-anchor="middle" x="114.5" y="-3" font-family="Helvetica,sans-Serif" font-size="10.00">output</text>
</g>
<!-- Node2 -->
<g id="node2" class="node">
<title>Node2</title>
<g id="a_node2"><a xlink:href="tcpip_8h.html#structip4__addr" target="_top" xlink:title=" ">
<polygon fill="white" stroke="black" points="0,-102.5 0,-121.5 53,-121.5 53,-102.5 0,-102.5"/>
<text text-anchor="middle" x="26.5" y="-109.5" font-family="Helvetica,sans-Serif" font-size="10.00">ip4_addr</text>
</a>
</g>
</g>
<!-- Node2&#45;&gt;Node1 -->
<g id="edge2" class="edge">
<title>Node2&#45;&gt;Node1</title>
<path fill="none" stroke="#9a32cd" stroke-dasharray="5,2" d="M23.55,-91.82C22.48,-79.72 22.54,-63.98 27.5,-51 31.24,-41.23 39.19,-32.38 45.82,-26.24"/>
<polygon fill="#9a32cd" stroke="#9a32cd" points="20.12,-92.6 24.81,-102.1 27.07,-91.75 20.12,-92.6"/>
<text text-anchor="middle" x="46.5" y="-76" font-family="Helvetica,sans-Serif" font-size="10.00"> gw</text>
<text text-anchor="middle" x="46.5" y="-65" font-family="Helvetica,sans-Serif" font-size="10.00">ip_addr</text>
<text text-anchor="middle" x="46.5" y="-54" font-family="Helvetica,sans-Serif" font-size="10.00">netmask</text>
</g>
<!-- Node3 -->
<g id="node3" class="node">
<title>Node3</title>
<g id="a_node3"><a xlink:href="tcpip_8h.html#structpbuf" target="_top" xlink:title=" ">
<polygon fill="white" stroke="black" points="71,-102.5 71,-121.5 106,-121.5 106,-102.5 71,-102.5"/>
<text text-anchor="middle" x="88.5" y="-109.5" font-family="Helvetica,sans-Serif" font-size="10.00">pbuf</text>
</a>
</g>
</g>
<!-- Node3&#45;&gt;Node1 -->
<g id="edge3" class="edge">
<title>Node3&#45;&gt;Node1</title>
<path fill="none" stroke="#9a32cd" stroke-dasharray="5,2" d="M82.27,-92.8C75.39,-72.7 64.61,-41.19 59.45,-26.11"/>
<polygon fill="#9a32cd" stroke="#9a32cd" points="79,-94.04 85.55,-102.37 85.62,-91.78 79,-94.04"/>
<text text-anchor="middle" x="90.5" y="-65" font-family="Helvetica,sans-Serif" font-size="10.00"> input</text>
</g>
<!-- Node3&#45;&gt;Node3 -->
<g id="edge4" class="edge">
<title>Node3&#45;&gt;Node3</title>
<path fill="none" stroke="#9a32cd" stroke-dasharray="5,2" d="M116.21,-119.66C120.82,-118.59 124,-116.03 124,-112 124,-105.38 115.44,-102.75 106.03,-104.09"/>
<polygon fill="#9a32cd" stroke="#9a32cd" points="115.95,-116.17 106.03,-119.91 116.12,-123.17 115.95,-116.17"/>
<text text-anchor="middle" x="134.5" y="-109.5" font-family="Helvetica,sans-Serif" font-size="10.00"> next</text>
</g>
</g>
</svg>
