<?xml version="1.0" encoding="UTF-8" standalone="no"?>
<!DOCTYPE svg PUBLIC "-//W3C//DTD SVG 1.1//EN"
 "http://www.w3.org/Graphics/SVG/1.1/DTD/svg11.dtd">
<!-- Generated by graphviz version 2.49.3 (20211027.1534)
 -->
<!-- Title: subdev_t Pages: 1 -->
<svg width="231pt" height="320pt"
 viewBox="0.00 0.00 231.33 320.00" xmlns="http://www.w3.org/2000/svg" xmlns:xlink="http://www.w3.org/1999/xlink">
<g id="graph0" class="graph" transform="scale(1 1) rotate(0) translate(4 316)">
<title>subdev_t</title>
<polygon fill="white" stroke="transparent" points="-4,4 -4,-316 227.33,-316 227.33,4 -4,4"/>
<!-- Node1 -->
<g id="node1" class="node">
<title>Node1</title>
<g id="a_node1"><a xlink:title=" ">
<polygon fill="#bfbfbf" stroke="black" points="9.33,-225.5 9.33,-244.5 65.33,-244.5 65.33,-225.5 9.33,-225.5"/>
<text text-anchor="middle" x="37.33" y="-232.5" font-family="Helvetica,sans-Serif" font-size="10.00">subdev_t</text>
</a>
</g>
</g>
<!-- Node4 -->
<g id="node4" class="node">
<title>Node4</title>
<g id="a_node4"><a xlink:href="devfs_8c.html#struct__devfs__device" target="_top" xlink:title=" ">
<polygon fill="white" stroke="black" points="30.33,-68.5 30.33,-87.5 110.33,-87.5 110.33,-68.5 30.33,-68.5"/>
<text text-anchor="middle" x="70.33" y="-75.5" font-family="Helvetica,sans-Serif" font-size="10.00">_devfs_device</text>
</a>
</g>
</g>
<!-- Node1&#45;&gt;Node4 -->
<g id="edge8" class="edge">
<title>Node1&#45;&gt;Node4</title>
<path fill="none" stroke="#9a32cd" stroke-dasharray="5,2" d="M37.68,-215.31C38.41,-195.39 40.64,-163.06 47.33,-136 51.74,-118.18 60.61,-98.58 65.95,-87.63"/>
<polygon fill="#9a32cd" stroke="#9a32cd" points="34.18,-215.38 37.4,-225.47 41.18,-215.57 34.18,-215.38"/>
<text text-anchor="middle" x="67.33" y="-143.5" font-family="Helvetica,sans-Serif" font-size="10.00"> subdevs</text>
</g>
<!-- Node2 -->
<g id="node2" class="node">
<title>Node2</title>
<g id="a_node2"><a xlink:href="group__devfs.html#uniondevfs__loc__t" target="_top" xlink:title=" ">
<polygon fill="white" stroke="black" points="99.83,-292.5 99.83,-311.5 166.83,-311.5 166.83,-292.5 99.83,-292.5"/>
<text text-anchor="middle" x="133.33" y="-299.5" font-family="Helvetica,sans-Serif" font-size="10.00">devfs_loc_t</text>
</a>
</g>
</g>
<!-- Node2&#45;&gt;Node1 -->
<g id="edge1" class="edge">
<title>Node2&#45;&gt;Node1</title>
<path fill="none" stroke="#9a32cd" stroke-dasharray="5,2" d="M112.06,-286.59C93.07,-273.74 65.88,-255.33 50.08,-244.63"/>
<polygon fill="#9a32cd" stroke="#9a32cd" points="110.14,-289.53 120.39,-292.23 114.07,-283.73 110.14,-289.53"/>
<text text-anchor="middle" x="104.83" y="-266" font-family="Helvetica,sans-Serif" font-size="10.00"> extent</text>
</g>
<!-- Node3 -->
<g id="node3" class="node">
<title>Node3</title>
<g id="a_node3"><a xlink:href="devfs_8c.html#struct__ioman__data" target="_top" xlink:title=" ">
<polygon fill="white" stroke="black" points="34.33,-0.5 34.33,-19.5 106.33,-19.5 106.33,-0.5 34.33,-0.5"/>
<text text-anchor="middle" x="70.33" y="-7.5" font-family="Helvetica,sans-Serif" font-size="10.00">_ioman_data</text>
</a>
</g>
</g>
<!-- Node2&#45;&gt;Node3 -->
<g id="edge9" class="edge">
<title>Node2&#45;&gt;Node3</title>
<path fill="none" stroke="#9a32cd" stroke-dasharray="5,2" d="M164.94,-287.91C185.05,-277.25 207.33,-260.02 207.33,-236 207.33,-236 207.33,-236 207.33,-77 207.33,-32.25 147.27,-17.83 106.69,-13.19"/>
<polygon fill="#9a32cd" stroke="#9a32cd" points="163.36,-284.79 155.94,-292.35 166.45,-291.07 163.36,-284.79"/>
<text text-anchor="middle" x="215.33" y="-143.5" font-family="Helvetica,sans-Serif" font-size="10.00"> loc</text>
</g>
<!-- Node6 -->
<g id="node6" class="node">
<title>Node6</title>
<g id="a_node6"><a xlink:href="group__devfs.html#structdevfs__info__t" target="_top" xlink:title=" ">
<polygon fill="white" stroke="black" points="98.33,-225.5 98.33,-244.5 168.33,-244.5 168.33,-225.5 98.33,-225.5"/>
<text text-anchor="middle" x="133.33" y="-232.5" font-family="Helvetica,sans-Serif" font-size="10.00">devfs_info_t</text>
</a>
</g>
</g>
<!-- Node2&#45;&gt;Node6 -->
<g id="edge7" class="edge">
<title>Node2&#45;&gt;Node6</title>
<path fill="none" stroke="#9a32cd" stroke-dasharray="5,2" d="M133.33,-282.04C133.33,-269.67 133.33,-254.12 133.33,-244.63"/>
<polygon fill="#9a32cd" stroke="#9a32cd" points="129.83,-282.23 133.33,-292.23 136.83,-282.23 129.83,-282.23"/>
<text text-anchor="middle" x="141.33" y="-266" font-family="Helvetica,sans-Serif" font-size="10.00"> loc</text>
</g>
<!-- Node3&#45;&gt;Node1 -->
<g id="edge2" class="edge">
<title>Node3&#45;&gt;Node1</title>
<path fill="none" stroke="#9a32cd" stroke-dasharray="5,2" d="M53.12,-26.66C35.5,-44.15 9.69,-74.34 2.33,-107 -7.83,-152.07 19.84,-205.09 31.96,-225.45"/>
<polygon fill="#9a32cd" stroke="#9a32cd" points="55.74,-28.99 60.54,-19.55 50.9,-23.94 55.74,-28.99"/>
<text text-anchor="middle" x="25.33" y="-110" font-family="Helvetica,sans-Serif" font-size="10.00"> open_files</text>
</g>
<!-- Node4&#45;&gt;Node3 -->
<g id="edge3" class="edge">
<title>Node4&#45;&gt;Node3</title>
<path fill="none" stroke="#9a32cd" stroke-dasharray="5,2" d="M70.33,-58.04C70.33,-45.47 70.33,-29.56 70.33,-19.84"/>
<polygon fill="#9a32cd" stroke="#9a32cd" points="66.83,-58.37 70.33,-68.37 73.83,-58.37 66.83,-58.37"/>
<text text-anchor="middle" x="79.83" y="-41" font-family="Helvetica,sans-Serif" font-size="10.00"> dev</text>
</g>
<!-- Node4&#45;&gt;Node4 -->
<g id="edge4" class="edge">
<title>Node4&#45;&gt;Node4</title>
<path fill="none" stroke="#9a32cd" stroke-dasharray="5,2" d="M120.6,-83.12C125.34,-82.07 128.33,-80.37 128.33,-78 128.33,-74.21 120.67,-72.12 110.45,-71.7"/>
<polygon fill="#9a32cd" stroke="#9a32cd" points="119.98,-79.67 110.45,-84.3 120.79,-86.62 119.98,-79.67"/>
<text text-anchor="middle" x="140.33" y="-81" font-family="Helvetica,sans-Serif" font-size="10.00"> back</text>
<text text-anchor="middle" x="140.33" y="-70" font-family="Helvetica,sans-Serif" font-size="10.00">forw</text>
</g>
<!-- Node5 -->
<g id="node5" class="node">
<title>Node5</title>
<g id="a_node5"><a xlink:href="group__devfs.html#structdevfs__node__t" target="_top" xlink:title=" ">
<polygon fill="white" stroke="black" points="95.83,-136.5 95.83,-155.5 170.83,-155.5 170.83,-136.5 95.83,-136.5"/>
<text text-anchor="middle" x="133.33" y="-143.5" font-family="Helvetica,sans-Serif" font-size="10.00">devfs_node_t</text>
</a>
</g>
</g>
<!-- Node5&#45;&gt;Node4 -->
<g id="edge5" class="edge">
<title>Node5&#45;&gt;Node4</title>
<path fill="none" stroke="#9a32cd" stroke-dasharray="5,2" d="M118.11,-129.05C105.76,-116.11 88.81,-98.36 78.77,-87.84"/>
<polygon fill="#9a32cd" stroke="#9a32cd" points="115.66,-131.55 125.1,-136.37 120.72,-126.72 115.66,-131.55"/>
<text text-anchor="middle" x="119.33" y="-110" font-family="Helvetica,sans-Serif" font-size="10.00"> node</text>
</g>
<!-- Node6&#45;&gt;Node5 -->
<g id="edge6" class="edge">
<title>Node6&#45;&gt;Node5</title>
<path fill="none" stroke="#9a32cd" stroke-dasharray="5,2" d="M133.33,-215.19C133.33,-196.74 133.33,-169.41 133.33,-155.62"/>
<polygon fill="#9a32cd" stroke="#9a32cd" points="129.83,-215.34 133.33,-225.34 136.83,-215.34 129.83,-215.34"/>
<text text-anchor="middle" x="144.33" y="-199" font-family="Helvetica,sans-Serif" font-size="10.00"> ioctl</text>
<text text-anchor="middle" x="144.33" y="-188" font-family="Helvetica,sans-Serif" font-size="10.00">read</text>
<text text-anchor="middle" x="144.33" y="-177" font-family="Helvetica,sans-Serif" font-size="10.00">write</text>
</g>
</g>
</svg>
