<?xml version="1.0" encoding="UTF-8" standalone="no"?>
<!DOCTYPE svg PUBLIC "-//W3C//DTD SVG 1.1//EN"
 "http://www.w3.org/Graphics/SVG/1.1/DTD/svg11.dtd">
<!-- Generated by graphviz version 2.49.3 (20211027.1534)
 -->
<!-- Title: t_SifRpcCallPkt Pages: 1 -->
<svg width="347pt" height="253pt"
 viewBox="0.00 0.00 347.00 253.00" xmlns="http://www.w3.org/2000/svg" xmlns:xlink="http://www.w3.org/1999/xlink">
<g id="graph0" class="graph" transform="scale(1 1) rotate(0) translate(4 249)">
<title>t_SifRpcCallPkt</title>
<polygon fill="white" stroke="transparent" points="-4,4 -4,-249 343,-249 343,4 -4,4"/>
<!-- Node1 -->
<g id="node1" class="node">
<title>Node1</title>
<g id="a_node1"><a xlink:title=" ">
<polygon fill="#bfbfbf" stroke="black" points="82.5,-0.5 82.5,-19.5 168.5,-19.5 168.5,-0.5 82.5,-0.5"/>
<text text-anchor="middle" x="125.5" y="-7.5" font-family="Helvetica,sans-Serif" font-size="10.00">t_SifRpcCallPkt</text>
</a>
</g>
</g>
<!-- Node2 -->
<g id="node2" class="node">
<title>Node2</title>
<g id="a_node2"><a xlink:href="iop_2kernel_2include_2sifcmd_8h.html#structt___sif_cmd_header" target="_top" xlink:title=" ">
<polygon fill="white" stroke="black" points="0,-90.5 0,-109.5 89,-109.5 89,-90.5 0,-90.5"/>
<text text-anchor="middle" x="44.5" y="-97.5" font-family="Helvetica,sans-Serif" font-size="10.00">t_SifCmdHeader</text>
</a>
</g>
</g>
<!-- Node2&#45;&gt;Node1 -->
<g id="edge1" class="edge">
<title>Node2&#45;&gt;Node1</title>
<path fill="none" stroke="#9a32cd" stroke-dasharray="5,2" d="M51.88,-80.82C57.86,-67.75 67.3,-50.32 79.5,-38 87.06,-30.37 97.21,-24.11 106.06,-19.54"/>
<polygon fill="#9a32cd" stroke="#9a32cd" points="48.58,-79.62 47.83,-90.19 55.01,-82.4 48.58,-79.62"/>
<text text-anchor="middle" x="95.5" y="-52" font-family="Helvetica,sans-Serif" font-size="10.00"> sifcmd</text>
</g>
<!-- Node3 -->
<g id="node3" class="node">
<title>Node3</title>
<g id="a_node3"><a xlink:href="iop_2kernel_2include_2sifcmd_8h.html#structt___sif_rpc_client_data" target="_top" xlink:title=" ">
<polygon fill="white" stroke="black" points="123,-158.5 123,-177.5 222,-177.5 222,-158.5 123,-158.5"/>
<text text-anchor="middle" x="172.5" y="-165.5" font-family="Helvetica,sans-Serif" font-size="10.00">t_SifRpcClientData</text>
</a>
</g>
</g>
<!-- Node3&#45;&gt;Node1 -->
<g id="edge2" class="edge">
<title>Node3&#45;&gt;Node1</title>
<path fill="none" stroke="#9a32cd" stroke-dasharray="5,2" d="M157.92,-150.41C149.54,-139.87 139.69,-125.52 134.5,-111 123.01,-78.82 123.84,-37.3 124.86,-19.6"/>
<polygon fill="#9a32cd" stroke="#9a32cd" points="155.38,-152.84 164.47,-158.29 160.76,-148.36 155.38,-152.84"/>
<text text-anchor="middle" x="147.5" y="-97.5" font-family="Helvetica,sans-Serif" font-size="10.00"> client</text>
</g>
<!-- Node5 -->
<g id="node5" class="node">
<title>Node5</title>
<g id="a_node5"><a xlink:href="iop_2kernel_2include_2sifcmd_8h.html#structt___sif_rpc_server_data" target="_top" xlink:title=" ">
<polygon fill="white" stroke="black" points="170,-90.5 170,-109.5 273,-109.5 273,-90.5 170,-90.5"/>
<text text-anchor="middle" x="221.5" y="-97.5" font-family="Helvetica,sans-Serif" font-size="10.00">t_SifRpcServerData</text>
</a>
</g>
</g>
<!-- Node3&#45;&gt;Node5 -->
<g id="edge5" class="edge">
<title>Node3&#45;&gt;Node5</title>
<path fill="none" stroke="#9a32cd" stroke-dasharray="5,2" d="M166.73,-148.18C165.82,-141.71 166.11,-134.68 169.5,-129 174.81,-120.11 184.02,-113.88 193.24,-109.59"/>
<polygon fill="#9a32cd" stroke="#9a32cd" points="163.39,-149.24 169.06,-158.19 170.21,-147.66 163.39,-149.24"/>
<text text-anchor="middle" x="182.5" y="-132" font-family="Helvetica,sans-Serif" font-size="10.00"> client</text>
</g>
<!-- Node4 -->
<g id="node4" class="node">
<title>Node4</title>
<g id="a_node4"><a xlink:href="iop_2kernel_2include_2sifcmd_8h.html#structt___sif_rpc_header" target="_top" xlink:title=" ">
<polygon fill="white" stroke="black" points="129.5,-225.5 129.5,-244.5 215.5,-244.5 215.5,-225.5 129.5,-225.5"/>
<text text-anchor="middle" x="172.5" y="-232.5" font-family="Helvetica,sans-Serif" font-size="10.00">t_SifRpcHeader</text>
</a>
</g>
</g>
<!-- Node4&#45;&gt;Node3 -->
<g id="edge3" class="edge">
<title>Node4&#45;&gt;Node3</title>
<path fill="none" stroke="#9a32cd" stroke-dasharray="5,2" d="M172.5,-215.04C172.5,-202.67 172.5,-187.12 172.5,-177.63"/>
<polygon fill="#9a32cd" stroke="#9a32cd" points="169,-215.23 172.5,-225.23 176,-215.23 169,-215.23"/>
<text text-anchor="middle" x="180.5" y="-199" font-family="Helvetica,sans-Serif" font-size="10.00"> hdr</text>
</g>
<!-- Node5&#45;&gt;Node1 -->
<g id="edge10" class="edge">
<title>Node5&#45;&gt;Node1</title>
<path fill="none" stroke="#9a32cd" stroke-dasharray="5,2" d="M196.08,-85.08C189.42,-80.94 182.44,-76.12 176.5,-71 158.07,-55.11 140.61,-32.31 131.69,-19.89"/>
<polygon fill="#9a32cd" stroke="#9a32cd" points="194.45,-88.19 204.84,-90.29 198.03,-82.17 194.45,-88.19"/>
<text text-anchor="middle" x="191.5" y="-52" font-family="Helvetica,sans-Serif" font-size="10.00"> server</text>
</g>
<!-- Node5&#45;&gt;Node3 -->
<g id="edge4" class="edge">
<title>Node5&#45;&gt;Node3</title>
<path fill="none" stroke="#9a32cd" stroke-dasharray="5,2" d="M212.7,-118.95C209.01,-125.8 204.43,-133.51 199.5,-140 194.45,-146.65 187.83,-153.3 182.41,-158.33"/>
<polygon fill="#9a32cd" stroke="#9a32cd" points="215.95,-120.28 217.41,-109.78 209.73,-117.08 215.95,-120.28"/>
<text text-anchor="middle" x="221.5" y="-132" font-family="Helvetica,sans-Serif" font-size="10.00"> server</text>
</g>
<!-- Node5&#45;&gt;Node5 -->
<g id="edge6" class="edge">
<title>Node5&#45;&gt;Node5</title>
<path fill="none" stroke="#9a32cd" stroke-dasharray="5,2" d="M282.96,-104.88C287.92,-103.82 291,-102.19 291,-100 291,-96.58 283.5,-94.54 273.03,-93.87"/>
<polygon fill="#9a32cd" stroke="#9a32cd" points="282.51,-101.41 273.03,-106.13 283.38,-108.35 282.51,-101.41"/>
<text text-anchor="middle" x="300.5" y="-103" font-family="Helvetica,sans-Serif" font-size="10.00"> link</text>
<text text-anchor="middle" x="300.5" y="-92" font-family="Helvetica,sans-Serif" font-size="10.00">next</text>
</g>
<!-- Node6 -->
<g id="node6" class="node">
<title>Node6</title>
<g id="a_node6"><a xlink:href="iop_2kernel_2include_2sifcmd_8h.html#structt___sif_rpc_data_queue" target="_top" xlink:title=" ">
<polygon fill="white" stroke="black" points="197,-0.5 197,-19.5 300,-19.5 300,-0.5 197,-0.5"/>
<text text-anchor="middle" x="248.5" y="-7.5" font-family="Helvetica,sans-Serif" font-size="10.00">t_SifRpcDataQueue</text>
</a>
</g>
</g>
<!-- Node5&#45;&gt;Node6 -->
<g id="edge8" class="edge">
<title>Node5&#45;&gt;Node6</title>
<path fill="none" stroke="#9a32cd" stroke-dasharray="5,2" d="M213.92,-80.79C209.87,-68.18 206.95,-51.33 213.5,-38 217.29,-30.29 224.46,-24.15 231.33,-19.7"/>
<polygon fill="#9a32cd" stroke="#9a32cd" points="210.65,-82.04 217.39,-90.21 217.22,-79.62 210.65,-82.04"/>
<text text-anchor="middle" x="223.5" y="-63" font-family="Helvetica,sans-Serif" font-size="10.00"> end</text>
<text text-anchor="middle" x="223.5" y="-52" font-family="Helvetica,sans-Serif" font-size="10.00">link</text>
<text text-anchor="middle" x="223.5" y="-41" font-family="Helvetica,sans-Serif" font-size="10.00">start</text>
</g>
<!-- Node6&#45;&gt;Node5 -->
<g id="edge7" class="edge">
<title>Node6&#45;&gt;Node5</title>
<path fill="none" stroke="#9a32cd" stroke-dasharray="5,2" d="M246.68,-29.98C245.13,-42 242.35,-57.73 237.5,-71 235.04,-77.73 231.04,-84.73 227.66,-90.05"/>
<polygon fill="#9a32cd" stroke="#9a32cd" points="250.19,-30.11 247.82,-19.79 243.23,-29.34 250.19,-30.11"/>
<text text-anchor="middle" x="257.5" y="-52" font-family="Helvetica,sans-Serif" font-size="10.00"> base</text>
</g>
<!-- Node6&#45;&gt;Node6 -->
<g id="edge9" class="edge">
<title>Node6&#45;&gt;Node6</title>
<path fill="none" stroke="#9a32cd" stroke-dasharray="5,2" d="M309.96,-16.31C314.92,-14.94 318,-12.84 318,-10 318,-5.57 310.5,-2.93 300.03,-2.06"/>
<polygon fill="#9a32cd" stroke="#9a32cd" points="309.33,-12.87 300.03,-17.94 310.46,-19.78 309.33,-12.87"/>
<text text-anchor="middle" x="328.5" y="-7.5" font-family="Helvetica,sans-Serif" font-size="10.00"> next</text>
</g>
</g>
</svg>
