<?xml version="1.0" encoding="UTF-8" standalone="no"?>
<!DOCTYPE svg PUBLIC "-//W3C//DTD SVG 1.1//EN"
 "http://www.w3.org/Graphics/SVG/1.1/DTD/svg11.dtd">
<!-- Generated by graphviz version 2.49.3 (20211027.1534)
 -->
<!-- Title: GS_TRIANGLE_GT3ST Pages: 1 -->
<svg width="257pt" height="184pt"
 viewBox="0.00 0.00 256.50 184.00" xmlns="http://www.w3.org/2000/svg" xmlns:xlink="http://www.w3.org/1999/xlink">
<g id="graph0" class="graph" transform="scale(1 1) rotate(0) translate(4 180)">
<title>GS_TRIANGLE_GT3ST</title>
<polygon fill="white" stroke="transparent" points="-4,4 -4,-180 252.5,-180 252.5,4 -4,4"/>
<!-- Node1 -->
<g id="node1" class="node">
<title>Node1</title>
<g id="a_node1"><a xlink:title=" ">
<polygon fill="#bfbfbf" stroke="black" points="70.5,-0.5 70.5,-19.5 192.5,-19.5 192.5,-0.5 70.5,-0.5"/>
<text text-anchor="middle" x="131.5" y="-7.5" font-family="Helvetica,sans-Serif" font-size="10.00">GS_TRIANGLE_GT3ST</text>
</a>
</g>
</g>
<!-- Node2 -->
<g id="node2" class="node">
<title>Node2</title>
<g id="a_node2"><a xlink:href="libgs_8h.html#struct_g_s___r___r_g_b_a_q" target="_top" xlink:title=" ">
<polygon fill="white" stroke="black" points="0,-89.5 0,-108.5 83,-108.5 83,-89.5 0,-89.5"/>
<text text-anchor="middle" x="41.5" y="-96.5" font-family="Helvetica,sans-Serif" font-size="10.00">GS_R_RGBAQ</text>
</a>
</g>
</g>
<!-- Node2&#45;&gt;Node1 -->
<g id="edge1" class="edge">
<title>Node2&#45;&gt;Node1</title>
<path fill="none" stroke="#9a32cd" stroke-dasharray="5,2" d="M54.78,-81.58C65.25,-69.05 80.54,-51.68 95.5,-38 102.76,-31.36 111.6,-24.71 118.7,-19.68"/>
<polygon fill="#9a32cd" stroke="#9a32cd" points="52.01,-79.43 48.36,-89.37 57.42,-83.88 52.01,-79.43"/>
<text text-anchor="middle" x="111.5" y="-63" font-family="Helvetica,sans-Serif" font-size="10.00"> rgbaq0</text>
<text text-anchor="middle" x="111.5" y="-52" font-family="Helvetica,sans-Serif" font-size="10.00">rgbaq1</text>
<text text-anchor="middle" x="111.5" y="-41" font-family="Helvetica,sans-Serif" font-size="10.00">rgbaq2</text>
</g>
<!-- Node3 -->
<g id="node3" class="node">
<title>Node3</title>
<g id="a_node3"><a xlink:href="libgs_8h.html#struct_g_s___r_g_b_a_q" target="_top" xlink:title=" ">
<polygon fill="white" stroke="black" points="6,-156.5 6,-175.5 77,-175.5 77,-156.5 6,-156.5"/>
<text text-anchor="middle" x="41.5" y="-163.5" font-family="Helvetica,sans-Serif" font-size="10.00">GS_RGBAQ</text>
</a>
</g>
</g>
<!-- Node3&#45;&gt;Node2 -->
<g id="edge2" class="edge">
<title>Node3&#45;&gt;Node2</title>
<path fill="none" stroke="#9a32cd" stroke-dasharray="5,2" d="M41.5,-146.04C41.5,-133.67 41.5,-118.12 41.5,-108.63"/>
<polygon fill="#9a32cd" stroke="#9a32cd" points="38,-146.23 41.5,-156.23 45,-146.23 38,-146.23"/>
<text text-anchor="middle" x="52.5" y="-130" font-family="Helvetica,sans-Serif" font-size="10.00"> data</text>
</g>
<!-- Node4 -->
<g id="node4" class="node">
<title>Node4</title>
<g id="a_node4"><a xlink:href="libgs_8h.html#struct_g_s___r___s_t" target="_top" xlink:title=" ">
<polygon fill="white" stroke="black" points="101,-89.5 101,-108.5 162,-108.5 162,-89.5 101,-89.5"/>
<text text-anchor="middle" x="131.5" y="-96.5" font-family="Helvetica,sans-Serif" font-size="10.00">GS_R_ST</text>
</a>
</g>
</g>
<!-- Node4&#45;&gt;Node1 -->
<g id="edge3" class="edge">
<title>Node4&#45;&gt;Node1</title>
<path fill="none" stroke="#9a32cd" stroke-dasharray="5,2" d="M131.5,-79.19C131.5,-60.74 131.5,-33.41 131.5,-19.62"/>
<polygon fill="#9a32cd" stroke="#9a32cd" points="128,-79.34 131.5,-89.34 135,-79.34 128,-79.34"/>
<text text-anchor="middle" x="139.5" y="-63" font-family="Helvetica,sans-Serif" font-size="10.00"> st0</text>
<text text-anchor="middle" x="139.5" y="-52" font-family="Helvetica,sans-Serif" font-size="10.00">st1</text>
<text text-anchor="middle" x="139.5" y="-41" font-family="Helvetica,sans-Serif" font-size="10.00">st2</text>
</g>
<!-- Node5 -->
<g id="node5" class="node">
<title>Node5</title>
<g id="a_node5"><a xlink:href="libgs_8h.html#struct_g_s___s_t" target="_top" xlink:title=" ">
<polygon fill="white" stroke="black" points="107,-156.5 107,-175.5 156,-175.5 156,-156.5 107,-156.5"/>
<text text-anchor="middle" x="131.5" y="-163.5" font-family="Helvetica,sans-Serif" font-size="10.00">GS_ST</text>
</a>
</g>
</g>
<!-- Node5&#45;&gt;Node4 -->
<g id="edge4" class="edge">
<title>Node5&#45;&gt;Node4</title>
<path fill="none" stroke="#9a32cd" stroke-dasharray="5,2" d="M131.5,-146.04C131.5,-133.67 131.5,-118.12 131.5,-108.63"/>
<polygon fill="#9a32cd" stroke="#9a32cd" points="128,-146.23 131.5,-156.23 135,-146.23 128,-146.23"/>
<text text-anchor="middle" x="142.5" y="-130" font-family="Helvetica,sans-Serif" font-size="10.00"> data</text>
</g>
<!-- Node6 -->
<g id="node6" class="node">
<title>Node6</title>
<g id="a_node6"><a xlink:href="libgs_8h.html#struct_g_s___r___x_y_z" target="_top" xlink:title=" ">
<polygon fill="white" stroke="black" points="180.5,-89.5 180.5,-108.5 248.5,-108.5 248.5,-89.5 180.5,-89.5"/>
<text text-anchor="middle" x="214.5" y="-96.5" font-family="Helvetica,sans-Serif" font-size="10.00">GS_R_XYZ</text>
</a>
</g>
</g>
<!-- Node6&#45;&gt;Node1 -->
<g id="edge5" class="edge">
<title>Node6&#45;&gt;Node1</title>
<path fill="none" stroke="#9a32cd" stroke-dasharray="5,2" d="M198.99,-81.74C181.44,-63.35 153.5,-34.06 139.73,-19.62"/>
<polygon fill="#9a32cd" stroke="#9a32cd" points="196.8,-84.52 206.24,-89.34 201.87,-79.69 196.8,-84.52"/>
<text text-anchor="middle" x="199.5" y="-63" font-family="Helvetica,sans-Serif" font-size="10.00"> xyz0</text>
<text text-anchor="middle" x="199.5" y="-52" font-family="Helvetica,sans-Serif" font-size="10.00">xyz1</text>
<text text-anchor="middle" x="199.5" y="-41" font-family="Helvetica,sans-Serif" font-size="10.00">xyz2</text>
</g>
<!-- Node7 -->
<g id="node7" class="node">
<title>Node7</title>
<g id="a_node7"><a xlink:href="libgs_8h.html#struct_g_s___x_y_z" target="_top" xlink:title=" ">
<polygon fill="white" stroke="black" points="186.5,-156.5 186.5,-175.5 242.5,-175.5 242.5,-156.5 186.5,-156.5"/>
<text text-anchor="middle" x="214.5" y="-163.5" font-family="Helvetica,sans-Serif" font-size="10.00">GS_XYZ</text>
</a>
</g>
</g>
<!-- Node7&#45;&gt;Node6 -->
<g id="edge6" class="edge">
<title>Node7&#45;&gt;Node6</title>
<path fill="none" stroke="#9a32cd" stroke-dasharray="5,2" d="M214.5,-146.04C214.5,-133.67 214.5,-118.12 214.5,-108.63"/>
<polygon fill="#9a32cd" stroke="#9a32cd" points="211,-146.23 214.5,-156.23 218,-146.23 211,-146.23"/>
<text text-anchor="middle" x="225.5" y="-130" font-family="Helvetica,sans-Serif" font-size="10.00"> data</text>
</g>
</g>
</svg>
