<?xml version="1.0" encoding="UTF-8" standalone="no"?>
<!DOCTYPE svg PUBLIC "-//W3C//DTD SVG 1.1//EN"
 "http://www.w3.org/Graphics/SVG/1.1/DTD/svg11.dtd">
<!-- Generated by graphviz version 2.49.3 (20211027.1534)
 -->
<!-- Title: tag_LC_internals Pages: 1 -->
<svg width="251pt" height="195pt"
 viewBox="0.00 0.00 250.50 195.00" xmlns="http://www.w3.org/2000/svg" xmlns:xlink="http://www.w3.org/1999/xlink">
<g id="graph0" class="graph" transform="scale(1 1) rotate(0) translate(4 191)">
<title>tag_LC_internals</title>
<polygon fill="white" stroke="transparent" points="-4,4 -4,-191 246.5,-191 246.5,4 -4,4"/>
<!-- Node1 -->
<g id="node1" class="node">
<title>Node1</title>
<g id="a_node1"><a xlink:title=" ">
<polygon fill="#bfbfbf" stroke="black" points="60.5,-0.5 60.5,-19.5 150.5,-19.5 150.5,-0.5 60.5,-0.5"/>
<text text-anchor="middle" x="105.5" y="-7.5" font-family="Helvetica,sans-Serif" font-size="10.00">tag_LC_internals</text>
</a>
</g>
</g>
<!-- Node2 -->
<g id="node2" class="node">
<title>Node2</title>
<g id="a_node2"><a xlink:href="loadcore_8h.html#struct__iop__library" target="_top" xlink:title=" ">
<polygon fill="white" stroke="black" points="10,-100.5 10,-119.5 75,-119.5 75,-100.5 10,-100.5"/>
<text text-anchor="middle" x="42.5" y="-107.5" font-family="Helvetica,sans-Serif" font-size="10.00">_iop_library</text>
</a>
</g>
</g>
<!-- Node2&#45;&gt;Node1 -->
<g id="edge1" class="edge">
<title>Node2&#45;&gt;Node1</title>
<path fill="none" stroke="#9a32cd" stroke-dasharray="5,2" d="M53.64,-91.67C67.24,-70.52 89.7,-35.58 100.01,-19.54"/>
<polygon fill="#9a32cd" stroke="#9a32cd" points="50.55,-90 48.09,-100.3 56.44,-93.78 50.55,-90"/>
<text text-anchor="middle" x="108" y="-74" font-family="Helvetica,sans-Serif" font-size="10.00"> let_next</text>
<text text-anchor="middle" x="108" y="-63" font-family="Helvetica,sans-Serif" font-size="10.00">let_prev</text>
<text text-anchor="middle" x="108" y="-52" font-family="Helvetica,sans-Serif" font-size="10.00">mda_next</text>
<text text-anchor="middle" x="108" y="-41" font-family="Helvetica,sans-Serif" font-size="10.00">mda_prev</text>
</g>
<!-- Node2&#45;&gt;Node2 -->
<g id="edge2" class="edge">
<title>Node2&#45;&gt;Node2</title>
<path fill="none" stroke="#9a32cd" stroke-dasharray="5,2" d="M85.14,-115.07C89.91,-114.11 93,-112.42 93,-110 93,-106.12 85.1,-104.13 75.04,-104.01"/>
<polygon fill="#9a32cd" stroke="#9a32cd" points="84.68,-111.59 75.04,-115.99 85.32,-118.56 84.68,-111.59"/>
<text text-anchor="middle" x="104" y="-107.5" font-family="Helvetica,sans-Serif" font-size="10.00"> prev</text>
</g>
<!-- Node3 -->
<g id="node3" class="node">
<title>Node3</title>
<g id="a_node3"><a xlink:href="irx_8h.html#structirx__import__table" target="_top" xlink:title=" ">
<polygon fill="white" stroke="black" points="0,-167.5 0,-186.5 85,-186.5 85,-167.5 0,-167.5"/>
<text text-anchor="middle" x="42.5" y="-174.5" font-family="Helvetica,sans-Serif" font-size="10.00">irx_import_table</text>
</a>
</g>
</g>
<!-- Node3&#45;&gt;Node2 -->
<g id="edge3" class="edge">
<title>Node3&#45;&gt;Node2</title>
<path fill="none" stroke="#9a32cd" stroke-dasharray="5,2" d="M42.5,-157.04C42.5,-144.67 42.5,-129.12 42.5,-119.63"/>
<polygon fill="#9a32cd" stroke="#9a32cd" points="39,-157.23 42.5,-167.23 46,-157.23 39,-157.23"/>
<text text-anchor="middle" x="55.5" y="-141" font-family="Helvetica,sans-Serif" font-size="10.00"> caller</text>
</g>
<!-- Node3&#45;&gt;Node3 -->
<g id="edge4" class="edge">
<title>Node3&#45;&gt;Node3</title>
<path fill="none" stroke="#9a32cd" stroke-dasharray="5,2" d="M95.32,-181.74C100.04,-180.75 103,-179.17 103,-177 103,-173.53 95.42,-171.57 85.18,-171.11"/>
<polygon fill="#9a32cd" stroke="#9a32cd" points="94.72,-178.29 85.18,-182.89 95.51,-185.24 94.72,-178.29"/>
<text text-anchor="middle" x="113.5" y="-174.5" font-family="Helvetica,sans-Serif" font-size="10.00"> next</text>
</g>
<!-- Node4 -->
<g id="node4" class="node">
<title>Node4</title>
<g id="a_node4"><a xlink:href="loadcore_8h.html#struct___module_info" target="_top" xlink:title=" ">
<polygon fill="white" stroke="black" points="133.5,-100.5 133.5,-119.5 203.5,-119.5 203.5,-100.5 133.5,-100.5"/>
<text text-anchor="middle" x="168.5" y="-107.5" font-family="Helvetica,sans-Serif" font-size="10.00">_ModuleInfo</text>
</a>
</g>
</g>
<!-- Node4&#45;&gt;Node1 -->
<g id="edge5" class="edge">
<title>Node4&#45;&gt;Node1</title>
<path fill="none" stroke="#9a32cd" stroke-dasharray="5,2" d="M160.72,-90.69C154.01,-75.84 143.52,-54.71 131.5,-38 126.71,-31.34 120.34,-24.7 115.1,-19.67"/>
<polygon fill="#9a32cd" stroke="#9a32cd" points="157.69,-92.49 164.91,-100.24 164.1,-89.67 157.69,-92.49"/>
<text text-anchor="middle" x="180.5" y="-57.5" font-family="Helvetica,sans-Serif" font-size="10.00"> image_info</text>
</g>
<!-- Node4&#45;&gt;Node4 -->
<g id="edge6" class="edge">
<title>Node4&#45;&gt;Node4</title>
<path fill="none" stroke="#9a32cd" stroke-dasharray="5,2" d="M213.73,-114.97C218.47,-114 221.5,-112.34 221.5,-110 221.5,-106.25 213.74,-104.26 203.67,-104.02"/>
<polygon fill="#9a32cd" stroke="#9a32cd" points="213.27,-111.5 203.67,-115.98 213.97,-118.47 213.27,-111.5"/>
<text text-anchor="middle" x="232" y="-107.5" font-family="Helvetica,sans-Serif" font-size="10.00"> next</text>
</g>
</g>
</svg>
