<?xml version="1.0" encoding="UTF-8" standalone="no"?>
<!DOCTYPE svg PUBLIC "-//W3C//DTD SVG 1.1//EN"
 "http://www.w3.org/Graphics/SVG/1.1/DTD/svg11.dtd">
<!-- Generated by graphviz version 2.49.3 (20211027.1534)
 -->
<!-- Title: _fat_driver Pages: 1 -->
<svg width="317pt" height="296pt"
 viewBox="0.00 0.00 317.00 296.00" xmlns="http://www.w3.org/2000/svg" xmlns:xlink="http://www.w3.org/1999/xlink">
<g id="graph0" class="graph" transform="scale(1 1) rotate(0) translate(4 292)">
<title>_fat_driver</title>
<polygon fill="white" stroke="transparent" points="-4,4 -4,-292 313,-292 313,4 -4,4"/>
<!-- Node1 -->
<g id="node1" class="node">
<title>Node1</title>
<g id="a_node1"><a xlink:title=" ">
<polygon fill="#bfbfbf" stroke="black" points="134,-0.5 134,-19.5 196,-19.5 196,-0.5 134,-0.5"/>
<text text-anchor="middle" x="165" y="-7.5" font-family="Helvetica,sans-Serif" font-size="10.00">_fat_driver</text>
</a>
</g>
</g>
<!-- Node2 -->
<g id="node2" class="node">
<title>Node2</title>
<g id="a_node2"><a xlink:href="structblock__device.html" target="_top" xlink:title=" ">
<polygon fill="white" stroke="black" points="0,-201.5 0,-220.5 74,-220.5 74,-201.5 0,-201.5"/>
<text text-anchor="middle" x="37" y="-208.5" font-family="Helvetica,sans-Serif" font-size="10.00">block_device</text>
</a>
</g>
</g>
<!-- Node2&#45;&gt;Node1 -->
<g id="edge1" class="edge">
<title>Node2&#45;&gt;Node1</title>
<path fill="none" stroke="#9a32cd" stroke-dasharray="5,2" d="M38.68,-190.91C42.87,-155.34 57,-78.81 103,-38 112.22,-29.82 124.31,-23.81 135.36,-19.56"/>
<polygon fill="#9a32cd" stroke="#9a32cd" points="35.16,-190.99 37.61,-201.3 42.12,-191.71 35.16,-190.99"/>
<text text-anchor="middle" x="65.5" y="-108" font-family="Helvetica,sans-Serif" font-size="10.00"> bd</text>
</g>
<!-- Node3 -->
<g id="node3" class="node">
<title>Node3</title>
<g id="a_node3"><a xlink:href="usbhdfsd_8h.html#struct__cache__set" target="_top" xlink:title=" ">
<polygon fill="white" stroke="black" points="93.5,-134.5 93.5,-153.5 160.5,-153.5 160.5,-134.5 93.5,-134.5"/>
<text text-anchor="middle" x="127" y="-141.5" font-family="Helvetica,sans-Serif" font-size="10.00">_cache_set</text>
</a>
</g>
</g>
<!-- Node2&#45;&gt;Node3 -->
<g id="edge3" class="edge">
<title>Node2&#45;&gt;Node3</title>
<path fill="none" stroke="#9a32cd" stroke-dasharray="5,2" d="M57.68,-195.07C75.44,-182.24 100.44,-164.19 115.05,-153.63"/>
<polygon fill="#9a32cd" stroke="#9a32cd" points="55.2,-192.54 49.14,-201.23 59.29,-198.22 55.2,-192.54"/>
<text text-anchor="middle" x="94.5" y="-175" font-family="Helvetica,sans-Serif" font-size="10.00"> bd</text>
</g>
<!-- Node3&#45;&gt;Node1 -->
<g id="edge2" class="edge">
<title>Node3&#45;&gt;Node1</title>
<path fill="none" stroke="#9a32cd" stroke-dasharray="5,2" d="M111.19,-126.82C98.06,-111.33 83.03,-87.38 93,-67 103.92,-44.67 128.53,-28.66 145.93,-19.63"/>
<polygon fill="#9a32cd" stroke="#9a32cd" points="108.81,-129.41 118.11,-134.48 114,-124.71 108.81,-129.41"/>
<text text-anchor="middle" x="107.5" y="-74.5" font-family="Helvetica,sans-Serif" font-size="10.00"> cache</text>
</g>
<!-- Node7 -->
<g id="node7" class="node">
<title>Node7</title>
<g id="a_node7"><a xlink:href="struct__mass__dev.html" target="_top" xlink:title=" ">
<polygon fill="white" stroke="black" points="131.5,-67.5 131.5,-86.5 198.5,-86.5 198.5,-67.5 131.5,-67.5"/>
<text text-anchor="middle" x="165" y="-74.5" font-family="Helvetica,sans-Serif" font-size="10.00">_mass_dev</text>
</a>
</g>
</g>
<!-- Node3&#45;&gt;Node7 -->
<g id="edge8" class="edge">
<title>Node3&#45;&gt;Node7</title>
<path fill="none" stroke="#9a32cd" stroke-dasharray="5,2" d="M138.89,-125.74C140.98,-122.54 143.1,-119.2 145,-116 150.87,-106.13 156.91,-94.38 160.8,-86.59"/>
<polygon fill="#9a32cd" stroke="#9a32cd" points="135.91,-123.9 133.24,-134.15 141.72,-127.8 135.91,-123.9"/>
<text text-anchor="middle" x="165.5" y="-108" font-family="Helvetica,sans-Serif" font-size="10.00"> cache</text>
</g>
<!-- Node4 -->
<g id="node4" class="node">
<title>Node4</title>
<g id="a_node4"><a xlink:href="usbhdfsd_8h.html#struct__cache__record" target="_top" xlink:title=" ">
<polygon fill="white" stroke="black" points="92,-201.5 92,-220.5 172,-220.5 172,-201.5 92,-201.5"/>
<text text-anchor="middle" x="132" y="-208.5" font-family="Helvetica,sans-Serif" font-size="10.00">_cache_record</text>
</a>
</g>
</g>
<!-- Node4&#45;&gt;Node3 -->
<g id="edge4" class="edge">
<title>Node4&#45;&gt;Node3</title>
<path fill="none" stroke="#9a32cd" stroke-dasharray="5,2" d="M130.54,-191.04C129.59,-178.67 128.39,-163.12 127.66,-153.63"/>
<polygon fill="#9a32cd" stroke="#9a32cd" points="127.07,-191.53 131.33,-201.23 134.05,-190.99 127.07,-191.53"/>
<text text-anchor="middle" x="138" y="-175" font-family="Helvetica,sans-Serif" font-size="10.00"> rec</text>
</g>
<!-- Node5 -->
<g id="node5" class="node">
<title>Node5</title>
<g id="a_node5"><a xlink:href="struct_s_b_p2_device.html" target="_top" xlink:title=" ">
<polygon fill="white" stroke="black" points="190,-201.5 190,-220.5 262,-220.5 262,-201.5 190,-201.5"/>
<text text-anchor="middle" x="226" y="-208.5" font-family="Helvetica,sans-Serif" font-size="10.00">SBP2Device</text>
</a>
</g>
</g>
<!-- Node5&#45;&gt;Node1 -->
<g id="edge11" class="edge">
<title>Node5&#45;&gt;Node1</title>
<path fill="none" stroke="#9a32cd" stroke-dasharray="5,2" d="M226.43,-190.92C226.44,-162.83 224.08,-109.14 208,-67 200.75,-47.99 184.82,-30.09 174.52,-19.85"/>
<polygon fill="#9a32cd" stroke="#9a32cd" points="222.92,-191.24 226.31,-201.28 229.92,-191.32 222.92,-191.24"/>
<text text-anchor="middle" x="229.5" y="-108" font-family="Helvetica,sans-Serif" font-size="10.00"> dev</text>
</g>
<!-- Node5&#45;&gt;Node3 -->
<g id="edge5" class="edge">
<title>Node5&#45;&gt;Node3</title>
<path fill="none" stroke="#9a32cd" stroke-dasharray="5,2" d="M204.06,-195.59C184.47,-182.74 156.44,-164.33 140.14,-153.63"/>
<polygon fill="#9a32cd" stroke="#9a32cd" points="202.37,-198.67 212.65,-201.23 206.21,-192.82 202.37,-198.67"/>
<text text-anchor="middle" x="191.5" y="-175" font-family="Helvetica,sans-Serif" font-size="10.00"> dev</text>
</g>
<!-- Node6 -->
<g id="node6" class="node">
<title>Node6</title>
<g id="a_node6"><a xlink:href="structscsi__interface.html" target="_top" xlink:title=" ">
<polygon fill="white" stroke="black" points="219.5,-268.5 219.5,-287.5 296.5,-287.5 296.5,-268.5 219.5,-268.5"/>
<text text-anchor="middle" x="258" y="-275.5" font-family="Helvetica,sans-Serif" font-size="10.00">scsi_interface</text>
</a>
</g>
</g>
<!-- Node6&#45;&gt;Node5 -->
<g id="edge6" class="edge">
<title>Node6&#45;&gt;Node5</title>
<path fill="none" stroke="#9a32cd" stroke-dasharray="5,2" d="M249.22,-259.16C243.05,-246.63 235.06,-230.41 230.25,-220.63"/>
<polygon fill="#9a32cd" stroke="#9a32cd" points="246.13,-260.81 253.68,-268.23 252.41,-257.72 246.13,-260.81"/>
<text text-anchor="middle" x="253.5" y="-242" font-family="Helvetica,sans-Serif" font-size="10.00"> scsi</text>
</g>
<!-- Node6&#45;&gt;Node7 -->
<g id="edge9" class="edge">
<title>Node6&#45;&gt;Node7</title>
<path fill="none" stroke="#9a32cd" stroke-dasharray="5,2" d="M265.51,-258.6C266.47,-255.75 267.34,-252.82 268,-250 270.94,-237.38 270.33,-233.94 271,-221 273.73,-168.03 279.56,-143.42 243,-105 231.44,-92.86 214.16,-86.17 198.79,-82.49"/>
<polygon fill="#9a32cd" stroke="#9a32cd" points="262.15,-257.58 261.91,-268.17 268.71,-260.05 262.15,-257.58"/>
<text text-anchor="middle" x="283.5" y="-175" font-family="Helvetica,sans-Serif" font-size="10.00"> scsi</text>
</g>
<!-- Node7&#45;&gt;Node1 -->
<g id="edge12" class="edge">
<title>Node7&#45;&gt;Node1</title>
<path fill="none" stroke="#9a32cd" stroke-dasharray="5,2" d="M165,-57.04C165,-44.67 165,-29.12 165,-19.63"/>
<polygon fill="#9a32cd" stroke="#9a32cd" points="161.5,-57.23 165,-67.23 168.5,-57.23 161.5,-57.23"/>
<text text-anchor="middle" x="174.5" y="-41" font-family="Helvetica,sans-Serif" font-size="10.00"> dev</text>
</g>
<!-- Node7&#45;&gt;Node3 -->
<g id="edge7" class="edge">
<title>Node7&#45;&gt;Node3</title>
<path fill="none" stroke="#9a32cd" stroke-dasharray="5,2" d="M136.57,-92.62C132.31,-96.08 128.52,-100.2 126,-105 121.22,-114.12 122.64,-126.24 124.47,-134.31"/>
<polygon fill="#9a32cd" stroke="#9a32cd" points="138.85,-95.29 145.11,-86.74 134.88,-89.53 138.85,-95.29"/>
<text text-anchor="middle" x="135.5" y="-108" font-family="Helvetica,sans-Serif" font-size="10.00"> dev</text>
</g>
<!-- Node8 -->
<g id="node8" class="node">
<title>Node8</title>
<g id="a_node8"><a xlink:href="usbhdfsd_8h.html#struct__fat__bpb" target="_top" xlink:title=" ">
<polygon fill="white" stroke="black" points="255,-67.5 255,-86.5 309,-86.5 309,-67.5 255,-67.5"/>
<text text-anchor="middle" x="282" y="-74.5" font-family="Helvetica,sans-Serif" font-size="10.00">_fat_bpb</text>
</a>
</g>
</g>
<!-- Node8&#45;&gt;Node1 -->
<g id="edge10" class="edge">
<title>Node8&#45;&gt;Node1</title>
<path fill="none" stroke="#9a32cd" stroke-dasharray="5,2" d="M267.55,-59.85C260.19,-52.4 250.76,-43.91 241,-38 227.23,-29.66 210.49,-23.36 196.23,-18.96"/>
<polygon fill="#9a32cd" stroke="#9a32cd" points="265.23,-62.49 274.63,-67.37 270.32,-57.69 265.23,-62.49"/>
<text text-anchor="middle" x="273.5" y="-41" font-family="Helvetica,sans-Serif" font-size="10.00"> partBpb</text>
</g>
</g>
</svg>
