<?xml version="1.0" encoding="UTF-8" standalone="no"?>
<!DOCTYPE svg PUBLIC "-//W3C//DTD SVG 1.1//EN"
 "http://www.w3.org/Graphics/SVG/1.1/DTD/svg11.dtd">
<!-- Generated by graphviz version 2.49.3 (20211027.1534)
 -->
<!-- Title: VU_FLAT_LIGHT Pages: 1 -->
<svg width="192pt" height="95pt"
 viewBox="0.00 0.00 191.50 95.00" xmlns="http://www.w3.org/2000/svg" xmlns:xlink="http://www.w3.org/1999/xlink">
<g id="graph0" class="graph" transform="scale(1 1) rotate(0) translate(4 91)">
<title>VU_FLAT_LIGHT</title>
<polygon fill="white" stroke="transparent" points="-4,4 -4,-91 187.5,-91 187.5,4 -4,4"/>
<!-- Node1 -->
<g id="node1" class="node">
<title>Node1</title>
<g id="a_node1"><a xlink:title=" ">
<polygon fill="#bfbfbf" stroke="black" points="40,-0.5 40,-19.5 136,-19.5 136,-0.5 40,-0.5"/>
<text text-anchor="middle" x="88" y="-7.5" font-family="Helvetica,sans-Serif" font-size="10.00">VU_FLAT_LIGHT</text>
</a>
</g>
</g>
<!-- Node2 -->
<g id="node2" class="node">
<title>Node2</title>
<g id="a_node2"><a xlink:href="libvux_8h.html#struct_v_u___v_e_c_t_o_r" target="_top" xlink:title=" ">
<polygon fill="white" stroke="black" points="0,-67.5 0,-86.5 76,-86.5 76,-67.5 0,-67.5"/>
<text text-anchor="middle" x="38" y="-74.5" font-family="Helvetica,sans-Serif" font-size="10.00">VU_VECTOR</text>
</a>
</g>
</g>
<!-- Node2&#45;&gt;Node1 -->
<g id="edge1" class="edge">
<title>Node2&#45;&gt;Node1</title>
<path fill="none" stroke="#9a32cd" stroke-dasharray="5,2" d="M50.87,-59.27C60.62,-46.6 73.61,-29.7 81.36,-19.63"/>
<polygon fill="#9a32cd" stroke="#9a32cd" points="48.07,-57.17 44.74,-67.23 53.61,-61.44 48.07,-57.17"/>
<text text-anchor="middle" x="86" y="-41" font-family="Helvetica,sans-Serif" font-size="10.00"> direction</text>
</g>
<!-- Node3 -->
<g id="node3" class="node">
<title>Node3</title>
<g id="a_node3"><a xlink:href="libvux_8h.html#struct_v_u___f_c_v_e_c_t_o_r" target="_top" xlink:title=" ">
<polygon fill="white" stroke="black" points="94.5,-67.5 94.5,-86.5 183.5,-86.5 183.5,-67.5 94.5,-67.5"/>
<text text-anchor="middle" x="139" y="-74.5" font-family="Helvetica,sans-Serif" font-size="10.00">VU_FCVECTOR</text>
</a>
</g>
</g>
<!-- Node3&#45;&gt;Node1 -->
<g id="edge2" class="edge">
<title>Node3&#45;&gt;Node1</title>
<path fill="none" stroke="#9a32cd" stroke-dasharray="5,2" d="M126.39,-59.24C121.34,-52.59 115.44,-44.9 110,-38 105.21,-31.92 99.71,-25.17 95.41,-19.94"/>
<polygon fill="#9a32cd" stroke="#9a32cd" points="123.8,-61.62 132.63,-67.49 129.39,-57.4 123.8,-61.62"/>
<text text-anchor="middle" x="130" y="-41" font-family="Helvetica,sans-Serif" font-size="10.00"> color</text>
</g>
</g>
</svg>
