<?xml version="1.0" encoding="UTF-8" standalone="no"?>
<!DOCTYPE svg PUBLIC "-//W3C//DTD SVG 1.1//EN"
 "http://www.w3.org/Graphics/SVG/1.1/DTD/svg11.dtd">
<!-- Generated by graphviz version 2.49.3 (20211027.1534)
 -->
<!-- Title: GS_LINE_F1 Pages: 1 -->
<svg width="178pt" height="173pt"
 viewBox="0.00 0.00 177.50 173.00" xmlns="http://www.w3.org/2000/svg" xmlns:xlink="http://www.w3.org/1999/xlink">
<g id="graph0" class="graph" transform="scale(1 1) rotate(0) translate(4 169)">
<title>GS_LINE_F1</title>
<polygon fill="white" stroke="transparent" points="-4,4 -4,-169 173.5,-169 173.5,4 -4,4"/>
<!-- Node1 -->
<g id="node1" class="node">
<title>Node1</title>
<g id="a_node1"><a xlink:title=" ">
<polygon fill="#bfbfbf" stroke="black" points="50,-0.5 50,-19.5 125,-19.5 125,-0.5 50,-0.5"/>
<text text-anchor="middle" x="87.5" y="-7.5" font-family="Helvetica,sans-Serif" font-size="10.00">GS_LINE_F1</text>
</a>
</g>
</g>
<!-- Node2 -->
<g id="node2" class="node">
<title>Node2</title>
<g id="a_node2"><a xlink:href="libgs_8h.html#struct_g_s___r___r_g_b_a_q" target="_top" xlink:title=" ">
<polygon fill="white" stroke="black" points="0,-78.5 0,-97.5 83,-97.5 83,-78.5 0,-78.5"/>
<text text-anchor="middle" x="41.5" y="-85.5" font-family="Helvetica,sans-Serif" font-size="10.00">GS_R_RGBAQ</text>
</a>
</g>
</g>
<!-- Node2&#45;&gt;Node1 -->
<g id="edge1" class="edge">
<title>Node2&#45;&gt;Node1</title>
<path fill="none" stroke="#9a32cd" stroke-dasharray="5,2" d="M52.05,-69.57C61.5,-53.95 74.97,-31.7 82.28,-19.62"/>
<polygon fill="#9a32cd" stroke="#9a32cd" points="48.96,-67.91 46.78,-78.28 54.95,-71.54 48.96,-67.91"/>
<text text-anchor="middle" x="86.5" y="-46.5" font-family="Helvetica,sans-Serif" font-size="10.00"> rgbaq0</text>
</g>
<!-- Node3 -->
<g id="node3" class="node">
<title>Node3</title>
<g id="a_node3"><a xlink:href="libgs_8h.html#struct_g_s___r_g_b_a_q" target="_top" xlink:title=" ">
<polygon fill="white" stroke="black" points="6,-145.5 6,-164.5 77,-164.5 77,-145.5 6,-145.5"/>
<text text-anchor="middle" x="41.5" y="-152.5" font-family="Helvetica,sans-Serif" font-size="10.00">GS_RGBAQ</text>
</a>
</g>
</g>
<!-- Node3&#45;&gt;Node2 -->
<g id="edge2" class="edge">
<title>Node3&#45;&gt;Node2</title>
<path fill="none" stroke="#9a32cd" stroke-dasharray="5,2" d="M41.5,-135.04C41.5,-122.67 41.5,-107.12 41.5,-97.63"/>
<polygon fill="#9a32cd" stroke="#9a32cd" points="38,-135.23 41.5,-145.23 45,-135.23 38,-135.23"/>
<text text-anchor="middle" x="52.5" y="-119" font-family="Helvetica,sans-Serif" font-size="10.00"> data</text>
</g>
<!-- Node4 -->
<g id="node4" class="node">
<title>Node4</title>
<g id="a_node4"><a xlink:href="libgs_8h.html#struct_g_s___r___x_y_z" target="_top" xlink:title=" ">
<polygon fill="white" stroke="black" points="101.5,-78.5 101.5,-97.5 169.5,-97.5 169.5,-78.5 101.5,-78.5"/>
<text text-anchor="middle" x="135.5" y="-85.5" font-family="Helvetica,sans-Serif" font-size="10.00">GS_R_XYZ</text>
</a>
</g>
</g>
<!-- Node4&#45;&gt;Node1 -->
<g id="edge3" class="edge">
<title>Node4&#45;&gt;Node1</title>
<path fill="none" stroke="#9a32cd" stroke-dasharray="5,2" d="M124.49,-69.57C114.63,-53.95 100.57,-31.7 92.94,-19.62"/>
<polygon fill="#9a32cd" stroke="#9a32cd" points="121.69,-71.7 129.99,-78.28 127.61,-67.96 121.69,-71.7"/>
<text text-anchor="middle" x="128.5" y="-52" font-family="Helvetica,sans-Serif" font-size="10.00"> xyz0</text>
<text text-anchor="middle" x="128.5" y="-41" font-family="Helvetica,sans-Serif" font-size="10.00">xyz1</text>
</g>
<!-- Node5 -->
<g id="node5" class="node">
<title>Node5</title>
<g id="a_node5"><a xlink:href="libgs_8h.html#struct_g_s___x_y_z" target="_top" xlink:title=" ">
<polygon fill="white" stroke="black" points="107.5,-145.5 107.5,-164.5 163.5,-164.5 163.5,-145.5 107.5,-145.5"/>
<text text-anchor="middle" x="135.5" y="-152.5" font-family="Helvetica,sans-Serif" font-size="10.00">GS_XYZ</text>
</a>
</g>
</g>
<!-- Node5&#45;&gt;Node4 -->
<g id="edge4" class="edge">
<title>Node5&#45;&gt;Node4</title>
<path fill="none" stroke="#9a32cd" stroke-dasharray="5,2" d="M135.5,-135.04C135.5,-122.67 135.5,-107.12 135.5,-97.63"/>
<polygon fill="#9a32cd" stroke="#9a32cd" points="132,-135.23 135.5,-145.23 139,-135.23 132,-135.23"/>
<text text-anchor="middle" x="146.5" y="-119" font-family="Helvetica,sans-Serif" font-size="10.00"> data</text>
</g>
</g>
</svg>
