<?xml version="1.0" encoding="UTF-8" standalone="no"?>
<!DOCTYPE svg PUBLIC "-//W3C//DTD SVG 1.1//EN"
 "http://www.w3.org/Graphics/SVG/1.1/DTD/svg11.dtd">
<!-- Generated by graphviz version 2.49.3 (20211027.1534)
 -->
<!-- Title: GS_SPRITE_FT4_P Pages: 1 -->
<svg width="349pt" height="173pt"
 viewBox="0.00 0.00 348.50 173.00" xmlns="http://www.w3.org/2000/svg" xmlns:xlink="http://www.w3.org/1999/xlink">
<g id="graph0" class="graph" transform="scale(1 1) rotate(0) translate(4 169)">
<title>GS_SPRITE_FT4_P</title>
<polygon fill="white" stroke="transparent" points="-4,4 -4,-169 344.5,-169 344.5,4 -4,4"/>
<!-- Node1 -->
<g id="node1" class="node">
<title>Node1</title>
<g id="a_node1"><a xlink:title=" ">
<polygon fill="#bfbfbf" stroke="black" points="124.5,-0.5 124.5,-19.5 230.5,-19.5 230.5,-0.5 124.5,-0.5"/>
<text text-anchor="middle" x="177.5" y="-7.5" font-family="Helvetica,sans-Serif" font-size="10.00">GS_SPRITE_FT4_P</text>
</a>
</g>
</g>
<!-- Node2 -->
<g id="node2" class="node">
<title>Node2</title>
<g id="a_node2"><a xlink:href="libgs_8h.html#struct_g_s___r___p_r_i_m" target="_top" xlink:title=" ">
<polygon fill="white" stroke="black" points="0,-78.5 0,-97.5 73,-97.5 73,-78.5 0,-78.5"/>
<text text-anchor="middle" x="36.5" y="-85.5" font-family="Helvetica,sans-Serif" font-size="10.00">GS_R_PRIM</text>
</a>
</g>
</g>
<!-- Node2&#45;&gt;Node1 -->
<g id="edge1" class="edge">
<title>Node2&#45;&gt;Node1</title>
<path fill="none" stroke="#9a32cd" stroke-dasharray="5,2" d="M59.74,-73.25C76.92,-63.2 100.97,-49.4 122.5,-38 134.53,-31.63 148.28,-24.88 159.02,-19.72"/>
<polygon fill="#9a32cd" stroke="#9a32cd" points="57.81,-70.32 50.96,-78.4 61.35,-76.36 57.81,-70.32"/>
<text text-anchor="middle" x="133.5" y="-46.5" font-family="Helvetica,sans-Serif" font-size="10.00"> prim</text>
</g>
<!-- Node3 -->
<g id="node3" class="node">
<title>Node3</title>
<g id="a_node3"><a xlink:href="libgs_8h.html#struct_g_s___p_r_i_m" target="_top" xlink:title=" ">
<polygon fill="white" stroke="black" points="6,-145.5 6,-164.5 67,-164.5 67,-145.5 6,-145.5"/>
<text text-anchor="middle" x="36.5" y="-152.5" font-family="Helvetica,sans-Serif" font-size="10.00">GS_PRIM</text>
</a>
</g>
</g>
<!-- Node3&#45;&gt;Node2 -->
<g id="edge2" class="edge">
<title>Node3&#45;&gt;Node2</title>
<path fill="none" stroke="#9a32cd" stroke-dasharray="5,2" d="M36.5,-135.04C36.5,-122.67 36.5,-107.12 36.5,-97.63"/>
<polygon fill="#9a32cd" stroke="#9a32cd" points="33,-135.23 36.5,-145.23 40,-135.23 33,-135.23"/>
<text text-anchor="middle" x="47.5" y="-119" font-family="Helvetica,sans-Serif" font-size="10.00"> data</text>
</g>
<!-- Node4 -->
<g id="node4" class="node">
<title>Node4</title>
<g id="a_node4"><a xlink:href="libgs_8h.html#struct_g_s___r___r_g_b_a_q" target="_top" xlink:title=" ">
<polygon fill="white" stroke="black" points="91,-78.5 91,-97.5 174,-97.5 174,-78.5 91,-78.5"/>
<text text-anchor="middle" x="132.5" y="-85.5" font-family="Helvetica,sans-Serif" font-size="10.00">GS_R_RGBAQ</text>
</a>
</g>
</g>
<!-- Node4&#45;&gt;Node1 -->
<g id="edge3" class="edge">
<title>Node4&#45;&gt;Node1</title>
<path fill="none" stroke="#9a32cd" stroke-dasharray="5,2" d="M142.27,-69.48C147.57,-60.09 154.29,-48.35 160.5,-38 164.15,-31.92 168.4,-25.17 171.74,-19.94"/>
<polygon fill="#9a32cd" stroke="#9a32cd" points="139.19,-67.83 137.35,-78.26 145.29,-71.25 139.19,-67.83"/>
<text text-anchor="middle" x="176.5" y="-46.5" font-family="Helvetica,sans-Serif" font-size="10.00"> rgbaq0</text>
</g>
<!-- Node5 -->
<g id="node5" class="node">
<title>Node5</title>
<g id="a_node5"><a xlink:href="libgs_8h.html#struct_g_s___r_g_b_a_q" target="_top" xlink:title=" ">
<polygon fill="white" stroke="black" points="97,-145.5 97,-164.5 168,-164.5 168,-145.5 97,-145.5"/>
<text text-anchor="middle" x="132.5" y="-152.5" font-family="Helvetica,sans-Serif" font-size="10.00">GS_RGBAQ</text>
</a>
</g>
</g>
<!-- Node5&#45;&gt;Node4 -->
<g id="edge4" class="edge">
<title>Node5&#45;&gt;Node4</title>
<path fill="none" stroke="#9a32cd" stroke-dasharray="5,2" d="M132.5,-135.04C132.5,-122.67 132.5,-107.12 132.5,-97.63"/>
<polygon fill="#9a32cd" stroke="#9a32cd" points="129,-135.23 132.5,-145.23 136,-135.23 129,-135.23"/>
<text text-anchor="middle" x="143.5" y="-119" font-family="Helvetica,sans-Serif" font-size="10.00"> data</text>
</g>
<!-- Node6 -->
<g id="node6" class="node">
<title>Node6</title>
<g id="a_node6"><a xlink:href="libgs_8h.html#struct_g_s___r___u_v" target="_top" xlink:title=" ">
<polygon fill="white" stroke="black" points="192.5,-78.5 192.5,-97.5 254.5,-97.5 254.5,-78.5 192.5,-78.5"/>
<text text-anchor="middle" x="223.5" y="-85.5" font-family="Helvetica,sans-Serif" font-size="10.00">GS_R_UV</text>
</a>
</g>
</g>
<!-- Node6&#45;&gt;Node1 -->
<g id="edge5" class="edge">
<title>Node6&#45;&gt;Node1</title>
<path fill="none" stroke="#9a32cd" stroke-dasharray="5,2" d="M212.95,-69.57C203.5,-53.95 190.03,-31.7 182.72,-19.62"/>
<polygon fill="#9a32cd" stroke="#9a32cd" points="210.05,-71.54 218.22,-78.28 216.04,-67.91 210.05,-71.54"/>
<text text-anchor="middle" x="216" y="-52" font-family="Helvetica,sans-Serif" font-size="10.00"> uv0</text>
<text text-anchor="middle" x="216" y="-41" font-family="Helvetica,sans-Serif" font-size="10.00">uv1</text>
</g>
<!-- Node7 -->
<g id="node7" class="node">
<title>Node7</title>
<g id="a_node7"><a xlink:href="libgs_8h.html#struct_g_s___u_v" target="_top" xlink:title=" ">
<polygon fill="white" stroke="black" points="198.5,-145.5 198.5,-164.5 248.5,-164.5 248.5,-145.5 198.5,-145.5"/>
<text text-anchor="middle" x="223.5" y="-152.5" font-family="Helvetica,sans-Serif" font-size="10.00">GS_UV</text>
</a>
</g>
</g>
<!-- Node7&#45;&gt;Node6 -->
<g id="edge6" class="edge">
<title>Node7&#45;&gt;Node6</title>
<path fill="none" stroke="#9a32cd" stroke-dasharray="5,2" d="M223.5,-135.04C223.5,-122.67 223.5,-107.12 223.5,-97.63"/>
<polygon fill="#9a32cd" stroke="#9a32cd" points="220,-135.23 223.5,-145.23 227,-135.23 220,-135.23"/>
<text text-anchor="middle" x="234.5" y="-119" font-family="Helvetica,sans-Serif" font-size="10.00"> data</text>
</g>
<!-- Node8 -->
<g id="node8" class="node">
<title>Node8</title>
<g id="a_node8"><a xlink:href="libgs_8h.html#struct_g_s___r___x_y_z" target="_top" xlink:title=" ">
<polygon fill="white" stroke="black" points="272.5,-78.5 272.5,-97.5 340.5,-97.5 340.5,-78.5 272.5,-78.5"/>
<text text-anchor="middle" x="306.5" y="-85.5" font-family="Helvetica,sans-Serif" font-size="10.00">GS_R_XYZ</text>
</a>
</g>
</g>
<!-- Node8&#45;&gt;Node1 -->
<g id="edge7" class="edge">
<title>Node8&#45;&gt;Node1</title>
<path fill="none" stroke="#9a32cd" stroke-dasharray="5,2" d="M284.95,-72.57C269.68,-62.52 248.6,-49.01 229.5,-38 218.22,-31.5 205.22,-24.75 195.04,-19.62"/>
<polygon fill="#9a32cd" stroke="#9a32cd" points="283.37,-75.72 293.64,-78.32 287.23,-69.88 283.37,-75.72"/>
<text text-anchor="middle" x="275.5" y="-52" font-family="Helvetica,sans-Serif" font-size="10.00"> xyz0</text>
<text text-anchor="middle" x="275.5" y="-41" font-family="Helvetica,sans-Serif" font-size="10.00">xyz1</text>
</g>
<!-- Node9 -->
<g id="node9" class="node">
<title>Node9</title>
<g id="a_node9"><a xlink:href="libgs_8h.html#struct_g_s___x_y_z" target="_top" xlink:title=" ">
<polygon fill="white" stroke="black" points="278.5,-145.5 278.5,-164.5 334.5,-164.5 334.5,-145.5 278.5,-145.5"/>
<text text-anchor="middle" x="306.5" y="-152.5" font-family="Helvetica,sans-Serif" font-size="10.00">GS_XYZ</text>
</a>
</g>
</g>
<!-- Node9&#45;&gt;Node8 -->
<g id="edge8" class="edge">
<title>Node9&#45;&gt;Node8</title>
<path fill="none" stroke="#9a32cd" stroke-dasharray="5,2" d="M306.5,-135.04C306.5,-122.67 306.5,-107.12 306.5,-97.63"/>
<polygon fill="#9a32cd" stroke="#9a32cd" points="303,-135.23 306.5,-145.23 310,-135.23 303,-135.23"/>
<text text-anchor="middle" x="317.5" y="-119" font-family="Helvetica,sans-Serif" font-size="10.00"> data</text>
</g>
</g>
</svg>
