<?xml version="1.0" encoding="UTF-8" standalone="no"?>
<!DOCTYPE svg PUBLIC "-//W3C//DTD SVG 1.1//EN"
 "http://www.w3.org/Graphics/SVG/1.1/DTD/svg11.dtd">
<!-- Generated by graphviz version 2.49.3 (20211027.1534)
 -->
<!-- Title: _MPEGContext Pages: 1 -->
<svg width="451pt" height="195pt"
 viewBox="0.00 0.00 450.50 195.00" xmlns="http://www.w3.org/2000/svg" xmlns:xlink="http://www.w3.org/1999/xlink">
<g id="graph0" class="graph" transform="scale(1 1) rotate(0) translate(4 191)">
<title>_MPEGContext</title>
<polygon fill="white" stroke="transparent" points="-4,4 -4,-191 446.5,-191 446.5,4 -4,4"/>
<!-- Node1 -->
<g id="node1" class="node">
<title>Node1</title>
<g id="a_node1"><a xlink:title=" ">
<polygon fill="#bfbfbf" stroke="black" points="190,-0.5 190,-19.5 273,-19.5 273,-0.5 190,-0.5"/>
<text text-anchor="middle" x="231.5" y="-7.5" font-family="Helvetica,sans-Serif" font-size="10.00">_MPEGContext</text>
</a>
</g>
</g>
<!-- Node2 -->
<g id="node2" class="node">
<title>Node2</title>
<g id="a_node2"><a xlink:href="libmpeg_8h.html#struct_m_p_e_g_sequence_info" target="_top" xlink:title=" ">
<polygon fill="white" stroke="black" points="0,-100.5 0,-119.5 105,-119.5 105,-100.5 0,-100.5"/>
<text text-anchor="middle" x="52.5" y="-107.5" font-family="Helvetica,sans-Serif" font-size="10.00">MPEGSequenceInfo</text>
</a>
</g>
</g>
<!-- Node2&#45;&gt;Node1 -->
<g id="edge1" class="edge">
<title>Node2&#45;&gt;Node1</title>
<path fill="none" stroke="#9a32cd" stroke-dasharray="5,2" d="M70.05,-93.93C89.06,-78.22 120.82,-53.73 151.5,-38 166.5,-30.31 184.17,-24.08 199.08,-19.55"/>
<polygon fill="#9a32cd" stroke="#9a32cd" points="67.67,-91.36 62.26,-100.47 72.17,-96.73 67.67,-91.36"/>
<text text-anchor="middle" x="164.5" y="-57.5" font-family="Helvetica,sans-Serif" font-size="10.00"> m_SI</text>
</g>
<!-- Node3 -->
<g id="node3" class="node">
<title>Node3</title>
<g id="a_node3"><a xlink:href="libmpeg__internal_8h.html#struct___m_p_e_g_macro_block8" target="_top" xlink:title=" ">
<polygon fill="white" stroke="black" points="123,-100.5 123,-119.5 230,-119.5 230,-100.5 123,-100.5"/>
<text text-anchor="middle" x="176.5" y="-107.5" font-family="Helvetica,sans-Serif" font-size="10.00">_MPEGMacroBlock8</text>
</a>
</g>
</g>
<!-- Node3&#45;&gt;Node1 -->
<g id="edge2" class="edge">
<title>Node3&#45;&gt;Node1</title>
<path fill="none" stroke="#9a32cd" stroke-dasharray="5,2" d="M179.6,-90.32C182.77,-75.22 188.79,-53.94 199.5,-38 204.36,-30.76 211.7,-24.37 218.12,-19.63"/>
<polygon fill="#9a32cd" stroke="#9a32cd" points="176.1,-89.99 177.7,-100.46 182.98,-91.28 176.1,-89.99"/>
<text text-anchor="middle" x="232.5" y="-74" font-family="Helvetica,sans-Serif" font-size="10.00"> m_pAuxFrame</text>
<text text-anchor="middle" x="232.5" y="-63" font-family="Helvetica,sans-Serif" font-size="10.00">m_pBckFrame</text>
<text text-anchor="middle" x="232.5" y="-52" font-family="Helvetica,sans-Serif" font-size="10.00">m_pCurFrame</text>
<text text-anchor="middle" x="232.5" y="-41" font-family="Helvetica,sans-Serif" font-size="10.00">m_pFwdFrame</text>
</g>
<!-- Node4 -->
<g id="node4" class="node">
<title>Node4</title>
<g id="a_node4"><a xlink:href="libmpeg__internal_8h.html#struct___m_p_e_g_m_b_x_y" target="_top" xlink:title=" ">
<polygon fill="white" stroke="black" points="248,-100.5 248,-119.5 327,-119.5 327,-100.5 248,-100.5"/>
<text text-anchor="middle" x="287.5" y="-107.5" font-family="Helvetica,sans-Serif" font-size="10.00">_MPEGMBXY</text>
</a>
</g>
</g>
<!-- Node4&#45;&gt;Node1 -->
<g id="edge3" class="edge">
<title>Node4&#45;&gt;Node1</title>
<path fill="none" stroke="#9a32cd" stroke-dasharray="5,2" d="M284.83,-90.24C281.97,-75.09 276.3,-53.79 265.5,-38 260.48,-30.66 252.86,-24.35 246.11,-19.68"/>
<polygon fill="#9a32cd" stroke="#9a32cd" points="281.43,-91.12 286.51,-100.42 288.33,-89.99 281.43,-91.12"/>
<text text-anchor="middle" x="307.5" y="-57.5" font-family="Helvetica,sans-Serif" font-size="10.00"> m_pMBXY</text>
</g>
<!-- Node5 -->
<g id="node5" class="node">
<title>Node5</title>
<g id="a_node5"><a xlink:href="struct___m_p_e_g_motions.html" target="_top" xlink:title=" ">
<polygon fill="white" stroke="black" points="345,-100.5 345,-119.5 430,-119.5 430,-100.5 345,-100.5"/>
<text text-anchor="middle" x="387.5" y="-107.5" font-family="Helvetica,sans-Serif" font-size="10.00">_MPEGMotions</text>
</a>
</g>
</g>
<!-- Node5&#45;&gt;Node1 -->
<g id="edge4" class="edge">
<title>Node5&#45;&gt;Node1</title>
<path fill="none" stroke="#9a32cd" stroke-dasharray="5,2" d="M379.13,-90.98C370.65,-74.71 356,-51.34 336.5,-38 317.86,-25.25 293.62,-18.52 273.13,-14.97"/>
<polygon fill="#9a32cd" stroke="#9a32cd" points="376.04,-92.62 383.6,-100.04 382.31,-89.53 376.04,-92.62"/>
<text text-anchor="middle" x="408" y="-63" font-family="Helvetica,sans-Serif" font-size="10.00"> m_MC</text>
<text text-anchor="middle" x="408" y="-52" font-family="Helvetica,sans-Serif" font-size="10.00">m_pCurMotions</text>
</g>
<!-- Node6 -->
<g id="node6" class="node">
<title>Node6</title>
<g id="a_node6"><a xlink:href="struct___m_p_e_g_motion.html" target="_top" xlink:title=" ">
<polygon fill="white" stroke="black" points="347.5,-167.5 347.5,-186.5 427.5,-186.5 427.5,-167.5 347.5,-167.5"/>
<text text-anchor="middle" x="387.5" y="-174.5" font-family="Helvetica,sans-Serif" font-size="10.00">_MPEGMotion</text>
</a>
</g>
</g>
<!-- Node6&#45;&gt;Node5 -->
<g id="edge5" class="edge">
<title>Node6&#45;&gt;Node5</title>
<path fill="none" stroke="#9a32cd" stroke-dasharray="5,2" d="M387.5,-157.04C387.5,-144.67 387.5,-129.12 387.5,-119.63"/>
<polygon fill="#9a32cd" stroke="#9a32cd" points="384,-157.23 387.5,-167.23 391,-157.23 384,-157.23"/>
<text text-anchor="middle" x="410.5" y="-141" font-family="Helvetica,sans-Serif" font-size="10.00"> m_Motion</text>
</g>
</g>
</svg>
