<?xml version="1.0" encoding="UTF-8" standalone="no"?>
<!DOCTYPE svg PUBLIC "-//W3C//DTD SVG 1.1//EN"
 "http://www.w3.org/Graphics/SVG/1.1/DTD/svg11.dtd">
<!-- Generated by graphviz version 2.49.3 (20211027.1534)
 -->
<!-- Title: pfs_inode_t Pages: 1 -->
<svg width="190pt" height="139pt"
 viewBox="0.00 0.00 190.00 139.00" xmlns="http://www.w3.org/2000/svg" xmlns:xlink="http://www.w3.org/1999/xlink">
<g id="graph0" class="graph" transform="scale(1 1) rotate(0) translate(4 135)">
<title>pfs_inode_t</title>
<polygon fill="white" stroke="transparent" points="-4,4 -4,-135 186,-135 186,4 -4,4"/>
<!-- Node1 -->
<g id="node1" class="node">
<title>Node1</title>
<g id="a_node1"><a xlink:title=" ">
<polygon fill="#bfbfbf" stroke="black" points="58,-0.5 58,-19.5 125,-19.5 125,-0.5 58,-0.5"/>
<text text-anchor="middle" x="91.5" y="-7.5" font-family="Helvetica,sans-Serif" font-size="10.00">pfs_inode_t</text>
</a>
</g>
</g>
<!-- Node2 -->
<g id="node2" class="node">
<title>Node2</title>
<g id="a_node2"><a xlink:href="structpfs__blockinfo__t.html" target="_top" xlink:title=" ">
<polygon fill="white" stroke="black" points="0,-111.5 0,-130.5 83,-130.5 83,-111.5 0,-111.5"/>
<text text-anchor="middle" x="41.5" y="-118.5" font-family="Helvetica,sans-Serif" font-size="10.00">pfs_blockinfo_t</text>
</a>
</g>
</g>
<!-- Node2&#45;&gt;Node1 -->
<g id="edge1" class="edge">
<title>Node2&#45;&gt;Node1</title>
<path fill="none" stroke="#9a32cd" stroke-dasharray="5,2" d="M41.86,-101.35C42.97,-83.83 46.7,-57.48 58.5,-38 63.03,-30.53 70.39,-24.21 77.02,-19.57"/>
<polygon fill="#9a32cd" stroke="#9a32cd" points="38.36,-101.28 41.45,-111.42 45.35,-101.57 38.36,-101.28"/>
<text text-anchor="middle" x="89" y="-85" font-family="Helvetica,sans-Serif" font-size="10.00"> data</text>
<text text-anchor="middle" x="89" y="-74" font-family="Helvetica,sans-Serif" font-size="10.00">inode_block</text>
<text text-anchor="middle" x="89" y="-63" font-family="Helvetica,sans-Serif" font-size="10.00">last_segment</text>
<text text-anchor="middle" x="89" y="-52" font-family="Helvetica,sans-Serif" font-size="10.00">next_segment</text>
<text text-anchor="middle" x="89" y="-41" font-family="Helvetica,sans-Serif" font-size="10.00">unused</text>
</g>
<!-- Node3 -->
<g id="node3" class="node">
<title>Node3</title>
<g id="a_node3"><a xlink:href="structpfs__datetime__t.html" target="_top" xlink:title=" ">
<polygon fill="white" stroke="black" points="101,-111.5 101,-130.5 182,-130.5 182,-111.5 101,-111.5"/>
<text text-anchor="middle" x="141.5" y="-118.5" font-family="Helvetica,sans-Serif" font-size="10.00">pfs_datetime_t</text>
</a>
</g>
</g>
<!-- Node3&#45;&gt;Node1 -->
<g id="edge2" class="edge">
<title>Node3&#45;&gt;Node1</title>
<path fill="none" stroke="#9a32cd" stroke-dasharray="5,2" d="M139.39,-101.26C136.78,-83.88 131.17,-57.79 119.5,-38 115.31,-30.9 108.76,-24.44 103.04,-19.62"/>
<polygon fill="#9a32cd" stroke="#9a32cd" points="135.93,-101.81 140.7,-111.27 142.87,-100.9 135.93,-101.81"/>
<text text-anchor="middle" x="151.5" y="-74" font-family="Helvetica,sans-Serif" font-size="10.00"> atime</text>
<text text-anchor="middle" x="151.5" y="-63" font-family="Helvetica,sans-Serif" font-size="10.00">ctime</text>
<text text-anchor="middle" x="151.5" y="-52" font-family="Helvetica,sans-Serif" font-size="10.00">mtime</text>
</g>
</g>
</svg>
