<?xml version="1.0" encoding="UTF-8" standalone="no"?>
<!DOCTYPE svg PUBLIC "-//W3C//DTD SVG 1.1//EN"
 "http://www.w3.org/Graphics/SVG/1.1/DTD/svg11.dtd">
<!-- Generated by graphviz version 2.49.3 (20211027.1534)
 -->
<!-- Title: _devfs_device Pages: 1 -->
<svg width="233pt" height="387pt"
 viewBox="0.00 0.00 233.00 387.00" xmlns="http://www.w3.org/2000/svg" xmlns:xlink="http://www.w3.org/1999/xlink">
<g id="graph0" class="graph" transform="scale(1 1) rotate(0) translate(4 383)">
<title>_devfs_device</title>
<polygon fill="white" stroke="transparent" points="-4,4 -4,-383 229,-383 229,4 -4,4"/>
<!-- Node1 -->
<g id="node1" class="node">
<title>Node1</title>
<g id="a_node1"><a xlink:title=" ">
<polygon fill="#bfbfbf" stroke="black" points="0,-135.5 0,-154.5 80,-154.5 80,-135.5 0,-135.5"/>
<text text-anchor="middle" x="40" y="-142.5" font-family="Helvetica,sans-Serif" font-size="10.00">_devfs_device</text>
</a>
</g>
</g>
<!-- Node1&#45;&gt;Node1 -->
<g id="edge1" class="edge">
<title>Node1&#45;&gt;Node1</title>
<path fill="none" stroke="#9a32cd" stroke-dasharray="5,2" d="M90.26,-150.12C95,-149.07 98,-147.37 98,-145 98,-141.21 90.33,-139.12 80.12,-138.7"/>
<polygon fill="#9a32cd" stroke="#9a32cd" points="89.65,-146.67 80.12,-151.3 90.46,-153.62 89.65,-146.67"/>
<text text-anchor="middle" x="110" y="-148" font-family="Helvetica,sans-Serif" font-size="10.00"> back</text>
<text text-anchor="middle" x="110" y="-137" font-family="Helvetica,sans-Serif" font-size="10.00">forw</text>
</g>
<!-- Node6 -->
<g id="node6" class="node">
<title>Node6</title>
<g id="a_node6"><a xlink:href="devfs_8c.html#struct__ioman__data" target="_top" xlink:title=" ">
<polygon fill="white" stroke="black" points="96,-67.5 96,-86.5 168,-86.5 168,-67.5 96,-67.5"/>
<text text-anchor="middle" x="132" y="-74.5" font-family="Helvetica,sans-Serif" font-size="10.00">_ioman_data</text>
</a>
</g>
</g>
<!-- Node1&#45;&gt;Node6 -->
<g id="edge8" class="edge">
<title>Node1&#45;&gt;Node6</title>
<path fill="none" stroke="#9a32cd" stroke-dasharray="5,2" d="M60.27,-129.46C78.55,-116.34 104.82,-97.5 119.97,-86.63"/>
<polygon fill="#9a32cd" stroke="#9a32cd" points="58.11,-126.7 52.03,-135.37 62.19,-132.39 58.11,-126.7"/>
<text text-anchor="middle" x="104.5" y="-108" font-family="Helvetica,sans-Serif" font-size="10.00"> dev</text>
</g>
<!-- Node2 -->
<g id="node2" class="node">
<title>Node2</title>
<g id="a_node2"><a xlink:href="group__devfs.html#structdevfs__node__t" target="_top" xlink:title=" ">
<polygon fill="white" stroke="black" points="29.5,-203.5 29.5,-222.5 104.5,-222.5 104.5,-203.5 29.5,-203.5"/>
<text text-anchor="middle" x="67" y="-210.5" font-family="Helvetica,sans-Serif" font-size="10.00">devfs_node_t</text>
</a>
</g>
</g>
<!-- Node2&#45;&gt;Node1 -->
<g id="edge2" class="edge">
<title>Node2&#45;&gt;Node1</title>
<path fill="none" stroke="#9a32cd" stroke-dasharray="5,2" d="M59.56,-193.81C54.37,-181.12 47.68,-164.76 43.62,-154.84"/>
<polygon fill="#9a32cd" stroke="#9a32cd" points="56.44,-195.44 63.47,-203.37 62.92,-192.79 56.44,-195.44"/>
<text text-anchor="middle" x="68" y="-177" font-family="Helvetica,sans-Serif" font-size="10.00"> node</text>
</g>
<!-- Node3 -->
<g id="node3" class="node">
<title>Node3</title>
<g id="a_node3"><a xlink:href="group__devfs.html#structdevfs__info__t" target="_top" xlink:title=" ">
<polygon fill="white" stroke="black" points="49,-292.5 49,-311.5 119,-311.5 119,-292.5 49,-292.5"/>
<text text-anchor="middle" x="84" y="-299.5" font-family="Helvetica,sans-Serif" font-size="10.00">devfs_info_t</text>
</a>
</g>
</g>
<!-- Node3&#45;&gt;Node2 -->
<g id="edge3" class="edge">
<title>Node3&#45;&gt;Node2</title>
<path fill="none" stroke="#9a32cd" stroke-dasharray="5,2" d="M80.38,-282.46C76.77,-264 71.39,-236.48 68.69,-222.62"/>
<polygon fill="#9a32cd" stroke="#9a32cd" points="76.95,-283.2 82.31,-292.34 83.83,-281.85 76.95,-283.2"/>
<text text-anchor="middle" x="90" y="-266" font-family="Helvetica,sans-Serif" font-size="10.00"> ioctl</text>
<text text-anchor="middle" x="90" y="-255" font-family="Helvetica,sans-Serif" font-size="10.00">read</text>
<text text-anchor="middle" x="90" y="-244" font-family="Helvetica,sans-Serif" font-size="10.00">write</text>
</g>
<!-- Node4 -->
<g id="node4" class="node">
<title>Node4</title>
<g id="a_node4"><a xlink:href="group__devfs.html#uniondevfs__loc__t" target="_top" xlink:title=" ">
<polygon fill="white" stroke="black" points="116.5,-359.5 116.5,-378.5 183.5,-378.5 183.5,-359.5 116.5,-359.5"/>
<text text-anchor="middle" x="150" y="-366.5" font-family="Helvetica,sans-Serif" font-size="10.00">devfs_loc_t</text>
</a>
</g>
</g>
<!-- Node4&#45;&gt;Node3 -->
<g id="edge4" class="edge">
<title>Node4&#45;&gt;Node3</title>
<path fill="none" stroke="#9a32cd" stroke-dasharray="5,2" d="M132.53,-352.7C128.36,-348.94 123.97,-344.87 120,-341 109.98,-331.23 98.99,-319.46 91.82,-311.64"/>
<polygon fill="#9a32cd" stroke="#9a32cd" points="130.3,-355.4 140.09,-359.44 134.95,-350.17 130.3,-355.4"/>
<text text-anchor="middle" x="128" y="-333" font-family="Helvetica,sans-Serif" font-size="10.00"> loc</text>
</g>
<!-- Node5 -->
<g id="node5" class="node">
<title>Node5</title>
<g id="a_node5"><a xlink:href="devfs_8c.html#structsubdev__t" target="_top" xlink:title=" ">
<polygon fill="white" stroke="black" points="104,-0.5 104,-19.5 160,-19.5 160,-0.5 104,-0.5"/>
<text text-anchor="middle" x="132" y="-7.5" font-family="Helvetica,sans-Serif" font-size="10.00">subdev_t</text>
</a>
</g>
</g>
<!-- Node4&#45;&gt;Node5 -->
<g id="edge6" class="edge">
<title>Node4&#45;&gt;Node5</title>
<path fill="none" stroke="#9a32cd" stroke-dasharray="5,2" d="M169.13,-352.6C181.76,-340.59 196,-322.69 196,-303 196,-303 196,-303 196,-76 196,-58 193.79,-51.6 182,-38 175.02,-29.95 165.03,-23.89 155.81,-19.57"/>
<polygon fill="#9a32cd" stroke="#9a32cd" points="166.76,-350.02 161.61,-359.28 171.41,-355.25 166.76,-350.02"/>
<text text-anchor="middle" x="210.5" y="-177" font-family="Helvetica,sans-Serif" font-size="10.00"> extent</text>
</g>
<!-- Node4&#45;&gt;Node6 -->
<g id="edge9" class="edge">
<title>Node4&#45;&gt;Node6</title>
<path fill="none" stroke="#9a32cd" stroke-dasharray="5,2" d="M150,-349.13C150,-336.16 150,-318.54 150,-303 150,-303 150,-303 150,-144 150,-122.86 141.3,-99.21 135.99,-86.76"/>
<polygon fill="#9a32cd" stroke="#9a32cd" points="146.5,-349.17 150,-359.17 153.5,-349.17 146.5,-349.17"/>
<text text-anchor="middle" x="158" y="-210.5" font-family="Helvetica,sans-Serif" font-size="10.00"> loc</text>
</g>
<!-- Node5&#45;&gt;Node1 -->
<g id="edge5" class="edge">
<title>Node5&#45;&gt;Node1</title>
<path fill="none" stroke="#9a32cd" stroke-dasharray="5,2" d="M99.45,-23.83C80.83,-32.96 58.88,-47.15 47,-67 34.04,-88.65 36.34,-120.03 38.48,-135.17"/>
<polygon fill="#9a32cd" stroke="#9a32cd" points="100.93,-27.01 108.54,-19.64 97.99,-20.65 100.93,-27.01"/>
<text text-anchor="middle" x="67" y="-74.5" font-family="Helvetica,sans-Serif" font-size="10.00"> subdevs</text>
</g>
<!-- Node6&#45;&gt;Node5 -->
<g id="edge7" class="edge">
<title>Node6&#45;&gt;Node5</title>
<path fill="none" stroke="#9a32cd" stroke-dasharray="5,2" d="M132,-57.04C132,-44.67 132,-29.12 132,-19.63"/>
<polygon fill="#9a32cd" stroke="#9a32cd" points="128.5,-57.23 132,-67.23 135.5,-57.23 128.5,-57.23"/>
<text text-anchor="middle" x="155" y="-41" font-family="Helvetica,sans-Serif" font-size="10.00"> open_files</text>
</g>
</g>
</svg>
