<?xml version="1.0" encoding="UTF-8" standalone="no"?>
<!DOCTYPE svg PUBLIC "-//W3C//DTD SVG 1.1//EN"
 "http://www.w3.org/Graphics/SVG/1.1/DTD/svg11.dtd">
<!-- Generated by graphviz version 2.49.3 (20211027.1534)
 -->
<!-- Title: GS_POINT_P Pages: 1 -->
<svg width="269pt" height="162pt"
 viewBox="0.00 0.00 268.50 162.00" xmlns="http://www.w3.org/2000/svg" xmlns:xlink="http://www.w3.org/1999/xlink">
<g id="graph0" class="graph" transform="scale(1 1) rotate(0) translate(4 158)">
<title>GS_POINT_P</title>
<polygon fill="white" stroke="transparent" points="-4,4 -4,-158 264.5,-158 264.5,4 -4,4"/>
<!-- Node1 -->
<g id="node1" class="node">
<title>Node1</title>
<g id="a_node1"><a xlink:title=" ">
<polygon fill="#bfbfbf" stroke="black" points="93,-0.5 93,-19.5 172,-19.5 172,-0.5 93,-0.5"/>
<text text-anchor="middle" x="132.5" y="-7.5" font-family="Helvetica,sans-Serif" font-size="10.00">GS_POINT_P</text>
</a>
</g>
</g>
<!-- Node2 -->
<g id="node2" class="node">
<title>Node2</title>
<g id="a_node2"><a xlink:href="libgs_8h.html#struct_g_s___r___p_r_i_m" target="_top" xlink:title=" ">
<polygon fill="white" stroke="black" points="0,-67.5 0,-86.5 73,-86.5 73,-67.5 0,-67.5"/>
<text text-anchor="middle" x="36.5" y="-74.5" font-family="Helvetica,sans-Serif" font-size="10.00">GS_R_PRIM</text>
</a>
</g>
</g>
<!-- Node2&#45;&gt;Node1 -->
<g id="edge1" class="edge">
<title>Node2&#45;&gt;Node1</title>
<path fill="none" stroke="#9a32cd" stroke-dasharray="5,2" d="M57.78,-61.59C76.77,-48.74 103.95,-30.33 119.76,-19.63"/>
<polygon fill="#9a32cd" stroke="#9a32cd" points="55.77,-58.73 49.45,-67.23 59.69,-64.53 55.77,-58.73"/>
<text text-anchor="middle" x="101.5" y="-41" font-family="Helvetica,sans-Serif" font-size="10.00"> prim</text>
</g>
<!-- Node3 -->
<g id="node3" class="node">
<title>Node3</title>
<g id="a_node3"><a xlink:href="libgs_8h.html#struct_g_s___p_r_i_m" target="_top" xlink:title=" ">
<polygon fill="white" stroke="black" points="6,-134.5 6,-153.5 67,-153.5 67,-134.5 6,-134.5"/>
<text text-anchor="middle" x="36.5" y="-141.5" font-family="Helvetica,sans-Serif" font-size="10.00">GS_PRIM</text>
</a>
</g>
</g>
<!-- Node3&#45;&gt;Node2 -->
<g id="edge2" class="edge">
<title>Node3&#45;&gt;Node2</title>
<path fill="none" stroke="#9a32cd" stroke-dasharray="5,2" d="M36.5,-124.04C36.5,-111.67 36.5,-96.12 36.5,-86.63"/>
<polygon fill="#9a32cd" stroke="#9a32cd" points="33,-124.23 36.5,-134.23 40,-124.23 33,-124.23"/>
<text text-anchor="middle" x="47.5" y="-108" font-family="Helvetica,sans-Serif" font-size="10.00"> data</text>
</g>
<!-- Node4 -->
<g id="node4" class="node">
<title>Node4</title>
<g id="a_node4"><a xlink:href="libgs_8h.html#struct_g_s___r___r_g_b_a_q" target="_top" xlink:title=" ">
<polygon fill="white" stroke="black" points="91,-67.5 91,-86.5 174,-86.5 174,-67.5 91,-67.5"/>
<text text-anchor="middle" x="132.5" y="-74.5" font-family="Helvetica,sans-Serif" font-size="10.00">GS_R_RGBAQ</text>
</a>
</g>
</g>
<!-- Node4&#45;&gt;Node1 -->
<g id="edge3" class="edge">
<title>Node4&#45;&gt;Node1</title>
<path fill="none" stroke="#9a32cd" stroke-dasharray="5,2" d="M132.5,-57.04C132.5,-44.67 132.5,-29.12 132.5,-19.63"/>
<polygon fill="#9a32cd" stroke="#9a32cd" points="129,-57.23 132.5,-67.23 136,-57.23 129,-57.23"/>
<text text-anchor="middle" x="148.5" y="-41" font-family="Helvetica,sans-Serif" font-size="10.00"> rgbaq0</text>
</g>
<!-- Node5 -->
<g id="node5" class="node">
<title>Node5</title>
<g id="a_node5"><a xlink:href="libgs_8h.html#struct_g_s___r_g_b_a_q" target="_top" xlink:title=" ">
<polygon fill="white" stroke="black" points="97,-134.5 97,-153.5 168,-153.5 168,-134.5 97,-134.5"/>
<text text-anchor="middle" x="132.5" y="-141.5" font-family="Helvetica,sans-Serif" font-size="10.00">GS_RGBAQ</text>
</a>
</g>
</g>
<!-- Node5&#45;&gt;Node4 -->
<g id="edge4" class="edge">
<title>Node5&#45;&gt;Node4</title>
<path fill="none" stroke="#9a32cd" stroke-dasharray="5,2" d="M132.5,-124.04C132.5,-111.67 132.5,-96.12 132.5,-86.63"/>
<polygon fill="#9a32cd" stroke="#9a32cd" points="129,-124.23 132.5,-134.23 136,-124.23 129,-124.23"/>
<text text-anchor="middle" x="143.5" y="-108" font-family="Helvetica,sans-Serif" font-size="10.00"> data</text>
</g>
<!-- Node6 -->
<g id="node6" class="node">
<title>Node6</title>
<g id="a_node6"><a xlink:href="libgs_8h.html#struct_g_s___r___x_y_z" target="_top" xlink:title=" ">
<polygon fill="white" stroke="black" points="192.5,-67.5 192.5,-86.5 260.5,-86.5 260.5,-67.5 192.5,-67.5"/>
<text text-anchor="middle" x="226.5" y="-74.5" font-family="Helvetica,sans-Serif" font-size="10.00">GS_R_XYZ</text>
</a>
</g>
</g>
<!-- Node6&#45;&gt;Node1 -->
<g id="edge5" class="edge">
<title>Node6&#45;&gt;Node1</title>
<path fill="none" stroke="#9a32cd" stroke-dasharray="5,2" d="M205.41,-61.42C186.83,-48.57 160.38,-30.28 144.98,-19.63"/>
<polygon fill="#9a32cd" stroke="#9a32cd" points="203.61,-64.43 213.82,-67.23 207.59,-58.67 203.61,-64.43"/>
<text text-anchor="middle" x="196.5" y="-41" font-family="Helvetica,sans-Serif" font-size="10.00"> xyz0</text>
</g>
<!-- Node7 -->
<g id="node7" class="node">
<title>Node7</title>
<g id="a_node7"><a xlink:href="libgs_8h.html#struct_g_s___x_y_z" target="_top" xlink:title=" ">
<polygon fill="white" stroke="black" points="198.5,-134.5 198.5,-153.5 254.5,-153.5 254.5,-134.5 198.5,-134.5"/>
<text text-anchor="middle" x="226.5" y="-141.5" font-family="Helvetica,sans-Serif" font-size="10.00">GS_XYZ</text>
</a>
</g>
</g>
<!-- Node7&#45;&gt;Node6 -->
<g id="edge6" class="edge">
<title>Node7&#45;&gt;Node6</title>
<path fill="none" stroke="#9a32cd" stroke-dasharray="5,2" d="M226.5,-124.04C226.5,-111.67 226.5,-96.12 226.5,-86.63"/>
<polygon fill="#9a32cd" stroke="#9a32cd" points="223,-124.23 226.5,-134.23 230,-124.23 223,-124.23"/>
<text text-anchor="middle" x="237.5" y="-108" font-family="Helvetica,sans-Serif" font-size="10.00"> data</text>
</g>
</g>
</svg>
