<?xml version="1.0" encoding="UTF-8" standalone="no"?>
<!DOCTYPE svg PUBLIC "-//W3C//DTD SVG 1.1//EN"
 "http://www.w3.org/Graphics/SVG/1.1/DTD/svg11.dtd">
<!-- Generated by graphviz version 2.49.3 (20211027.1534)
 -->
<!-- Title: t_SifRpcBindPkt Pages: 1 -->
<svg width="285pt" height="253pt"
 viewBox="0.00 0.00 285.00 253.00" xmlns="http://www.w3.org/2000/svg" xmlns:xlink="http://www.w3.org/1999/xlink">
<g id="graph0" class="graph" transform="scale(1 1) rotate(0) translate(4 249)">
<title>t_SifRpcBindPkt</title>
<polygon fill="white" stroke="transparent" points="-4,4 -4,-249 281,-249 281,4 -4,4"/>
<!-- Node1 -->
<g id="node1" class="node">
<title>Node1</title>
<g id="a_node1"><a xlink:title=" ">
<polygon fill="#bfbfbf" stroke="black" points="10,-90.5 10,-109.5 99,-109.5 99,-90.5 10,-90.5"/>
<text text-anchor="middle" x="54.5" y="-97.5" font-family="Helvetica,sans-Serif" font-size="10.00">t_SifRpcBindPkt</text>
</a>
</g>
</g>
<!-- Node2 -->
<g id="node2" class="node">
<title>Node2</title>
<g id="a_node2"><a xlink:href="iop_2kernel_2include_2sifcmd_8h.html#structt___sif_cmd_header" target="_top" xlink:title=" ">
<polygon fill="white" stroke="black" points="0,-158.5 0,-177.5 89,-177.5 89,-158.5 0,-158.5"/>
<text text-anchor="middle" x="44.5" y="-165.5" font-family="Helvetica,sans-Serif" font-size="10.00">t_SifCmdHeader</text>
</a>
</g>
</g>
<!-- Node2&#45;&gt;Node1 -->
<g id="edge1" class="edge">
<title>Node2&#45;&gt;Node1</title>
<path fill="none" stroke="#9a32cd" stroke-dasharray="5,2" d="M46.8,-148.23C47.59,-142.09 48.53,-135.25 49.5,-129 50.5,-122.56 51.8,-115.32 52.82,-109.81"/>
<polygon fill="#9a32cd" stroke="#9a32cd" points="43.31,-147.87 45.54,-158.23 50.26,-148.74 43.31,-147.87"/>
<text text-anchor="middle" x="65.5" y="-132" font-family="Helvetica,sans-Serif" font-size="10.00"> sifcmd</text>
</g>
<!-- Node3 -->
<g id="node3" class="node">
<title>Node3</title>
<g id="a_node3"><a xlink:href="iop_2kernel_2include_2sifcmd_8h.html#structt___sif_rpc_client_data" target="_top" xlink:title=" ">
<polygon fill="white" stroke="black" points="107,-158.5 107,-177.5 206,-177.5 206,-158.5 107,-158.5"/>
<text text-anchor="middle" x="156.5" y="-165.5" font-family="Helvetica,sans-Serif" font-size="10.00">t_SifRpcClientData</text>
</a>
</g>
</g>
<!-- Node3&#45;&gt;Node1 -->
<g id="edge2" class="edge">
<title>Node3&#45;&gt;Node1</title>
<path fill="none" stroke="#9a32cd" stroke-dasharray="5,2" d="M134.57,-152.81C114.29,-139.69 84.79,-120.6 67.84,-109.63"/>
<polygon fill="#9a32cd" stroke="#9a32cd" points="132.87,-155.88 143.17,-158.37 136.67,-150 132.87,-155.88"/>
<text text-anchor="middle" x="127.5" y="-132" font-family="Helvetica,sans-Serif" font-size="10.00"> client</text>
</g>
<!-- Node5 -->
<g id="node5" class="node">
<title>Node5</title>
<g id="a_node5"><a xlink:href="iop_2kernel_2include_2sifcmd_8h.html#structt___sif_rpc_server_data" target="_top" xlink:title=" ">
<polygon fill="white" stroke="black" points="136,-90.5 136,-109.5 239,-109.5 239,-90.5 136,-90.5"/>
<text text-anchor="middle" x="187.5" y="-97.5" font-family="Helvetica,sans-Serif" font-size="10.00">t_SifRpcServerData</text>
</a>
</g>
</g>
<!-- Node3&#45;&gt;Node5 -->
<g id="edge5" class="edge">
<title>Node3&#45;&gt;Node5</title>
<path fill="none" stroke="#9a32cd" stroke-dasharray="5,2" d="M149.93,-148.51C148.7,-142.07 148.58,-134.97 151.5,-129 155.54,-120.75 163.31,-114.23 170.6,-109.56"/>
<polygon fill="#9a32cd" stroke="#9a32cd" points="146.64,-149.73 152.72,-158.4 153.38,-147.83 146.64,-149.73"/>
<text text-anchor="middle" x="164.5" y="-132" font-family="Helvetica,sans-Serif" font-size="10.00"> client</text>
</g>
<!-- Node4 -->
<g id="node4" class="node">
<title>Node4</title>
<g id="a_node4"><a xlink:href="iop_2kernel_2include_2sifcmd_8h.html#structt___sif_rpc_header" target="_top" xlink:title=" ">
<polygon fill="white" stroke="black" points="113.5,-225.5 113.5,-244.5 199.5,-244.5 199.5,-225.5 113.5,-225.5"/>
<text text-anchor="middle" x="156.5" y="-232.5" font-family="Helvetica,sans-Serif" font-size="10.00">t_SifRpcHeader</text>
</a>
</g>
</g>
<!-- Node4&#45;&gt;Node3 -->
<g id="edge3" class="edge">
<title>Node4&#45;&gt;Node3</title>
<path fill="none" stroke="#9a32cd" stroke-dasharray="5,2" d="M156.5,-215.04C156.5,-202.67 156.5,-187.12 156.5,-177.63"/>
<polygon fill="#9a32cd" stroke="#9a32cd" points="153,-215.23 156.5,-225.23 160,-215.23 153,-215.23"/>
<text text-anchor="middle" x="164.5" y="-199" font-family="Helvetica,sans-Serif" font-size="10.00"> hdr</text>
</g>
<!-- Node5&#45;&gt;Node3 -->
<g id="edge4" class="edge">
<title>Node5&#45;&gt;Node3</title>
<path fill="none" stroke="#9a32cd" stroke-dasharray="5,2" d="M186.85,-119.94C186.04,-126.54 184.48,-133.83 181.5,-140 178.11,-147.02 172.27,-153.48 167.09,-158.32"/>
<polygon fill="#9a32cd" stroke="#9a32cd" points="190.35,-120.03 187.6,-109.8 183.37,-119.51 190.35,-120.03"/>
<text text-anchor="middle" x="199.5" y="-132" font-family="Helvetica,sans-Serif" font-size="10.00"> server</text>
</g>
<!-- Node5&#45;&gt;Node5 -->
<g id="edge6" class="edge">
<title>Node5&#45;&gt;Node5</title>
<path fill="none" stroke="#9a32cd" stroke-dasharray="5,2" d="M248.96,-104.88C253.92,-103.82 257,-102.19 257,-100 257,-96.58 249.5,-94.54 239.03,-93.87"/>
<polygon fill="#9a32cd" stroke="#9a32cd" points="248.51,-101.41 239.03,-106.13 249.38,-108.35 248.51,-101.41"/>
<text text-anchor="middle" x="266.5" y="-103" font-family="Helvetica,sans-Serif" font-size="10.00"> link</text>
<text text-anchor="middle" x="266.5" y="-92" font-family="Helvetica,sans-Serif" font-size="10.00">next</text>
</g>
<!-- Node6 -->
<g id="node6" class="node">
<title>Node6</title>
<g id="a_node6"><a xlink:href="iop_2kernel_2include_2sifcmd_8h.html#structt___sif_rpc_data_queue" target="_top" xlink:title=" ">
<polygon fill="white" stroke="black" points="135,-0.5 135,-19.5 238,-19.5 238,-0.5 135,-0.5"/>
<text text-anchor="middle" x="186.5" y="-7.5" font-family="Helvetica,sans-Serif" font-size="10.00">t_SifRpcDataQueue</text>
</a>
</g>
</g>
<!-- Node5&#45;&gt;Node6 -->
<g id="edge8" class="edge">
<title>Node5&#45;&gt;Node6</title>
<path fill="none" stroke="#9a32cd" stroke-dasharray="5,2" d="M169.63,-82.85C166.71,-79.26 164.12,-75.25 162.5,-71 157.27,-57.3 157.29,-51.71 162.5,-38 165.22,-30.85 170.8,-24.38 175.89,-19.57"/>
<polygon fill="#9a32cd" stroke="#9a32cd" points="167.31,-85.49 176.71,-90.37 172.4,-80.69 167.31,-85.49"/>
<text text-anchor="middle" x="172.5" y="-63" font-family="Helvetica,sans-Serif" font-size="10.00"> end</text>
<text text-anchor="middle" x="172.5" y="-52" font-family="Helvetica,sans-Serif" font-size="10.00">link</text>
<text text-anchor="middle" x="172.5" y="-41" font-family="Helvetica,sans-Serif" font-size="10.00">start</text>
</g>
<!-- Node6&#45;&gt;Node5 -->
<g id="edge7" class="edge">
<title>Node6&#45;&gt;Node5</title>
<path fill="none" stroke="#9a32cd" stroke-dasharray="5,2" d="M186.72,-29.97C186.93,-48.63 187.24,-76.27 187.4,-90.24"/>
<polygon fill="#9a32cd" stroke="#9a32cd" points="190.21,-29.68 186.6,-19.72 183.21,-29.76 190.21,-29.68"/>
<text text-anchor="middle" x="198.5" y="-52" font-family="Helvetica,sans-Serif" font-size="10.00"> base</text>
</g>
<!-- Node6&#45;&gt;Node6 -->
<g id="edge9" class="edge">
<title>Node6&#45;&gt;Node6</title>
<path fill="none" stroke="#9a32cd" stroke-dasharray="5,2" d="M247.96,-16.31C252.92,-14.94 256,-12.84 256,-10 256,-5.57 248.5,-2.93 238.03,-2.06"/>
<polygon fill="#9a32cd" stroke="#9a32cd" points="247.33,-12.87 238.03,-17.94 248.46,-19.78 247.33,-12.87"/>
<text text-anchor="middle" x="266.5" y="-7.5" font-family="Helvetica,sans-Serif" font-size="10.00"> next</text>
</g>
</g>
</svg>
