<?xml version="1.0" encoding="UTF-8" standalone="no"?>
<!DOCTYPE svg PUBLIC "-//W3C//DTD SVG 1.1//EN"
 "http://www.w3.org/Graphics/SVG/1.1/DTD/svg11.dtd">
<!-- Generated by graphviz version 2.49.3 (20211027.1534)
 -->
<!-- Title: SecrBitTable Pages: 1 -->
<svg width="224pt" height="95pt"
 viewBox="0.00 0.00 224.00 95.00" xmlns="http://www.w3.org/2000/svg" xmlns:xlink="http://www.w3.org/1999/xlink">
<g id="graph0" class="graph" transform="scale(1 1) rotate(0) translate(4 91)">
<title>SecrBitTable</title>
<polygon fill="white" stroke="transparent" points="-4,4 -4,-91 220,-91 220,4 -4,4"/>
<!-- Node1 -->
<g id="node1" class="node">
<title>Node1</title>
<g id="a_node1"><a xlink:title=" ">
<polygon fill="#bfbfbf" stroke="black" points="73.5,-0.5 73.5,-19.5 146.5,-19.5 146.5,-0.5 73.5,-0.5"/>
<text text-anchor="middle" x="110" y="-7.5" font-family="Helvetica,sans-Serif" font-size="10.00">SecrBitTable</text>
</a>
</g>
</g>
<!-- Node2 -->
<g id="node2" class="node">
<title>Node2</title>
<g id="a_node2"><a xlink:href="libsecr-common_8h.html#struct_secr_bit_table_header" target="_top" xlink:title=" ">
<polygon fill="white" stroke="black" points="0,-67.5 0,-86.5 104,-86.5 104,-67.5 0,-67.5"/>
<text text-anchor="middle" x="52" y="-74.5" font-family="Helvetica,sans-Serif" font-size="10.00">SecrBitTableHeader</text>
</a>
</g>
</g>
<!-- Node2&#45;&gt;Node1 -->
<g id="edge1" class="edge">
<title>Node2&#45;&gt;Node1</title>
<path fill="none" stroke="#9a32cd" stroke-dasharray="5,2" d="M66.6,-59.63C77.95,-46.92 93.23,-29.8 102.3,-19.63"/>
<polygon fill="#9a32cd" stroke="#9a32cd" points="63.87,-57.44 59.82,-67.23 69.09,-62.1 63.87,-57.44"/>
<text text-anchor="middle" x="101" y="-41" font-family="Helvetica,sans-Serif" font-size="10.00"> header</text>
</g>
<!-- Node3 -->
<g id="node3" class="node">
<title>Node3</title>
<g id="a_node3"><a xlink:href="libsecr-common_8h.html#struct_secr_bit_block_data" target="_top" xlink:title=" ">
<polygon fill="white" stroke="black" points="122,-67.5 122,-86.5 216,-86.5 216,-67.5 122,-67.5"/>
<text text-anchor="middle" x="169" y="-74.5" font-family="Helvetica,sans-Serif" font-size="10.00">SecrBitBlockData</text>
</a>
</g>
</g>
<!-- Node3&#45;&gt;Node1 -->
<g id="edge2" class="edge">
<title>Node3&#45;&gt;Node1</title>
<path fill="none" stroke="#9a32cd" stroke-dasharray="5,2" d="M154.15,-59.63C142.61,-46.92 127.06,-29.8 117.83,-19.63"/>
<polygon fill="#9a32cd" stroke="#9a32cd" points="151.73,-62.18 161.04,-67.23 156.91,-57.48 151.73,-62.18"/>
<text text-anchor="middle" x="158.5" y="-41" font-family="Helvetica,sans-Serif" font-size="10.00"> blocks</text>
</g>
</g>
</svg>
