<?xml version="1.0" encoding="UTF-8" standalone="no"?>
<!DOCTYPE svg PUBLIC "-//W3C//DTD SVG 1.1//EN"
 "http://www.w3.org/Graphics/SVG/1.1/DTD/svg11.dtd">
<!-- Generated by graphviz version 2.49.3 (20211027.1534)
 -->
<!-- Title: GS_TRIANGLE_G3_P Pages: 1 -->
<svg width="269pt" height="184pt"
 viewBox="0.00 0.00 268.50 184.00" xmlns="http://www.w3.org/2000/svg" xmlns:xlink="http://www.w3.org/1999/xlink">
<g id="graph0" class="graph" transform="scale(1 1) rotate(0) translate(4 180)">
<title>GS_TRIANGLE_G3_P</title>
<polygon fill="white" stroke="transparent" points="-4,4 -4,-180 264.5,-180 264.5,4 -4,4"/>
<!-- Node1 -->
<g id="node1" class="node">
<title>Node1</title>
<g id="a_node1"><a xlink:title=" ">
<polygon fill="#bfbfbf" stroke="black" points="74.5,-0.5 74.5,-19.5 190.5,-19.5 190.5,-0.5 74.5,-0.5"/>
<text text-anchor="middle" x="132.5" y="-7.5" font-family="Helvetica,sans-Serif" font-size="10.00">GS_TRIANGLE_G3_P</text>
</a>
</g>
</g>
<!-- Node2 -->
<g id="node2" class="node">
<title>Node2</title>
<g id="a_node2"><a xlink:href="libgs_8h.html#struct_g_s___r___p_r_i_m" target="_top" xlink:title=" ">
<polygon fill="white" stroke="black" points="0,-89.5 0,-108.5 73,-108.5 73,-89.5 0,-89.5"/>
<text text-anchor="middle" x="36.5" y="-96.5" font-family="Helvetica,sans-Serif" font-size="10.00">GS_R_PRIM</text>
</a>
</g>
</g>
<!-- Node2&#45;&gt;Node1 -->
<g id="edge1" class="edge">
<title>Node2&#45;&gt;Node1</title>
<path fill="none" stroke="#9a32cd" stroke-dasharray="5,2" d="M53.62,-82.48C73.86,-64.14 106.84,-34.26 122.98,-19.62"/>
<polygon fill="#9a32cd" stroke="#9a32cd" points="51.12,-80.03 46.06,-89.34 55.82,-85.22 51.12,-80.03"/>
<text text-anchor="middle" x="112.5" y="-52" font-family="Helvetica,sans-Serif" font-size="10.00"> prim</text>
</g>
<!-- Node3 -->
<g id="node3" class="node">
<title>Node3</title>
<g id="a_node3"><a xlink:href="libgs_8h.html#struct_g_s___p_r_i_m" target="_top" xlink:title=" ">
<polygon fill="white" stroke="black" points="6,-156.5 6,-175.5 67,-175.5 67,-156.5 6,-156.5"/>
<text text-anchor="middle" x="36.5" y="-163.5" font-family="Helvetica,sans-Serif" font-size="10.00">GS_PRIM</text>
</a>
</g>
</g>
<!-- Node3&#45;&gt;Node2 -->
<g id="edge2" class="edge">
<title>Node3&#45;&gt;Node2</title>
<path fill="none" stroke="#9a32cd" stroke-dasharray="5,2" d="M36.5,-146.04C36.5,-133.67 36.5,-118.12 36.5,-108.63"/>
<polygon fill="#9a32cd" stroke="#9a32cd" points="33,-146.23 36.5,-156.23 40,-146.23 33,-146.23"/>
<text text-anchor="middle" x="47.5" y="-130" font-family="Helvetica,sans-Serif" font-size="10.00"> data</text>
</g>
<!-- Node4 -->
<g id="node4" class="node">
<title>Node4</title>
<g id="a_node4"><a xlink:href="libgs_8h.html#struct_g_s___r___r_g_b_a_q" target="_top" xlink:title=" ">
<polygon fill="white" stroke="black" points="91,-89.5 91,-108.5 174,-108.5 174,-89.5 91,-89.5"/>
<text text-anchor="middle" x="132.5" y="-96.5" font-family="Helvetica,sans-Serif" font-size="10.00">GS_R_RGBAQ</text>
</a>
</g>
</g>
<!-- Node4&#45;&gt;Node1 -->
<g id="edge3" class="edge">
<title>Node4&#45;&gt;Node1</title>
<path fill="none" stroke="#9a32cd" stroke-dasharray="5,2" d="M132.5,-79.19C132.5,-60.74 132.5,-33.41 132.5,-19.62"/>
<polygon fill="#9a32cd" stroke="#9a32cd" points="129,-79.34 132.5,-89.34 136,-79.34 129,-79.34"/>
<text text-anchor="middle" x="148.5" y="-63" font-family="Helvetica,sans-Serif" font-size="10.00"> rgbaq0</text>
<text text-anchor="middle" x="148.5" y="-52" font-family="Helvetica,sans-Serif" font-size="10.00">rgbaq1</text>
<text text-anchor="middle" x="148.5" y="-41" font-family="Helvetica,sans-Serif" font-size="10.00">rgbaq2</text>
</g>
<!-- Node5 -->
<g id="node5" class="node">
<title>Node5</title>
<g id="a_node5"><a xlink:href="libgs_8h.html#struct_g_s___r_g_b_a_q" target="_top" xlink:title=" ">
<polygon fill="white" stroke="black" points="97,-156.5 97,-175.5 168,-175.5 168,-156.5 97,-156.5"/>
<text text-anchor="middle" x="132.5" y="-163.5" font-family="Helvetica,sans-Serif" font-size="10.00">GS_RGBAQ</text>
</a>
</g>
</g>
<!-- Node5&#45;&gt;Node4 -->
<g id="edge4" class="edge">
<title>Node5&#45;&gt;Node4</title>
<path fill="none" stroke="#9a32cd" stroke-dasharray="5,2" d="M132.5,-146.04C132.5,-133.67 132.5,-118.12 132.5,-108.63"/>
<polygon fill="#9a32cd" stroke="#9a32cd" points="129,-146.23 132.5,-156.23 136,-146.23 129,-146.23"/>
<text text-anchor="middle" x="143.5" y="-130" font-family="Helvetica,sans-Serif" font-size="10.00"> data</text>
</g>
<!-- Node6 -->
<g id="node6" class="node">
<title>Node6</title>
<g id="a_node6"><a xlink:href="libgs_8h.html#struct_g_s___r___x_y_z" target="_top" xlink:title=" ">
<polygon fill="white" stroke="black" points="192.5,-89.5 192.5,-108.5 260.5,-108.5 260.5,-89.5 192.5,-89.5"/>
<text text-anchor="middle" x="226.5" y="-96.5" font-family="Helvetica,sans-Serif" font-size="10.00">GS_R_XYZ</text>
</a>
</g>
</g>
<!-- Node6&#45;&gt;Node1 -->
<g id="edge5" class="edge">
<title>Node6&#45;&gt;Node1</title>
<path fill="none" stroke="#9a32cd" stroke-dasharray="5,2" d="M212.04,-81.68C200.68,-69.21 184.21,-51.86 168.5,-38 161,-31.38 152,-24.63 144.88,-19.54"/>
<polygon fill="#9a32cd" stroke="#9a32cd" points="209.72,-84.34 219.01,-89.44 214.93,-79.66 209.72,-84.34"/>
<text text-anchor="middle" x="212.5" y="-63" font-family="Helvetica,sans-Serif" font-size="10.00"> xyz0</text>
<text text-anchor="middle" x="212.5" y="-52" font-family="Helvetica,sans-Serif" font-size="10.00">xyz1</text>
<text text-anchor="middle" x="212.5" y="-41" font-family="Helvetica,sans-Serif" font-size="10.00">xyz2</text>
</g>
<!-- Node7 -->
<g id="node7" class="node">
<title>Node7</title>
<g id="a_node7"><a xlink:href="libgs_8h.html#struct_g_s___x_y_z" target="_top" xlink:title=" ">
<polygon fill="white" stroke="black" points="198.5,-156.5 198.5,-175.5 254.5,-175.5 254.5,-156.5 198.5,-156.5"/>
<text text-anchor="middle" x="226.5" y="-163.5" font-family="Helvetica,sans-Serif" font-size="10.00">GS_XYZ</text>
</a>
</g>
</g>
<!-- Node7&#45;&gt;Node6 -->
<g id="edge6" class="edge">
<title>Node7&#45;&gt;Node6</title>
<path fill="none" stroke="#9a32cd" stroke-dasharray="5,2" d="M226.5,-146.04C226.5,-133.67 226.5,-118.12 226.5,-108.63"/>
<polygon fill="#9a32cd" stroke="#9a32cd" points="223,-146.23 226.5,-156.23 230,-146.23 223,-146.23"/>
<text text-anchor="middle" x="237.5" y="-130" font-family="Helvetica,sans-Serif" font-size="10.00"> data</text>
</g>
</g>
</svg>
