<?xml version="1.0" encoding="UTF-8" standalone="no"?>
<!DOCTYPE svg PUBLIC "-//W3C//DTD SVG 1.1//EN"
 "http://www.w3.org/Graphics/SVG/1.1/DTD/svg11.dtd">
<!-- Generated by graphviz version 2.49.3 (20211027.1534)
 -->
<!-- Title: _fat_direntry Pages: 1 -->
<svg width="202pt" height="95pt"
 viewBox="0.00 0.00 201.50 95.00" xmlns="http://www.w3.org/2000/svg" xmlns:xlink="http://www.w3.org/1999/xlink">
<g id="graph0" class="graph" transform="scale(1 1) rotate(0) translate(4 91)">
<title>_fat_direntry</title>
<polygon fill="white" stroke="transparent" points="-4,4 -4,-91 197.5,-91 197.5,4 -4,4"/>
<!-- Node1 -->
<g id="node1" class="node">
<title>Node1</title>
<g id="a_node1"><a xlink:title=" ">
<polygon fill="#bfbfbf" stroke="black" points="62.5,-0.5 62.5,-19.5 132.5,-19.5 132.5,-0.5 62.5,-0.5"/>
<text text-anchor="middle" x="97.5" y="-7.5" font-family="Helvetica,sans-Serif" font-size="10.00">_fat_direntry</text>
</a>
</g>
</g>
<!-- Node2 -->
<g id="node2" class="node">
<title>Node2</title>
<g id="a_node2"><a xlink:href="struct__fat__direntry__sfn.html" target="_top" xlink:title=" ">
<polygon fill="white" stroke="black" points="0,-67.5 0,-86.5 89,-86.5 89,-67.5 0,-67.5"/>
<text text-anchor="middle" x="44.5" y="-74.5" font-family="Helvetica,sans-Serif" font-size="10.00">_fat_direntry_sfn</text>
</a>
</g>
</g>
<!-- Node2&#45;&gt;Node1 -->
<g id="edge1" class="edge">
<title>Node2&#45;&gt;Node1</title>
<path fill="none" stroke="#9a32cd" stroke-dasharray="5,2" d="M58.14,-59.27C68.47,-46.6 82.25,-29.7 90.47,-19.63"/>
<polygon fill="#9a32cd" stroke="#9a32cd" points="55.25,-57.27 51.65,-67.23 60.68,-61.7 55.25,-57.27"/>
<text text-anchor="middle" x="82.5" y="-41" font-family="Helvetica,sans-Serif" font-size="10.00"> sfn</text>
</g>
<!-- Node3 -->
<g id="node3" class="node">
<title>Node3</title>
<g id="a_node3"><a xlink:href="struct__fat__direntry__lfn.html" target="_top" xlink:title=" ">
<polygon fill="white" stroke="black" points="107.5,-67.5 107.5,-86.5 193.5,-86.5 193.5,-67.5 107.5,-67.5"/>
<text text-anchor="middle" x="150.5" y="-74.5" font-family="Helvetica,sans-Serif" font-size="10.00">_fat_direntry_lfn</text>
</a>
</g>
</g>
<!-- Node3&#45;&gt;Node1 -->
<g id="edge2" class="edge">
<title>Node3&#45;&gt;Node1</title>
<path fill="none" stroke="#9a32cd" stroke-dasharray="5,2" d="M136.86,-59.27C126.53,-46.6 112.75,-29.7 104.53,-19.63"/>
<polygon fill="#9a32cd" stroke="#9a32cd" points="134.32,-61.7 143.35,-67.23 139.75,-57.27 134.32,-61.7"/>
<text text-anchor="middle" x="133" y="-41" font-family="Helvetica,sans-Serif" font-size="10.00"> lfn</text>
</g>
</g>
</svg>
