<?xml version="1.0" encoding="UTF-8" standalone="no"?>
<!DOCTYPE svg PUBLIC "-//W3C//DTD SVG 1.1//EN"
 "http://www.w3.org/Graphics/SVG/1.1/DTD/svg11.dtd">
<!-- Generated by graphviz version 2.49.3 (20211027.1534)
 -->
<!-- Title: siorCommsData Pages: 1 -->
<svg width="261pt" height="95pt"
 viewBox="0.00 0.00 260.50 95.00" xmlns="http://www.w3.org/2000/svg" xmlns:xlink="http://www.w3.org/1999/xlink">
<g id="graph0" class="graph" transform="scale(1 1) rotate(0) translate(4 91)">
<title>siorCommsData</title>
<polygon fill="white" stroke="transparent" points="-4,4 -4,-91 256.5,-91 256.5,4 -4,4"/>
<!-- Node1 -->
<g id="node1" class="node">
<title>Node1</title>
<g id="a_node1"><a xlink:title=" ">
<polygon fill="#bfbfbf" stroke="black" points="79,-0.5 79,-19.5 165,-19.5 165,-0.5 79,-0.5"/>
<text text-anchor="middle" x="122" y="-7.5" font-family="Helvetica,sans-Serif" font-size="10.00">siorCommsData</text>
</a>
</g>
</g>
<!-- Node2 -->
<g id="node2" class="node">
<title>Node2</title>
<g id="a_node2"><a xlink:href="sior-common_8h.html#structsior_init_args" target="_top" xlink:title=" ">
<polygon fill="white" stroke="black" points="0,-67.5 0,-86.5 66,-86.5 66,-67.5 0,-67.5"/>
<text text-anchor="middle" x="33" y="-74.5" font-family="Helvetica,sans-Serif" font-size="10.00">siorInitArgs</text>
</a>
</g>
</g>
<!-- Node2&#45;&gt;Node1 -->
<g id="edge1" class="edge">
<title>Node2&#45;&gt;Node1</title>
<path fill="none" stroke="#9a32cd" stroke-dasharray="5,2" d="M53.45,-61.07C71.01,-48.24 95.73,-30.19 110.19,-19.63"/>
<polygon fill="#9a32cd" stroke="#9a32cd" points="51.01,-58.51 45,-67.23 55.14,-64.16 51.01,-58.51"/>
<text text-anchor="middle" x="91" y="-41" font-family="Helvetica,sans-Serif" font-size="10.00"> init</text>
</g>
<!-- Node3 -->
<g id="node3" class="node">
<title>Node3</title>
<g id="a_node3"><a xlink:href="sior-common_8h.html#structsior_read_args" target="_top" xlink:title=" ">
<polygon fill="white" stroke="black" points="84.5,-67.5 84.5,-86.5 159.5,-86.5 159.5,-67.5 84.5,-67.5"/>
<text text-anchor="middle" x="122" y="-74.5" font-family="Helvetica,sans-Serif" font-size="10.00">siorReadArgs</text>
</a>
</g>
</g>
<!-- Node3&#45;&gt;Node1 -->
<g id="edge2" class="edge">
<title>Node3&#45;&gt;Node1</title>
<path fill="none" stroke="#9a32cd" stroke-dasharray="5,2" d="M122,-57.04C122,-44.67 122,-29.12 122,-19.63"/>
<polygon fill="#9a32cd" stroke="#9a32cd" points="118.5,-57.23 122,-67.23 125.5,-57.23 118.5,-57.23"/>
<text text-anchor="middle" x="133" y="-41" font-family="Helvetica,sans-Serif" font-size="10.00"> read</text>
</g>
<!-- Node4 -->
<g id="node4" class="node">
<title>Node4</title>
<g id="a_node4"><a xlink:href="sior-common_8h.html#structsior_write_args" target="_top" xlink:title=" ">
<polygon fill="white" stroke="black" points="177.5,-67.5 177.5,-86.5 252.5,-86.5 252.5,-67.5 177.5,-67.5"/>
<text text-anchor="middle" x="215" y="-74.5" font-family="Helvetica,sans-Serif" font-size="10.00">siorWriteArgs</text>
</a>
</g>
</g>
<!-- Node4&#45;&gt;Node1 -->
<g id="edge3" class="edge">
<title>Node4&#45;&gt;Node1</title>
<path fill="none" stroke="#9a32cd" stroke-dasharray="5,2" d="M194.14,-61.42C175.75,-48.57 149.59,-30.28 134.34,-19.63"/>
<polygon fill="#9a32cd" stroke="#9a32cd" points="192.26,-64.37 202.46,-67.23 196.27,-58.64 192.26,-64.37"/>
<text text-anchor="middle" x="186" y="-41" font-family="Helvetica,sans-Serif" font-size="10.00"> write</text>
</g>
</g>
</svg>
