<?xml version="1.0" encoding="UTF-8" standalone="no"?>
<!DOCTYPE svg PUBLIC "-//W3C//DTD SVG 1.1//EN"
 "http://www.w3.org/Graphics/SVG/1.1/DTD/svg11.dtd">
<!-- Generated by graphviz version 2.49.3 (20211027.1534)
 -->
<!-- Title: nCmdSendParams_t Pages: 1 -->
<svg width="224pt" height="95pt"
 viewBox="0.00 0.00 223.50 95.00" xmlns="http://www.w3.org/2000/svg" xmlns:xlink="http://www.w3.org/1999/xlink">
<g id="graph0" class="graph" transform="scale(1 1) rotate(0) translate(4 91)">
<title>nCmdSendParams_t</title>
<polygon fill="white" stroke="transparent" points="-4,4 -4,-91 219.5,-91 219.5,4 -4,4"/>
<!-- Node1 -->
<g id="node1" class="node">
<title>Node1</title>
<g id="a_node1"><a xlink:title=" ">
<polygon fill="#bfbfbf" stroke="black" points="50.5,-0.5 50.5,-19.5 157.5,-19.5 157.5,-0.5 50.5,-0.5"/>
<text text-anchor="middle" x="104" y="-7.5" font-family="Helvetica,sans-Serif" font-size="10.00">nCmdSendParams_t</text>
</a>
</g>
</g>
<!-- Node2 -->
<g id="node2" class="node">
<title>Node2</title>
<g id="a_node2"><a xlink:href="libcdvd-rpc_8h.html#structcdvd_ncmd_param" target="_top" xlink:title=" ">
<polygon fill="white" stroke="black" points="0,-67.5 0,-86.5 92,-86.5 92,-67.5 0,-67.5"/>
<text text-anchor="middle" x="46" y="-74.5" font-family="Helvetica,sans-Serif" font-size="10.00">cdvdNcmdParam</text>
</a>
</g>
</g>
<!-- Node2&#45;&gt;Node1 -->
<g id="edge1" class="edge">
<title>Node2&#45;&gt;Node1</title>
<path fill="none" stroke="#9a32cd" stroke-dasharray="5,2" d="M60.6,-59.63C71.95,-46.92 87.23,-29.8 96.3,-19.63"/>
<polygon fill="#9a32cd" stroke="#9a32cd" points="57.87,-57.44 53.82,-67.23 63.09,-62.1 57.87,-57.44"/>
<text text-anchor="middle" x="92.5" y="-41" font-family="Helvetica,sans-Serif" font-size="10.00"> ncmd</text>
</g>
<!-- Node3 -->
<g id="node3" class="node">
<title>Node3</title>
<g id="a_node3"><a xlink:href="libcdvd-rpc_8h.html#structcdvd_read_key_param" target="_top" xlink:title=" ">
<polygon fill="white" stroke="black" points="110.5,-67.5 110.5,-86.5 215.5,-86.5 215.5,-67.5 110.5,-67.5"/>
<text text-anchor="middle" x="163" y="-74.5" font-family="Helvetica,sans-Serif" font-size="10.00">cdvdReadKeyParam</text>
</a>
</g>
</g>
<!-- Node3&#45;&gt;Node1 -->
<g id="edge2" class="edge">
<title>Node3&#45;&gt;Node1</title>
<path fill="none" stroke="#9a32cd" stroke-dasharray="5,2" d="M148.15,-59.63C136.61,-46.92 121.06,-29.8 111.83,-19.63"/>
<polygon fill="#9a32cd" stroke="#9a32cd" points="145.73,-62.18 155.04,-67.23 150.91,-57.48 145.73,-62.18"/>
<text text-anchor="middle" x="156" y="-41" font-family="Helvetica,sans-Serif" font-size="10.00"> readKey</text>
</g>
</g>
</svg>
