<?xml version="1.0" encoding="UTF-8" standalone="no"?>
<!DOCTYPE svg PUBLIC "-//W3C//DTD SVG 1.1//EN"
 "http://www.w3.org/Graphics/SVG/1.1/DTD/svg11.dtd">
<!-- Generated by graphviz version 2.49.3 (20211027.1534)
 -->
<!-- Title: sCmdSendParams_t Pages: 1 -->
<svg width="462pt" height="95pt"
 viewBox="0.00 0.00 462.00 95.00" xmlns="http://www.w3.org/2000/svg" xmlns:xlink="http://www.w3.org/1999/xlink">
<g id="graph0" class="graph" transform="scale(1 1) rotate(0) translate(4 91)">
<title>sCmdSendParams_t</title>
<polygon fill="white" stroke="transparent" points="-4,4 -4,-91 458,-91 458,4 -4,4"/>
<!-- Node1 -->
<g id="node1" class="node">
<title>Node1</title>
<g id="a_node1"><a xlink:title=" ">
<polygon fill="#bfbfbf" stroke="black" points="144.5,-0.5 144.5,-19.5 251.5,-19.5 251.5,-0.5 144.5,-0.5"/>
<text text-anchor="middle" x="198" y="-7.5" font-family="Helvetica,sans-Serif" font-size="10.00">sCmdSendParams_t</text>
</a>
</g>
</g>
<!-- Node2 -->
<g id="node2" class="node">
<title>Node2</title>
<g id="a_node2"><a xlink:href="libcdvd-common_8h.html#structsce_cd_c_l_o_c_k" target="_top" xlink:title=" ">
<polygon fill="white" stroke="black" points="0,-67.5 0,-86.5 78,-86.5 78,-67.5 0,-67.5"/>
<text text-anchor="middle" x="39" y="-74.5" font-family="Helvetica,sans-Serif" font-size="10.00">sceCdCLOCK</text>
</a>
</g>
</g>
<!-- Node2&#45;&gt;Node1 -->
<g id="edge1" class="edge">
<title>Node2&#45;&gt;Node1</title>
<path fill="none" stroke="#9a32cd" stroke-dasharray="5,2" d="M69.73,-63.44C101.31,-50.53 149.62,-30.78 177.05,-19.56"/>
<polygon fill="#9a32cd" stroke="#9a32cd" points="68.05,-60.34 60.11,-67.37 70.69,-66.82 68.05,-60.34"/>
<text text-anchor="middle" x="142" y="-41" font-family="Helvetica,sans-Serif" font-size="10.00"> clock</text>
</g>
<!-- Node3 -->
<g id="node3" class="node">
<title>Node3</title>
<g id="a_node3"><a xlink:href="libcdvd-rpc_8h.html#structcdvd_scmd_param" target="_top" xlink:title=" ">
<polygon fill="white" stroke="black" points="96,-67.5 96,-86.5 188,-86.5 188,-67.5 96,-67.5"/>
<text text-anchor="middle" x="142" y="-74.5" font-family="Helvetica,sans-Serif" font-size="10.00">cdvdScmdParam</text>
</a>
</g>
</g>
<!-- Node3&#45;&gt;Node1 -->
<g id="edge2" class="edge">
<title>Node3&#45;&gt;Node1</title>
<path fill="none" stroke="#9a32cd" stroke-dasharray="5,2" d="M156.1,-59.63C167.05,-46.92 181.8,-29.8 190.57,-19.63"/>
<polygon fill="#9a32cd" stroke="#9a32cd" points="153.43,-57.37 149.55,-67.23 158.73,-61.94 153.43,-57.37"/>
<text text-anchor="middle" x="187.5" y="-41" font-family="Helvetica,sans-Serif" font-size="10.00"> scmd</text>
</g>
<!-- Node4 -->
<g id="node4" class="node">
<title>Node4</title>
<g id="a_node4"><a xlink:href="libcdvd-rpc_8h.html#structcdvd_dec_set_param" target="_top" xlink:title=" ">
<polygon fill="white" stroke="black" points="206,-67.5 206,-86.5 304,-86.5 304,-67.5 206,-67.5"/>
<text text-anchor="middle" x="255" y="-74.5" font-family="Helvetica,sans-Serif" font-size="10.00">cdvdDecSetParam</text>
</a>
</g>
</g>
<!-- Node4&#45;&gt;Node1 -->
<g id="edge3" class="edge">
<title>Node4&#45;&gt;Node1</title>
<path fill="none" stroke="#9a32cd" stroke-dasharray="5,2" d="M240.65,-59.63C229.5,-46.92 214.48,-29.8 205.57,-19.63"/>
<polygon fill="#9a32cd" stroke="#9a32cd" points="238.09,-62.02 247.31,-67.23 243.35,-57.41 238.09,-62.02"/>
<text text-anchor="middle" x="247" y="-41" font-family="Helvetica,sans-Serif" font-size="10.00"> decSet</text>
</g>
<!-- Node5 -->
<g id="node5" class="node">
<title>Node5</title>
<g id="a_node5"><a xlink:href="libcdvd-rpc_8h.html#structcdvd_read_write_nvm_param" target="_top" xlink:title=" ">
<polygon fill="white" stroke="black" points="322,-67.5 322,-86.5 454,-86.5 454,-67.5 322,-67.5"/>
<text text-anchor="middle" x="388" y="-74.5" font-family="Helvetica,sans-Serif" font-size="10.00">cdvdReadWriteNvmParam</text>
</a>
</g>
</g>
<!-- Node5&#45;&gt;Node1 -->
<g id="edge4" class="edge">
<title>Node5&#45;&gt;Node1</title>
<path fill="none" stroke="#9a32cd" stroke-dasharray="5,2" d="M353.22,-64.1C315.55,-51.21 256.38,-30.97 223.03,-19.56"/>
<polygon fill="#9a32cd" stroke="#9a32cd" points="352.17,-67.44 362.77,-67.37 354.44,-60.82 352.17,-67.44"/>
<text text-anchor="middle" x="315" y="-41" font-family="Helvetica,sans-Serif" font-size="10.00"> nvm</text>
</g>
</g>
</svg>
